<svg version="1.1" xmlns="http://www.w3.org/2000/svg" xmlns:xlink="http://www.w3.org/1999/xlink" width="1133.8500000000001" height="1133.8500000000001"><defs/><g transform="scale(3.7795,3.7795)"><g transform="translate(10,10)"><path fill="none" stroke="#000000" paint-order="fill stroke markers" d=" M 0 0 L 280 0 L 280 280 L 0 280 L 0 0" stroke-miterlimit="10" stroke-width="0.1"/><path fill="none" stroke="#000000" paint-order="fill stroke markers" d=" M 18.661231090716285 0 C 17.17501236765822 17.288666943337216 24.16257357398857 3.0184005924223394 24.453284497927868 10.545853514639958 C 24.743995421867165 18.073306436857578 16.676650783762277 4.384461933821297 19.49183373054285 21.5070083491932 M 19.49183373054285 21.5070083491932 C 22.58645823961453 36.96547169363935 14.830940975628833 24.7899287909975 15.33163119945107 31.61559278217047 C 15.832321423273308 38.44125677334344 21.728132141633548 25.264333423057113 20.922377227177815 41.00890546683026 M 20.922377227177815 41.00890546683026 C 18.735979965725765 57.08268872786954 25.91953978300166 44.08134365300091 25.84321852289366 51.123163987219094 C 25.766897262785662 58.16498432143728 18.86681641162519 45.010996726352644 20.7043164840121 61.12839213602507 M 20.7043164840121 61.12839213602507 C 17.392021843961817 76.85993211375542 25.42372126002325 64.52322235986384 24.843969567725534 71.47824006165808 C 24.264217875427818 78.43325776345233 18.385881887900762 64.9370446249653 19.047883077447192 80.99987128400862 M 19.047883077447192 80.99987128400862 C 17.76057120667886 96.8755817144566 24.11093402332923 83.74597058109747 24.411245625253148 90.65405494417797 C 24.711557227177067 97.56213930725848 17.245751317666432 85.03315137774716 19.905916225801246 100.73725517852434 M 19.905916225801246 100.73725517852434 C 17.671413158365905 118.25593889746729 25.37397654605721 104.0367830443677 25.354735117258915 111.70361235000502 C 25.33549368846062 119.37044165564234 17.70439846487727 105.11280294494615 19.850940714948972 122.64248176605956 M 19.850940714948972 122.64248176605956 C 18.06873908671265 138.98049465695073 24.99457704857843 125.61984265022184 25.106598579770772 132.75372059858768 C 25.218620110963112 139.8875985469535 17.87670217609721 126.75098960260928 20.17100223264137 143.02499018996195 M 20.17100223264137 143.02499018996195 C 19.262265457852152 157.61773132782656 24.865016618850472 145.45835759715706 25.259323761749364 151.79339345211048 C 25.653630904648256 158.1284293070639 18.586310355739766 146.75766986219216 21.29759406949535 161.12509263268598 M 21.29759406949535 161.12509263268598 C 22.600502911541714 178.14498594889756 15.858362187970604 164.04357765742455 15.503159433671492 171.44538063897974 C 15.14795667937238 178.84718362053493 23.209421918911623 165.45618083766013 20.282729057212173 182.27310115141506 M 20.282729057212173 182.27310115141506 C 22.185035552429838 199.5480360024169 14.846741555797225 185.42712377805654 14.736007861760122 192.9710660636152 C 14.625274167723019 200.51500834917388 22.37486474220773 186.61556351288777 19.96634707424902 203.82722196729696 M 19.96634707424902 203.82722196729696 C 21.075630413903003 217.42394142216907 15.631096665740747 206.18135160766383 15.376810749098581 212.09813062959012 C 15.122524832456415 218.0149096515164 21.51154912814672 207.28089167029546 19.23981588384283 220.73230488708634 M 19.23981588384283 220.73230488708634 C 17.74501434200373 235.31050399977664 23.843364595771593 223.3573991135494 23.98443003766269 229.71772804511502 C 24.125495479553788 236.07805697668064 17.503187870190423 224.40708297423558 19.642860003531677 238.9046732629881 M 19.642860003531677 238.9046732629881 C 21.689672214482176 254.47531600532545 14.791719958051315 241.85740508741333 14.835004455104134 248.67497184931753 C 14.878288952156952 255.49253861122173 21.615470219534487 242.78805869920396 19.766529995111156 258.38343543985724 M 19.766529995111156 258.38343543985724 C 18.25477345065425 275.75792457691614 25.292527368563857 261.422826401517 25.576858579870205 268.98862399756695 C 25.861189791176553 276.5544215936169 17.76734851698622 262.78798584083046 20.57890488455787 280" stroke-miterlimit="10" stroke-width="0.1"/><path fill="none" stroke="#000000" paint-order="fill stroke markers" d=" M 38.235987793635324 0 C 40.35611302114389 16.887090418164195 32.96012234241689 3.1693854055999093 32.96410218713481 10.557984944136486 C 32.96808203185274 17.94658448267306 40.34929043019888 4.220919780672923 38.247358778543685 21.11028439581879 M 38.247358778543685 21.11028439581879 C 37.35386964170994 37.009226282582894 43.37565268262842 23.729514616837015 43.84686192527965 30.626400536964905 C 44.318071167930874 37.523286457092794 36.54608236859356 25.185993276649363 39.59367090040433 40.81567273904134 M 39.59367090040433 40.81567273904134 C 36.79557274415059 56.79237934699133 44.46932104788917 44.07625463342565 44.12427065946948 51.10919507295623 C 43.779220271049795 58.14213551248682 37.387087695727196 44.73591002208176 38.607812647776655 60.90978828055729 M 38.607812647776655 60.90978828055729 C 37.91313748409301 76.58603064137958 43.69150182781796 63.430708564357445 44.2363624998139 70.22095701321771 C 44.78122317180984 77.01120546207798 36.979090617814265 64.9456047290477 40.16455742490791 80.31049813444376 M 40.16455742490791 80.31049813444376 C 42.96265476920415 94.22184411220566 35.97206490566073 83.26921936046081 36.42832667055501 89.41246594634342 C 36.88458843544929 95.55571253222602 42.1804917436711 83.6905642506926 41.46816246746299 97.86263123696551 M 41.46816246746299 97.86263123696551 C 43.819420392631955 114.6523343258325 36.25829068097783 101.09423469443273 36.36707931318855 108.45332837483838 C 36.475867945399266 115.81242205524403 43.63292559455644 102.03674515942282 41.778987130922175 118.88861318098165 M 41.778987130922175 118.88861318098165 C 43.16178439475194 135.71571740221808 36.41519995014986 121.80534596981374 36.10479162111765 129.12840302547565 C 35.794383292085435 136.45146008113755 43.69391295880717 123.16190530679765 40.892106190830134 139.81163334001567 M 40.892106190830134 139.81163334001567 C 43.427447386334364 156.33518860924423 35.797172391889774 143.06522735172356 35.999589469302364 150.31958491668763 C 36.202006546714955 157.5739424816517 43.08044668219849 143.89914706930583 41.470440697723255 160.538369239913 M 41.470440697723255 160.538369239913 C 41.738739571824965 178.35749199895312 35.61563608210178 163.23144757843713 34.771719756228045 170.92182424478295 C 33.92780343035431 178.61220091112878 43.185453273322786 165.17398914236026 39.05925119522688 182.51087400090108 M 39.05925119522688 182.51087400090108 C 37.006217869243265 196.26013314067043 43.30702434766067 185.1994613599235 43.16298548399377 191.23276709153095 C 43.01894662032687 197.2660728231384 37.25314163552938 185.91732331505764 38.64771158475003 199.74889037692236 M 38.64771158475003 199.74889037692236 C 35.991315292909675 216.41291682960718 43.77141626106141 203.06305609346194 43.52441620587475 210.38444267340986 C 43.27741615068809 217.7058292533578 36.41474395894396 203.86196840683928 37.941997141359565 220.66713774820218 M 37.941997141359565 220.66713774820218 C 36.983562504733946 235.78604766304252 42.8027884355307 223.19384526940888 43.20401943362953 229.75821448238918 C 43.605250431728365 236.32258369536947 36.29573793656453 224.53284329793343 39.08837142164194 239.4224783567173 M 39.08837142164194 239.4224783567173 C 42.35995758315045 254.22787610135666 34.669356298943235 242.66848421897126 35.281441228420164 249.2223563484356 C 35.89352615789709 255.77622847789993 41.310669132618564 242.99266673656066 40.83718550586173 258.147827298044 M 40.83718550586173 258.147827298044 C 43.1164831637882 275.6178054111424 35.39178240307226 261.45505332450324 35.43294257270452 269.10331377018787 C 35.474102742336775 276.7515742158725 43.045922872990054 262.5065017899688 40.95478599052532 280" stroke-miterlimit="10" stroke-width="0.1"/><path fill="none" stroke="#000000" paint-order="fill stroke markers" d=" M 59.437440038131655 0 C 56.21188443503513 15.953144479395382 64.24282200855602 3.3985279695512522 63.71236737457419 10.44433550853446 C 63.18191274059237 17.490143047517666 57.12123523614683 3.8746172697098813 57.921855369612146 20.130878682809165 M 57.921855369612146 20.130878682809165 C 59.974491859180134 36.55101656920676 52.79057970950981 23.209693981985914 52.79063108036384 30.393510728641616 C 52.79068245121787 37.57732747529732 59.97440379485894 24.235902146368414 57.9220021434808 40.65606938753974 M 57.9220021434808 40.65606938753974 C 56.460813668244796 57.79111815452884 63.376190727719624 43.6437388568316 63.66941216430199 51.10367001281653 C 63.96263360088435 58.56360116880146 55.958148348389315 45.00266474426895 58.75977767657327 61.970158404639555 M 58.75977767657327 61.970158404639555 C 57.775892097347985 77.41261501743253 63.72386850999494 64.55257190886843 64.13155777040213 71.25768551941445 C 64.53924703080932 77.96279912996047 57.07699622236423 65.91813454221077 59.92460413487953 81.12762586334249 M 59.92460413487953 81.12762586334249 C 62.36243540372274 95.28119962000041 55.59933584696977 84.00258467824062 55.88736303742065 90.23077659558483 C 56.175390227871524 96.45896851292903 61.86867450580694 84.6042991902675 60.747538964739185 98.92245991289734 M 60.747538964739185 98.92245991289734 C 63.274869512602905 114.48025604596656 55.97087778541176 102.0322548366393 56.22184653732625 108.87016173884639 C 56.47281528924074 115.70806864105349 62.84463736646378 102.75812992789726 61.46459254163773 118.45933677634618 M 61.46459254163773 118.45933677634618 C 59.449492681077565 134.96414468015467 66.62936056096945 121.53811096231885 66.65003796970245 128.75637974414346 C 66.67071537843546 135.97464852596806 59.41404569467813 122.58996962559823 61.523670852303454 139.0829618672736 M 61.523670852303454 139.0829618672736 C 63.18413363969569 153.6832453859491 56.9370293265912 141.7660794573713 56.86613649169302 148.14484189242955 C 56.79524365679484 154.52360432748782 63.30566421380685 142.74822406870638 61.32111989545152 157.30799739601147 M 61.32111989545152 157.30799739601147 C 63.63117347198023 174.72571698693918 55.89749739963732 160.6177587499989 55.95472019309204 168.2451639202116 C 56.01194298654676 175.87256909042432 63.533077254629276 161.65016526657453 61.484613591036435 179.10058359661923 M 61.484613591036435 179.10058359661923 C 57.43640256311105 194.63961600912756 66.03278577724625 182.71069659691497 65.12565815665961 189.6224142299607 C 64.21853053607298 196.53413186300642 58.99147848411672 182.7909572096206 58.892820389360324 198.84834826246416 M 58.892820389360324 198.84834826246416 C 55.27982143044706 216.0081812103374 64.04071143966185 202.55139273356312 63.40833366224623 210.1378668704346 C 62.77595588483061 217.7243410073061 56.3638976203024 203.00279697570053 57.086026739601415 220.52398865352558 M 57.086026739601415 220.52398865352558 C 61.964212466435065 234.95566012164832 53.02543947560573 224.24678668543464 54.34972178657361 230.72617824160935 C 55.67400409754149 237.20556979778405 59.69401421906154 223.84813173963457 60.86969048522394 239.03653595688183 M 60.86969048522394 239.03653595688183 C 63.462431475914684 254.29325645316834 56.20217585047628 242.12396328018295 56.497533173589176 248.8356981626974 C 56.79289049670207 255.54743304521187 62.95610463629258 242.78742522600072 61.71356855126078 258.21292133549457 M 61.71356855126078 258.21292133549457 C 60.50226988856259 275.76351041756794 67.3417274430907 261.1786677589978 67.76496896973237 268.8041452915747 C 68.18821049637403 276.4296228241516 59.776712985748325 262.69126321886466 62.92283005595122 280" stroke-miterlimit="10" stroke-width="0.1"/><path fill="none" stroke="#000000" paint-order="fill stroke markers" d=" M 81.08779354900553 0 C 82.91327929187786 17.323050878700325 75.62466309770137 3.135645027990898 75.47824652423944 10.696177715739548 C 75.3318299507775 18.2567104034882 83.16427913209832 4.3621376997026395 80.66946048197143 21.601521964996145 M 80.66946048197143 21.601521964996145 C 81.02717291077998 37.54754084761725 75.44728912962262 24.050414220446672 74.74274885142978 30.938729946819297 C 74.03820857323694 37.827045673191925 82.23495624482484 25.738999602407027 78.65648825856331 41.282424040346505 M 78.65648825856331 41.282424040346505 C 80.9780226343605 57.468808191376425 73.641831601993 44.41601847902995 73.77030264805018 51.51362042586268 C 73.89877369410735 58.611222372695416 80.75778655540533 45.30149056823459 79.02354839015524 61.56128674558289 M 79.02354839015524 61.56128674558289 C 81.41446397809929 77.32051389688759 74.16032245680783 64.6553997160166 74.34168155577501 71.57273148208331 C 74.52304065474219 78.49006324815002 81.10356266558412 65.46223086934467 79.5417172443472 81.32509179148776 M 79.5417172443472 81.32509179148776 C 79.81266872052032 94.01838290894345 83.7798679835617 83.09064269730479 84.58007044885312 88.54393225303022 C 85.38027291414454 93.99722180875565 78.44089306573503 84.66988652769984 81.8280100023227 96.90591909356044 M 81.8280100023227 96.90591909356044 C 84.73503931385713 112.1543380984408 77.20917569239424 100.09609002808895 77.64036575710013 106.82117210081235 C 78.07155582180602 113.54625417353574 83.99585634578989 100.62562597377213 83.05998161576811 116.12043930134156 M 83.05998161576811 116.12043930134156 C 79.9430520193291 134.4297841993938 88.66059829487507 119.82740488372518 88.30380873245801 127.88234197192516 C 87.94701917004095 135.93727906012515 80.55469126918693 120.62132061962238 82.04058286600507 139.13454526762723 M 82.04058286600507 139.13454526762723 C 82.89271588760873 155.09212919121194 76.88684762520758 141.74866691745083 76.3946657924746 148.6685871549275 C 75.90248395974162 155.58850739240418 83.73645617229384 143.22940878410904 80.63434905819655 158.90574594613204 M 80.63434905819655 158.90574594613204 C 82.93696963751566 174.4918256277081 75.81549032511418 161.9453474758295 75.96813797642832 168.78333829293328 C 76.12078562774246 175.62132911003707 82.67528794954856 162.76955565553016 81.07048520480838 178.44286256642857 M 81.07048520480838 178.44286256642857 C 77.1997370506181 192.69450605276035 85.21876562775185 181.80611946543232 84.31876261059544 188.15371386784702 C 83.41875959343903 194.50130827026172 78.74259936574337 181.81291564862084 78.49904801293292 196.57884657332772 M 78.49904801293292 196.57884657332772 C 82.24742647124481 213.93050138356463 73.30749442730013 200.3547059202655 73.98786065802173 208.03110067858435 C 74.66822688874333 215.7074954369032 81.08108436143637 200.7709675121609 80.44295152928034 218.5114030256673 M 80.44295152928034 218.5114030256673 C 82.33234170407118 234.48302791269117 75.43617109219572 221.47066956697086 75.39005167357357 228.45249052771604 C 75.34393225495141 235.43431148846122 82.4114035645663 222.51419197998516 80.31118176178848 238.45946291351066 M 80.31118176178848 238.45946291351066 C 79.13955004619875 254.55094542876915 85.46251057378778 241.19883469474348 85.82427212404767 248.1936381013866 C 86.18603367430755 255.1884415080297 78.51938738861038 242.55985387452384 81.34478619110243 258.4446155039195 M 81.34478619110243 258.4446155039195 C 85.15124316184453 275.48255828564214 76.26548728979493 262.19383521618596 76.9877641427911 269.73821978981414 C 77.71004099578725 277.2826043634423 83.913054270994 262.5493275879939 83.40843434252001 280" stroke-miterlimit="10" stroke-width="0.1"/><path fill="none" stroke="#000000" paint-order="fill stroke markers" d=" M 99.4985826787256 0 C 100.96955783047234 16.80040421506133 94.15651457592215 2.9419970123944257 93.88552826047898 10.258300567053361 C 93.61454194503581 17.574604121712298 101.43410579980348 4.258169549931724 98.7243360631737 20.903724441882673 M 98.7243360631737 20.903724441882673 C 95.84348905116694 37.5619652041468 103.81332267509084 24.291285949569666 103.469324618656 31.622266040114578 C 103.12532656222116 38.953246130659494 96.43320000505524 24.994570763212668 97.74148447335986 41.849381843439566 M 97.74148447335986 41.849381843439566 C 100.10347457394715 57.667557315941316 92.8545326779259 44.942542676537926 93.02025742658263 51.88371003933953 C 93.18598217523936 58.82487740214114 99.81937500482131 45.76841326542428 98.21498375523625 61.6812885943013 M 98.21498375523625 61.6812885943013 C 102.48294012733939 75.490586107971 94.27107127817595 65.11127918476406 95.36599800311508 71.28971268761195 C 96.46092472805421 77.46814619045985 100.60592288458658 64.89898581737462 101.34334582649092 79.33395574529527 M 101.34334582649092 79.33395574529527 C 100.4478675923726 92.83901490547558 105.67952626833328 81.60396873076077 106.02097729149202 87.4697507354448 C 106.36242831465076 93.33553274012884 99.86252298124333 82.7833886117315 102.31892017837305 96.09333290153539 M 102.31892017837305 96.09333290153539 C 104.70821171333152 112.652789506909 97.19076560247416 99.30386529773011 97.32833583109 106.56582384115805 C 97.46590605970584 113.82778238458599 104.47237703570437 100.2037177181754 102.7119779744183 116.84178588275807 M 102.7119779744183 116.84178588275807 C 96.97224702150599 134.19237532770376 107.61213534385931 121.27616765529037 106.07389836502493 129.0593301598084 C 104.53566138619055 136.84249266432644 99.60922469950778 120.84981103424427 98.31701517774864 139.0793930385239 M 98.31701517774864 139.0793930385239 C 101.03857559422015 155.4767670204668 93.29103492151336 142.37614075825613 93.58046388650416 149.58617049598 C 93.86989285149497 156.7962002337039 100.54241165423593 143.1167160415116 99.14395507772235 159.67947800344928 M 99.14395507772235 159.67947800344928 C 98.11801885828766 176.3394519012367 104.50461730415005 162.4537453995543 104.95975106565903 169.68559225964768 C 105.41488482716802 176.91743911974106 97.33778955284367 163.94200014107662 100.44433725346232 180.34189760371606 M 100.44433725346232 180.34189760371606 C 100.97805799101438 195.61925640420074 95.46906237340576 182.7512807492849 94.87634583263286 189.36103565690033 C 94.28362929185997 195.97079056451577 101.99414348948221 184.2882479911457 98.7508614226826 199.22691162547443 M 98.7508614226826 199.22691162547443 C 102.83028077720795 215.52738673837507 93.95538863715379 202.95863515924134 94.83495908379314 210.2000393269653 C 95.71452953043249 217.44144349468928 101.32244572582623 203.11355102227688 101.26391984165215 219.91663781897145 M 101.26391984165215 219.91663781897145 C 99.39293788737041 236.3650952991004 106.43111226099208 222.9395064047912 106.51083697576996 230.12574096300037 C 106.59056169054784 237.31197552120955 99.25626694775117 224.0458360564561 101.49170474101753 240.44873655671196 M 101.49170474101753 240.44873655671196 C 103.96008540194403 255.57285627118029 96.84987462436727 243.47564919513303 97.09880138598731 250.1235674154154 C 97.34772814760736 256.7714856356978 103.53335381059537 244.17642503641045 102.20292405993195 259.44278861466165 M 102.20292405993195 259.44278861466165 C 104.982097938479 275.79812613043066 97.19926860234985 262.7524493037165 97.51577917610562 269.94747328858494 C 97.8322897498614 277.1424972734534 104.43950838346909 263.4637992992277 103.10723998494846 280" stroke-miterlimit="10" stroke-width="0.1"/><path fill="none" stroke="#000000" paint-order="fill stroke markers" d=" M 119.77365122691009 0 C 117.4041363255396 15.681824185651777 124.61440243350229 3.0757215406639604 124.43809423983164 9.958558146095443 C 124.26178604616099 16.841394751526927 117.70637894326072 3.8826757191978025 119.26991353070822 19.665247444089953 M 119.26991353070822 19.665247444089953 C 115.29268063174877 36.488319762251535 124.25318033532913 23.43955043409247 123.445768519063 30.90057105032143 C 122.63835670279686 38.361591666550396 116.6768151739193 23.697998705859032 116.96302262709067 40.98244920474413 M 116.96302262709067 40.98244920474413 C 116.86543565258295 56.698001403847556 122.14698102744298 43.311616371565634 122.95116560299138 50.08664738672984 C 123.75535017853979 56.86167840189404 115.48683352307141 45.08366252070893 119.26069284294324 60.33968067664184 M 119.26069284294324 60.33968067664184 C 117.22859618656045 76.19128607877724 124.20691742617824 63.32860882175749 124.1851006958514 70.26641327648258 C 124.16328396552457 77.20421773120768 117.26599629569216 64.29790701353423 119.19835932772371 80.16197911871353 M 119.19835932772371 80.16197911871353 C 120.61790443878398 94.28311231155668 114.73499494170748 82.69537889132592 114.58612258685729 88.85476561883851 C 114.43725023200709 95.01415234635111 120.87311418995577 83.72416363582079 118.77300974243741 97.76022691160667 M 118.77300974243741 97.76022691160667 C 121.36952723453042 115.01157763577676 113.44628475174859 101.14042626483153 113.63586570934874 108.71158982635596 C 113.82544666694888 116.28275338788039 121.04453130721589 102.03244010173488 119.31466962129495 119.39212280167648 M 119.31466962129495 119.39212280167648 C 120.17925963614137 134.84917644306526 114.32831503439006 121.93721041571327 113.86845092163374 128.6421883697263 C 113.40858680887742 135.34716632373937 120.9675981151522 123.35492852190004 118.00077215627688 138.54920267028518 M 118.00077215627688 138.54920267028518 C 116.77998683677835 155.2369168081872 123.34213205519471 141.39197449612038 123.71482452499006 148.6462628727281 C 124.08751699478542 155.90055124933582 116.1410854599863 142.8009938768597 119.06560778426362 159.27574088916438 M 119.06560778426362 159.27574088916438 C 121.76418791230016 177.92994676186402 113.28977832200677 162.8947320975249 113.44778636863099 171.075698172659 C 113.6057944152552 179.2566642477931 121.49331697523007 163.90543349020555 119.5170593460471 182.64992967526186 M 119.5170593460471 182.64992967526186 C 117.80139978219344 197.87576679825722 124.30254753509004 185.4427317258974 124.3833469526682 192.0939355400106 C 124.46414637024637 198.74513935412378 117.66288649491658 186.4737031169203 119.74791482484187 201.6533691441567 M 119.74791482484187 201.6533691441567 C 118.56765580805032 217.65190483720255 124.8672387747029 204.38201003561755 125.22027912017208 211.33723935814146 C 125.57331946564126 218.29246868066537 117.962443787246 205.7286545700187 120.75660152618241 221.52545292279646 M 120.75660152618241 221.52545292279646 C 118.5585233924211 237.25456259614666 125.63804946012542 224.55137941160714 125.53813709260864 231.44535393963744 C 125.43822472509186 238.33932846766774 118.7298017367356 225.4363205480947 120.47113761899159 241.22252300288304 M 120.47113761899159 241.22252300288304 C 122.18464281593228 255.59302955103647 115.96825159723217 243.88960260198587 115.93258040639836 250.17224031794876 C 115.89690921556455 256.45487803391165 122.24579342879024 244.82279346652862 120.36921993089499 259.17291647706276 M 120.36921993089499 259.17291647706276 C 123.68181948876104 275.680846894716 115.39305365120549 262.68132000724466 115.93113105364338 269.9707992402727 C 116.46920845608128 277.26027847330073 122.7594010845818 263.1845967809537 121.9065839378604 280" stroke-miterlimit="10" stroke-width="0.1"/><path fill="none" stroke="#000000" paint-order="fill stroke markers" d=" M 138.321817602412 0 C 136.50080312017568 16.12560657880446 143.3895238156897 2.9591549825649794 143.47338870066199 10.003624750170395 C 143.55725358563427 17.048094517775812 136.35703474593748 4.049372691480887 138.56143155947566 20.127056478872618 M 138.56143155947566 20.127056478872618 C 136.50637243264677 34.192017941619824 142.91333324784782 22.862455019225234 142.78542108736175 29.031864679237895 C 142.6575089268757 35.20127433925055 136.72565042205144 23.61588709588383 138.1959682438012 37.753941221765935 M 138.1959682438012 37.753941221765935 C 136.51060717037652 53.091455460715586 143.0228240274917 40.55304350405289 143.12268848565222 47.25072292632329 C 143.22255294381273 53.948402348593696 136.33941095638707 41.609719308252025 138.48129526711693 56.89016814253853 M 138.48129526711693 56.89016814253853 C 140.41265781452225 72.52860187477104 133.59085863569157 59.8146206844681 133.58076068591518 66.65517319859778 C 133.5706627361388 73.49572571272745 140.42996858556748 60.801940421977314 138.45244398204153 76.43460389719475 M 138.45244398204153 76.43460389719475 C 136.5425052400367 92.61248151836544 143.52444322521268 79.43081190264436 143.5728168697967 86.50258665633353 C 143.62119051438071 93.5743614100227 136.45957899217836 80.48943908346972 138.59065439513876 96.63967462202095 M 138.59065439513876 96.63967462202095 C 135.789876675813 113.3968727690953 143.72407550019267 100.01521467375495 143.41989730594096 107.38451113738144 C 143.11571911168926 114.75380760100792 136.3113250088159 100.76379311716417 137.72157384013389 117.69480737523949 M 137.72157384013389 117.69480737523949 C 139.85992971813675 134.30535803991486 132.53984371014167 120.82980557049301 132.5665673602604 128.10026194255332 C 132.59329101037912 135.37071831461364 139.81411774650468 121.84171854495432 137.79792712618735 138.46753986684038 M 137.79792712618735 138.46753986684038 C 136.9156700808792 155.50972211224698 143.30601137766143 141.25014383307862 143.84361815597367 148.638897718155 C 144.3812249342859 156.02765160323136 135.99405846091537 142.84328688068751 139.33394649279373 159.57826525277284 M 139.33394649279373 159.57826525277284 C 140.39455504869122 177.63298246001338 133.51701359010687 162.56784829001256 133.00171404148824 170.40237462460297 C 132.4864144928696 178.23690095919338 141.27792570346605 164.20236588642985 137.86166206816904 181.96262620874543 M 137.86166206816904 181.96262620874543 C 136.57200214849917 197.93902148063754 142.95767328522774 184.7242176449897 143.26239491139492 191.6758003731716 C 143.5671165375621 198.6273831013535 136.04962221792687 186.02202251804002 138.73229528578952 201.824291146408 M 138.73229528578952 201.824291146408 C 140.58646244236232 220.02042071970467 132.98456916519817 205.0970269127562 132.80349573254432 213.03519942199176 C 132.62242229989047 220.97337193122732 140.89687404119746 206.41212498958654 138.21494262106424 224.50478402993818 M 138.21494262106424 224.50478402993818 C 137.08125495618265 238.87192836789535 142.80145908952122 226.97958643002355 143.08671679053916 233.22955486525257 C 143.3719744915571 239.4795233004816 136.59224175443762 228.15769676464558 139.02996462397263 242.3618367020211 M 139.02996462397263 242.3618367020211 C 136.12007890549066 256.53492577884765 143.29269540591406 245.395788843209 142.80237250824325 251.65780567652948 C 142.31204961057244 257.91982250984995 136.9606324443549 245.8000397788697 137.6290420591989 260.253313368651 M 137.6290420591989 260.253313368651 C 137.5705558025949 276.29018547454655 142.92499791826071 262.6165093613124 143.76332772111797 269.52784968228457 C 144.60165752397523 276.4391900032567 136.1334189976967 264.44217349573717 140.02427006736252 280" stroke-miterlimit="10" stroke-width="0.1"/><path fill="none" stroke="#000000" paint-order="fill stroke markers" d=" M 158.63342426718492 0 C 159.81409577061265 16.5089040065219 153.34534646937482 2.8033696213177572 152.96500243973097 9.978472120465605 C 152.58465841008712 17.153574619613455 160.466114107145 4.208728293697012 157.54672703963107 20.50029285470814 M 157.54672703963107 20.50029285470814 C 159.73584055761083 35.594858283909126 152.87385660413855 23.430513042615434 153.00407505800362 30.050662724623997 C 153.1342935118687 36.670812406632564 159.51260892241353 24.246030257608723 157.91877976495985 39.415006231875466 M 157.91877976495985 39.415006231875466 C 157.27222570909697 54.155242518316506 162.69990002077193 41.783208646063805 163.21508945828552 48.16766334169256 C 163.7302788957991 54.552118037321314 156.38904381621654 43.21046304009578 159.39074958642723 57.656305362243344 M 159.39074958642723 57.656305362243344 C 160.22725310868935 71.98692128131371 154.77288098952687 60.02746962316342 154.36157241885908 66.24570051642323 C 153.9502638481913 72.46393140968304 160.93235351554844 61.32709689286832 158.2155822416621 75.42267934298566 M 158.2155822416621 75.42267934298566 C 162.76608007637785 92.8962002788599 153.1009519233314 79.48166630201942 154.1202844786619 87.2537482808807 C 155.13961703399238 95.02583025974198 161.01865283866846 79.57263117224053 161.12796097117777 97.6286278540179 M 161.12796097117777 97.6286278540179 C 161.87450720321817 113.70590286105342 155.91920368737962 100.22531795487492 155.37509341003357 107.1911119857847 C 154.83098313268752 114.15690601669448 162.80726767866852 101.76454166520809 159.57336017876048 117.53089651376013 M 159.57336017876048 117.53089651376013 C 162.50816682100955 135.00282444738858 154.22311729458133 121.0552297164959 154.54654557481632 128.7396267224877 C 154.8699738550513 136.42402372847954 161.9537183406067 121.82957243711688 160.4974409794319 139.4863165308796 M 160.4974409794319 139.4863165308796 C 158.94609616538008 156.07557675288663 165.7579228108113 142.42403784797472 165.98291905671243 149.65371466436514 C 166.20791530261357 156.88339148075556 158.56038831526388 143.6818450676459 161.1402873962923 160.14253600628084 M 161.1402873962923 160.14253600628084 C 163.93752909864145 176.94376454326533 155.99178559055616 163.52334166323251 156.29206971034586 170.91141466313695 C 156.59235383013555 178.2994876630414 163.4227563218591 164.27849654342918 161.99824202426285 181.25131600600778 M 161.99824202426285 181.25131600600778 C 161.537591226958 198.93263496806708 156.08247986643715 183.68313966750793 154.93197465579493 191.2749035620786 C 153.7814694451527 198.86666745664928 163.50988587377321 185.91818257737452 158.71108427957083 202.9420699904954 M 158.71108427957083 202.9420699904954 C 157.51337826140335 219.35233468868063 163.96404556939223 205.7366575908548 164.33174030685313 212.87018655412822 C 164.69943504431404 220.00371551740164 156.88304442575608 207.12342789449764 159.76164067231625 223.32358131413375 M 159.76164067231625 223.32358131413375 C 156.91764428213395 239.3143760510249 164.63524253595358 226.60140396627816 164.2711791921692 233.64288458164108 C 163.90711584838482 240.684365197004 157.5417528714786 227.24326642468844 158.72145969007514 243.44209735802784 M 158.72145969007514 243.44209735802784 C 158.71867121336908 258.4082346654264 153.77071441872474 245.62853354527564 152.9636442968222 252.0753348520247 C 152.15657417491965 258.5221361587737 160.10221999377342 247.356575282428 156.41554505606788 261.8615296630251 M 156.41554505606788 261.8615296630251 C 154.99298707608463 276.4212170643193 161.02352933788302 264.46002238428565 161.194718298883 270.80848700222685 C 161.365907259883 277.15695162016806 154.69952028579894 265.5381348621344 156.90465637321068 280" stroke-miterlimit="10" stroke-width="0.1"/><path fill="none" stroke="#000000" paint-order="fill stroke markers" d=" M 177.85972518960375 0 C 177.80109754744825 16.63379873113185 183.35310534527846 2.450485880801476 184.22351644648782 9.618971438020491 C 185.09392754769718 16.787456995239506 176.30896423108936 4.344966347327822 180.34661405020188 20.481387306340046 M 180.34661405020188 20.481387306340046 C 178.01314624333259 37.22000408197331 185.54218815036893 23.69963987889706 185.43831215225163 31.03576921800127 C 185.33443615413432 38.37189855710548 178.1912193829622 24.643782357794656 180.04982548415248 41.441756846637794 M 180.04982548415248 41.441756846637794 C 181.06159348835564 55.6261587232339 175.50593557173886 43.84952346076135 175.1779986109635 50.01420716167522 C 174.85006165018814 56.1788908625891 181.62377113539912 45.058129521667254 179.11286273908004 59.05513884924887 M 179.11286273908004 59.05513884924887 C 181.1496108402627 73.56583230207056 174.6108503963965 61.849626110437086 174.70687377713864 68.21005741863934 C 174.80289715788078 74.57048872684159 180.98499933041904 62.662235773723836 179.38721525548615 77.22779972982674 M 179.38721525548615 77.22779972982674 C 182.20663308377863 94.29250713196137 174.15480387429977 80.65444901642007 174.45045346329542 88.15721470347843 C 174.74610305229106 95.65998039053679 181.69980521692892 81.43062309700419 180.2319283669023 98.66427312142204 M 180.2319283669023 98.66427312142204 C 181.99274283220086 112.8431144823406 175.79935372321904 101.31898856653966 175.7943823426828 107.5216102393745 C 175.78941096214658 113.72423191220933 182.0012651988344 102.21004875748088 180.21772442251307 116.38604932952158 M 180.21772442251307 116.38604932952158 C 184.89660546368654 134.24973117437116 174.99280457984972 120.54452502046468 176.04643200594023 128.49158925584769 C 177.10005943203075 136.4386534912307 183.09038701895994 120.62619248514315 183.2280884970574 139.0919471449016 M 183.2280884970574 139.0919471449016 C 179.23229777332446 156.6024359197054 188.43601921679308 142.9728570513769 187.65762799290525 150.73099479333956 C 186.8792367690174 158.48913253530222 180.56668272856072 143.30277121919804 181.0041135716636 161.2580549790806 M 181.0041135716636 161.2580549790806 C 183.62467744189243 178.6149518831864 175.64599162287743 164.66163411444867 175.84024776444724 172.2795585276912 C 176.03450390601705 179.8974829409337 183.29166691348703 165.5556528890564 181.55913111900588 183.02355330263063 M 181.55913111900588 183.02355330263063 C 177.6662308182749 198.18107331971692 186.00381000378144 186.5265347892158 185.14304249054044 193.26554573584616 C 184.28227497729944 200.00455668247653 179.1418322695452 186.6284831254934 179.09979536688874 202.27787029300313 M 179.09979536688874 202.27787029300313 C 180.56595650982118 217.95310975915095 174.12919355666844 205.05382782379468 173.91671930852368 211.88518580921627 C 173.70424506037892 218.71654379463786 180.93019807806934 206.2422103555711 178.49272608647516 221.7960359656362 M 178.49272608647516 221.7960359656362 C 174.6277481883018 237.8655867117904 183.24315764047003 225.42307837946996 182.4435275860498 232.55346058771494 C 181.6438975316296 239.68384279595992 175.99854256730788 225.642074354799 176.20806878813167 242.16855656062188 M 176.20806878813167 242.16855656062188 C 179.13105396637812 257.5633670815666 171.5431446803321 245.3854008880261 171.973325421372 252.17440308356942 C 172.40350616241193 258.96340527911275 178.39360126745257 245.92507760349238 177.43715661967425 261.56570569074563 M 177.43715661967425 261.56570569074563 C 176.32327374491743 276.40433445767025 182.18252017626946 264.10286653833106 182.50169679459324 270.5548695465701 C 182.82087341291702 277.00687255480915 175.776113827791 265.3437578721176 178.34908981488502 280" stroke-miterlimit="10" stroke-width="0.1"/><path fill="none" stroke="#000000" paint-order="fill stroke markers" d=" M 198.9670302754935 0 C 204.0549250036957 17.605454518237394 193.88730301050606 4.256023916609275 195.1310254962881 12.113875579060885 C 196.37474798207012 19.971727241512497 201.9228293137837 4.1348516683203425 202.52052309201355 22.451004749861745 M 202.52052309201355 22.451004749861745 C 203.30961213395383 38.804179985872516 197.22672429700128 25.10209058284357 196.68608398697498 32.18902470984499 C 196.14544367694867 39.27595883684642 204.23642409399895 26.655150053870077 200.9758364919384 42.69938796986582 M 200.9758364919384 42.69938796986582 C 200.43396565712538 57.787051241242224 205.8871747596902 45.08374218565898 206.46616611469102 51.612220947511055 C 207.04515746969184 58.14069970936313 199.44140904855257 46.595373363781526 202.63009750622643 61.35218443230032 M 202.63009750622643 61.35218443230032 C 204.380484708575 75.11008044901854 198.3352346456552 63.941928078597506 198.34843780884358 69.96265798131027 C 198.36164097203198 75.98338788402305 204.35785071453773 64.78882918722522 202.66782082962186 78.55426986862251 M 202.66782082962186 78.55426986862251 C 202.82172399435797 93.89036823416119 197.61760490971284 80.84660606115241 196.8581117456086 87.46121245056256 C 196.09861858150435 94.0758188399727 204.12371227567948 82.55104299517238 200.49784036075263 97.45314526693718 M 200.49784036075263 97.45314526693718 C 203.40769757313038 114.21331448726517 195.3793789035301 100.86519969246393 195.73038520622902 108.24164951419479 C 196.08139150892794 115.61809933592565 202.8059724827894 101.56797193572655 201.50071551132095 118.52871618616821 M 201.50071551132095 118.52871618616821 C 200.45446399821648 135.91255874841707 207.09784206076492 121.41549944575453 207.58320216231792 128.96026055404428 C 208.06856226387092 136.50502166233403 199.62241810983988 122.9786825627775 202.88745865861526 140.0851764955675 M 202.88745865861526 140.0851764955675 C 203.43700583505108 156.46779860276828 197.54890977971257 142.661333023441 196.9034966037895 149.74805354835095 C 196.25808342786644 156.83477407326092 204.5434284223478 144.3191348457798 201.0434210131208 160.33294942388167 M 201.0434210131208 160.33294942388167 C 198.8262328171327 177.01346435167235 206.23677152213023 163.50424847046256 206.1798566415087 170.80908811144866 C 206.1229417608872 178.11392775243476 198.92380118391245 164.49088210998187 200.88080706848785 181.20391982669915 M 200.88080706848785 181.20391982669915 C 201.5121898771487 198.94120738429365 195.10613713301086 184.00513462952 194.4230327051789 191.6798098824886 C 193.73992827734696 199.3544851354572 202.68322603914632 185.78462123634748 198.92908013182512 203.13156340660942 M 198.92908013182512 203.13156340660942 C 199.55920619029337 219.72698794014954 193.5319196715841 205.7654748423894 192.90975880650288 212.94820296767807 C 192.28759794142167 220.13093109296673 200.62576767328974 207.413739725369 197.1514776601645 223.65364376457703 M 197.1514776601645 223.65364376457703 C 200.23891090690185 237.6771487723996 192.9641739397925 226.72446087810266 193.53903337642737 232.9316017486044 C 194.11389281306225 239.13874261910615 199.25343758695635 227.03633585153946 198.79393319340699 241.38833196601055 M 198.79393319340699 241.38833196601055 C 195.74062970412635 256.3532531782261 203.29761662286035 244.5854516050195 202.78815087736646 251.19628785355056 C 202.27868513187258 257.8071241020816 196.61399955354446 245.02039103788718 197.33831677771013 260.27643553324214 M 197.33831677771013 260.27643553324214 C 197.39272569548993 276.3086327772054 202.64922640023502 262.60160602686346 203.53593624718434 269.5048535902287 C 204.42264609413365 276.408101153594 195.87265167214827 264.4744940971506 199.8717734832796 280" stroke-miterlimit="10" stroke-width="0.1"/><path fill="none" stroke="#000000" paint-order="fill stroke markers" d=" M 218.69551348744116 0 C 217.73322401109596 17.52529451928801 224.35169936650905 2.879684948840892 224.88084437389125 10.480858175106622 C 225.40998938127345 18.08203140137235 216.82611828415506 4.494711845689615 220.207356365676 21.71763778933066 M 220.207356365676 21.71763778933066 C 219.35567153506244 38.512638997444164 225.63814898234693 24.45400294833481 226.17561558190414 31.73463265193982 C 226.71308218146135 39.01526235554483 218.43430022153584 26.03155950554986 221.7429752215537 42.51943694248783 M 221.7429752215537 42.51943694248783 C 220.51077409487536 56.901562435612156 226.32004887384184 45.02901411799961 226.5636766842871 51.290740544935844 C 226.80730449473234 57.55246697187208 220.09312641982635 46.16717427515003 222.4390546799687 60.410083876591365 M 222.4390546799687 60.410083876591365 C 223.06070039851122 75.63032685641316 217.49552253012232 62.84020220362169 216.94375683304253 69.43008779515876 C 216.39199113596274 76.01997338669582 224.00658445064798 64.33338012806391 220.86258125974075 79.23832842384012 M 220.86258125974075 79.23832842384012 C 219.7901412435104 94.78323415530632 225.84761653777667 81.86500634380754 226.22267576247947 88.61902019823614 C 226.59773498718226 95.37303405266475 219.14718257259133 83.20492469057156 221.93417904460588 98.53551086506472 M 221.93417904460588 98.53551086506472 C 220.7641403243587 114.23808388316564 226.95710138378774 101.21751511363816 227.2986078668098 108.04470249867956 C 227.64011434983183 114.87188988372095 220.1787006391781 102.53433408023753 222.90991185324026 118.04176053661156 M 222.90991185324026 118.04176053661156 C 219.87154104739975 134.11076721795126 227.78097525313746 121.39530724120078 227.33739280423214 128.48094547040006 C 226.89381035532682 135.56658369959933 220.631968102666 121.9639588250382 221.6425334277965 138.28644119146665 M 221.6425334277965 138.28644119146665 C 224.54567940971833 155.20897584881985 216.4693856077221 141.72000608156162 216.80875816453866 149.1660365637557 C 217.14813072135522 156.6120670459498 223.96389788374714 142.44435216505855 222.6121693044152 159.56081399773547 M 222.6121693044152 159.56081399773547 C 223.00120023549752 176.92402226136738 216.92581263021822 162.22719312885505 216.15845320171965 169.7276768156317 C 215.3910937732211 177.22816050240834 224.31667354149508 164.06605022689314 220.4197137944193 180.99076738852585 M 220.4197137944193 180.99076738852585 C 222.16488282694186 198.64933089886873 214.83386749190532 184.1488825815642 214.63478688612736 191.84961904161696 C 214.4357062803494 199.5503555016697 222.5061638654184 185.44806839592113 219.8509120636251 202.9928715601052 M 219.8509120636251 202.9928715601052 C 216.89050064051455 219.78725714749774 224.97330254992337 206.42664861667603 224.60236146851997 213.8205599463357 C 224.23142038711657 221.21447127599535 217.5263996372061 207.11198058236687 218.79108040247252 224.11833250198995 M 218.79108040247252 224.11833250198995 C 221.7331563729943 236.90817669741665 214.9905891950615 226.96076562849416 215.5692610795325 232.6286564495522 C 216.14793296400353 238.29654727061026 220.74114742818682 227.19179243274567 220.4444286438183 240.31230627644155 M 220.4444286438183 240.31230627644155 C 216.57471531211192 255.09250796845447 224.7676911011578 243.75247170268477 223.8965946801465 250.32769699556684 C 223.02549825913522 256.9029222884489 218.068023462417 243.82069318065666 217.9555817266432 259.0986642561046 M 217.9555817266432 259.0986642561046 C 222.54035795130054 275.50790251993743 213.19799328759456 263.01344044589763 214.2893994470867 270.328907956261 C 215.38080560657886 277.64437546662435 220.6693759635997 262.9671010736002 221.07388503947794 280" stroke-miterlimit="10" stroke-width="0.1"/><path fill="none" stroke="#000000" paint-order="fill stroke markers" d=" M 237.63523977142975 0 C 236.23939607004414 17.343233928339757 243.1678399913704 2.9964824907541328 243.50041991614566 10.542574843805868 C 243.8329998409209 18.088667196857603 235.6692590561437 4.407075608822491 238.58546812793048 21.5602638658621 M 238.58546812793048 21.5602638658621 C 242.41896243107882 38.35388897083791 233.59093360674478 25.2827187276307 234.33801287783305 32.72331461994365 C 235.08509214892132 40.1639105122566 241.1382551092132 25.598581726872847 240.71998033103984 42.81910927247053 M 240.71998033103984 42.81910927247053 C 241.74040644083604 56.67798618260349 236.28502947681224 45.18216299565333 235.97835042894806 51.20708676285348 C 235.67167138108388 57.23201053005363 242.26614195146036 46.349545438831804 239.84375447999935 60.03317717875667 M 239.84375447999935 60.03317717875667 C 243.20300437357272 75.11440928378039 235.34631422970605 63.348493758903636 235.98130937820562 70.02590719841396 C 236.6163045267052 76.70332063792428 242.11444126185918 63.66741481604841 241.65802633285523 79.11150129164331 M 241.65802633285523 79.11150129164331 C 239.55669793743263 95.3959278452429 246.7372963504841 82.18658764180918 246.70896247149588 89.31456599388252 C 246.68062859250767 96.44254434595587 239.60527030141245 83.17653638454573 241.5770723928889 99.47715372613857 M 241.5770723928889 99.47715372613857 C 243.6068088463691 113.28566861410093 237.30629433468692 102.16669565206882 237.4371069283727 108.22427248976308 C 237.5679195220585 114.28184932745734 243.38255868576485 102.90125117805363 241.9508226605626 116.78451611955073 M 241.9508226605626 116.78451611955073 C 239.29978024671453 134.12646512117385 247.29954574676782 120.19599192590694 247.09135549935144 127.8091183950441 C 246.88316525193505 135.42224486418127 239.65667781371405 121.07539117408156 241.35599338223005 138.5363060313712 M 241.35599338223005 138.5363060313712 C 240.08149094676077 155.9207603469281 246.91996253065338 141.49867708306934 247.30703209851967 149.0559921501422 C 247.69410166638596 156.61330721721507 239.41794311613285 142.96536308908892 242.46190643327662 160.1286347944365 M 242.46190643327662 160.1286347944365 C 243.05311231333246 177.98790225112802 236.64101728776373 162.93438813689448 235.93403772688902 170.6594452040877 C 235.2270581660143 178.3845022712809 244.26507727483198 164.74494727879681 240.4419648307774 182.20022641498852 M 240.4419648307774 182.20022641498852 C 242.27749336389218 196.8762323587272 235.85586318884216 184.952317490796 235.85630592921336 191.37312543372806 C 235.85674866958456 197.79393337666014 242.2767343803987 185.86913302798652 240.44322980326655 200.54539196622304 M 240.44322980326655 200.54539196622304 C 241.62386779015478 216.44460500718856 235.3568141185693 203.25964182171947 235.00928516456148 210.1721064078909 C 234.66175621055365 217.08457099406235 242.21963171131105 204.59466571660894 239.45028993467275 220.2952907838557 M 239.45028993467275 220.2952907838557 C 242.24720312476694 233.25748841756237 235.57157341438355 223.114898647044 236.07843306983992 228.8492175687227 C 236.58529272529628 234.58353649040143 241.3783008582703 223.4272274089703 240.8984603788338 236.67905913150918 M 240.8984603788338 236.67905913150918 C 242.47184992357475 253.85257131617902 235.44794789736667 239.70946283868295 235.20098812208056 247.19200444756524 C 234.95402834679444 254.67454605644753 242.89520953835094 241.02535712952368 240.19286102087344 258.05774944260145 M 240.19286102087344 258.05774944260145 C 243.47276387394064 275.4758401638544 234.91086296852268 261.688361337876 235.3858470048534 269.3681490329655 C 235.8608310411841 277.047936728055 242.65850552594512 262.31048982941525 241.54995826753262 280" stroke-miterlimit="10" stroke-width="0.1"/><path fill="none" stroke="#000000" paint-order="fill stroke markers" d=" M 259.30436494926636 0 C 256.7495727010925 17.7628429746478 264.8063741430706 3.4411544860752645 264.66230902710754 11.230406426979062 C 264.51824391114445 19.01965836788286 256.9965414713149 4.4098396473841435 258.89275033222896 22.255005545439424 M 258.89275033222896 22.255005545439424 C 256.5622843827303 38.171984776010746 263.8169907466451 25.352179708587876 263.670165834661 32.33421123596084 C 263.52334092267694 39.3162427633338 256.8139842318458 26.202787871942814 258.4732505837031 42.20366705221931 M 258.4732505837031 42.20366705221931 C 257.2383980736926 58.06755763307923 263.54005902437063 44.93068689042536 263.8623320513355 51.83085489118097 C 264.18460507830036 58.731022891936576 256.6859300274671 46.23869820321248 259.3940306607456 61.9184327686639 M 259.3940306607456 61.9184327686639 C 257.70688199350406 77.04443076439046 264.15066211565835 64.68721241951152 264.23836719723187 71.2938734074452 C 264.3260722788054 77.90053439537888 257.5565304250923 65.71872621364702 259.64461660809854 80.79460701990297 M 259.64461660809854 80.79460701990297 C 257.29262916508657 97.18560163240664 264.7225012767172 83.96817900211133 264.5919294727084 91.15556062058279 C 264.4613576686996 98.34294223905425 257.51646654338737 84.86437600074129 259.27155431093047 101.32998307267857 M 259.27155431093047 101.32998307267857 C 262.03054050944394 115.39060158816243 255.0239707848224 104.29758429060375 255.45534691950215 110.5030269079629 C 255.88672305418189 116.70846952532206 261.2910385642786 104.75269995840388 260.5040575528726 119.05981912227617 M 260.5040575528726 119.05981912227617 C 257.35992992540895 135.1205552023496 265.35692852611373 122.4471381492172 264.86734395244105 129.5349082559584 C 264.37775937876836 136.62267836269965 258.1992177659907 122.9700921622218 259.1052444852363 139.3105908558225 M 259.1052444852363 139.3105908558225 C 257.8200504912542 155.36176347742418 264.2266424609533 142.08163409852762 264.53731434317035 149.06518813520123 C 264.8479862253874 156.04874217187484 257.28747012173926 143.3899565574123 259.99287843442784 159.26360238917567 M 259.99287843442784 159.26360238917567 C 262.8732180370833 176.41016711140657 254.742295122078 162.72236648638008 255.05978023510175 170.26367419148406 C 255.37726534812552 177.80498189658803 262.3289578433282 163.48221104551402 260.89997875735287 180.8101958323299 M 260.89997875735287 180.8101958323299 C 262.855569325112 196.40120373353986 256.0287701499328 183.73573079030402 256.0316625844408 190.55715830139687 C 256.0345550189488 197.37858581248972 262.8506108659554 184.70732800023782 260.9082428559472 200.29998872116664 M 260.9082428559472 200.29998872116664 C 262.47754523644534 215.0669252040106 256.253154213387 202.97731022528552 256.1340186589869 209.42295299222974 C 256.01488310458683 215.86859575917396 262.68177761541693 204.01725188924908 260.5678555576612 218.71611091243582 M 260.5678555576612 218.71611091243582 C 263.4086270807544 233.1871953654585 256.1964557688827 221.77075537474693 256.64096049289856 228.15741791344632 C 257.08546521691443 234.54408045214572 262.6466189824415 222.23863101340237 261.83786905484936 236.9637181658627 M 261.83786905484936 236.9637181658627 C 263.1654412683176 253.7961961925576 256.46423303106485 239.86296960960377 256.12974609081374 247.1853678787514 C 255.79525915056263 254.50776614789905 263.73884745160524 241.24351344544738 260.88219208270334 257.8848560777131 M 260.88219208270334 257.8848560777131 C 262.78843726574297 275.6151298666913 255.29616812540866 261.10673103818453 255.1626128463884 268.8470314109849 C 255.02905756736817 276.5873317837853 263.01738917263475 262.3460435133191 260.50060557121697 280" stroke-miterlimit="10" stroke-width="0.1"/><path fill="none" stroke="#000000" paint-order="fill stroke markers" d="" stroke-miterlimit="10" stroke-width="0.1"/><path fill="none" stroke="#000000" paint-order="fill stroke markers" d=" M 0 21.7162426633087 C 15.61439041584583 23.498038585070585 2.871466481052553 16.811899083555666 9.69360828674255 16.73866707361524 C 16.515750092432548 16.665435063674813 3.91929017752012 23.623579173539888 19.49183373054285 21.5070083491932 M 19.49183373054285 21.5070083491932 C 34.53592616428096 23.065181691293756 22.205981499399375 16.75861849418683 28.770415266199667 16.61976511050579 C 35.334849032999955 16.480911726824747 23.282611135480458 23.303216063318402 38.247358778543685 21.11028439581879 M 38.247358778543685 21.11028439581879 C 53.88901548009749 18.359310166304244 41.443384695456366 25.881997686634463 48.329458502330326 25.539205687081093 C 55.215532309204285 25.196413687527723 42.08431752545642 18.946953594110017 57.921855369612146 20.130878682809165 M 57.921855369612146 20.130878682809165 C 76.26700378771828 19.03263279732282 60.966335315919295 26.03837645322703 68.92799710524504 26.553101601992473 C 76.88965889457079 27.067826750757916 62.618440720302694 18.150246828010633 80.66946048197143 21.601521964996145 M 80.66946048197143 21.601521964996145 C 95.18314069924459 22.848771504625596 83.2032424383734 16.983133441228556 89.52244889179418 16.738904308138842 C 95.84165534521497 16.494675175049128 84.35021535052323 23.267450018493676 98.7243360631737 20.903724441882673 M 98.7243360631737 20.903724441882673 C 115.03695033742204 17.858385096895045 102.11579193275206 25.8543472590974 109.30674404638914 25.420880309869947 C 116.49769616002622 24.987413360642496 102.70960385690132 18.601471295570676 119.26991353070822 19.665247444089953 M 119.26991353070822 19.665247444089953 C 134.74930885720045 18.10554286903934 122.0481889763277 24.557398306499216 128.8002202863963 24.719031468673148 C 135.5522515964649 24.88066463084708 123.17439803993999 17.82845744816974 138.56143155947566 20.127056478872618 M 138.56143155947566 20.127056478872618 C 153.71234430601643 22.324175127556572 141.50253497545785 15.436718065209094 148.14738839351224 15.567350796751526 C 154.79224181156664 15.697983528293959 142.32116701792322 22.100233302055262 157.54672703963107 20.50029285470814 M 157.54672703963107 20.50029285470814 C 175.7847460932509 18.205179714956582 160.9714364783087 26.19742877509563 168.9513969320085 26.190811833166798 C 176.93135738570828 26.184194891237965 162.1048138869084 18.21652304397744 180.34661405020188 20.481387306340046 M 180.34661405020188 20.481387306340046 C 198.28270302800337 19.83969035697624 183.18029604559322 26.32030718332122 190.9411642102273 27.009673288553813 C 198.70203237486137 27.699039393786407 184.9783576029164 18.65791989086322 202.52052309201355 22.451004749861745 M 202.52052309201355 22.451004749861745 C 216.7433264069966 23.63299450880312 204.99020634293015 17.91929138736647 211.180597988712 17.66261295118059 C 217.37098963449387 17.405934514994712 206.13122644279915 24.073014685121773 220.207356365676 21.71763778933066 M 220.207356365676 21.71763778933066 C 234.92558316782646 23.429549826781262 222.92472964914703 17.099503760246755 229.3570687659361 17.04442288703276 C 235.7894078827252 16.989342013818764 223.89871611047374 23.5239741808624 238.58546812793048 21.5602638658621 M 238.58546812793048 21.5602638658621 C 254.76181972341152 24.146785429953805 241.80524587846958 16.587654566724083 248.91279464997405 16.830814154576146 C 256.0203434214785 17.07397374242821 242.57745040083245 23.729940422207413 258.89275033222896 22.255005545439424 M 258.89275033222896 22.255005545439424 C 275.6890717557158 19.428454092822427 262.2825335592196 27.397600496287204 269.67007094293945 27.084426408732252 C 277.0576083266593 26.7712523211773 263.02472195505317 19.965323957202344 280 21.36022243813956" stroke-miterlimit="10" stroke-width="0.1"/><path fill="none" stroke="#000000" paint-order="fill stroke markers" d=" M 0 43.07189849824773 C 16.944201084884 43.513741795831535 2.6226083262223057 37.53185523674066 9.94544035573454 36.809807675744544 C 17.268272385246775 36.08776011474843 4.39077474857731 44.751537614682015 20.922377227177815 41.00890546683026 M 20.922377227177815 41.00890546683026 C 35.878735438537916 42.721448651921776 23.674763096214562 36.312097139355295 30.20971588184384 36.244465684629176 C 36.74466866747312 36.17683422990306 24.675959234602008 42.83738828859513 39.59367090040433 40.81567273904134 M 39.59367090040433 40.81567273904134 C 54.27229623001567 42.52082318214771 42.303019748990394 36.209649425546985 48.717935684067164 36.15378825252142 C 55.132851619143935 36.09792707949586 43.27529748416978 42.616585193048664 57.9220021434808 40.65606938753974 M 57.9220021434808 40.65606938753974 C 74.44695557026613 43.2306017212934 61.18876372394487 35.566401056690125 68.44583386422374 35.78562518517249 C 75.70290400450263 36.00484931365486 62.00626390121663 42.85478892960934 78.65648825856331 41.282424040346505 M 78.65648825856331 41.282424040346505 C 93.98118101070986 39.8274906613413 81.37749824000954 46.1387167645096 88.05724691518833 46.33715199559217 C 94.73699559036712 46.53558722667474 82.53018328183194 39.48731597948546 97.74148447335986 41.849381843439566 M 97.74148447335986 41.849381843439566 C 113.03202173247496 39.23368191711014 100.84144835609335 46.524726486067955 107.56898670989914 46.22130006252455 C 114.29652506370492 45.91787363898114 101.49909884023647 39.7538415003274 116.96302262709067 40.98244920474413 M 116.96302262709067 40.98244920474413 C 133.62652832216125 36.27634825669052 120.95509146534178 45.80640941147504 128.38662243119046 44.67643161743267 C 135.81815339703914 43.5464538233903 120.88676095213495 38.21345304647744 138.1959682438012 37.753941221765935 M 138.1959682438012 37.753941221765935 C 154.14032396173906 37.11051207773769 140.7391237194476 42.93380385357203 147.64210775185313 43.51517660711037 C 154.54509178425866 44.09654936064871 142.30663704904387 36.113873071671975 157.91877976495985 39.415006231875466 M 157.91877976495985 39.415006231875466 C 175.8262914017902 38.82330215176607 160.73174896914816 45.25178025388798 168.47761497086557 45.96114296905479 C 176.223480972583 46.6705056842216 162.5476639702746 37.60725178290867 180.04982548415248 41.441756846637794 M 180.04982548415248 41.441756846637794 C 196.6648711780584 44.54046284599881 183.50313491612738 36.39889876317552 190.82723876885245 36.83906965630533 C 198.15134262157753 37.27924054943514 184.10926457338687 43.78588417206199 200.9758364919384 42.69938796986582 M 200.9758364919384 42.69938796986582 C 217.60754257836842 44.63214102092496 204.04591954453616 37.4806106333553 211.31441809990153 37.417627773773 C 218.5829166552669 37.3546449141907 205.14725934059925 44.74011163735175 221.7429752215537 42.51943694248783 M 221.7429752215537 42.51943694248783 C 236.9545465421409 40.861474295525376 224.51460790548094 47.308639069356765 231.15655969380109 47.41352438485071 C 237.79851148212123 47.518409700344655 225.5683434764492 40.68167089753576 240.71998033103984 42.81910927247053 M 240.71998033103984 42.81910927247053 C 254.8610523111453 40.551428471003234 243.53683142400212 47.16511050259865 249.75047601243426 46.949705725510725 C 255.9641206008664 46.7343009484228 244.20909015954734 40.92069380315396 258.4732505837031 42.20366705221931 M 258.4732505837031 42.20366705221931 C 275.8804326501129 42.87008172687078 261.2378066627169 36.543305898086665 268.7721689584208 35.89306703128369 C 276.30653125412476 35.24282816448072 262.96438300033475 43.98477692710444 280 40.34584171849653" stroke-miterlimit="10" stroke-width="0.1"/><path fill="none" stroke="#000000" paint-order="fill stroke markers" d=" M 0 62.566980639586745 C 16.419594336853514 59.345678188336194 3.4652945984922345 67.52727148505552 10.711805367896469 67.02376550880894 C 17.958316137300702 66.52025953256235 3.997004446446251 60.2088312904732 20.7043164840121 61.12839213602507 M 20.7043164840121 61.12839213602507 C 35.04897380057053 62.74385866802729 23.33518994470984 56.61972751676376 29.60141360202743 56.54321616735004 C 35.867637259345024 56.46670481793632 24.306876102311787 62.87502098130797 38.607812647776655 60.90978828055729 M 38.607812647776655 60.90978828055729 C 54.62334765840572 63.773280882702764 41.89569993311672 56.030852541970475 48.94888769319553 56.40198208539927 C 56.002075453274344 56.77311162882806 42.53216864112775 63.1370588082534 58.75977767657327 61.970158404639555 M 58.75977767657327 61.970158404639555 C 74.92990708153317 59.616684006036024 61.90156119837473 66.97477033417654 68.99388094812842 66.83166525350671 C 76.0862006978821 66.68856017283689 62.771644653383994 59.862007001470026 79.02354839015524 61.56128674558289 M 79.02354839015524 61.56128674558289 C 94.38869686709188 59.738144688049516 81.8722632327378 66.37714586416091 88.58926561051615 66.41914651121235 C 95.30626798829451 66.46114715826378 82.87383564804328 59.66614357881847 98.21498375523625 61.6812885943013 M 98.21498375523625 61.6812885943013 C 115.1857118171678 62.71257316894443 101.03643813897743 56.21862013472563 108.40243631967488 55.74905736354482 C 115.76843450037232 55.27949459236401 102.55828636454359 63.5175379195401 119.26069284294324 60.33968067664184 M 119.26069284294324 60.33968067664184 C 134.29222352887186 55.65801040694183 123.00616134009512 64.62740440256978 129.7333721885559 63.420075015633614 C 136.4605830370167 62.212745628697455 122.75986207436765 57.72771792740381 138.48129526711693 56.89016814253853 M 138.48129526711693 56.89016814253853 C 155.13224500059468 59.594023350233414 141.80924771993966 51.77772514566668 149.12755673169826 52.04587317256336 C 156.44586574345686 52.31402119946004 142.5865724090085 59.134341018410524 159.39074958642723 57.656305362243344 M 159.39074958642723 57.656305362243344 C 175.02855675984893 60.747583467113046 162.69877493107654 52.935602097130975 169.60151453450501 53.42519381758291 C 176.5042541379335 53.91478553803484 163.19528886825725 59.908283374909736 179.11286273908004 59.05513884924887 M 179.11286273908004 59.05513884924887 C 197.696945994492 63.24449879240467 183.21470934991487 53.520386994919996 191.4457415184161 54.324352948988 C 199.67677368691733 55.128318903056005 183.58660513420418 61.8662714425738 202.63009750622643 61.35218443230032 M 202.63009750622643 61.35218443230032 C 218.38305318964936 58.61760827035893 205.83696622121502 66.16310864237954 212.7701012320248 65.83337344788141 C 219.7032362428346 65.50363825338329 206.49767888540399 59.18286860378431 222.4390546799687 60.410083876591365 M 222.4390546799687 60.410083876591365 C 236.40050518977668 61.84902849832667 224.95553297551464 56.0023729219085 231.04717790552536 55.870455577666355 C 237.13882283553608 55.73853823342421 225.95768530975832 62.07517251702749 239.84375447999935 60.03317717875667 M 239.84375447999935 60.03317717875667 C 255.6725009835871 59.58635403260783 242.30498200963447 65.20353456242931 249.14757867289566 65.86337401889685 C 255.99017533615685 66.52321347536439 243.94233527513933 58.45520067866349 259.3940306607456 61.9184327686639 M 259.3940306607456 61.9184327686639 C 275.9830732177961 63.14489301741352 262.2242583475163 56.61053980537984 269.4363476162553 56.24560500561542 C 276.64843688499434 55.880670205851 263.6194916142435 63.77049553129538 280 60.87576191219413" stroke-miterlimit="10" stroke-width="0.1"/><path fill="none" stroke="#000000" paint-order="fill stroke markers" d=" M 0 82.89969780268802 C 15.048323810089816 79.47504827999978 3.3321390912869306 87.37669459424792 9.998898168393447 86.71175531271012 C 16.665657245499965 86.04681603117233 3.6195939636214964 80.61494419120741 19.047883077447192 80.99987128400862 M 19.047883077447192 80.99987128400862 C 35.872285240459284 78.33670532961067 22.38772751695752 86.17563389843907 29.77856353856877 85.93435329609137 C 37.16939956018002 85.69307269374367 23.20228063198285 78.75032921934958 40.16455742490791 80.31049813444376 M 40.16455742490791 80.31049813444376 C 56.054307565775076 78.98819564656559 42.92428249917897 85.37307897127147 49.84029884766904 85.65907367638603 C 56.75631519615911 85.94506838150059 44.19827953979211 78.49791900922635 59.92460413487953 81.12762586334249 M 59.92460413487953 81.12762586334249 C 75.63804121526819 79.32388729491194 62.817804619263356 86.06152402993119 69.68379420757704 86.13063710478204 C 76.54978379589072 86.19975017963289 63.867773349587594 79.20540773802477 79.5417172443472 81.32509179148776 M 79.5417172443472 81.32509179148776 C 96.78390650544291 77.5520200963194 83.30974554321686 86.47682853009482 90.94031554696717 85.77993091392744 C 98.57088555071748 85.08303329776007 83.70292935615669 78.74670172403489 101.34334582649092 79.33395574529527 M 101.34334582649092 79.33395574529527 C 115.71015896481899 78.2108730939066 103.81459200832128 83.9219126266162 110.06384673375275 84.2117208073126 C 116.31310145918422 84.501528988009 104.9971508640793 77.71405906985564 119.19835932772371 80.16197911871353 M 119.19835932772371 80.16197911871353 C 134.97436457332984 79.1054874069303 121.15462822049169 74.78935167190626 127.89355784950293 73.48477034437468 C 134.63248747851415 72.1801890168431 123.42191378073915 81.34191253984156 138.45244398204153 76.43460389719475 M 138.45244398204153 76.43460389719475 C 154.36414704515892 77.60137807978953 141.16393358243235 71.34203064915825 148.08103197329956 70.98785705518506 C 154.99813036416677 70.63368346121187 142.50626408938655 78.20853281231498 158.2155822416621 75.42267934298566 M 158.2155822416621 75.42267934298566 C 175.33340069140544 74.74961235107612 160.94004709702543 80.98635565446783 168.35011865186385 81.6181477898622 C 175.76019020670228 82.24993992525658 162.63042088311101 73.66654011897147 179.38721525548615 77.22779972982674 M 179.38721525548615 77.22779972982674 C 197.87905270091514 80.61703639827692 183.21092362630546 71.60661885711218 191.35913557725294 72.0708834056907 C 199.50734752820043 72.5351479542692 183.9106893564337 79.82115431499946 202.66782082962186 78.55426986862251 M 202.66782082962186 78.55426986862251 C 217.1552233181952 80.92099275580848 205.5680495329441 74.10818854437544 211.9362156834857 74.34760903870159 C 218.3043818340273 74.58702953302775 206.23836706012386 80.51055762267792 220.86258125974075 79.23832842384012 M 220.86258125974075 79.23832842384012 C 237.511620031452 81.21641122539413 223.95019123765871 74.02044308573197 231.2285970132488 73.97605358946309 C 238.50700278883886 73.93166409319421 225.03435298758333 81.2925075047122 241.65802633285523 79.11150129164331 M 241.65802633285523 79.11150129164331 C 255.8789879802239 82.25664490177537 244.77679130620663 74.86731958207143 251.0720979025418 75.45640658696232 C 257.36740449887697 76.0454935918532 245.08703381507794 81.24678146481958 259.64461660809854 80.79460701990297 M 259.64461660809854 80.79460701990297 C 276.09624209404564 81.49159517968593 262.27962718581904 75.45478301328876 269.40401137298454 74.86916730979812 C 276.52839556015005 74.28355160630747 263.88301205890474 82.49550781424131 280 79.12141929564399" stroke-miterlimit="10" stroke-width="0.1"/><path fill="none" stroke="#000000" paint-order="fill stroke markers" d=" M 0 101.60983346423399 C 15.83747515207003 98.92117921308613 3.2040320052975995 106.45542577782784 10.171102684328035 106.15002337782947 C 17.138173363358472 105.8446209778311 3.893925416589284 99.44472618451194 19.905916225801246 100.73725517852434 M 19.905916225801246 100.73725517852434 C 37.44317561328652 100.59378064944345 22.421597176660804 94.91550002687507 29.968383361242413 93.90938164732948 C 37.51516954582402 92.9032632677839 24.505827868289476 102.31855501437875 41.46816246746299 97.86263123696551 M 41.46816246746299 97.86263123696551 C 56.78568079769076 100.6384318274386 44.62502611103737 93.20176141403624 51.37280788508404 93.57270145061239 C 58.120589659130715 93.94364148718853 45.21805489932504 100.0025346218795 60.747538964739185 98.92245991289734 M 60.747538964739185 98.92245991289734 C 77.81356987673968 99.41727436118617 63.40547441554248 93.34986103060093 70.78363927869671 92.64407174383302 C 78.16180414185094 91.93828245706511 65.16528725418956 100.62719885278831 81.8280100023227 96.90591909356044 M 81.8280100023227 96.90591909356044 C 98.13947952396047 94.20675912233537 85.1047930767365 101.90675870876929 92.27661163835413 101.62235354156051 C 99.44843019997175 101.33794837435174 85.84493341833027 94.69431083755039 102.31892017837305 96.09333290153539 M 102.31892017837305 96.09333290153539 C 115.3155024286174 99.07225706599885 105.20375711550052 92.22984461202999 110.96268846292305 92.81325751555494 C 116.72161981034559 93.39667041907988 105.44304869017878 98.07212065995608 118.77300974243741 97.76022691160667 M 118.77300974243741 97.76022691160667 C 134.5150702356399 94.88202061466797 122.02579451273904 102.54655523134414 128.9619701411845 102.15436192998914 C 135.89814576963 101.76216862863413 122.6244834440191 95.55435198841938 138.59065439513876 96.63967462202095 M 138.59065439513876 96.63967462202095 C 156.5216043327703 99.6845678652224 142.21848868954385 91.15369096281074 150.1065459911575 91.49982459400968 C 157.99460329277116 91.84595822520862 142.99922038714686 99.09119592602424 161.12796097117777 97.6286278540179 M 161.12796097117777 97.6286278540179 C 176.5146994144978 96.54674732836877 163.73464476368542 102.55996649305965 170.421033352189 102.9224423366511 C 177.10742194069257 103.28491818024256 165.05231897706307 95.92536016792629 180.2319283669023 98.66427312142204 M 180.2319283669023 98.66427312142204 C 196.56577074743103 99.7219620372192 182.96903320235862 93.41612594478674 190.06210240020624 92.99223119571704 C 197.15517159805387 92.56833644664734 184.40622355112086 100.4486387499101 200.49784036075263 97.45314526693718 M 200.49784036075263 97.45314526693718 C 217.5386747480225 100.46267161382454 203.9838825628625 92.256415435693 211.48660110221115 92.63524339503763 C 218.9893196415598 93.01407135438227 204.67687153771053 99.81325225494801 221.93417904460588 98.53551086506472 M 221.93417904460588 98.53551086506472 C 237.55432943712492 101.2531144887521 225.1160237621168 93.76603395715506 231.99103643401588 94.0956089585309 C 238.86604910591495 94.42518395990675 225.76859342815513 100.6881287721078 241.5770723928889 99.47715372613857 M 241.5770723928889 99.47715372613857 C 255.54737499266815 102.72886539517474 244.69445201723016 95.33145764860917 250.8875206885447 95.97994791989818 C 257.08058935985923 96.62843819118719 244.93068584184323 101.61716778725072 259.27155431093047 101.32998307267857 M 259.27155431093047 101.32998307267857 C 275.9587749404969 100.09285113025801 262.1196609685139 106.66879061241215 269.37461695968824 107.03441488649995 C 276.62957295086255 107.40003916058774 263.5217075270552 99.46606666039321 280 102.37462385578657" stroke-miterlimit="10" stroke-width="0.1"/><path fill="none" stroke="#000000" paint-order="fill stroke markers" d=" M 0 123.23376376633252 C 15.821624371931883 120.77564409461925 3.1254616073105845 128.10780664502883 10.073290857542725 127.90085794493329 C 17.021120107774866 127.69390924483776 3.911059942962499 121.13041329478303 19.850940714948972 122.64248176605956 M 19.850940714948972 122.64248176605956 C 37.01799098921975 117.4465822563999 24.078614823614434 127.56141308229117 31.753431069205053 126.2475590775139 C 39.42824731479568 124.93370507273663 23.86116313963582 119.69890340744666 41.778987130922175 118.88861318098165 M 41.778987130922175 118.88861318098165 C 57.570399099958166 120.51375259834482 44.62450884137064 113.90282036760745 51.51447073512109 113.75257362598504 C 58.40443262887153 113.60232688436263 45.75903585352883 120.77131844112611 61.46459254163773 118.45933677634618 M 61.46459254163773 118.45933677634618 C 78.97479354844249 118.74775770375552 64.11917653400613 112.70965488656289 71.67756270995176 111.89104077031128 C 79.23594888589739 111.07242665405967 66.01756010396426 120.15109618875829 83.05998161576811 116.12043930134156 M 83.05998161576811 116.12043930134156 C 98.85371336082991 114.73231693060976 85.8274444242115 121.14164037821658 92.70564314973907 121.39411168171236 C 99.58384187526664 121.64658298520814 87.0625155456398 114.29950898175984 102.7119779744183 116.84178588275807 M 102.7119779744183 116.84178588275807 C 115.73909760002779 120.54232458258046 105.8399659511794 113.07366350887666 111.65090802758623 113.9662814304981 C 117.46185010399306 114.85889935211954 105.77748261190179 119.01212243122941 119.31466962129495 119.39212280167648 M 119.31466962129495 119.39212280167648 C 134.2099245390098 119.87496088241078 121.65137639751157 114.5357994330012 128.0937928741052 113.94173903374826 C 134.5362093506988 113.34767863449532 123.16578200770644 120.89335013827298 137.72157384013389 117.69480737523949 M 137.72157384013389 117.69480737523949 C 155.2193939971831 119.74885731991866 140.95836407555802 112.20727416136094 148.60648929407733 112.14990535984316 C 156.25461451259665 112.09253655832538 142.10832219400714 119.84720383680629 159.57336017876048 117.53089651376013 M 159.57336017876048 117.53089651376013 C 175.9743668553387 114.55058234199403 162.95622661138302 122.5202604970625 170.1817540966964 122.11956398257901 C 177.4072815820098 121.71886746809552 163.58774830908715 115.23749065253716 180.21772442251307 116.38604932952158 M 180.21772442251307 116.38604932952158 C 197.45838397922404 115.9718837059581 182.8745063716726 122.02819713022055 190.32355325275535 122.77813053004687 C 197.7726001338381 123.52806392987318 184.6885893259393 114.68628359197012 201.50071551132095 118.52871618616821 M 201.50071551132095 118.52871618616821 C 218.67676814981206 120.28007130071482 204.5903560502197 113.10337375325489 212.08357476989144 112.93293927591006 C 219.5767934895632 112.76250479856523 205.83125034466048 120.57224469044881 222.90991185324026 118.04176053661156 M 222.90991185324026 118.04176053661156 C 238.26836494080422 118.94005608369513 225.4517373700734 113.09294617222184 232.11605615263622 112.65291062625056 C 238.78037493519903 112.21287508027928 226.8438184564108 119.69440273393162 241.9508226605626 116.78451611955073 M 241.9508226605626 116.78451611955073 C 256.56588027413807 120.46008201096208 245.30263364509045 112.48750284688205 251.79626585739896 113.28385889783596 C 258.2898980697075 114.08021494878986 245.43393933875205 119.09490020932681 260.5040575528726 119.05981912227617 M 260.5040575528726 119.05981912227617 C 276.3728324043111 119.286392027456 262.7483966856003 124.34183607466288 269.5719765420949 125.29390920274088 C 276.39555639858946 126.24598233081888 264.67526693603463 117.65426666503657 280 121.7800280596419" stroke-miterlimit="10" stroke-width="0.1"/><path fill="none" stroke="#000000" paint-order="fill stroke markers" d=" M 0 141.21904963064756 C 16.317395842044537 140.64670185483493 2.574165195067608 146.53269127270505 9.634015976492087 147.1647704684651 C 16.693866757916567 147.79684966422514 4.214794502459713 139.5631375192463 20.17100223264137 143.02499018996195 M 20.17100223264137 143.02499018996195 C 36.426549714197755 138.38219431418605 24.082507038856257 147.72326265201718 31.334893424222322 146.598587754536 C 38.58727980958839 145.4739128570548 23.993887339284495 140.31020842415384 40.892106190830134 139.81163334001567 M 40.892106190830134 139.81163334001567 C 57.470225067282996 141.29185262796935 43.80467302186562 134.54444145373603 51.02572065338128 134.2894064382763 C 58.24676828489694 134.03437142281658 45.09128627039901 141.72905551161458 61.523670852303454 139.0829618672736 M 61.523670852303454 139.0829618672736 C 77.93204212322938 141.17591978892665 64.61410350444712 133.96147137390128 71.79502270924267 133.97952556402504 C 78.97594191403823 133.9975797541488 65.62189491500841 141.14496974871452 82.04058286600507 139.13454526762723 M 82.04058286600507 139.13454526762723 C 95.06724393831027 140.71806671551892 84.46825965549077 135.05716435532585 90.16501096460102 135.0378610751397 C 95.86176227371128 135.01855779495352 85.3013845512641 140.7511580529809 98.31701517774864 139.0793930385239 M 98.31701517774864 139.0793930385239 C 114.01100172374737 136.6868650460801 101.40212631658756 143.92080372792014 108.29144125907244 143.7352370990366 C 115.18075620155733 143.54967047015305 102.20074753663042 137.00497926702334 118.00077215627688 138.54920267028518 M 118.00077215627688 138.54920267028518 C 133.83032985186077 136.5041569305383 120.99076110262465 143.48624199224608 127.91976534209331 143.4576600110404 C 134.84876958156198 143.4290780298347 121.9520368699145 136.55315461260517 137.79792712618735 138.46753986684038 M 137.79792712618735 138.46753986684038 C 155.85566054237904 141.5525125833962 141.45754837018382 132.94547790313513 149.40237821881942 133.30204973554885 C 157.34720806745503 133.65862156796257 142.23595223043233 140.94124658497267 160.4974409794319 139.4863165308796 M 160.4974409794319 139.4863165308796 C 178.7213959321301 141.44388577385976 163.80844576058126 133.74449924357654 171.76417239175018 133.60646995848424 C 179.7198990229191 133.46844067339194 165.08300742155478 141.68050740544655 183.2280884970574 139.0919471449016 M 183.2280884970574 139.0919471449016 C 199.05490756137027 137.92059360927854 185.9286866836246 144.15577408789096 192.80946624016985 144.50340436062402 C 199.69024579671512 144.85103463335707 187.25928546443558 137.32465599887902 202.88745865861526 140.0851764955675 M 202.88745865861526 140.0851764955675 C 217.71164494355017 136.7706807753687 206.15040370001768 144.50413489224766 212.7146798692311 143.87457753581236 C 219.27895603844453 143.24502017937706 206.45860008204144 137.8499219578292 221.6425334277965 138.28644119146665 M 221.6425334277965 138.28644119146665 C 237.38831490735288 140.45767905883363 224.66201863093767 133.39555592884395 231.56172961498942 133.48300862281053 C 238.46144059904117 133.5704613167771 225.56023893469276 140.30776015489093 241.35599338223005 138.5363060313712 M 241.35599338223005 138.5363060313712 C 255.47796578218993 140.93065900123287 244.21195225379384 134.2151359792873 250.42419013984602 134.48613566784528 C 256.6364280258982 134.75713535640324 244.82841512038618 140.46608810656207 259.1052444852363 139.3105908558225 M 259.1052444852363 139.3105908558225 C 275.9645292057641 138.36895777408105 261.88075704065875 144.74950019758873 269.193921470826 145.25168127809775 C 276.5070859009933 145.75386235860677 263.4276758969059 137.50807592177986 280 140.74539394299114" stroke-miterlimit="10" stroke-width="0.1"/><path fill="none" stroke="#000000" paint-order="fill stroke markers" d=" M 0 163.36206160631173 C 16.814378358233704 159.44272702046158 3.7538813538307405 168.35091477764172 11.208039278154112 167.56797563687272 C 18.662197202477486 166.78503649610371 4.035821916536496 160.78490840463704 21.29759406949535 161.12509263268598 M 21.29759406949535 161.12509263268598 C 37.37719903280038 158.6384292556448 24.47020191192278 166.08029578082702 31.530698231802546 165.87494259335648 C 38.591194551682314 165.66958940588594 25.273491055863634 158.9904632913086 41.470440697723255 160.538369239913 M 41.470440697723255 160.538369239913 C 57.02794687151572 155.96900384501896 45.25563553835788 165.01648326275983 52.203373257562774 163.8858531173943 C 59.15111097676767 162.75522297202878 45.11753935287876 157.90722695135986 61.32111989545152 157.30799739601147 M 61.32111989545152 157.30799739601147 C 76.9314780806596 156.65487331983343 63.81866713233312 162.37596696921582 70.57829733929388 162.93517896175803 C 77.33792754625465 163.49439095430023 65.34354058301258 155.6962241897611 80.63434905819655 158.90574594613204 M 80.63434905819655 158.90574594613204 C 95.51940707954891 157.67377099003326 83.21735694679613 163.64920725961107 89.69571905363016 163.9200134796721 C 96.17408116046418 164.1908196997331 84.41364346783342 157.2095317556429 99.14395507772235 159.67947800344928 M 99.14395507772235 159.67947800344928 C 115.04090353152688 157.36432304136724 102.23313726227477 164.59933061294186 109.20571570956422 164.45802262294214 C 116.17829415685367 164.31671463294242 103.08791190760212 157.60656530993816 119.06560778426362 159.27574088916438 M 119.06560778426362 159.27574088916438 C 135.31053118744856 157.49092650919815 122.03022749964103 164.3882042208382 129.12414604762657 164.49408774810115 C 136.2180645956121 164.5999712753641 123.14952796233048 157.30941189103305 139.33394649279373 159.57826525277284 M 139.33394649279373 159.57826525277284 C 156.7225921402418 162.2103159459291 142.7459653166955 154.2113206399244 150.37818463292 154.4088154036522 C 158.01040394914452 154.60631016738 143.63878759814264 161.8717534938243 161.1402873962923 160.14253600628084 M 161.1402873962923 160.14253600628084 C 176.91979643930935 163.02133380205777 164.39874106579796 155.34390730835796 171.3510802271779 155.7343389488379 C 178.30341938855784 156.12477058931782 165.0015007340866 162.3520224183779 181.0041135716636 161.2580549790806 M 181.0041135716636 161.2580549790806 C 196.94304896930944 158.51403979077574 184.24128607668192 166.12911600616508 191.25504368119192 165.80532906184544 C 198.26880128570193 165.4815421175258 184.91946450443513 159.0691031238951 201.0434210131208 160.33294942388167 M 201.0434210131208 160.33294942388167 C 218.37563318877096 161.87211591209413 204.0856994002784 154.8249420371361 211.63476130223145 154.55469463798494 C 219.1838232041845 154.28444723883376 205.4343842139943 162.33539716778188 222.6121693044152 159.56081399773547 M 222.6121693044152 159.56081399773547 C 238.54874108717445 158.03009692221016 225.44767467456919 164.60842139945598 232.39508266967067 164.80715867830133 C 239.34249066477216 165.0058959571467 226.6388988098576 157.68940444418953 242.46190643327662 160.1286347944365 M 242.46190643327662 160.1286347944365 C 256.4001807936715 157.68351167011272 245.30781033476453 164.38162293393518 251.44365053516745 164.0788615920939 C 257.5794907355704 163.7761002502526 245.8815975929808 158.2025311132692 259.99287843442784 159.26360238917567 M 259.99287843442784 159.26360238917567 C 276.2529863915223 159.2981758697125 262.35791990767177 164.64699883752382 269.36041245562205 165.5374363037525 C 276.36290500357234 166.42787376998115 264.24871345217906 157.77171164189195 280 161.80770943554325" stroke-miterlimit="10" stroke-width="0.1"/><path fill="none" stroke="#000000" paint-order="fill stroke markers" d=" M 0 181.7883896806452 C 16.274654392846728 180.14788595153988 2.92123149088936 186.9317786655637 10.02018666091362 187.10142768033316 C 17.119141830937878 187.2710766951026 4.105016958519419 179.85705906907793 20.282729057212173 182.27310115141506 M 20.282729057212173 182.27310115141506 C 35.32772405257254 180.5856672172024 23.039764165542874 187.00289761334164 29.61154691384802 187.08611811066174 C 36.18332966215317 187.16933860798184 24.061810769763714 180.4430035075108 39.05925119522688 182.51087400090108 M 39.05925119522688 182.51087400090108 C 56.65851207144634 177.54010543789465 43.27562815566878 187.6056710392112 51.12450499420212 186.41206939771254 C 58.97338183273546 185.2184677562139 43.20329463396061 179.58627968046378 61.484613591036435 179.10058359661923 M 61.484613591036435 179.10058359661923 C 77.08753877903492 176.61581961108953 64.58692459064989 183.8983933455336 71.44197965547006 183.66819098496688 C 78.29703472029024 183.43798862440016 65.33601581077176 177.0104522292039 81.07048520480838 178.44286256642857 M 81.07048520480838 178.44286256642857 C 96.37966334000279 181.89947580112397 84.45132177142835 173.88425480985822 91.23216998845723 174.54891707290884 C 98.0130182054861 175.21357933595945 84.75535211081042 180.76005477875145 100.44433725346232 180.34189760371606 M 100.44433725346232 180.34189760371606 C 115.93331813468473 180.28105105169422 102.7282375494636 185.4562829375941 109.40369028186828 186.26409416263513 C 116.07914301427296 187.07190538767617 104.48968487913386 178.89623180876674 119.5170593460471 182.64992967526186 M 119.5170593460471 182.64992967526186 C 134.2614718703963 183.93454717426093 122.09692388773631 177.9606834747539 128.517534840479 177.72012726147315 C 134.93814579322165 177.4795710481924 123.25471023712313 184.34692925417076 137.86166206816904 181.96262620874543 M 137.86166206816904 181.96262620874543 C 157.24205705331784 183.8072360421647 141.3043215108987 175.82178468931133 149.75212449553152 175.57282611835316 C 158.19992748016435 175.323867547395 142.76010907966156 184.23402216380728 161.99824202426285 181.25131600600778 M 161.99824202426285 181.25131600600778 C 177.82417702971955 180.71301693383174 164.4893160643186 186.407373874187 171.33562724747864 187.02765692800497 C 178.1819384306387 187.64793998182296 166.08764357287373 179.64967455585804 181.55913111900588 183.02355330263063 M 181.55913111900588 183.02355330263063 C 197.1984352261846 183.50001411683365 184.0024741424453 177.9201892938704 190.765060724764 177.28331757729438 C 197.5276473070827 176.64644586071836 185.60542965649543 184.59179420239252 200.88080706848785 181.20391982669915 M 200.88080706848785 181.20391982669915 C 216.53324769305033 182.98728854875364 203.75835496783424 176.28722027949033 210.59697232191024 176.21261692612967 C 217.43558967598625 176.138013572769 204.80990365749147 183.11518001165763 220.4197137944193 180.99076738852585 M 220.4197137944193 180.99076738852585 C 236.31656872085952 183.9605597133318 223.7254162064887 176.16662348340574 230.73320406921403 176.5899341426677 C 237.74099193193936 177.01324480192963 224.30321809904464 183.23488429745422 240.4419648307774 182.20022641498852 M 240.4419648307774 182.20022641498852 C 256.94737903030364 183.13400334151916 243.1631592740991 176.87721834594586 250.3234641484005 176.39070764201534 C 257.4837690227019 175.90419693808482 244.67257067435838 183.96802169111436 260.89997875735287 180.8101958323299 M 260.89997875735287 180.8101958323299 C 276.24435110805234 179.4150365607193 263.6040935522955 185.68173417786434 270.289100987222 185.90697792590052 C 276.9741084221485 186.1322216739367 264.78433836246404 179.02890442122873 280 181.45374939814755" stroke-miterlimit="10" stroke-width="0.1"/><path fill="none" stroke="#000000" paint-order="fill stroke markers" d=" M 0 201.44258348472422 C 15.734613811141942 205.34692897820733 3.5911116817805384 196.80869248854788 10.579333157767694 197.64331595744832 C 17.56755463375485 198.47793942634877 3.754805566592528 203.91614588866366 19.96634707424902 203.82722196729696 M 19.96634707424902 203.82722196729696 C 34.50360552361237 198.6964202439472 23.78813464841782 207.88581335636601 30.32661222709317 206.4583972997349 C 36.86508980576853 205.0309812431038 23.29478681731176 201.14341919817193 38.64771158475003 199.74889037692236 M 38.64771158475003 199.74889037692236 C 54.93385283988408 201.05296756581683 41.459342376827024 194.55253185860107 48.545130458440624 194.2373421185407 C 55.630918540054225 193.92215237848035 42.786787557117904 201.59329283449176 58.892820389360324 198.84834826246416 M 58.892820389360324 198.84834826246416 C 74.80475265713204 198.99336967351226 61.26637911061212 193.60636610320051 68.12855877886253 192.81204051200277 C 74.99073844711293 192.01771492080502 63.04101608298849 200.3550706869941 78.49904801293292 196.57884657332772 M 78.49904801293292 196.57884657332772 C 94.435692235518 200.72247995602007 82.19883628743204 191.9131029787123 89.28697098084443 192.83992574696364 C 96.37510567425682 193.766748515215 82.28460418966819 199.13364092473202 98.7508614226826 199.22691162547443 M 98.7508614226826 199.22691162547443 C 115.3058583925418 203.26778298063618 102.50703381267707 194.34161690273694 109.8560025034328 195.19087703427573 C 117.20497119418854 196.0401371658145 102.70762635124623 201.8119084694268 119.74791482484187 201.6533691441567 M 119.74791482484187 201.6533691441567 C 134.91832699337485 203.68854479205248 122.63830239454686 196.93291232925748 129.28283555587853 196.99273503004542 C 135.92736871721021 197.05255773083337 123.52769871680627 203.58599159070172 138.73229528578952 201.824291146408 M 138.73229528578952 201.824291146408 C 154.6035485964058 204.71639312105606 142.00855834587858 196.99726072457577 149.00113449370204 197.38848332000637 C 155.9937106415255 197.77970591543698 142.61627520013704 204.0457258146036 158.71108427957083 202.9420699904954 M 158.71108427957083 202.9420699904954 C 175.08847311917438 204.4495813412334 161.60334101829545 197.74526226404208 168.73938989885673 197.5127923699198 C 175.875438779418 197.2803224757975 162.85524646678365 204.84810115972874 179.09979536688874 202.27787029300313 M 179.09979536688874 202.27787029300313 C 194.8778538674772 204.9437532603818 182.28761136003078 197.44860306881 189.2278610277585 197.7473956585722 C 196.16811069548623 198.0461882483344 182.98028300851539 204.43153739221802 198.92908013182512 203.13156340660942 M 198.92908013182512 203.13156340660942 C 215.68041486191552 205.11279312258603 202.03268195996904 197.8803016466838 209.35532313609903 197.83175950040732 C 216.67796431222902 197.78321735413084 203.12731570283552 205.1960082304886 219.8509120636251 202.9928715601052 M 219.8509120636251 202.9928715601052 C 236.08001829595005 198.97565611103533 223.55162962304186 207.77382905593325 230.75894083191636 206.91721119807448 C 237.96625204079086 206.06059334021572 223.72462765216517 200.4441438673646 240.44322980326655 200.54539196622304 M 240.44322980326655 200.54539196622304 C 256.7906999209054 198.30256806490985 243.57433257243275 205.62483474263476 250.73708714087098 205.53894360686502 C 257.8998417093092 205.45305247109528 244.51169208929704 198.4498100119437 260.9082428559472 200.29998872116664 M 260.9082428559472 200.29998872116664 C 276.2056833732715 198.58309142341787 263.71191942235 205.10898021030292 270.39403442276847 205.19310201759015 C 277.07614942318696 205.27722382487738 264.7506290868398 198.4388826109255 280 200.5403367419873" stroke-miterlimit="10" stroke-width="0.1"/><path fill="none" stroke="#000000" paint-order="fill stroke markers" d=" M 0 220.20306098652944 C 15.338928317018574 222.55043769535925 3.018283357715651 215.47249360065223 9.752218917060642 215.65772896584716 C 16.48615447640563 215.84296433104208 3.795038786712875 222.23289135502512 19.23981588384283 220.73230488708634 M 19.23981588384283 220.73230488708634 C 34.208077603744634 222.5503893017307 22.028851287749298 216.04698450187456 28.574614727880157 216.0241760032651 C 35.120378168011015 216.00136750465563 22.986768849234593 222.5894895850612 37.941997141359565 220.66713774820218 M 37.941997141359565 220.66713774820218 C 53.271535729420705 222.46702143228507 40.77781430742669 215.8596579844402 47.478224666811336 215.8095558013034 C 54.178635026195984 215.7594536181666 41.78511797047559 222.55291088909104 57.086026739601415 220.52398865352558 M 57.086026739601415 220.52398865352558 C 75.97282513413037 221.24961263020685 60.0864190510887 214.3828696119271 68.26134272747632 213.67846464217672 C 76.43626640386394 212.97405967242634 61.95867026032302 222.45716400692183 80.44295152928034 218.5114030256673 M 80.44295152928034 218.5114030256673 C 96.95920269984738 221.7176876915478 83.91740547446216 213.51694616656997 91.20474438379229 214.0087783442264 C 98.49208329312242 214.50061052188286 84.46662171242428 220.8745468155653 101.26391984165215 219.91663781897145 M 101.26391984165215 219.91663781897145 C 117.01894669965885 219.25442173357845 103.78561831837544 225.03113050567777 110.60805690796103 225.5942157920165 C 117.43049549754662 226.15730107835526 105.3233376889407 218.28913267128343 120.75660152618241 221.52545292279646 M 120.75660152618241 221.52545292279646 C 134.42534129137368 225.65475191799803 124.12018546720012 217.60776731514727 130.23060485040875 218.65053320264687 C 136.3410242336174 219.69329909014647 123.95033663444461 223.86715325371298 138.21494262106424 224.50478402993818 M 138.21494262106424 224.50478402993818 C 155.5704213336463 225.71449166241982 141.15164664980094 218.94092910975453 148.69299096773915 218.52750815922298 C 156.23433528567736 218.11408720869142 142.64240250289507 226.4232132919025 159.76164067231625 223.32358131413375 M 159.76164067231625 223.32358131413375 C 174.89926353849313 223.9746535767516 162.18941714731574 218.4116781583194 168.74529704227135 217.87703728634526 C 175.30117693722696 217.3423964143711 163.66061228999777 224.89118078585014 178.49272608647516 221.7960359656362 M 178.49272608647516 221.7960359656362 C 193.23396656553254 225.1479973621578 181.75594077226376 217.40998924205502 188.28650382305503 218.0601519716843 C 194.8170668738463 218.71031470131356 182.03871562131894 224.03343268279332 197.1514776601645 223.65364376457703 M 197.1514776601645 223.65364376457703 C 214.4166909802696 226.1893550287382 200.51359025586393 218.31344638961195 208.08745121567173 218.47608744770648 C 215.66131217547954 218.638728505801 201.4329293348848 225.91054178629042 218.79108040247252 224.11833250198995 M 218.79108040247252 224.11833250198995 C 235.7007522000461 223.1258200807026 220.934201402769 218.38007386121976 228.16492473903907 217.04200925987277 C 235.39564807530914 215.70394465852578 223.305226480726 225.41964511158312 239.45028993467275 220.2952907838557 M 239.45028993467275 220.2952907838557 C 256.5022604202055 221.14370344901863 242.22312981026604 214.7790223973956 249.614277778312 214.22630944239864 C 257.00542574635796 213.67359648740168 243.8317210464124 222.09121137187057 260.5678555576612 218.71611091243582 M 260.5678555576612 218.71611091243582 C 276.219310983988 217.61881544784836 263.21832754287254 223.73275683170422 270.0195780976911 224.10284638529953 C 276.8208286525097 224.47293593889484 264.56002431858474 216.98437621311353 280 219.77350963699385" stroke-miterlimit="10" stroke-width="0.1"/><path fill="none" stroke="#000000" paint-order="fill stroke markers" d=" M 0 240.16635661866695 C 15.588119667257455 237.1927239337707 3.2618498394494653 244.88781911619805 10.136850840685552 244.44622994171044 C 17.01185184192164 244.00464076722284 3.8024036651384496 237.94973394717803 19.642860003531677 238.9046732629881 M 19.642860003531677 238.9046732629881 C 35.14748862864697 241.2634684797825 22.68913798968052 234.12096617251993 29.49506698601911 234.30219795532514 C 36.300995982357705 234.48342973813035 23.480181777780807 240.95278542354495 39.08837142164194 239.4224783567173 M 39.08837142164194 239.4224783567173 C 56.55202091249109 241.29185634320714 42.259083681220375 233.91925723084648 49.88254535347407 233.78417739090406 C 57.50600702572777 233.64909755096164 43.48322947434188 241.5234217831084 60.86969048522394 239.03653595688183 M 60.86969048522394 239.03653595688183 C 76.36517620213846 236.63072839452843 63.930182437551416 243.8103478195173 70.734704384349 243.60837225433738 C 77.5392263311466 243.40639668915748 64.70028143619973 236.97697222055115 80.31118176178848 238.45946291351066 M 80.31118176178848 238.45946291351066 C 97.45452750949184 237.9328295301488 82.99094179787252 244.05298470479812 90.40412484060269 244.74923047991857 C 97.81730788333286 245.445476255039 84.7462137219544 236.73926534422802 101.49170474101753 240.44873655671196 M 101.49170474101753 240.44873655671196 C 116.59787239877967 242.9657090014462 104.5320662842564 235.8199463041441 111.17486779154733 236.09077156030398 C 117.81766929883825 236.36159681646384 105.21021267199522 242.5014371337436 120.47113761899159 241.22252300288304 M 120.47113761899159 241.22252300288304 C 135.43213059289025 240.27809126169538 122.97013324495424 246.03312680899901 129.4657226966976 246.43188660369734 C 135.96131214844098 246.83064639839566 124.2968343899016 239.59450304221252 139.02996462397263 242.3618367020211 M 139.02996462397263 242.3618367020211 C 154.67513461125395 245.19519473343675 142.2537540478897 237.6010020338965 149.14577732102558 237.97909326349884 C 156.03780059416147 238.3571844931012 142.86023757159245 244.54703833983268 158.72145969007514 243.44209735802784 M 158.72145969007514 243.44209735802784 C 172.58339288877977 240.6746038102974 161.6628362541351 247.6227185129311 167.7831494384549 247.176979233839 C 173.9034626227747 246.7312399547469 162.09142742994584 241.43872828874098 176.20806878813167 242.16855656062188 M 176.20806878813167 242.16855656062188 C 194.35478277181303 243.80296332546035 179.40089230027013 236.40505677011134 187.3059448421165 236.13197816199738 C 195.21099738396288 235.85889955388342 180.80326412864787 244.27109808222713 198.79393319340699 241.38833196601055 M 198.79393319340699 241.38833196601055 C 216.22193212269295 242.6925609593965 201.77250108857643 235.81430424997237 209.3501744962204 235.43769525862322 C 216.92784790386438 235.06108626727408 203.23163485244615 243.33817637313788 220.4444286438183 240.31230627644155 M 220.4444286438183 240.31230627644155 C 237.17097874632393 239.45111173399718 222.60422161783754 234.6538112709478 229.76313272509296 233.3821747702215 C 236.92204383234838 232.11053826949518 224.89855970531465 241.63106002095662 240.8984603788338 236.67905913150918 M 240.8984603788338 236.67905913150918 C 257.6215214162109 239.00072722659357 244.11053643882454 231.4869058176583 251.43932947543 231.58653647968205 C 258.76812251203546 231.6861671417058 245.05787621060156 238.82993180598143 261.83786905484936 236.9637181658627 M 261.83786905484936 236.9637181658627 C 276.4337789675561 235.67714632403775 264.3966758051563 241.60355863702975 270.753421635959 241.83527668508168 C 277.1101674667617 242.0669947331336 265.53650040046574 235.27991538452017 280 237.62576973172534" stroke-miterlimit="10" stroke-width="0.1"/><path fill="none" stroke="#000000" paint-order="fill stroke markers" d=" M 0 258.5692527584908 C 15.83180572795228 260.397251903095 2.9185251696082855 253.59974766191797 9.83681066789719 253.53471160039624 C 16.755096166186092 253.4696755388745 3.971887730885586 260.5087422942752 19.766529995111156 258.38343543985724 M 19.766529995111156 258.38343543985724 C 36.64661521789294 260.3020144774817 22.868226286270428 253.0804303408976 30.24295571503313 252.99796749126295 C 37.61768514379583 252.9155046416283 24.0042219114426 260.4433793625696 40.83718550586173 258.147827298044 M 40.83718550586173 258.147827298044 C 57.544801345926025 256.11226422346454 43.95236945330894 263.37668716501133 51.259103519198604 263.39947007811907 C 58.56583758508827 263.4222529912268 45.0189715186866 256.0732078009942 61.71356855126078 258.21292133549457 M 61.71356855126078 258.21292133549457 C 77.4417120799766 256.4351549062503 64.60032765513078 263.15547987071875 71.47125382907537 263.23657282966747 C 78.34218000301995 263.3176657886162 65.6629814960716 256.2961384051954 81.34478619110243 258.4446155039195 M 81.34478619110243 258.4446155039195 C 97.93147917509182 261.3289677793962 84.7230501491124 253.37980700332344 92.02339840320272 253.72916759208317 C 99.32374665729304 254.0785281808429 85.41659645379411 260.7300639129509 102.20292405993195 259.44278861466165 M 102.20292405993195 259.44278861466165 C 116.70897354294249 257.41026131748623 104.99533647497613 263.94388176176255 111.35354002981319 263.84942651360296 C 117.71174358465025 263.7549712654434 105.80919602036465 257.57218460004555 120.36921993089499 259.17291647706276 M 120.36921993089499 259.17291647706276 C 134.0690379443793 261.7632162031637 123.22829247303763 255.02002047872506 129.269230217944 255.39815939078093 C 135.31016796285036 255.7762983028368 123.71314466739693 261.1149780682108 137.6290420591989 260.253313368651 M 137.6290420591989 260.253313368651 C 152.8190660861315 259.6612361044634 140.0449634351357 265.19117156202435 146.62023948403987 265.7540472650553 C 153.19551553294403 266.31692296808626 141.5471642880101 258.6963063278389 156.41554505606788 261.8615296630251 M 156.41554505606788 261.8615296630251 C 173.26241670418094 263.7270316415622 159.49483079753898 256.5617531762817 166.8523948448012 256.45821478598384 C 174.20995889206344 256.354676395686 160.6494497660171 263.90452602492985 177.43715661967425 261.56570569074563 M 177.43715661967425 261.56570569074563 C 193.2291577303526 258.5441735489392 180.74464818275553 266.34760520662905 187.7100542380681 265.89636065150285 C 194.67546029338067 265.44511609637664 181.2884616355311 259.3177356434413 197.33831677771013 260.27643553324214 M 197.33831677771013 260.27643553324214 C 213.94990586457035 261.39594500642545 200.13646370076574 254.9454536044382 207.3525064328923 254.53323365744006 C 214.56854916501888 254.12101371044193 201.5795468952105 262.1026077727079 217.9555817266432 259.0986642561046 M 217.9555817266432 259.0986642561046 C 235.8494966433777 260.4896603347251 221.03094491740194 253.38320721052156 228.81399267038253 253.01888702579546 C 236.59704042336313 252.65456684106937 222.50712906683955 261.114209222827 240.19286102087344 258.05774944260145 M 240.19286102087344 258.05774944260145 C 256.72703653384855 255.85050164450777 243.33948402137003 263.2041482033257 250.5807498930105 263.1436355256148 C 257.822015764651 263.0831228479039 244.3134378967506 255.9542376634408 260.88219208270334 257.8848560777131 M 260.88219208270334 257.8848560777131 C 276.13447735679193 260.1323253474329 263.8547659196698 253.1683456880121 270.5459986907236 253.31520939713278 C 277.2372314617774 253.46207310625346 264.6637926064139 259.88055898894027 280 258.3044666752008" stroke-miterlimit="10" stroke-width="0.1"/><path fill="none" stroke="#000000" paint-order="fill stroke markers" d="" stroke-miterlimit="10" stroke-width="0.1"/></g></g></svg>