<svg version="1.1" xmlns="http://www.w3.org/2000/svg" xmlns:xlink="http://www.w3.org/1999/xlink" width="1133.8500000000001" height="1133.8500000000001"><defs/><g transform="scale(3.7795,3.7795)"><g transform="translate(10,10)"><path fill="none" stroke="#000000" paint-order="fill stroke markers" d=" M 0 0 L 280 0 L 280 280 L 0 280 L 0 0" stroke-miterlimit="10" stroke-width="0.1"/><path fill="none" stroke="#000000" paint-order="fill stroke markers" d=" M 18.822231499553958 0 C 16.117231391305225 16.310549082320513 23.821913103269775 3.2785802862983484 23.534942622610657 10.450316819895962 C 23.24797214195154 17.622053353493577 16.609180786720856 4.016143596153174 18.002315840527906 20.490675810278898 M 18.002315840527906 20.490675810278898 C 19.45818038706698 35.92558557211252 13.109702814569417 23.22810243317135 12.905733939749055 29.95537934462101 C 12.701765064928694 36.68265625607067 19.80784131533046 24.393110866770233 17.419547626755442 39.71146698584936 M 17.419547626755442 39.71146698584936 C 16.526975371329453 54.13684704205043 22.06056662339815 42.11502720162734 22.45282519331778 48.377098654975356 C 22.845083763237408 54.63917010832337 15.854532108610083 43.40186740773955 18.540286397954386 57.60309970970082 M 18.540286397954386 57.60309970970082 C 20.354338440343568 74.45998043794535 13.229679609422694 60.66683026092684 13.103439219238714 68.02593553076082 C 12.977198829054734 75.3850408005948 20.570750537801818 61.84437140394423 18.1795995688573 78.62911476636934 M 18.1795995688573 78.62911476636934 C 16.35316787305417 92.96272121978399 22.653775532523223 81.32815388586484 22.638814534130358 87.60097683403285 C 22.623853535737492 93.87379978220086 16.378815298870514 82.20931045149597 18.136853859163395 96.55146604684938 M 18.136853859163395 96.55146604684938 C 20.530713398726096 114.40038666895471 12.582851893787717 99.95196952393552 12.652957200409055 107.76963545943427 C 12.723062507030393 115.58730139493302 20.41053287308952 100.99867363667114 18.33715473522436 118.88765443398867 M 18.33715473522436 118.88765443398867 C 22.016998372580385 134.7404011140163 13.63137721113649 122.42177338265662 14.362931187534521 129.44879430221846 C 15.094485163932552 136.4758152217803 20.76290584161233 122.69407953762456 20.427308953504447 138.9648570613082 M 20.427308953504447 138.9648570613082 C 18.75916581989187 155.8086381644306 25.754907937316936 141.97841087442103 25.94329603146734 149.32401659526826 C 26.131684125617745 156.6696223161155 18.436214801348324 143.21617121440676 20.965560651077027 159.95230197801462 M 20.965560651077027 159.95230197801462 C 23.044285792852943 177.18259415593855 15.570123836023287 163.1581537662986 15.537789702900085 170.69236482749992 C 15.505455569776883 178.22657588870123 23.09971573534986 164.2668037653077 20.873177413582166 181.47861929573267 M 20.873177413582166 181.47861929573267 C 18.83589513192582 197.94044426546304 26.020485954712438 184.55844862293344 26.029293393292107 191.75939611736803 C 26.038100831871777 198.9603436118026 18.82079666578924 185.59596284643231 20.898341523809798 202.05275499411718 M 20.898341523809798 202.05275499411718 C 18.552735931777384 218.00040316563002 25.830513563243922 205.1594192688567 25.678818363603728 212.1554772438486 C 25.527123163963534 219.15153521884048 18.812784845446288 206.0071609227868 20.464926667694954 222.0414920655226 M 20.464926667694954 222.0414920655226 C 18.976589564765113 235.9917484079219 24.861716035137288 224.57267180345775 24.97175385538901 230.66215422572597 C 25.081791675640734 236.7516366479942 18.787953301476442 225.5526356840335 20.779320439842735 239.44001327200326 M 20.779320439842735 239.44001327200326 C 18.793097973788715 255.20882491864091 25.704864085614997 242.40166702066819 25.698350419672217 249.30133632431503 C 25.691836753729437 256.2010056279619 18.80426425826205 243.3808203981035 20.760709965720505 259.15335413956564 M 20.760709965720505 259.15335413956564 C 22.12642707403793 275.9205392626289 15.414245848538284 262.0556799318414 15.099706327033154 269.35200598299343 C 14.785166805528023 276.6483320341455 22.665637682332438 263.41255174636825 19.86202561856299 280" stroke-miterlimit="10" stroke-width="0.1"/><path fill="none" stroke="#000000" paint-order="fill stroke markers" d=" M 39.418558598934176 0 C 41.39026328040702 17.098965300938914 34.050919222069645 3.1512587847782436 33.97955541480739 10.623135628031235 C 33.90819160754514 18.095012471284228 41.51260123571374 4.290033569648066 39.214662006756306 21.348219552151406 M 39.214662006756306 21.348219552151406 C 36.75327946770979 36.822559803564644 43.97335710344004 24.42400350565796 43.74630294631148 31.22240913529232 C 43.519248789182924 38.02081476492668 37.14251516564446 25.16815015276288 38.56593584353186 40.77223563682101 M 38.56593584353186 40.77223563682101 C 40.87584659315917 54.79222013605864 34.266158695652635 43.5853576962017 34.50627493014852 49.749115443930144 C 34.74639116464441 55.91287319165859 40.46421876259478 44.22577828280987 39.251982227805826 58.38297205890229 M 39.251982227805826 58.38297205890229 C 40.47197320678642 73.89319517668392 34.29998403192907 61.053386299933194 33.990352747301706 67.80040500338423 C 33.68072146267434 74.54742370683526 41.002769694719056 62.326877399339274 38.36732141458478 77.66016835447668 M 38.36732141458478 77.66016835447668 C 39.65932455973664 92.58579263592388 33.61921538116675 80.26896063593074 33.37208312084655 86.76802972652386 C 33.12495086052635 93.26709881711699 40.082979863142704 81.44453133776425 37.66122924224135 96.22893718474275 M 37.66122924224135 96.22893718474275 C 39.71021163356792 114.24541733935934 32.00139861752359 99.5398553829332 31.913919023923373 107.41113050137793 C 31.826439430323155 115.28240561982265 39.86017665116829 100.75180285059695 37.41128754624073 118.7182946660134 M 37.41128754624073 118.7182946660134 C 41.7581729750967 133.42453889207118 33.182228480300566 122.30548477167422 34.26285828363541 128.87454534599135 C 35.343488086970254 135.4436059203085 39.90566474080839 122.16329219324182 40.49880127005457 137.48703916406237 M 40.49880127005457 137.48703916406237 C 38.964081636126394 154.35296165508652 45.85322430135768 140.45969663781906 46.10027936241299 147.8076558450102 C 46.347334423468304 155.15561505220134 38.540558674317275 141.75646015704456 41.20467287306976 158.48120832746565 M 41.20467287306976 158.48120832746565 C 39.368446175454025 177.29217636669674 47.158390707163896 161.83787094856464 47.38029902414956 170.03993092610503 C 47.60220734113522 178.24199090364542 38.98803191776432 163.23150211948465 41.838696635885945 181.91566540615247 M 41.838696635885945 181.91566540615247 C 38.466143158261644 198.21441440669756 46.7369096431827 185.4133271796002 46.16174232208159 192.61592578247632 C 45.586575000980474 199.81852438535245 39.45214428014928 185.8671025160528 40.1953614327399 202.4945185572271 M 40.1953614327399 202.4945185572271 C 37.77067612928524 218.48900394091686 45.131467976840064 205.63418540598602 44.94822967447366 212.6546775491461 C 44.764991372107254 219.67516969230618 38.084798933341936 206.45387455264247 39.671823425978744 222.55306753768446 M 39.671823425978744 222.55306753768446 C 38.534535955571435 235.94550958346193 43.93541224159946 224.88660415381742 44.16663528758125 230.71689466809735 C 44.39785833356304 236.5471851823773 38.13815359103122 225.95072584469636 40.33246070021244 239.2110404356271 M 40.33246070021244 239.2110404356271 C 38.39419494257893 254.7304925622958 45.182532946764105 242.12038672781898 45.1832505041426 248.91005733856423 C 45.18396806152109 255.69972794930948 38.3929648442158 243.09105722958967 40.33451086415099 258.61009932347065 M 40.33451086415099 258.61009932347065 C 37.67885393828377 275.65743650741734 45.585110997368155 261.98004281814207 45.3590692468994 269.4665080549273 C 45.13302749643065 276.95297329171257 38.06635408194449 262.82349610149976 39.68867729138314 280" stroke-miterlimit="10" stroke-width="0.1"/><path fill="none" stroke="#000000" paint-order="fill stroke markers" d=" M 60.726110601406695 0 C 61.69615766659765 16.059008901228584 55.556060689759 2.66794763789657 55.10921125392895 9.637907852705318 C 54.662361818098894 16.607868067514065 62.46218527087773 4.110505675842155 59.44939792760655 19.91417204231071 M 59.44939792760655 19.91417204231071 C 57.540674750610805 36.27866540743044 64.58330157635446 22.937252584988343 64.6422473890012 30.089350205647378 C 64.70119320164794 37.24144782630641 57.43962478607353 24.0179266291578 59.61781453516866 40.3487366727651 M 59.61781453516866 40.3487366727651 C 61.642165972279976 54.18463012853668 55.33719344829895 43.04049888396084 55.464212112051506 49.10957960382998 C 55.591230775804064 55.17866032369912 61.424419691561305 43.78049175161816 59.980725003033115 57.68896730096264 M 59.980725003033115 57.68896730096264 C 56.60710347967554 74.13772796396687 64.9284011535361 61.20890713251231 64.36085130225153 68.47618365398723 C 63.79330145096696 75.74346017546216 57.58004608187766 61.67953964143843 58.3591539993629 78.45261450517671 M 58.3591539993629 78.45261450517671 C 53.74939077241602 94.93546687238583 63.137439772270604 82.38641461083587 62.03923381735859 89.73493826585386 C 60.94102786244658 97.08346192087184 55.63202955226518 82.33799774949784 55.221422699614294 99.44839637665669 M 55.221422699614294 99.44839637665669 C 58.33055567358873 114.11036957908378 50.826104844238515 102.61970567455681 51.37593279905066 109.10304744497019 C 51.925760753862804 115.58638921538356 57.38799346533934 102.99606940123228 56.79235971336327 117.97223000640919 M 56.79235971336327 117.97223000640919 C 56.721793316183955 133.80582613911807 62.01931257613307 120.30971217256443 62.84149299680169 127.13413792804099 C 63.663673417470314 133.95856368351755 55.31234116646632 122.10681055830112 59.141446629559326 137.47058930777078 M 59.141446629559326 137.47058930777078 C 60.24150617954248 152.32809435972254 54.38781904660359 140.005936666512 54.061671349952775 146.46532666465956 C 53.73552365330196 152.9247166628071 60.80061651665817 141.2548543628982 58.20959606769986 155.92598930247806 M 58.20959606769986 155.92598930247806 C 56.33213954984177 173.39156451821236 63.71227345567887 159.0996551437615 63.84397700575646 166.72438135688557 C 63.975680555834046 174.34910757000964 56.10636203542304 160.32060529571396 58.58589192506441 177.71092133997536 M 58.58589192506441 177.71092133997536 C 57.70978259619923 195.69820302239677 64.4074845027235 180.62962174849235 64.99862949780427 188.42516436016663 C 65.58977449288504 196.2207069718409 56.69639117606077 182.33441568809803 60.27487762529518 199.98390023047327 M 60.27487762529518 199.98390023047327 C 61.46721249157363 217.94344944480966 54.50867567331692 203.00314510987607 54.055244196480295 210.80376895654368 C 53.60181271964367 218.60439280321128 62.24452359472213 204.57095142195095 58.979359120047675 222.27139693523782 M 58.979359120047675 222.27139693523782 C 63.0529845481834 236.63456212811568 54.82384204190022 225.71805872042643 55.805233331326804 232.1246174034888 C 56.786624620753386 238.53117608655117 61.370599480594976 225.65189010000873 61.783334232695054 240.57585031541606 M 61.783334232695054 240.57585031541606 C 59.27050878711725 255.77379590979123 66.4430879026347 243.628253857362 66.178990935006 250.31036717585474 C 65.9148939673773 256.99248049434743 59.723246445909304 244.31874450666086 61.02877146804163 259.6676026539667 M 61.02877146804163 259.6676026539667 C 57.87456760616961 275.79340001488475 65.90169003068709 263.0677635456432 65.41126822500703 270.18410261675484 C 64.92084641932698 277.3004416878665 58.715290701621136 263.5939616072648 59.62756630895577 280" stroke-miterlimit="10" stroke-width="0.1"/><path fill="none" stroke="#000000" paint-order="fill stroke markers" d=" M 84.3325688980596 0 C 86.23287843076947 15.303833309306025 79.54826927360828 2.865278021410302 79.54281158642837 9.560022883334197 C 79.53735389924846 16.254767745258093 86.24223446593506 3.8271278317222004 84.31697550611699 19.127842462639702 M 84.31697550611699 19.127842462639702 C 80.48017627532222 36.004855821380026 89.33860926796878 22.863578006795407 88.59459647248167 30.340272950680188 C 87.85058367699456 37.81696789456497 81.75562678187156 23.187664489006114 82.19122466186809 40.48982801659622 M 82.19122466186809 40.48982801659622 C 83.41854687797112 56.60305380324478 77.04084322556093 43.25079836458663 76.70190063783194 50.257966822779245 C 76.36295805010295 57.26513528097186 83.99959131407797 44.590765017771716 81.22281726835666 60.510309325717984 M 81.22281726835666 60.510309325717984 C 81.548668497992 76.60832876909275 75.94571217064863 62.97087834339828 75.21926242261752 69.92295563137085 C 74.4928126745864 76.87503291934343 82.7940109231882 64.69048198971119 79.14724655969634 80.3733872913539 M 79.14724655969634 80.3733872913539 C 81.05104777236323 97.47794628787462 73.76783260731389 83.50300323811213 73.66691687603466 90.97363333268004 C 73.56600114475543 98.44426342724795 81.22404616884191 84.6711518400439 78.85891589889856 101.71804470440506 M 78.85891589889856 101.71804470440506 C 79.03632028466203 115.56996617251899 74.30305482351861 103.801236215805 73.63360247987212 109.77777031514904 C 72.96415013622564 115.75430441449308 80.1839528737703 105.32447914507208 76.94619491705144 118.79385641681658 M 76.94619491705144 118.79385641681658 C 81.14821012337791 134.90265628212094 72.2320402609908 122.53811681153057 73.17474220327658 129.70355449538695 C 74.11744414556236 136.86899217924332 79.532149650888 122.61904882408143 79.63962903786796 139.2665355135491 M 79.63962903786796 139.2665355135491 C 77.54359192970344 154.07091149714157 84.23011720893989 142.1235565853901 84.12436762300092 148.6136897764542 C 84.01861803706196 155.1038229675183 77.72487693417024 142.94496888388886 79.33748736375664 157.80977320230363 M 79.33748736375664 157.80977320230363 C 75.97124328192399 173.2224927535421 83.9435512341292 161.17585140993697 83.32339252856029 167.99643605179992 C 82.70323382299138 174.81702069366287 77.0343724914707 161.5300619389199 77.56560534784546 177.29715789334062 M 77.56560534784546 177.29715789334062 C 76.48161805471022 193.98794857225116 82.92797642956532 180.09513078952614 83.3597629398484 187.3433783977641 C 83.79154945013147 194.59162600600206 75.74141260851066 181.5623812438432 78.79928109151139 198.00643677402053 M 78.79928109151139 198.00643677402053 C 81.36640167764386 214.51463249319104 73.71407243929741 201.26829757300467 73.93100615306068 208.51774991436218 C 74.14793986682395 215.7672022557197 80.99451531119254 202.08699990800676 79.41909170226357 218.7191577493277 M 79.41909170226357 218.7191577493277 C 80.54379582668315 235.85544849649818 85.25162924451205 220.85167503276 86.65884052295581 228.1729008248416 C 88.06605180139958 235.4941266169232 78.13143363506526 223.30477571007256 83.43969535496005 239.63694572670374 M 83.43969535496005 239.63694572670374 C 79.77159005226655 255.22933092447627 88.06106891459885 243.12912916342296 87.32055198716478 250.0433623033777 C 86.5800350597307 256.9575954433325 81.04104764215352 243.376359827411 81.32393270514844 259.3918975551459 M 81.32393270514844 259.3918975551459 C 81.63094878896965 276.0976037811122 75.84307068881037 261.93505224666643 75.07578574351979 269.14788810236536 C 74.3085007982292 276.3607239580643 82.9462944094678 263.73274231419975 79.13169000431819 280" stroke-miterlimit="10" stroke-width="0.1"/><path fill="none" stroke="#000000" paint-order="fill stroke markers" d=" M 103.03771276665245 0 C 99.88369079692839 15.491274142808049 107.70077715677544 3.3073627185499035 107.17626706981474 10.150358916898512 C 106.65175698285404 16.99335511524712 100.78285094600388 3.7604235170675757 101.5391125181933 19.551417709567453 M 101.5391125181933 19.551417709567453 C 101.42006258739458 35.64007920126599 106.84334709863839 21.9422155200799 107.65837659338578 28.87912623585458 C 108.47340608813317 35.816036951629265 100.02286916782762 23.748232259937954 103.86776821747156 39.37116261178084 M 103.86776821747156 39.37116261178084 C 101.46370716248393 58.120626452135795 109.71815117970615 42.9066582912517 109.69214216280751 51.11279984851933 C 109.66613314590887 59.31894140578696 101.50829404859589 44.05295521110558 103.79345674061831 62.817281346831194 M 103.79345674061831 62.817281346831194 C 103.91899800680815 77.49348357622449 98.95736895749289 65.0037899376361 98.22119122903811 71.33260619693881 C 97.48501350058334 77.66142245624152 105.1810169698735 66.64408427456269 101.69009180217607 80.89961351626754 M 101.69009180217607 80.89961351626754 C 102.8544795554197 97.27342488760681 96.44431855866868 83.67785266584386 96.06423420930152 90.7938845971339 C 95.68414985993435 97.90991652842393 103.50605272576341 85.07451300539532 100.60413651826987 101.23113331995334 M 100.60413651826987 101.23113331995334 C 96.54022284620913 116.75541717786713 105.14513533458633 104.84428471379161 104.23044934512475 111.75049465031158 C 103.31576335566318 118.65670458683155 98.1082559710004 104.91620014383288 97.99074797695108 120.96316171001043 M 97.99074797695108 120.96316171001043 C 100.97944199641753 137.78998847028518 92.8617605590899 124.41103518141257 93.24313808038373 131.82044407919452 C 93.62451560167756 139.22985297697645 100.32565195991383 125.08814464551615 99.08039803779059 142.13290141795883 M 99.08039803779059 142.13290141795883 C 102.37785148260839 155.24779420162497 95.22433054358979 145.14038957962669 95.9385854930062 150.96743704115767 C 96.65284044242262 156.79448450268865 101.15341442646597 145.25856998185756 101.12112646469464 158.7816084509045 M 101.12112646469464 158.7816084509045 C 101.32351357657593 175.14738493784986 95.73741081997998 161.24047305908033 94.94335884195488 168.30124377486578 C 94.14930686392977 175.36201449065123 102.6847455389047 163.04320656793195 98.85240652748003 178.95523906743438 M 98.85240652748003 178.95523906743438 C 98.28355836826935 196.23211355140634 104.4839256642938 181.66847819083074 105.16917662177077 189.14145440788386 C 105.85442757924774 196.61443062493697 97.10884244116598 183.4212971793153 100.81026640598566 200.30659968758613 M 100.81026640598566 200.30659968758613 C 99.04357486159849 216.17561397989388 105.80103929233856 203.2102843642207 105.8944883197268 210.14129698868183 C 105.98793734711505 217.07230961314295 98.88337652893291 204.29387805224624 101.07726362709494 220.10949290033216 M 101.07726362709494 220.10949290033216 C 100.70635948625174 236.63246971572218 106.4883468916007 222.64707318916805 107.21827155175848 229.78463496338145 C 107.94819621191625 236.92219673759485 99.4550600688384 224.39664953135633 103.16276265611715 240.5025265409419 M 103.16276265611715 240.5025265409419 C 101.9708553498048 254.54569520988778 107.6336089172305 242.94923591695272 107.87634254437765 249.06278050622313 C 108.1190761715248 255.17632509549355 101.55474056040968 244.06533305685275 103.85628730510899 257.96979679600025 M 103.85628730510899 257.96979679600025 C 99.07390322867 275.27153888969514 108.8802074018516 262.0803784503624 107.75173575858454 269.7909495717623 C 106.62326411531748 277.50152069316226 101.00842604569927 262.05341696729533 100.63208261006022 280" stroke-miterlimit="10" stroke-width="0.1"/><path fill="none" stroke="#000000" paint-order="fill stroke markers" d=" M 122.55922111671765 0 C 119.452437653187 15.799753765886932 127.33122516384114 3.3368231575666867 126.84367441309878 10.310159273985015 C 126.35612366235642 17.283495390403342 120.28823894017393 3.8454632805983686 121.16621897173947 19.923817475480938 M 121.16621897173947 19.923817475480938 C 118.5242955225445 35.81895327062631 126.03771353832828 23.12081969412052 125.75554613379828 30.11021253006287 C 125.47337872926828 37.09960536600522 119.00801107316737 23.837136980439418 120.36002638736802 39.89351129245908 M 120.36002638736802 39.89351129245908 C 124.22156171060027 58.194937214242245 114.87085605278907 43.845612149481134 115.54882525777771 51.937232140884845 C 116.22679446276635 60.028852132288556 123.0593287877626 44.32358865755016 122.29708125876414 63.012425553612545 M 122.29708125876414 63.012425553612545 C 120.54415586060162 78.79821809751402 127.26233892663087 65.89939363403653 127.35723681517095 72.79381563592591 C 127.45213470371102 79.68823763781529 120.38147376596149 66.97920895141792 122.56821808316434 82.71077413043936 M 122.56821808316434 82.71077413043936 C 123.95778664836836 97.95614190101658 117.72861030319554 85.39856979155276 117.50628926671388 92.04062806162008 C 117.28396823023222 98.6826863316874 124.33890842519405 86.56975629518688 121.93301512178817 101.68808347348887 M 121.93301512178817 101.68808347348887 C 122.69007196424651 120.3089295094023 115.88445897149919 104.66000284970475 115.2079148247782 112.72205497207675 C 114.53137067805721 120.78410709444874 123.8498619300539 106.48826872819315 120.00003184544252 124.72251810883745 M 120.00003184544252 124.72251810883745 C 118.61161201498366 140.3001983961285 124.94972627294096 127.45850255628561 125.19043589990513 134.24364897860494 C 125.43114552686929 141.02879540092425 118.19896694018794 128.6685188150097 120.68777363676871 144.10865074403551 M 120.68777363676871 144.10865074403551 C 120.84652776509206 158.11798978228467 125.344834460483 146.1036585456419 126.16756987935878 152.12990244751643 C 126.99030529823456 158.15614634939095 119.43612418987642 147.78728595049978 123.03844626212809 161.32649046367703 M 123.03844626212809 161.32649046367703 C 120.14186120512208 175.99945288743336 127.46846370934661 164.42910156754343 127.01078658453089 170.90573226853877 C 126.55310945971517 177.3823629695341 120.92645056194901 164.89665740001274 121.73079733408319 179.83114960937803 M 121.73079733408319 179.83114960937803 C 124.19986673183354 196.78954363145567 116.482346377221 183.1263763057068 116.63280120890929 190.5644805443268 C 116.78325604059756 198.00258478294683 123.94194416322507 184.0385077938214 122.16066828176398 201.0828760054352 M 122.16066828176398 201.0828760054352 C 120.34421038894305 217.28105620964936 127.253045580361 204.05113072290723 127.34278111444968 211.12661762048987 C 127.43251664853835 218.2021045180725 120.19037804479103 205.15165009950775 122.41705552201734 221.29855285567126 M 122.41705552201734 221.29855285567126 C 124.67787400541957 237.1224735540493 117.51341676166648 224.35908891763648 117.63525053229631 231.2972834445056 C 117.75708430292615 238.23547797137473 124.46901611291128 225.22842579370223 122.76515200953116 241.12196578958302 M 122.76515200953116 241.12196578958302 C 118.62195506163428 256.0271138368664 127.08977219432458 244.67085257156725 126.10759532700735 251.3146269506684 C 125.12541845969011 257.9584013297696 120.30568683417812 244.6377863298359 119.95893238862476 260.1041783013006 M 119.95893238862476 260.1041783013006 C 116.05127648945877 275.7810764440981 124.57324898905661 263.6879495965105 123.73409173248959 270.6514871910553 C 122.89493447592257 277.6150247856001 117.4898317864308 263.8435834248785 117.5613402270047 280" stroke-miterlimit="10" stroke-width="0.1"/><path fill="none" stroke="#000000" paint-order="fill stroke markers" d=" M 138.2116139751001 0 C 141.6346209895911 15.807604989370317 133.48323027304167 3.4425676647780596 134.10657764139475 10.436313268671709 C 134.72992500974783 17.430058872565358 140.56602550098577 3.8183268112669153 139.99260645610894 19.982130296839 M 139.99260645610894 19.982130296839 C 136.6436321255815 35.26328578269957 144.55767702235497 23.32326760794693 143.9378733753664 30.0862485888845 C 143.31806972837782 36.84922956982207 137.70615266327616 23.669604101092308 138.22173889328448 39.30493309951777 M 138.22173889328448 39.30493309951777 C 140.00917366563556 56.51098536295158 132.79174668826153 42.410892239643445 132.63523885293554 49.91897662547999 C 132.47873101760956 57.42706101131654 140.27747281190864 43.639983558660354 137.77457364949598 60.75660277333647 M 137.77457364949598 60.75660277333647 C 140.03160472445802 76.4901156542936 132.90028546905845 63.802672626886896 133.02535585391365 70.70171831041255 C 133.15042623876886 77.60076399393819 139.81719835042057 64.66318019682106 138.1319176062251 80.46816186912403 M 138.1319176062251 80.46816186912403 C 141.95236866724287 98.09477471169568 132.8599500518309 84.308046789375 133.55655750966932 92.1067658402299 C 134.25316496750773 99.9054848910848 140.75818445380557 84.7255420530873 140.12222462862056 102.75021630013802 M 140.12222462862056 102.75021630013802 C 137.63269453214573 119.35631736515508 145.25115750525683 106.00072179539757 145.0729192133532 113.28817079783047 C 144.89468092144958 120.57561980026338 137.9382458896948 106.86354764669865 139.6129723660388 123.57149916423205 M 139.6129723660388 123.57149916423205 C 138.44355542348237 139.80867552167018 144.81281591574088 126.33143208208783 145.1833765751171 133.388876656045 C 145.55393723449333 140.44632123000216 137.80830857883745 127.71019910917221 140.6717171071137 143.73562651839538 M 140.6717171071137 143.73562651839538 C 139.65365525936755 156.48022597685198 144.73844481177872 145.93504228119355 144.98614275589728 151.47984230125348 C 145.23384070001583 157.02464232131342 139.22903021230715 146.9748545138921 141.379425518881 159.57791228999523 M 141.379425518881 159.57791228999523 C 141.9353916469445 174.9948404491608 146.56012757486045 161.64725914782147 147.62976296167363 168.25846079410476 C 148.69939834848682 174.86966244038805 140.10173098383618 163.66135191267514 144.43552662406157 178.46705985080462 M 144.43552662406157 178.46705985080462 C 146.00501290931095 196.29441947725198 138.76817105085004 181.5917347982525 138.4843227015334 189.35572359115864 C 138.20047435221673 197.11971238406477 146.4916100795681 182.9847244036986 143.62453134029968 200.64988497339357 M 143.62453134029968 200.64988497339357 C 141.15380431689402 218.51562807436804 149.17286318566272 204.07827251897015 149.07055155794046 211.9073240791118 C 148.9682399302182 219.73637563925342 141.32919567870366 205.094396828411 143.33221240395034 223.01860371665535 M 143.33221240395034 223.01860371665535 C 143.33190752280936 239.69517753897156 137.81607034932514 225.4558482761549 136.91796965624738 232.63958673678354 C 136.0198689631696 239.82332519741217 144.87150871094266 227.38019732075108 140.76621042372818 243.54357074702284 M 140.76621042372818 243.54357074702284 C 138.17992387232957 257.78309167622956 145.09821008126139 246.48019551136952 144.7508608476162 252.75340457210314 C 144.403511613971 259.02661363283676 138.7753797014356 247.02901900068628 139.7737840418848 261.4670252062617 M 139.7737840418848 261.4670252062617 C 139.2173826303141 276.59461740262043 134.68872180139812 263.4939405219023 133.6344785366099 269.9804816997107 C 132.58023527182166 276.4670228775191 141.0246567985225 265.47483252637744 136.76166042820415 280" stroke-miterlimit="10" stroke-width="0.1"/><path fill="none" stroke="#000000" paint-order="fill stroke markers" d=" M 160.4702740956249 0 C 159.81795365478143 15.29205203249079 155.3167946666008 2.0192246897004393 154.21237690571874 8.571445233804901 C 153.10795914483668 15.123665777909363 161.711241244865 4.059673956883138 157.314794778819 18.72063012601275 M 157.314794778819 18.72063012601275 C 155.9459074044497 35.35464165534694 162.6167458222679 21.604540711822207 162.92274880488833 28.843670383078358 C 163.22875178750877 36.082800054334506 155.42133086281464 22.94470507605068 158.18908901487742 39.40385775817318 M 158.18908901487742 39.40385775817318 C 155.81713966147592 56.09362115425425 163.36287969423785 42.62769873295629 163.2397964633308 49.94485562260514 C 163.11671323242376 57.26201251225399 156.028139485888 43.54992362914194 157.83742264085728 60.310020300027034 M 157.83742264085728 60.310020300027034 C 154.73669063260775 78.74299389803801 163.4812992297629 64.02969702861887 163.1381440199483 72.1370173789755 C 162.7949888101337 80.24433772933213 155.32495670657562 64.8447304402838 156.85697918424415 83.47379272961739 M 156.85697918424415 83.47379272961739 C 155.12730176387552 99.2730513499573 161.83008879722578 86.35503921317363 161.93572629570068 93.25401017226297 C 162.04136379417557 100.1529811313523 154.94620890934712 87.44624399151841 157.15880060845814 103.18513832701552 M 157.15880060845814 103.18513832701552 C 155.10409736041626 117.55587668300855 161.61189589764967 105.96510962262836 161.50060194843127 112.26621939702761 C 161.38930799921286 118.56732917142686 155.29488698764783 106.75397421260983 156.84081789640553 121.18830911101338 M 156.84081789640553 121.18830911101338 C 155.92220000526365 137.05215328114843 161.95382989166794 123.81072148448776 162.41232456310638 130.69384147499204 C 162.87081923454483 137.5769614654963 155.13620913994058 125.25251901171254 158.15080267194398 140.8543662267399 M 158.15080267194398 140.8543662267399 C 160.0562355823782 154.62235502509716 153.87526195632003 143.49686932148958 153.9547105824417 149.5302954990361 C 154.03415920856335 155.56372167658262 159.9200379375982 144.27933872073172 158.37779874657727 158.09272673401563 M 158.37779874657727 158.09272673401563 C 162.6296091881387 171.60288930152083 154.5304711157076 161.4736570245521 155.63454993689916 167.52236300048457 C 156.73862875809073 173.57106897641705 160.7369026375246 161.2336790570652 161.53230966426744 175.3747438081084 M 161.53230966426744 175.3747438081084 C 159.7395352390363 193.66582776102018 167.3204165557737 178.64105069572582 167.53304901621553 186.6168208675695 C 167.74568147665735 194.59259103941315 159.37502244970744 179.99307889500244 162.1398309798155 198.1626585848046 M 162.1398309798155 198.1626585848046 C 163.54997268041387 216.88267861752018 156.15392198677395 201.36509299824556 155.75336656373165 209.50503233467833 C 155.35281114068934 217.6449716711111 164.236639119915 202.92849689792112 160.99538691398033 221.41962811746967 M 160.99538691398033 221.41962811746967 C 160.24239317350072 238.54208238437775 155.22175295593294 223.67307350385914 153.97540811489282 231.0083541405014 C 152.7290632738527 238.34363477714368 162.37898432956948 225.9673155787053 157.4344016538657 242.37757279359045 M 157.4344016538657 242.37757279359045 C 155.62343980604916 257.20660004898383 162.07470855289188 245.1439026190411 162.09308799373824 251.62930461316992 C 162.1114674345846 258.11470660729873 155.59193219316967 246.08876805904873 157.48691434199816 260.9072927768156 M 157.48691434199816 260.9072927768156 C 154.95434912949742 276.10354674409035 162.1432234308851 263.96597838847526 161.87053209143033 270.6484259165898 C 161.59784075197558 277.33087344470437 155.42181999713415 264.6479224101797 156.7077962292703 280" stroke-miterlimit="10" stroke-width="0.1"/><path fill="none" stroke="#000000" paint-order="fill stroke markers" d=" M 181.7590755821548 0 C 178.1805215814636 14.28653846012125 185.96160348809386 3.271708098246351 185.18934768180264 9.6186006503358 C 184.41709187551143 15.96549320242525 179.50438867796282 3.406151227967907 179.55263042132273 18.13397872025557 M 179.55263042132273 18.13397872025557 C 178.7362013063603 35.78657567721721 185.27224208259244 20.984023290452924 185.87107399229117 28.6321804704113 C 186.4699059019899 36.280337650369674 177.70963231830535 22.67544908300285 181.26357873474768 39.985856377279504 M 181.26357873474768 39.985856377279504 C 179.16880197902353 56.769731736547044 186.50900859697649 43.13177201052737 186.51039036000972 50.474544759827765 C 186.51177212304296 57.81731750912816 179.16643324239513 44.18212130917493 181.26752662912833 60.96520708956635 M 181.26752662912833 60.96520708956635 C 182.68516234618227 79.15552704527411 175.45792140242517 64.09270258950302 175.08911648292568 72.00486695518772 C 174.72031156342618 79.91703132087243 183.31739935103855 65.59181670410032 180.2137982877012 83.57139099152266 M 180.2137982877012 83.57139099152266 C 177.6213339019231 99.23926047979202 185.0173487851304 86.71881782895018 184.74424940677895 93.60764815236196 C 184.4711500284275 100.49647847577374 178.08950426481127 87.42983706822898 179.4335143495542 103.25376334412775 M 179.4335143495542 103.25376334412775 C 180.34689069174183 118.09129136783804 174.65921008403132 105.72444192231671 174.25372069169697 112.16517425864818 C 173.84823129936262 118.60590659497964 181.042015364315 107.05003593412695 178.27497322859895 121.65585573364622 M 178.27497322859895 121.65585573364622 C 178.1369420140714 134.58598048619717 173.97791201755498 123.49998671882918 173.22221493077498 129.0624541622227 C 172.46651784399498 134.62492160561624 179.43242273426569 125.05032201180825 176.1158386949418 137.54861985762776 M 176.1158386949418 137.54861985762776 C 175.10104488505047 154.3736242779148 181.53271644636033 140.3433215330953 182.00153627396105 147.64565848852078 C 182.47035610156178 154.94799544394627 174.29735375202065 141.85533235432825 177.45532391665816 158.412439730272 M 177.45532391665816 158.412439730272 C 182.5503448723117 172.46404773298042 173.55214125543475 162.15141244676866 174.99029446695505 168.4787600993936 C 176.42844767847535 174.80610775201856 180.08493936684832 161.61716604276617 181.56433309243045 176.49057588062905 M 181.56433309243045 176.49057588062905 C 182.76846081581738 194.47474910413604 175.79170984730393 179.51732036795426 175.3420324622664 187.32918648010886 C 174.89235507722884 195.14105259226346 183.5393363330246 181.0829786261567 180.27954056375177 198.81019334392795 M 180.27954056375177 198.81019334392795 C 176.998255784722 217.250469030853 185.89944397710724 202.59065860200374 185.47890537851347 210.71084653985767 C 185.0583667799197 218.8310344777116 177.71917909659706 203.33014685167484 179.0780017106267 222.0107303092249 M 179.0780017106267 222.0107303092249 C 176.5887792667504 237.69148819014075 183.9009044986708 225.12589157710244 183.6729725625888 232.0147146420134 C 183.4450406265068 238.90353770692434 176.97951972860528 225.882077221722 178.42676760753525 241.69308192325616 M 178.42676760753525 241.69308192325616 C 176.86205120479866 257.1515050784196 183.31124902307397 244.46994996376213 183.469593973327 251.2132169753645 C 183.62793892358002 257.9564839869669 176.5906027186506 245.5916187728155 178.87918175111534 260.9595590992629 M 178.87918175111534 260.9595590992629 C 176.45495357155778 276.1268888086671 183.54175745952142 263.97818276233716 183.31417692037223 270.64233707759513 C 183.08659638122305 277.3064913928531 176.84509163867065 264.70262426822484 178.22895163926052 280" stroke-miterlimit="10" stroke-width="0.1"/><path fill="none" stroke="#000000" paint-order="fill stroke markers" d=" M 203.27739375659797 0 C 204.44325026663552 14.934264357766363 198.50799303588076 2.568329636378272 198.20605545170952 9.06432809487965 C 197.90411786753828 15.560326553381028 204.9608575537862 3.798267000335429 202.41471494468013 18.559995595718224 M 202.41471494468013 18.559995595718224 C 203.24448577679718 34.52508175419345 197.25522987541697 21.16781700181101 196.75301113302643 28.089764853345102 C 196.2507923906359 35.011712704879194 204.10543219232386 22.658885437277863 200.9798042521357 38.3369894572442 M 200.9798042521357 38.3369894572442 C 204.64731381519508 56.97079434915398 195.3523355701819 42.27349102768912 195.9288271185508 50.497842111445756 C 196.5053186669197 58.722193195202394 203.65904258941984 42.87190677699974 202.62692296176112 61.835135410834596 M 202.62692296176112 61.835135410834596 C 203.2484037907328 78.13381388295348 197.32665343444842 64.42281669249645 196.71674710458367 71.47725023281536 C 196.10684077471893 78.53168377313428 204.29395749907238 66.04049924240677 200.88433344786182 81.99065981174579 M 200.88433344786182 81.99065981174579 C 197.16439774418475 96.91695687122728 205.2778103339221 85.40263580704013 204.47910018015637 92.032729539784 C 203.68039002639063 98.66282327252787 198.5336151506403 85.55108190080921 198.60230443710256 100.93378476244257 M 198.60230443710256 100.93378476244257 C 195.7415068411698 117.8416984468654 203.7768054686984 104.35120519805136 203.4548880103809 111.78865711727603 C 203.1329705520634 119.2261090365007 196.29336534114267 105.09178087105167 197.68254027048116 122.18364738879878 M 197.68254027048116 122.18364738879878 C 194.33038669783897 136.3808387732049 201.8886042062447 125.36741077285517 201.20906374180532 131.66362456158777 C 200.52952327736594 137.95983835032035 195.49531320830647 125.58732942109187 195.74099608636863 140.1728296423205 M 195.74099608636863 140.1728296423205 C 195.9223075360927 153.7443117715048 200.2565241563662 142.09638170475412 201.06539966474188 147.9327956977253 C 201.87427517311755 153.7692096906965 194.53566380744869 143.73903064069708 198.05206896744198 156.84829819366675 M 198.05206896744198 156.84829819366675 C 200.76599217668874 174.01750648594165 192.7696734628871 160.25532631328855 193.01425224497862 167.79742728892026 C 193.25883102707013 175.33952826455197 200.3467142645319 161.08819052771588 198.7508654877034 178.39715812404307 M 198.7508654877034 178.39715812404307 C 201.19904919210975 195.20152166855442 193.55031054900905 181.66296432892915 193.70006241543348 189.03359236295591 C 193.8498142818579 196.40422039698268 200.94233170681073 182.56615932450853 199.1787279632018 199.45609536411953 M 199.1787279632018 199.45609536411953 C 196.83293096545614 216.4143759263475 204.4451581264221 202.71053076093025 204.34779914228238 210.14194837992244 C 204.25044015814268 217.57336599891462 196.9998320811242 203.674802865218 198.9005594370884 220.68871713266867 M 198.9005594370884 220.68871713266867 C 199.05893897755496 239.38496794883218 205.10785171681067 223.36885901933823 206.18279794742045 231.41410047258356 C 207.25774417803024 239.45934192582888 197.2161740107953 225.5931254575545 201.97183438168778 243.67512128479814 M 201.97183438168778 243.67512128479814 C 198.78528561825743 257.81238102468484 206.18227855330278 246.795348453147 205.5708484565882 253.05682835143674 C 204.95941835987364 259.3183082497265 199.83345149833954 247.07841548475952 200.2248912482176 261.56506385134026 M 200.2248912482176 261.56506385134026 C 200.7015681985498 276.4838648533348 195.35987908645257 263.90317406597245 194.76189679571905 270.35540171800335 C 194.16391450498554 276.80762937003425 201.72668069695013 265.4229031641389 198.5163704175504 280" stroke-miterlimit="10" stroke-width="0.1"/><path fill="none" stroke="#000000" paint-order="fill stroke markers" d=" M 221.6314474616381 0 C 222.03047974455717 15.331557399859244 216.6185601168805 2.3727536827911297 215.9649055479917 8.998603224118447 C 215.31125097910288 15.624452765445765 223.15103043408087 3.9729581861552696 219.76386297909863 18.930998689506623 M 219.76386297909863 18.930998689506623 C 222.62569626127515 35.11929435654217 214.8275408150896 22.243586757254825 215.18865307764835 29.371105144402716 C 215.5497653402071 36.49862353155061 222.00664666831733 22.90069140714578 220.79561230069504 39.295336938500604 M 220.79561230069504 39.295336938500604 C 219.85466820102593 56.913136511569704 226.4855157141432 42.18148146291664 227.02883669437406 49.82135365360551 C 227.57215767460494 57.46122584429438 218.92326080634442 43.81621275610306 222.34795795849755 61.12354319761167 M 222.34795795849755 61.12354319761167 C 219.27176447077994 77.17842400187074 227.20882102247066 64.48753593032536 226.74818510183704 71.56912577226791 C 226.28754918120342 78.65071561421045 220.06142604900901 65.0385557013978 221.03185532811574 81.35665703173323 M 221.03185532811574 81.35665703173323 C 216.8735010848036 96.76089341372251 225.5193432804435 84.9835010603503 224.55751110389306 91.84308349953942 C 223.59567892734262 98.70266593872853 218.5223562446043 85.00160923225546 218.2837633951145 100.95546400084498 M 218.2837633951145 100.95546400084498 C 215.87944447373428 118.5893658738464 223.7651150953671 104.32800130243251 223.67892627624184 112.05360697426129 C 223.59273745711658 119.77921264609006 216.02719673509185 105.34547043642564 218.03750962618523 123.02862306321292 M 218.03750962618523 123.02862306321292 C 219.79924219407062 137.814232795705 213.4043688592057 125.77232371964695 213.36712082592985 132.23637197345275 C 213.329872792654 138.70042022725855 219.86309596540067 126.73300721775219 217.93108667396848 141.49733235980094 M 217.93108667396848 141.49733235980094 C 216.30224284523442 158.01266869915997 223.15578998047997 144.44988370659618 223.3434215186831 151.65188941279038 C 223.53105305688624 158.85389511898458 215.98058877974336 145.6663732028271 218.46717678312027 162.07449152035576 M 218.46717678312027 162.07449152035576 C 215.82394391022885 176.6550751057399 222.9036665491709 165.07979999463754 222.55015150467685 171.50299469380488 C 222.1966364601828 177.92618939297222 216.42996970079014 165.64388419288164 217.4571337988515 180.42647637511956 M 217.4571337988515 180.42647637511956 C 215.5901017207312 195.3371726619065 222.11625942075574 183.22328875056667 222.114883094854 189.74689041677368 C 222.11350676895228 196.2704920829807 215.59246113656278 184.15385551983735 217.45320143913222 199.06533827856813 M 217.45320143913222 199.06533827856813 C 220.7990077428081 214.27487513848675 212.91135709138865 202.39496036623362 213.53365243743804 209.1269196607042 C 214.15594778348742 215.8588789551748 219.73221572100917 202.73437349082292 219.23118814213043 218.2995076913412 M 219.23118814213043 218.2995076913412 C 219.05606627783146 237.4175536751893 225.52925477200571 221.1516085671717 226.4832509065149 229.3965041682916 C 227.4372470410241 237.64139976941152 217.4206443329586 223.28344693041234 221.9568913835853 241.8563522659695 M 221.9568913835853 241.8563522659695 C 223.06364822874465 257.29605212674375 217.0116705070063 244.47900489440457 216.6570588478025 251.18954712609283 C 216.30244718859868 257.9000893577811 223.67155393023688 245.79226544384957 220.94371521443153 261.0293300707931 M 220.94371521443153 261.0293300707931 C 219.66650743146738 276.28334841540317 225.8026062986001 263.6812245570627 226.0737947029561 270.32095903228515 C 226.3449831073121 276.9606935075076 219.20161302399998 264.900946457879 221.7185392268772 280" stroke-miterlimit="10" stroke-width="0.1"/><path fill="none" stroke="#000000" paint-order="fill stroke markers" d=" M 238.97929741558772 0 C 240.0884877662461 15.761204903883883 233.9280882293993 2.6704467557854095 233.55721303947377 9.519614502493916 C 233.18633784954824 16.36878224920242 240.72427380611842 4.019774480955012 237.9196540158005 19.569050704881448 M 237.9196540158005 19.569050704881448 C 240.5704304888829 36.58956987636491 232.6772111589911 22.93346034027168 232.90259460739287 30.408110408845914 C 233.12797805579464 37.88276047742015 240.1840588630513 23.775884044523362 238.56360672551986 40.925193757950694 M 238.56360672551986 40.925193757950694 C 237.50498085171657 57.09220618102495 243.7564347454424 43.63822567035033 244.1709427302773 50.659480107340954 C 244.5854507151122 57.68073454433158 236.79439573485675 45.05577000332673 239.74791525361954 60.98592072078105 M 239.74791525361954 60.98592072078105 C 241.97098463703122 76.15941185775951 235.0539014028099 63.93890775992948 235.1944971529038 70.59488460111929 C 235.3350929029977 77.2508614423091 241.729963351156 64.74916584429126 240.14961739674493 80.0029974098948 M 240.14961739674493 80.0029974098948 C 240.21334319166112 95.27043034496901 235.1089341190158 82.2554699864164 234.31429268801418 88.83564171663616 C 233.51965125701255 95.41581344685592 241.5755856448068 83.99013595030655 237.87921330816883 98.80348806766555 M 237.87921330816883 98.80348806766555 C 235.10749782965425 116.48416281365489 243.32233961575164 102.30438488112651 243.0804062036371 110.06992175901117 C 242.83847279152255 117.83545863689582 235.5222408218506 103.17181388013834 237.18797498784156 120.99073629019314 M 237.18797498784156 120.99073629019314 C 240.5910723834374 137.71057598197325 232.15494224760909 124.56004507599653 232.72059283461604 131.9456812645262 C 233.286243421623 139.33131745305587 239.621385662854 125.04948537306525 238.80411952214718 142.09255397170648 M 238.80411952214718 142.09255397170648 C 240.5200144212216 159.42773506407374 233.32095964607504 145.1937225979771 233.12668154377963 152.75357956310083 C 232.9324034414842 160.31343652822457 240.85306259658515 146.46798026671874 238.24903922987454 163.69214530063147 M 238.24903922987454 163.69214530063147 C 236.13350605759862 175.4919993789029 241.84287457673938 166.11649263828548 241.56694473751207 171.31342002743264 C 241.29101489828477 176.5103474165798 236.60652863913117 166.58298099750778 237.46066826065365 178.54050926962339 M 237.46066826065365 178.54050926962339 C 240.73493192863543 194.23429326304384 232.7481936296888 181.91724183576343 233.31359576394294 188.85394759966664 C 233.87899789819707 195.79065336356985 239.76567112705695 182.34279766778118 239.07610292995116 198.35966859506112 M 239.07610292995116 198.35966859506112 C 236.57304496085976 213.71843266249692 243.79047795677425 201.43234559469352 243.53924797371988 208.18320862207847 C 243.2880179906655 214.93407164946342 237.0037249318101 202.1455246155513 238.35830297836725 217.64784867330386 M 238.35830297836725 217.64784867330386 C 237.3390182549718 236.83177601037184 244.55478348413192 220.7888014618446 245.14868769066524 229.10753164599518 C 245.74259189719857 237.42626183014576 236.32089675805753 222.57109569468514 240.055172139891 241.41564919944835 M 240.055172139891 241.41564919944835 C 239.32056870124862 256.9120441533101 245.07353766052063 243.92349113779449 245.59151436908263 250.63841684153874 C 246.10949107764463 257.353342545283 238.43260862942807 245.40074294689137 241.53510559292528 260.60115121014627 M 241.53510559292528 260.60115121014627 C 243.3158588219977 276.1401216982684 236.65555621110317 263.4612498880266 236.58593611426625 270.2508469644754 C 236.51631601742932 277.04044404092417 243.4352075594324 264.5008124243561 241.33619103053408 280" stroke-miterlimit="10" stroke-width="0.1"/><path fill="none" stroke="#000000" paint-order="fill stroke markers" d=" M 260.5397024742506 0 C 256.7715285951522 15.199362275993726 265.01645073705726 3.4678412311162514 264.2116645732299 10.218160497341925 C 263.4068784094025 16.9684797635676 258.15116201885616 3.627386391035428 258.2403134347439 19.286626474930497 M 258.2403134347439 19.286626474930497 C 256.42757812996433 36.010851096078426 263.5072341110404 22.33053328960229 263.62689869012024 29.63242348896953 C 263.74656326920007 36.934313688336765 256.2224388515417 23.4933250400203 258.58221223211484 40.14916990169404 M 258.58221223211484 40.14916990169404 C 256.7964021222097 56.03418355649905 263.57548296341037 43.061516779903386 263.6615578051715 50.00045089866043 C 263.7476326469327 56.93938501741748 256.6488452506192 44.138867924344105 258.8281403514324 59.97469595528561 M 258.8281403514324 59.97469595528561 C 260.66254435338016 75.26285312451746 254.03939356497116 62.815883326817605 254.00638990285157 69.50032663059159 C 253.97338624073197 76.18476993436558 260.7191220598709 63.80380746090492 258.73384417394783 79.07310539463985 M 258.73384417394783 79.07310539463985 C 257.7690576953722 94.12143730037906 263.5703620882082 81.59159866223827 263.96505655390007 88.12590706278769 C 264.35975101959195 94.66021546333711 257.09243861132904 82.91976575658005 259.86154264735313 97.74255796763819 M 259.86154264735313 97.74255796763819 C 262.0368033602798 115.16061874586848 254.4181068018278 101.00778385565529 254.4172466054915 108.62807792158901 C 254.4163864091552 116.24837198752273 262.03827798257055 102.09725748998211 259.85908494353515 119.5148267274488 M 259.85908494353515 119.5148267274488 C 258.34742824565694 136.44054698760883 265.23665797374434 122.48859536553962 265.4968677178977 129.86107176134047 C 265.7570774620511 137.2335481571413 257.90135439853685 123.80201602337883 260.60254135540197 140.5790450011655 M 260.60254135540197 140.5790450011655 C 261.9723319702722 158.80929804647016 254.7727347456668 143.69655118809018 254.38116938501759 151.62334122532982 C 253.98960402436836 159.55013126256947 262.6435868742423 145.22051512548794 259.48378318211843 163.2270165361359 M 259.48378318211843 163.2270165361359 C 260.4515841001469 175.65612484403073 255.51406441444965 165.36369728479147 255.2617035933291 170.7698870668554 C 255.00934277220853 176.17607684891934 260.8842026506392 166.38837093192117 258.7627522646311 178.67327305631852 M 258.7627522646311 178.67327305631852 C 260.5225157702524 192.97586043252642 254.28909264486083 181.3457268323929 254.27700529625574 187.6015978909082 C 254.26491794765064 193.85746894942352 260.5432369392897 182.25151004650016 258.72821698290227 196.5471903663623 M 258.72821698290227 196.5471903663623 C 261.2953948271062 211.85003510958734 254.04170971429608 199.63290342345493 254.32357160716413 206.36313073522442 C 254.60543350003218 213.0933580469939 260.812203010761 200.3125025751254 259.53353667681097 215.7764112571322 M 259.53353667681097 215.7764112571322 C 257.8410621509848 233.97161219213356 265.304587632306 218.99552835232876 265.5552632715271 226.9245943064892 C 265.80593891074824 234.85366026064966 257.41133248374865 220.37892769928706 260.24975278887126 238.43088541187635 M 260.24975278887126 238.43088541187635 C 258.6628060510378 255.4724303700325 265.6546331364242 241.4464859036595 265.88864696248896 248.87291009459472 C 266.12266078855373 256.29933428552994 258.2616394920696 242.74141747128638 260.9183637204849 259.64924024311983 M 260.9183637204849 259.64924024311983 C 262.42890249574987 275.9954151986768 255.73232305618552 262.5379363315197 255.50283803100044 269.6607022464277 C 255.27335300581535 276.78346816133575 262.8223053960671 263.7849593445487 260.2626922199561 280" stroke-miterlimit="10" stroke-width="0.1"/><path fill="none" stroke="#000000" paint-order="fill stroke markers" d="" stroke-miterlimit="10" stroke-width="0.1"/><path fill="none" stroke="#000000" paint-order="fill stroke markers" d=" M 0 19.84905765790779 C 14.337690857185216 22.16258376385747 2.8607519141719635 15.44472142063148 9.16156245835673 15.669287773961367 C 15.462373002541497 15.893854127291254 3.5363013528684695 21.7776128724348 18.002315840527906 20.490675810278898 M 18.002315840527906 20.490675810278898 C 34.886438399323374 23.297945420399742 21.398553700930293 15.316220830002676 28.822874859110232 15.616361139658054 C 36.24719601729017 15.916501449313431 22.159030699586335 22.78341917527624 39.214662006756306 21.348219552151406 M 39.214662006756306 21.348219552151406 C 55.54585549442057 22.224455136363876 41.89136051742367 16.07442844546274 48.97351808972125 15.572511817018498 C 56.055675662018835 15.070595188574254 43.40501394191042 23.08488364226829 59.44939792760655 19.91417204231071 M 59.44939792760655 19.91417204231071 C 79.422092948382 21.771866136424947 62.982952169465364 13.57932821073245 71.68660432194402 13.304112857847597 C 80.39025647442267 13.028897504962744 64.50154640127573 22.243663884227555 84.31697550611699 19.127842462639702 M 84.31697550611699 19.127842462639702 C 98.13704264047082 17.74448895897427 86.7944022461965 23.49691300269794 92.82215020042321 23.645164339122655 C 98.84989815464992 23.79341567554737 87.80376043322502 17.49034381081762 101.5391125181933 19.551417709567453 M 101.5391125181933 19.551417709567453 C 117.2035577044389 21.812048167652858 104.5762784277036 14.700501061067936 111.44576568644476 14.830840979137655 C 118.31525294518592 14.961180897207374 105.42729383231118 21.588608308104764 121.16621897173947 19.923817475480938 M 121.16621897173947 19.923817475480938 C 136.23316024137085 18.08782898413044 123.97559888905536 24.639161269777013 130.56483450858468 24.659570757252336 C 137.154070128114 24.67998024472766 124.93732775074916 18.052841291315605 139.99260645610894 19.982130296839 M 139.99260645610894 19.982130296839 C 153.97650713135963 20.705148992449004 142.2755596618089 15.462358190537552 148.33832557475742 15.020833130748365 C 154.40109148770594 14.579308070959177 143.58319413773359 21.462049094944756 157.314794778819 18.72063012601275 M 157.314794778819 18.72063012601275 C 175.04639815224627 16.02752543715663 160.79713297663383 24.19209132577511 168.58037545151015 23.986763333760095 C 176.36361792638647 23.78143534174508 161.703696766744 16.37951628061094 179.55263042132273 18.13397872025557 M 179.55263042132273 18.13397872025557 C 197.8848997275549 16.188583768289956 182.87543888096067 23.913402382414315 190.87716846413576 24.062508288826244 C 198.87889804731086 24.211614195238173 184.16764901354048 15.93297364301236 202.41471494468013 18.559995595718224 M 202.41471494468013 18.559995595718224 C 216.25693306283608 20.591712874190794 205.10983792329003 14.278359051181855 211.1820397353365 14.408210134007795 C 217.25424154738297 14.538061216833736 205.847444242185 20.369111017917753 219.76386297909863 18.930998689506623 M 219.76386297909863 18.930998689506623 C 234.22469060692262 21.25701940547667 222.64674463844761 14.487758732637383 229.00127150129327 14.711076938018572 C 235.35579836413893 14.93439514339976 223.33121598490152 20.874188196251772 237.9196540158005 19.569050704881448 M 237.9196540158005 19.569050704881448 C 254.1479391279601 17.31104537902635 241.03835898612974 24.606851925124655 248.15058978275994 24.508003444641822 C 255.26282057939014 24.40915496415899 241.95554347659407 17.48049991699692 258.2403134347439 19.286626474930497 M 258.2403134347439 19.286626474930497 C 275.6655322337403 21.32283875712405 261.4605925525535 13.820500513429204 269.0764828503932 13.759357099658928 C 276.69237314823283 13.698213685888652 262.6097202945866 21.427656037873092 280 19.11193100701542" stroke-miterlimit="10" stroke-width="0.1"/><path fill="none" stroke="#000000" paint-order="fill stroke markers" d=" M 0 38.83890593543286 C 13.848381996362704 41.27890953844161 2.8310724066174418 34.61490318630647 8.927914075981846 34.92029955395225 C 15.024755745346251 35.225695921598025 3.3966534203094376 40.75537290819171 17.419547626755442 39.71146698584936 M 17.419547626755442 39.71146698584936 C 34.442735065273745 38.445443084949034 20.326313696529 45.15717933768921 27.727549572400743 45.528448365529286 C 35.12878544827249 45.899717393369365 21.75490213520789 37.80898189436605 38.56593584353186 40.77223563682101 M 38.56593584353186 40.77223563682101 C 55.449788693246894 42.53862433473996 41.617842906263405 35.44574111930342 48.986000448336284 35.297516481883854 C 56.35415799040916 35.14929184446429 42.81866147826481 42.79272371317351 59.61781453516866 40.3487366727651 M 59.61781453516866 40.3487366727651 C 77.66243350214509 42.718950760499936 63.03909889013136 34.726547842664914 70.93979243447616 34.7759298130058 C 78.84048597882096 34.82531178334669 64.11838742612542 42.634295954201264 82.19122466186809 40.48982801659622 M 82.19122466186809 40.48982801659622 C 99.42059296586933 37.427241337183574 85.72237254641246 45.74116409477479 93.30916279087367 45.3496312030894 C 100.89595303533488 44.958098311404015 86.41466683250724 38.0984405800728 103.86776821747156 39.37116261178084 M 103.86776821747156 39.37116261178084 C 117.11380962145655 38.139815739333784 106.21101977278647 43.572579456356685 111.98331013225022 43.75540149459407 C 117.75560049171398 43.93822353283145 107.21845471951868 37.82640653092684 120.36002638736802 39.89351129245908 M 120.36002638736802 39.89351129245908 C 134.7082542113953 41.20881998869768 122.89213871502017 35.339796437038764 129.14373809209093 35.13379406950931 C 135.3953374691617 34.92779170197985 123.99122670784544 41.56196690446246 138.22173889328448 39.30493309951777 M 138.22173889328448 39.30493309951777 C 154.20551145642438 37.38733781428281 141.19211024685956 44.31160932871432 148.1806827894171 44.346232959243714 C 155.16925533197463 44.38085658977311 142.2251013834686 37.32798301908956 158.18908901487742 39.40385775817318 M 158.18908901487742 39.40385775817318 C 176.590480928863 42.176905625445265 161.79576212763456 33.722535121071566 169.87183352958914 33.92623463775878 C 177.94790493154372 34.129934154446 162.74578709694086 41.82770645398148 181.26357873474768 39.985856377279504 M 181.26357873474768 39.985856377279504 C 196.87167245665455 36.69514028951246 184.63322929236472 44.66758271862121 191.5339082234505 44.090479296608855 C 198.4345871545363 43.5133758745965 185.04193714622176 37.68446044153364 200.9798042521357 38.3369894572442 M 200.9798042521357 38.3369894572442 C 216.9282854391088 37.12208663739339 203.7125885891055 43.4346935915725 210.64812140610127 43.770115210012236 C 217.58365422309703 44.105536828451974 205.0388006099732 36.54707814863954 220.79561230069504 39.295336938500604 M 220.79561230069504 39.295336938500604 C 234.8470221586099 42.37602183654316 223.86827566928127 35.09781685521192 230.08707371796996 35.66826674201945 C 236.30587176665864 36.23871662882698 224.186225503715 41.39810774487311 238.56360672551986 40.925193757950694 M 238.56360672551986 40.925193757950694 C 254.6560935164215 42.30623522360487 241.37239158744492 35.80413880286345 248.37890351475318 35.53253045317362 C 255.38541544206143 35.26092210348379 242.64493021246452 42.77184953735886 258.58221223211484 40.14916990169404 M 258.58221223211484 40.14916990169404 C 275.53233070198473 43.763842633988084 262.2551597583931 35.07089057638004 269.75138547715295 35.71528168191371 C 277.2476111959128 36.35967278744738 262.6816580412537 42.65917216735893 280 41.99028734607595" stroke-miterlimit="10" stroke-width="0.1"/><path fill="none" stroke="#000000" paint-order="fill stroke markers" d=" M 0 59.38373725504835 C 15.010292872898262 59.81325585856577 2.3358835733562753 54.48157002375763 8.82498381264031 53.85834688288599 C 15.314084051924345 53.23512374201435 3.88612103412563 60.88163838577428 18.540286397954386 57.60309970970082 M 18.540286397954386 57.60309970970082 C 35.187630296755685 56.15582800607685 21.45207268513174 62.8980045195439 28.70116622557974 63.170959841764414 C 35.95025976602774 63.443915163984926 22.76061279884482 55.687904596555974 39.251982227805826 58.38297205890229 M 39.251982227805826 58.38297205890229 C 55.90437692378162 59.9006425300733 42.18779245460501 53.09668565140452 49.44285242593456 52.85378398612564 C 56.69791239726411 52.61088232084676 43.467131258645246 60.31704538483709 59.980725003033115 57.68896730096264 M 59.980725003033115 57.68896730096264 C 77.25653301776748 57.821831694234554 62.46170333664281 63.422691671006824 69.89643562950606 64.4101613796712 C 77.3311679223693 65.39763108833557 64.51127765857336 56.12902647938135 81.22281726835666 60.510309325717984 M 81.22281726835666 60.510309325717984 C 99.04863164405467 64.6129508898347 85.1851561944742 55.213695260819556 93.08488000976578 56.02113546820918 C 100.98460382505736 56.828575675598806 85.50624796069768 63.22876767716679 103.79345674061831 62.817281346831194 M 103.79345674061831 62.817281346831194 C 118.57684193445684 64.82375916407085 106.61778647003553 58.22064684831194 113.09405505138656 58.28894732068541 C 119.5703236327376 58.35724779305888 107.47466722356934 64.70667264000204 122.29708125876414 63.012425553612545 M 122.29708125876414 63.012425553612545 C 134.90465744937723 62.75551656846487 124.05474942230492 58.804679038888175 129.47187175906106 58.015141065791546 C 134.8889940958172 57.22560309269492 125.61816201493811 64.10901023663051 137.77457364949598 60.75660277333647 M 137.77457364949598 60.75660277333647 C 153.78019459525407 58.39305189555279 140.89564661652756 65.70532765018038 147.917643763504 65.54902378452208 C 154.93964091048045 65.39271991886378 141.7424852004373 58.66100137953845 157.83742264085728 60.310020300027034 M 157.83742264085728 60.310020300027034 C 176.51598715252018 63.17718013048559 161.51573493648277 54.55077232139017 169.71627133237763 54.78008769772893 C 177.9168077282725 55.00940307406769 162.45792475955756 62.784068056762 181.26752662912833 60.96520708956635 M 181.26752662912833 60.96520708956635 C 198.26805086310773 63.79708937984422 184.68891815934032 55.755847254598386 192.1647068757618 56.06032216704227 C 199.64049559218327 56.36479707948616 185.45241306352804 63.275132387083275 202.62692296176112 61.835135410834596 M 202.62692296176112 61.835135410834596 C 218.33259173782798 59.29375814058261 205.76297626457733 66.65865532803527 212.66533851343507 66.40959805340724 C 219.56770076229282 66.16054077877921 206.4999707397861 59.720713468516365 222.34795795849755 61.12354319761167 M 222.34795795849755 61.12354319761167 C 236.28168604227818 62.75344094565938 224.9235459335582 56.75291050230658 231.0135309868509 56.70474263541586 C 237.1035160401436 56.65657476852515 225.841711665205 62.83601443175775 239.74791525361954 60.98592072078105 M 239.74791525361954 60.98592072078105 C 254.9109728553203 58.26891839860341 242.8627552096653 65.60429328040995 249.5408339938998 65.25036461248655 C 256.2189127781343 64.89643594456315 243.46283779663258 58.87565325790067 258.8281403514324 59.97469595528561 M 258.8281403514324 59.97469595528561 C 275.6796531985418 62.779680894099634 262.2188564780792 54.8106933507607 269.6290073550779 55.111605401867 C 277.03915823207655 55.412517452973304 262.97653740940126 62.263831663631684 280 60.83444467273219" stroke-miterlimit="10" stroke-width="0.1"/><path fill="none" stroke="#000000" paint-order="fill stroke markers" d=" M 0 78.75102892535864 C 14.555871070984768 80.47145755505294 2.69646139558127 74.18784190929594 9.059321244681325 74.14517195364968 C 15.42218109378138 74.10250199800342 3.6481113296703893 80.5446060504465 18.1795995688573 78.62911476636934 M 18.1795995688573 78.62911476636934 C 34.23288240425002 75.83518545228246 21.449994448689587 83.53070326601731 28.515697094694204 83.19157202185488 C 35.58139974069882 82.85244077769245 22.12024929681353 76.41655329941806 38.36732141458478 77.66016835447668 M 38.36732141458478 77.66016835447668 C 54.28154286733727 80.29330853351452 41.56420783997651 72.78107713088716 48.56134924464885 73.05843328363217 C 55.55849064932119 73.33578943637718 42.286443316470404 79.8178408430945 58.3591539993629 78.45261450517671 M 58.3591539993629 78.45261450517671 C 74.79755076901193 82.0680419901518 61.95756107995721 73.54370728301993 69.23339347607391 74.21597775818194 C 76.50922587219061 74.88824823334394 62.32469523281188 80.91557831844548 79.14724655969634 80.3733872913539 M 79.14724655969634 80.3733872913539 C 97.12890013118876 83.04865279553279 82.66022990229672 74.816609914471 90.55022573716462 75.00078909319078 C 98.44022157203253 75.18496827191055 83.60319298570091 82.7329170605846 101.69009180217607 80.89961351626754 M 101.69009180217607 80.89961351626754 C 118.2114767655495 84.43635463570382 105.27460089786727 75.95175603814624 112.58194509621316 76.58566225310638 C 119.88928929455905 77.21956846806651 105.68460099695653 83.34965826720074 122.56821808316434 82.71077413043936 M 122.56821808316434 82.71077413043936 C 134.79491647548141 79.36031436908102 125.46342607695227 86.26530717200727 130.91072091002354 85.4803928805469 C 136.3580157430948 84.69547858908653 125.45669676164496 80.70588172587023 138.1319176062251 80.46816186912403 M 138.1319176062251 80.46816186912403 C 153.41252995468966 81.0001603997168 140.1892691278046 85.60027189270279 146.74304068011128 86.65224269387546 C 153.29681223241795 87.70421349504814 142.17749300787824 79.1967818834208 156.85697918424415 83.47379272961739 M 156.85697918424415 83.47379272961739 C 175.55219429320033 81.21618942879591 160.33610248428639 89.32763724476744 168.51098917049634 89.36179663643429 C 176.6858758567063 89.39595602810114 161.53810283112608 81.15763047165274 180.2137982877012 83.57139099152266 M 180.2137982877012 83.57139099152266 C 196.592153297852 80.2397525316851 183.7095613566695 88.50191510459629 190.94424866272573 87.94865919167438 C 198.17893596878196 87.39540327875247 184.18983220175562 81.18819123955123 200.88433344786182 81.99065981174579 M 200.88433344786182 81.99065981174579 C 217.0657512300662 83.49820977576114 203.74796103489678 76.85867892468042 210.79959369298564 76.63677795167602 C 217.8512263510745 76.41487697867163 204.97723810191388 83.87861144376868 221.03185532811574 81.35665703173323 M 221.03185532811574 81.35665703173323 C 236.46143094520292 82.18550554112541 223.5611047329505 76.37416757130018 230.25232145697072 75.90038670365672 C 236.94353818099094 75.42660583601327 224.99077370402543 82.99770131422848 240.14961739674493 80.0029974098948 M 240.14961739674493 80.0029974098948 C 255.10998802003274 81.11750647541113 242.70477840951162 75.21745691330584 249.20925778153264 74.8919947079666 C 255.71373715355367 74.56653250262737 243.95945195371098 81.67544168456409 258.73384417394783 79.07310539463985 M 258.73384417394783 79.07310539463985 C 275.6962824056969 81.60361240998647 262.0499836205873 73.83229608176582 269.49313815970555 74.00899858359018 C 276.9362926988238 74.18570108541455 262.93658891006555 81.30069383543041 280 79.5779696855666" stroke-miterlimit="10" stroke-width="0.1"/><path fill="none" stroke="#000000" paint-order="fill stroke markers" d=" M 0 96.50988986244668 C 14.505325468890446 98.3568361958852 2.7309221249751845 91.98191282531624 9.078820975682373 91.99646448985719 C 15.426719826389562 92.01101615439813 3.6232131533924083 98.33189048524356 18.136853859163395 96.55146604684938 M 18.136853859163395 96.55146604684938 C 33.724101279415095 94.34100541885628 21.146142382151748 101.38418056330286 27.97967376622903 101.27129546156554 C 34.81320515030632 101.15841035982822 22.00947604956832 94.53452273612027 37.66122924224135 96.22893718474275 M 37.66122924224135 96.22893718474275 C 51.387438088948315 100.5605238840112 41.10012305882578 92.3218076991866 47.24619076890631 93.44861841635648 C 53.39225847898684 94.57542913352636 40.85132201452454 98.62884836886283 55.221422699614294 99.44839637665669 M 55.221422699614294 99.44839637665669 C 73.90445242626687 103.62786435878381 59.33445876144403 93.87947032599787 67.60758138119353 94.6738472407098 C 75.88070400094301 95.46822415542174 59.7219565066963 102.2660753621348 78.85891589889856 101.71804470440506 M 78.85891589889856 101.71804470440506 C 96.20640125595042 99.15399353490656 82.2424268379172 107.08131315158012 89.85325405469715 106.91089416702202 C 97.4640812714771 106.74047518246392 83.15926888432764 99.44614036557759 100.60413651826987 101.23113331995334 M 100.60413651826987 101.23113331995334 C 117.62154438573096 103.7295813031336 103.9177058471815 95.9674561921041 111.3828133584129 96.12738874584153 C 118.84792086964431 96.28732129957896 104.82421722361997 103.45541121101228 121.93301512178817 101.68808347348887 M 121.93301512178817 101.68808347348887 C 136.590596009919 100.71886878412495 124.39586334115074 106.39470577419435 130.76208666854208 106.76645226352156 C 137.12830999593342 107.13819875284877 125.67707030581956 100.08158908813547 140.12222462862056 102.75021630013802 M 140.12222462862056 102.75021630013802 C 153.70799320980285 104.80181151962378 142.78644153231556 98.55631060921026 148.74924312525872 98.70853331861738 C 154.71204471820187 98.86075602802451 143.48604762190033 104.54085830349729 157.15880060845814 103.18513832701552 M 157.15880060845814 103.18513832701552 C 174.9854341030462 101.01256696659568 160.4828514153445 108.76411051485637 168.27900122472812 108.78812927084564 C 176.07515103411174 108.81214802683492 161.6206058583886 100.97139195632836 179.4335143495542 103.25376334412775 M 179.4335143495542 103.25376334412775 C 195.0005442777614 103.31465948753444 181.72883821726515 98.11356903498788 188.4379147479071 97.30157653139807 C 195.14699127854902 96.48958402780826 183.49927022523238 104.70664663654554 198.60230443710256 100.93378476244257 M 198.60230443710256 100.93378476244257 C 214.34530367967187 102.9192740489657 201.55994309040494 96.01667190869995 208.44845372570913 96.02425964214079 C 215.33696436101332 96.03184737558163 202.53642830486473 102.90626650592425 218.2837633951145 100.95546400084498 M 218.2837633951145 100.95546400084498 C 234.1753209188759 101.19342824560688 220.6850868987778 95.7338051326045 227.5434943683468 94.9806135559917 C 234.40190183791583 94.22742197937889 222.41805097104333 102.48461380551453 237.87921330816883 98.80348806766555 M 237.87921330816883 98.80348806766555 C 255.571169789519 100.1529769215621 240.91133018403966 93.14876621786537 248.60514545275416 92.7774406828558 C 256.2989607214687 92.40611514784622 242.38177218600842 100.78953498157851 259.86154264735313 97.74255796763819 M 259.86154264735313 97.74255796763819 C 276.1896557175445 98.01762619831197 262.33894328006556 92.38192284736569 269.38740335349195 91.62120768910717 C 276.43586342691833 90.86049253084865 264.10658130595635 99.32170932675515 280 95.56908608689957" stroke-miterlimit="10" stroke-width="0.1"/><path fill="none" stroke="#000000" paint-order="fill stroke markers" d=" M 0 118.87945997752601 C 14.670543233825756 117.05230006917371 2.7485245961679894 123.4649778298015 9.166528753496515 123.46784588956343 C 15.58453291082504 123.47071394932537 3.6682503926911365 117.04738339529611 18.33715473522436 118.88765443398867 M 18.33715473522436 118.88765443398867 C 33.57952500723993 116.84475333850682 21.240614598870632 123.63078367154648 27.91656108272636 123.57150775275514 C 34.592507566582086 123.5122318339638 22.135045320630105 116.94636919929198 37.41128754624073 118.7182946660134 M 37.41128754624073 118.7182946660134 C 52.84153881397834 116.18333572161778 40.50496453621017 123.45165300885341 47.288339794703056 123.19053037799193 C 54.071715053195945 122.92940774713045 41.212895513704815 116.63097451738031 56.79235971336327 117.97223000640919 M 56.79235971336327 117.97223000640919 C 72.99759051735455 116.61414761436629 59.61002839131466 123.13393276889235 66.66387071260552 123.42150201253493 C 73.71771303389637 123.70907125617751 60.90528939514164 116.12117176812185 76.94619491705144 118.79385641681658 M 76.94619491705144 118.79385641681658 C 93.56490683565177 122.63375595736161 80.64520419933486 113.85811394582075 88.01079777029973 114.6173707984386 C 95.37639134126461 115.37662765105645 80.93817499971199 121.33217278144531 97.99074797695108 120.96316171001043 M 97.99074797695108 120.96316171001043 C 115.22223943186154 126.17157521592118 102.23197965693157 116.02474420271162 109.93522901090357 117.34051894230107 C 117.63847836487557 118.65629368189053 102.01666911076667 123.91596137662498 120.00003184544252 124.72251810883745 M 120.00003184544252 124.72251810883745 C 135.80548615638008 125.76299700521275 122.65421818738061 119.64663013699757 129.5187473695893 119.24377350638568 C 136.38327655179802 118.84091687577379 124.03772184402231 126.453608371976 139.6129723660388 123.57149916423205 M 139.6129723660388 123.57149916423205 C 153.63356779565405 123.3877316746938 141.60135168228916 118.90705927365757 147.6310976179175 118.07294275503104 C 153.66084355354585 117.2388262364045 143.29686047743402 124.81764570662499 156.84081789640553 121.18830911101338 M 156.84081789640553 121.18830911101338 C 174.03489682442356 119.41893087590032 159.9390545405763 126.61697993745666 167.44100890684402 126.78062125537815 C 174.94296327311173 126.94426257329964 161.1744036251075 119.1384029023206 178.27497322859895 121.65585573364622 M 178.27497322859895 121.65585573364622 C 193.74824769658946 124.01884576195648 181.3180561986694 116.88313272144855 188.1107046633282 117.06785980075195 C 194.90335312798697 117.25258688005535 182.10370747146013 123.70217076886495 197.68254027048116 122.18364738879878 M 197.68254027048116 122.18364738879878 C 213.882018187603 124.89512486390049 200.94702959244032 117.22165140103489 208.07126886693675 117.51739288707984 C 215.19550814143318 117.81313437312478 201.66903657418055 124.38813945925202 218.03750962618523 123.02862306321292 M 218.03750962618523 123.02862306321292 C 233.1540932382083 119.48326710863147 221.4195511236886 127.51055638767403 228.12221400026831 126.7972960171171 C 234.82487687684804 126.08403564656018 221.6638140212145 120.70599917244333 237.18797498784156 120.99073629019314 M 237.18797498784156 120.99073629019314 C 255.17727199612202 117.54289764442832 240.9576188718817 126.43712734470488 248.89250735637444 125.92055899774437 C 256.8273958408672 125.40399065078385 241.57460602270584 118.42844338207492 259.85908494353515 119.5148267274488 M 259.85908494353515 119.5148267274488 C 275.60930948456206 114.60067518864268 263.7864909623673 124.00629423534758 270.83581123212997 122.73751797084024 C 277.88513150189266 121.4687417063329 263.5247604506832 116.77572021351241 280 115.88975168599927" stroke-miterlimit="10" stroke-width="0.1"/><path fill="none" stroke="#000000" paint-order="fill stroke markers" d=" M 0 140.1842559903367 C 16.219907269900705 137.16600595176345 3.3689460752827927 145.10817338935854 10.518504209009349 144.68138376419856 C 17.668062342735904 144.25459413903857 3.96352189779804 137.89764530918058 20.427308953504447 138.9648570613082 M 20.427308953504447 138.9648570613082 C 36.33672101701996 135.77545351185654 23.807487275298428 143.76105745585886 30.83250958609097 143.2438211918228 C 37.857531896883515 142.72658492778675 24.293825627089888 136.66214425020402 40.49880127005457 137.48703916406237 M 40.49880127005457 137.48703916406237 C 55.41456254328753 139.33814381497956 43.291085609907384 132.82391034574243 49.81601148573405 132.81815289604037 C 56.34093736156072 132.81239544633831 44.22897532758468 139.34801372875452 59.141446629559326 137.47058930777078 M 59.141446629559326 137.47058930777078 C 75.71958717678407 136.85752803156257 61.76718743936104 142.8645268407147 68.94155128226906 143.49310801273708 C 76.11591512517708 144.12168918475948 63.42067773179888 135.77996030809558 79.63962903786796 139.2665355135491 M 79.63962903786796 139.2665355135491 C 94.90560764736509 143.50370513706915 83.27233586395879 134.8362981492299 90.07660501393171 135.8395262157733 C 96.88087416390464 136.84275428231672 83.2411462474115 141.7838855944233 99.08039803779059 142.13290141795883 M 99.08039803779059 142.13290141795883 C 116.56387344958075 141.55276331892236 101.82756704611815 147.8311077166149 109.3901485057605 148.52261998074172 C 116.95272996540284 149.21413224486855 103.59944809019387 140.36731372327634 120.68777363676871 144.10865074403551 M 120.68777363676871 144.10865074403551 C 136.71223083560872 145.8086257105579 123.59210910091042 139.05671124260323 130.58648931553117 138.92615276362918 C 137.58086953015192 138.79559428465512 124.72186475340172 146.03244024594198 140.6717171071137 143.73562651839538 M 140.6717171071137 143.73562651839538 C 154.3668595298124 139.68270972858798 144.0138950147521 147.67320886585463 150.1315749624427 146.66476776377522 C 156.2492549101333 145.6563266616958 143.8794081909142 141.41146590358125 158.15080267194398 140.8543662267399 M 158.15080267194398 140.8543662267399 C 172.19225685343102 136.41326552915038 161.6719946676717 144.8497632771225 167.95975727572093 143.69275204793325 C 174.24751988377017 142.53574081874402 161.41323523963231 138.3967133506177 176.1158386949418 137.54861985762776 M 176.1158386949418 137.54861985762776 C 191.55354362961398 141.6105034245246 179.71566474982902 133.03596197747495 186.58446983682842 133.9544354021174 C 193.45327492382782 134.87290882675987 179.7784491947579 140.035977553709 195.74099608636863 140.1728296423205 M 195.74099608636863 140.1728296423205 C 213.62551882819656 139.01342275754487 198.7383839951385 145.9190276968425 206.50491570079845 146.38260364796065 C 214.2714474064584 146.8461795990788 200.31146447563663 138.2187211270566 217.93108667396848 141.49733235980094 M 217.93108667396848 141.49733235980094 C 234.5699907913209 144.06081293414323 221.21084700417168 136.36835738954207 228.51640850103422 136.57668495370902 C 235.82196999789676 136.78501251787597 222.04617108241365 143.7036799669999 238.80411952214718 142.09255397170648 M 238.80411952214718 142.09255397170648 C 256.3942078858051 143.0615889785992 241.69550555450013 136.41592216781163 249.32495319613932 135.88619402812228 C 256.9544008377785 135.35646588843292 243.31515478585223 143.96969436092377 260.60254135540197 140.5790450011655 M 260.60254135540197 140.5790450011655 C 275.8547977891595 136.51361528133853 264.17643635689393 145.02984393943368 270.96554688250325 144.09985725271054 C 277.75465740811256 143.1698705659874 264.2163226024007 138.1078781728639 280 137.92194018195656" stroke-miterlimit="10" stroke-width="0.1"/><path fill="none" stroke="#000000" paint-order="fill stroke markers" d=" M 0 159.42954776932376 C 16.82472394173071 157.75119507116875 3.014145545488841 164.74935106339663 10.3520917733658 164.93231503643844 C 17.69003800124276 165.11527900948025 4.245387551084489 157.43754254595422 20.965560651077027 159.95230197801462 M 20.965560651077027 159.95230197801462 C 37.009741063616325 156.75151583537618 24.36920089701318 164.79141598593046 31.452890174710635 164.2765332082383 C 38.53657945240809 163.76165043054615 24.866273730420676 157.63417202570554 41.20467287306976 158.48120832746565 M 41.20467287306976 158.48120832746565 C 54.55308952627509 154.73654078801255 44.39421610851118 162.34915627237504 50.345939226631714 161.45482961362939 C 56.29766234475225 160.56050295488373 44.35013560949702 156.26967220300511 58.20959606769986 155.92598930247806 M 58.20959606769986 155.92598930247806 C 75.30028749452784 155.32022729273282 60.90783378715198 161.49052971146608 68.30259574077185 162.14985407640503 C 75.69735769439171 162.809178441344 62.62355271689378 154.1899569528375 79.33748736375664 157.80977320230363 M 79.33748736375664 157.80977320230363 C 96.66721511964695 160.76560531127814 82.84799204104756 152.50963871435926 90.47226572637587 152.84978105136958 C 98.09653941170417 153.1899233883799 83.59703165908415 160.1825041621176 101.12112646469464 158.7816084509045 M 101.12112646469464 158.7816084509045 C 118.40049410136415 163.00924604086586 105.04494493750278 153.68401080346203 112.71600686660449 154.5747195079324 C 120.3870687957062 155.46542821240277 105.25010222290408 161.48231683320236 123.03844626212809 161.32649046367703 M 123.03844626212809 161.32649046367703 C 137.53637185016223 158.0935299990563 126.22673769406148 165.64944855181298 132.646080433925 165.03744619102434 C 139.0654231737885 164.4254438302357 126.53178429611049 159.1426769032654 141.379425518881 159.57791228999523 M 141.379425518881 159.57791228999523 C 154.82960554544005 156.6899265224419 144.30047789203033 163.60472776352233 150.24990852172402 163.08491281892947 C 156.19933915141772 162.5650978743366 144.63058160882227 157.58103785602967 158.37779874657727 158.09272673401563 M 158.37779874657727 158.09272673401563 C 173.60784758301634 160.2562496480288 161.3193557711535 153.37130239093386 167.9964895806818 153.4832019396236 C 174.6736233902101 153.59510148831333 162.16133248096781 160.06442185027498 177.45532391665816 158.412439730272 M 177.45532391665816 158.412439730272 C 193.7763058036247 155.1014519959094 180.93587105842704 163.3270047624772 188.14473182620137 162.77955522466536 C 195.3535925939757 162.23210568685352 181.41825877315438 156.03993691787258 198.05206896744198 156.84829819366675 M 198.05206896744198 156.84829819366675 C 214.90677455265353 158.98774207345014 199.8077868081215 162.7360041465897 206.9530745436089 164.56517181093085 C 214.09836227909628 166.394339475272 202.65770986324654 155.8520260774367 218.46717678312027 162.07449152035576 M 218.46717678312027 162.07449152035576 C 234.1309013624961 165.34680078925174 221.83886959520234 157.37167397570855 228.76252145156633 157.93785279880504 C 235.68617330793032 158.50403162190153 222.26178389444354 164.3762085210863 238.24903922987454 163.69214530063147 M 238.24903922987454 163.69214530063147 C 255.1903215152201 161.19656789381062 241.55053301383504 168.9310619740181 248.98269339712039 168.76826690644464 C 256.41485378040574 168.60547183887118 242.44947514387377 161.47564515250798 259.48378318211843 163.2270165361359 M 259.48378318211843 163.2270165361359 C 276.0114291946324 164.36125775225432 262.2745343092789 157.92595349435243 269.45521019553746 157.52459954062192 C 276.635886081796 157.12324558689141 263.7016991039035 165.04929310150663 280 162.08029095404873" stroke-miterlimit="10" stroke-width="0.1"/><path fill="none" stroke="#000000" paint-order="fill stroke markers" d=" M 0 181.3585588823944 C 16.71054797219956 179.36728947170678 3.1009615087027553 186.59486229779066 10.406573603456513 186.63688344245907 C 17.71218569821027 186.67890458712748 4.18664152405026 179.29525322370384 20.873177413582166 181.47861929573267 M 20.873177413582166 181.47861929573267 C 37.68929740246717 179.73170426183813 23.908743769322783 186.78555601787158 31.246675497129104 186.9385221565185 C 38.584607224935425 187.09148829516542 25.109985869084902 179.46947659558623 41.838696635885945 181.91566540615247 M 41.838696635885945 181.91566540615247 C 55.656927273846435 180.22658968212863 43.29958991271844 177.0981549739313 49.1611082639309 175.6264945507693 C 55.02262661514336 174.15483412760733 45.60861010033935 182.7494361218349 58.58589192506441 177.71092133997536 M 58.58589192506441 177.71092133997536 C 73.81103900795273 179.2778819249457 61.32940807682288 172.90392846728489 67.97230777479625 172.75911126096273 C 74.61520747276961 172.61429405464057 62.423210954284094 179.52613999292652 77.56560534784546 177.29715789334062 M 77.56560534784546 177.29715789334062 C 94.42923817414375 180.7523029505791 81.17314581831408 172.22416977454603 88.62352623118618 172.80449818547885 C 96.07390664405827 173.38482659641167 81.657157466363 179.75745424612282 98.85240652748003 178.95523906743438 M 98.85240652748003 178.95523906743438 C 117.24271022695693 177.368128420329 102.0651875129846 184.8062233503767 110.0726242952957 185.112792040057 C 118.0800610776068 185.4193607297373 103.51567574299501 176.84258209516278 121.73079733408319 179.83114960937803 M 121.73079733408319 179.83114960937803 C 140.03098974192324 181.01035073151712 124.79548428793659 173.95035382309743 132.74213953942902 173.47292240759674 C 140.68879479092146 172.99549099209605 126.40815216793621 181.8288045866612 144.43552662406157 178.46705985080462 M 144.43552662406157 178.46705985080462 C 158.4221846604959 177.70288532066826 146.22696506941838 173.72901668434872 152.21083913349045 172.64670606940504 C 158.19471319756252 171.56439545446136 148.16411483637236 179.55827494628596 161.53230966426744 175.3747438081084 M 161.53230966426744 175.3747438081084 C 177.4463451995458 178.27061180894123 164.81607119662206 170.53411276194575 171.8272793964791 170.92465398732799 C 178.83848759633614 171.31519521271022 165.42713114264797 177.60111256542885 181.56433309243045 176.49057588062905 M 181.56433309243045 176.49057588062905 C 195.1229007843074 179.73449491488756 184.6189585125749 172.4799301183229 190.63424485092042 173.14723390351782 C 196.64953118926596 173.81453768871273 184.81098134714364 178.59054556883916 198.7508654877034 178.39715812404307 M 198.7508654877034 178.39715812404307 C 213.51294831151424 181.89123955601906 202.06413529714476 174.0249887839175 208.61132920604658 174.7352501717943 C 215.1585231149484 175.44551155967108 202.28918732482538 180.6736486053732 217.4571337988515 180.42647637511956 M 217.4571337988515 180.42647637511956 C 233.2713646577436 176.9173492445424 220.92915574449586 185.14446492474568 227.9303928061266 184.48437643782202 C 234.93162986775735 183.82428795089837 221.26924398066228 178.0489295078401 237.46066826065365 178.54050926962339 M 237.46066826065365 178.54050926962339 C 254.4890590851661 180.77692869937724 240.68917180792403 173.2349028366333 248.14490120931615 173.28137016197658 C 255.60063061070827 173.32783748731987 241.70780868277964 180.69727042736017 258.7627522646311 178.67327305631852 M 258.7627522646311 178.67327305631852 C 275.47992891725903 182.97797011519327 262.6298932641045 173.77289342597717 270.06292997148364 174.72706880081248 C 277.49596667886277 175.68124417564778 262.73758027603765 181.34224090118985 280 181.39948841299085" stroke-miterlimit="10" stroke-width="0.1"/><path fill="none" stroke="#000000" paint-order="fill stroke markers" d=" M 0 202.8321552061931 C 16.640733197840248 200.1188008841514 3.3296012815904517 207.93983055533417 10.64402081492388 207.6670404811076 C 17.95844034825731 207.394250406881 4.1017282835543645 200.58644101139694 20.898341523809798 202.05275499411718 M 20.898341523809798 202.05275499411718 C 36.380133807264876 200.4764638537121 23.68245361937183 206.9432745058162 30.436410587497367 207.09789175290467 C 37.1903675556229 207.25250899999315 24.80192186190681 200.21140571584615 40.1953614327399 202.4945185572271 M 40.1953614327399 202.4945185572271 C 56.510036219459515 202.49397551507957 42.57963427993473 197.09804676007522 49.60746494732908 196.21933034571137 C 56.635295614723425 195.34061393134752 44.46232650392634 204.00034651113185 60.27487762529518 199.98390023047327 M 60.27487762529518 199.98390023047327 C 74.89665405262288 196.54948911868945 63.54790400934081 204.31838157855938 70.03144522251648 203.62626936880093 C 76.51498643569215 202.93415715904248 63.78201197289315 197.7359671925611 78.79928109151139 198.00643677402053 M 78.79928109151139 198.00643677402053 C 96.63808563444736 197.64546857342557 81.52588816029112 203.85420753967395 89.22973302035712 204.6592645594219 C 96.93357788042312 205.46432157916985 83.43149444576281 196.26537082528623 100.81026640598566 200.30659968758613 M 100.81026640598566 200.30659968758613 C 117.81296027482341 203.0626609294432 104.20689576681467 195.0854406663189 111.67953642333708 195.3571373775661 C 119.1521770798595 195.62883408881328 105.00271914935641 202.59689513873377 122.16066828176398 201.0828760054352 M 122.16066828176398 201.0828760054352 C 139.28845962538838 198.5900968739483 125.48849549855474 206.38389311526288 133.00084756904224 206.2323462540483 C 140.51319963952974 206.08079939283374 126.41014179026695 198.8498914931733 143.62453134029968 200.64988497339357 M 143.62453134029968 200.64988497339357 C 158.68549369077127 200.51163382647397 145.7800196890798 195.64797610522626 152.26037456291036 194.7774468692201 C 158.7407294367409 193.90691763321396 147.57631390706175 202.00396965962736 162.1398309798155 198.1626585848046 M 162.1398309798155 198.1626585848046 C 176.58684517105218 200.49465735049688 165.0226711071868 193.72486140268904 171.3715694615645 193.95149856838222 C 177.7204678159422 194.1781357340754 165.70301942069042 200.1061364950229 180.27954056375177 198.81019334392795 M 180.27954056375177 198.81019334392795 C 195.33430028129263 201.2168337000262 183.27589417871718 194.18228179709416 189.89060976852468 194.4083475041612 C 196.5053253583322 194.63441321122826 183.9947878416226 200.8292924879113 199.1787279632018 199.45609536411953 M 199.1787279632018 199.45609536411953 C 213.759231035391 197.31604234808538 202.0175882559792 203.96610017026944 208.41365397255484 203.82933519032645 C 214.80971968913047 203.69257021038345 202.79454694983272 197.5504965994162 217.45320143913222 199.06533827856813 M 217.45320143913222 199.06533827856813 C 234.68095566343666 196.33851238268065 220.8730540836318 204.36521319874686 228.44106960541845 204.1182288095194 C 236.00908512720508 203.87124442029193 221.7072147689453 196.76191419278484 239.07610292995116 198.35966859506112 M 239.07610292995116 198.35966859506112 C 254.97904199518194 198.87489741739716 241.5708004807191 193.1747683475185 248.449040399252 192.54040096747391 C 255.3272803177849 191.90603358742933 243.18777356341127 199.9623843546165 258.72821698290227 196.5471903663623 M 258.72821698290227 196.5471903663623 C 275.4799208683596 200.80014889383878 262.58329075601904 191.62782840441912 270.02841481200323 192.55785725319205 C 277.47353886798743 193.487886101965 262.71685105810093 199.20581372451372 280 199.2044156485707" stroke-miterlimit="10" stroke-width="0.1"/><path fill="none" stroke="#000000" paint-order="fill stroke markers" d=" M 0 221.64901407145527 C 16.411189133562694 219.91650379993962 2.971619501637414 226.82411743748912 10.134343835330647 226.96148473541268 C 17.29706816902388 227.09885203333624 4.132233132945722 219.68101700349925 20.464926667694954 222.0414920655226 M 20.464926667694954 222.0414920655226 C 35.881601621538174 220.5300627674237 23.218067313397057 226.91995257591782 29.940481178796382 227.09900399117447 C 36.66289504419571 227.27805540643112 24.357463566567894 220.2231174841266 39.671823425978744 222.55306753768446 M 39.671823425978744 222.55306753768446 C 55.14601904147855 224.25848462513406 42.497536129477425 217.68393302380022 49.25517362240155 217.5853483129439 C 56.012811115325675 217.48676360208756 43.56149762503719 224.42748698660202 58.979359120047675 222.27139693523782 M 58.979359120047675 222.27139693523782 C 74.97592126722938 217.38563232828812 62.93337880385759 226.84849420290527 70.08728520763316 225.60521048783673 C 77.24119161140872 224.3619267727682 62.71208171789985 219.5169758398342 79.41909170226357 218.7191577493277 M 79.41909170226357 218.7191577493277 C 96.88466275722912 217.66560867764812 82.32023370323716 224.3422510031862 89.90059387692814 224.82886830603775 C 97.48095405061912 225.3154856088893 83.8897596023303 216.83140758704548 101.07726362709494 220.10949290033216 M 101.07726362709494 220.10949290033216 C 118.26800313856677 218.9267616751112 103.98096742249852 225.62279986736363 111.44989458572137 226.0389708517323 C 118.91882174894421 226.45514183610098 105.46412800161332 218.21332570190773 122.41705552201734 221.29855285567126 M 122.41705552201734 221.29855285567126 C 139.32118611366215 220.58307785626522 125.12431633906127 226.78534970530214 132.4446212477378 227.38736750664657 C 139.76492615641436 227.989385307991 126.77209198450234 219.55104733967477 143.33221240395034 223.01860371665535 M 143.33221240395034 223.01860371665535 C 157.62264957189288 223.5057406883098 145.5819446806584 218.36296374927 151.7640557591689 217.803322289555 C 157.9461668376794 217.24368082984003 147.0247448658749 224.46512604782123 160.99538691398033 221.41962811746967 M 160.99538691398033 221.41962811746967 C 175.52058897047294 220.0842483912092 163.56000358553845 226.02894714539454 169.8889187643647 226.23583291250887 C 176.21783394319093 226.4427186796232 164.67102009248512 219.72958707615606 179.0780017106267 222.0107303092249 M 179.0780017106267 222.0107303092249 C 195.06824920945166 222.9353755406261 181.7208820754569 216.85678890112604 188.6587772797185 216.39408428933135 C 195.5966724839801 215.93137967753665 183.17471457357465 223.7285834465598 198.9005594370884 220.68871713266867 M 198.9005594370884 220.68871713266867 C 215.40398334525477 220.8104124501109 201.35285138251282 215.24767854020905 208.46857142927755 214.41145523574443 C 215.58429147604227 213.5752319312798 203.20560612222957 222.2439381149074 219.23118814213043 218.2995076913412 M 219.23118814213043 218.2995076913412 C 234.59804591292362 219.690891960535 221.93734061305662 213.4199801295764 228.6318308057395 213.19189947326333 C 235.32632099842237 212.96381881695027 223.12177701118154 220.08188737135742 238.35830297836725 217.64784867330386 M 238.35830297836725 217.64784867330386 C 255.11134619550504 214.03317537052214 242.00244738717674 222.66094148548902 249.41377918163204 222.00593838982894 C 256.82511097608733 221.35093529416886 242.40620597643883 215.15603782022515 259.53353667681097 215.7764112571322 M 259.53353667681097 215.7764112571322 C 275.4939409295004 221.12518883634505 263.6354221899437 211.27894503512755 270.79868435305985 212.72362745564365 C 277.961946516176 214.16830987615975 263.21406293558704 218.6485904011746 280 219.90407531574962" stroke-miterlimit="10" stroke-width="0.1"/><path fill="none" stroke="#000000" paint-order="fill stroke markers" d=" M 0 238.38807935221342 C 16.518262959895207 241.30755853202956 3.379881545923869 233.3510393302212 10.652643699868825 233.71921620214763 C 17.925405853813782 234.08739307407407 4.050670695989562 240.67639818015567 20.779320439842735 239.44001327200326 M 20.779320439842735 239.44001327200326 C 36.39893536450088 237.30152097686536 23.76953468799223 244.29395241163925 30.613133779121625 244.2138119189076 C 37.45673287025102 244.13367142617594 24.66705120827906 237.43890467869105 40.33246070021244 239.2110404356271 M 40.33246070021244 239.2110404356271 C 57.35667853821963 242.44797569270654 43.89129420003207 234.0530435344748 51.39909993640099 234.53072699240093 C 58.9069056727699 235.00841045032706 44.48615441873006 241.62908976483317 61.783334232695054 240.57585031541606 M 61.783334232695054 240.57585031541606 C 79.01453267163582 237.6590905322197 65.26651454821288 245.84910490767547 72.84624094100563 245.52048830162616 C 80.42596733379838 245.19187169557685 66.02071599827683 238.2224332854471 83.43969535496005 239.63694572670374 M 83.43969535496005 239.63694572670374 C 99.30470727730955 238.35710364797853 86.18176024657409 244.69754967412874 93.08483380197907 245.00050295911208 C 99.98790735738406 245.30345624409543 87.47086689661529 237.83775515943566 103.16276265611715 240.5025265409419 M 103.16276265611715 240.5025265409419 C 118.78273021398425 242.9583168751962 106.25798087128953 235.69484508988455 113.11881714498443 235.91164882690896 C 119.97965341867933 236.12845256393337 107.02129660193584 242.58665332601151 122.76515200953116 241.12196578958302 M 122.76515200953116 241.12196578958302 C 137.40815923663274 241.25914391411516 124.85990953230075 245.98547113674823 131.1602799772697 246.83303287185217 C 137.46065042223867 247.6805946069561 126.60752418811455 239.80618093965128 140.76621042372818 243.54357074702284 M 140.76621042372818 243.54357074702284 C 154.21736320318143 244.27759150729065 142.9749396198907 239.20162324647362 148.80880655043885 238.79352396277227 C 154.64267348098699 238.38542467907092 144.21644846509892 244.9771902793501 157.4344016538657 242.37757279359045 M 157.4344016538657 242.37757279359045 C 174.1598453297679 239.73074350195606 160.75437926449973 247.52299065145766 168.10170734828407 247.28341884684068 C 175.4490354320684 247.0438470422237 161.5644257575662 240.14143802415663 178.42676760753525 241.69308192325616 M 178.42676760753525 241.69308192325616 C 197.06461709070308 245.633220089905 182.45403746404364 236.10412113394935 190.694810834997 236.79783491048903 C 198.9355842059504 237.4915486870287 182.93757702621159 244.44399647297982 201.97183438168778 243.67512128479814 M 201.97183438168778 243.67512128479814 C 218.14175688508865 244.21861176992496 204.51490067726522 238.40604168149943 211.50967062792935 237.76947252490942 C 218.5044405785935 237.1329033683194 206.15072268395016 245.30987318122217 221.9568913835853 241.8563522659695 M 221.9568913835853 241.8563522659695 C 236.39144568197773 239.693961737122 224.78180926366142 246.31481699506773 231.11620752836842 246.16057092178534 C 237.45060579307543 246.00632484850294 225.53247722819432 239.95838357703468 240.055172139891 241.41564919944835 M 240.055172139891 241.41564919944835 C 256.5093130378324 241.04729623428878 242.33816829034504 235.9192894690675 249.40627151748814 234.8746221434173 C 256.47437474463123 233.8299548177671 244.39256464844425 242.83815450683198 260.24975278887126 238.43088541187635 M 260.24975278887126 238.43088541187635 C 276.12715099177643 237.07346416278108 263.0192887855351 243.4842478656618 269.93187530943015 243.7544493846695 C 276.8444618333252 244.02465090367718 264.2770026650992 236.61026155876786 280 239.20288975189834" stroke-miterlimit="10" stroke-width="0.1"/><path fill="none" stroke="#000000" paint-order="fill stroke markers" d=" M 0 258.45191599110905 C 16.53842415773075 261.0891375064464 3.289466031972223 253.3669542219474 10.5557145199744 253.6124575739072 C 17.821963007976578 253.857960925867 4.08199817829844 260.66827461737245 20.760709965720505 259.15335413956564 M 20.760709965720505 259.15335413956564 C 36.3654252028554 256.7613701968466 23.832593804508825 263.96531614175905 30.683424118959493 263.7751769561258 C 37.53425443341016 263.58503777049253 24.6211446637971 257.08732308650355 40.33451086415099 258.61009932347065 M 40.33451086415099 258.61009932347065 C 56.99566968031311 257.38667592747845 43.174274122110575 263.9422899740177 50.4172653334723 264.3124161396913 C 57.66025654483403 264.68254230536496 44.57911331797873 256.7521739291808 61.02877146804163 259.6676026539667 M 61.02877146804163 259.6676026539667 C 77.237329947845 257.4175224511994 64.14197192831286 264.7000371984203 71.24527836130024 264.603540413833 C 78.34858479428762 264.5070436292457 65.06023320558091 257.58294551049187 81.32393270514844 259.3918975551459 M 81.32393270514844 259.3918975551459 C 99.20760630920232 256.0009814878333 85.05931108492892 264.81167109126415 92.94563519491511 264.3139358255632 C 100.8319593049013 263.81620055986224 85.68819354922599 256.8542419433207 103.85628730510899 257.96979679600025 M 103.85628730510899 257.96979679600025 C 116.52496522139157 261.2875665085921 106.80527944396144 254.26429275091635 112.44120522319196 255.01132627777147 C 118.07713100242248 255.7583598046266 106.86337817128211 260.0069376054119 119.95893238862476 260.1041783013006 M 119.95893238862476 260.1041783013006 C 135.9470984017289 259.2129706599435 122.59044841037348 265.2623182503598 129.5256464890145 265.7393146670962 C 136.4608445676555 266.21631108383264 124.05818740977288 258.39526251696685 139.7737840418848 261.4670252062617 M 139.7737840418848 261.4670252062617 C 154.0002615249201 262.7905522927162 142.2908204795403 256.9547827668165 148.49041608457998 256.75887641651036 C 154.69001168961967 256.56297006620423 143.3723833448521 263.12639175038385 157.48691434199816 260.9072927768156 M 157.48691434199816 260.9072927768156 C 174.60595490153662 258.8098790938617 160.6826878727539 266.26319957746205 168.16998146594491 266.28149279031857 C 175.65727505913594 266.2997860031751 161.77059445606633 258.7785193003933 178.87918175111534 260.9595590992629 M 178.87918175111534 260.9595590992629 C 195.8951988735894 263.578533850635 182.23241436370006 255.7139574377989 189.70341268768584 255.92588410102599 C 197.17441101167162 256.13781076425306 183.08777317532804 263.2152309993886 200.2248912482176 261.56506385134026 M 200.2248912482176 261.56506385134026 C 216.85352379924348 263.2083592235239 203.1987813980129 256.3049977927047 210.45036978618776 256.1174909695132 C 217.70195817436263 255.9299841463217 204.4222294195151 263.5297994918522 220.94371521443153 261.0293300707931 M 220.94371521443153 261.0293300707931 C 237.4596454032912 262.745926020125 223.92537905604388 255.81725564707267 231.1323656885167 255.66739304584627 C 238.33935232098952 255.51753044461987 225.10481117619497 263.0028333365131 241.53510559292528 260.60115121014627 M 241.53510559292528 260.60115121014627 C 257.13690319167563 261.7779482492811 244.20461657030262 255.61255003320235 250.98875691494848 255.2793811947431 C 257.77289725959434 254.94621235628387 245.50694831513985 262.34909482949695 260.9183637204849 259.64924024311983 M 260.9183637204849 259.64924024311983 C 276.1782631609998 257.697799950391 263.79413312015504 264.4115349383529 270.47270581798534 264.3926013975128 C 277.15127851581565 264.37366785667274 264.72928139329076 257.730257448974 280 259.5951444121482" stroke-miterlimit="10" stroke-width="0.1"/><path fill="none" stroke="#000000" paint-order="fill stroke markers" d="" stroke-miterlimit="10" stroke-width="0.1"/></g></g></svg>