<svg version="1.1" xmlns="http://www.w3.org/2000/svg" xmlns:xlink="http://www.w3.org/1999/xlink" width="1133.8500000000001" height="1133.8500000000001"><defs/><g transform="scale(3.7795,3.7795)"><g transform="translate(10,10)"><path fill="none" stroke="#000000" paint-order="fill stroke markers" d=" M 0 0 L 280 0 L 280 280 L 0 280 L 0 0" stroke-miterlimit="10" stroke-width="0.1"/><path fill="none" stroke="#000000" paint-order="fill stroke markers" d=" M 18.2837573366913 0 C 16.55102899595731 15.221849767622713 23.065431963874612 2.7978651095107168 23.13866397381504 9.4482703816031 C 23.211895983755465 16.098675653695484 16.425488407488004 3.8211550154643406 18.492991650806804 19.001157920263953 M 18.492991650806804 19.001157920263953 C 16.92748582411116 34.029372891565686 23.235058058951086 21.715410497207383 23.36989789359844 28.27339956782097 C 23.504737728245797 34.83138863843456 16.696331821858553 22.78710591337096 18.878248321227815 37.73826955058849 M 18.878248321227815 37.73826955058849 C 17.303985771966236 55.04071382071236 24.371279976453636 40.787805940977734 24.62480618516301 48.325934533068256 C 24.878332393872384 55.86406312515878 16.86936941417874 42.1182076628429 19.602608917540316 59.27577981370427 M 19.602608917540316 59.27577981370427 C 20.242954429991713 75.41320762861498 14.358433292120436 61.846133548463605 13.765336015142767 68.83212105786484 C 13.172238738165097 75.81810856726607 21.259692619096285 63.43722904107002 17.90804526903269 79.23574412627922 M 17.90804526903269 79.23574412627922 C 16.996506951449856 96.59251921480617 23.51590758266796 82.07401239041825 24.057840504476037 89.59985987642278 C 24.599773426284113 97.12570736242732 16.067479085493154 83.69106638165555 19.456425045627196 100.7381655148636 M 19.456425045627196 100.7381655148636 C 17.51083461621068 115.3030499741371 23.989685150164483 103.51042084710288 23.93584766683825 109.88928748345081 C 23.882010183512016 116.26815411979875 17.603127444769935 104.36785002611207 19.3026036646951 118.963498761572 M 19.3026036646951 118.963498761572 C 21.762570500129495 134.81157047909778 14.420082787923143 122.09343673508482 14.626403101474263 129.05275815069623 C 14.832723415025384 136.01207956630765 21.408878534041857 122.88130519519248 19.89209027484116 138.84727423474746 M 19.89209027484116 138.84727423474746 C 23.57231180387914 157.7287458310937 14.184558970293727 142.82417797381834 14.753190542999135 151.155900743808 C 15.321822115704544 159.48762351379764 22.597514822098436 143.44579251111142 21.516751911142325 162.6521964347179 M 21.516751911142325 162.6521964347179 C 23.017873936512927 178.18936760107724 16.596928513669933 165.41953873665454 16.406948784871766 172.19330365583698 C 16.216969056073598 178.96706857501943 23.3435534715955 166.57719916819306 20.973952686004704 182.0058104895249 M 20.973952686004704 182.0058104895249 C 18.687679931703865 198.81912670333932 26.201132800330125 185.21937000104342 26.121609256144385 192.58513628761045 C 26.042085711958645 199.9509025741775 18.824006007450844 186.19209878351015 20.746742559759735 203.05085702257355 M 20.746742559759735 203.05085702257355 C 17.762491872894472 217.2793283030791 25.016923344462036 206.11750112922596 24.49754842522422 212.40737917935186 C 23.978173505986405 218.69725722947777 18.652848877302155 206.496680217149 19.262814219080266 221.02193716579043 M 19.262814219080266 221.02193716579043 C 18.27983291006487 237.3653458952493 24.525044453660566 223.73572918230875 24.98163605213249 230.82889655163802 C 25.438227650604414 237.9220639209673 17.497104455541574 225.20563040497055 20.56736164328576 241.28812964958834 M 20.56736164328576 241.28812964958834 C 18.698900262143702 257.46270328864864 25.644330106654166 244.27013533059798 25.71039301534237 251.33825343410084 C 25.77645592403057 258.40637153760366 18.58564956153535 245.34592939692948 20.756112810966343 261.4827528024536 M 20.756112810966343 261.4827528024536 C 21.82353632198232 276.3945882115831 15.979744534941247 264.01524575435474 15.636612756118083 270.496282273496 C 15.29348097729492 276.9773187926372 22.41176222853632 265.2842398930552 19.775736300043018 280" stroke-miterlimit="10" stroke-width="0.1"/><path fill="none" stroke="#000000" paint-order="fill stroke markers" d=" M 36.92810150175228 0 C 40.579372575640285 15.800713886890536 32.23535883457981 3.5170632309854195 32.95740639557592 10.520131501624542 C 33.67945395657203 17.523199772263666 39.34157675678981 3.795453994366324 38.99109453316974 20.008766487540353 M 38.99109453316974 20.008766487540353 C 36.97210982094759 35.416682063820865 43.79247653507621 22.928510630424064 43.75241703622639 29.674481132403017 C 43.71235753737657 36.42045163438197 37.04078324754729 23.85216120328552 38.87663882217025 39.28296792176593 M 38.87663882217025 39.28296792176593 C 40.20121603872807 55.48685671127551 33.71048304652169 42.089357978017226 33.40855306652685 49.14081807592831 C 33.10662308653201 56.19227817383939 40.71881029014779 43.39863940057079 38.01398173647071 59.429996772940456 M 38.01398173647071 59.429996772940456 C 36.43478206614585 73.08867079639404 42.301044730873265 61.9486151750142 42.35624116645775 67.91738550582708 C 42.411437602042234 73.88615583663997 36.34015960514388 62.8564930864291 38.17168583814067 76.4836262895487 M 38.17168583814067 76.4836262895487 C 39.98357485559427 93.28236033417765 32.879996049006614 79.53814301722913 32.7559548695066 86.8720840143168 C 32.63191369000659 94.20602501140446 40.19621687759428 80.70989005345594 37.81728246814064 97.4377434240849 M 37.81728246814064 97.4377434240849 C 37.816662023761985 114.830521232074 43.570187524297076 99.97997001993163 44.5064544456103 107.4722769457627 C 45.44272136692353 114.96458387159377 36.211633015796465 101.98656650207786 40.49233081474985 118.84433464074512 M 40.49233081474985 118.84433464074512 C 39.47234918318648 136.40149220120253 46.15062407705727 121.74775928540602 46.656632781331524 129.36576463007185 C 47.162641485605775 136.9837699747377 38.604905690144896 123.34205446748966 41.938069969819146 140.61006419693322 M 41.938069969819146 140.61006419693322 C 44.52438083540903 157.21710202407672 36.82297212273482 143.89271870413393 37.04285015106581 151.1857825070506 C 37.262728179396795 158.47884630996725 44.1474470725559 144.71470693336244 42.566292907907695 161.44738934812366 M 42.566292907907695 161.44738934812366 C 40.31593877027019 176.81459478035848 47.32039371537681 164.43771343374578 47.17847530243792 171.17860561196588 C 47.036556889499025 177.91949779018597 40.55922747816544 165.25877961769547 42.16081172808228 180.70708128589538 M 42.16081172808228 180.70708128589538 C 42.73294338698493 196.74858958116496 36.93839361133273 183.2408529700718 36.32107680234551 190.18184824812886 C 35.70375999335829 197.1228435261859 43.791200773820165 184.8497405330672 40.39704941669022 200.53849636605835 M 40.39704941669022 200.53849636605835 C 40.93495725906687 217.57417673055406 34.840787826935156 203.2062499364246 34.15519610863994 210.57366113110456 C 33.46960439034473 217.94107232578452 42.11025734757295 204.94432896824554 38.438215935846756 221.58824263657255 M 38.438215935846756 221.58824263657255 C 42.59298989536697 238.0203693763839 33.61021020830057 225.36413254669395 34.51515216641174 232.66630574012532 C 35.420094124522905 239.9684789335567 41.041660824319244 225.50235818764443 41.023764387592955 242.45159461780503 M 41.023764387592955 242.45159461780503 C 45.28093876773306 257.11566436415495 36.79554372705154 246.00294710647174 37.83979970446228 252.54900961767618 C 38.88405568187302 259.0950721288806 43.490785663600356 245.89384291637595 44.00735289448079 261.1546303641034 M 44.00735289448079 261.1546303641034 C 45.152940424201766 276.32329475205427 39.15745746665626 263.75051411140396 38.83416708933871 270.34639348396774 C 38.510876712021165 276.94227285653153 45.707152499603275 265.0160729705163 43.08366610214493 280" stroke-miterlimit="10" stroke-width="0.1"/><path fill="none" stroke="#000000" paint-order="fill stroke markers" d=" M 57.59794532269564 0 C 56.58414667001889 16.38919573972935 62.87081641813798 2.7306773932304447 63.31659830758573 9.845227793181065 C 63.76238019703348 16.959778193131687 55.819949145251314 4.192823625528281 58.87160786397492 20.327286857001774 M 58.87160786397492 20.327286857001774 C 60.41103011406372 36.29242809695702 53.81582285961809 23.16984716710153 53.619297146735676 30.130030745471647 C 53.42277143385326 37.090214323841764 60.74793133614786 24.360684819751103 58.31010582716802 40.21352565234497 M 58.31010582716802 40.21352565234497 C 60.639816992822624 55.99099169659006 53.4319017675134 43.29005976745116 53.58591379033603 50.21195266466121 C 53.739925813158656 57.13384556187126 60.37579638226954 44.124889587087104 58.75014017808982 59.99036250151655 M 58.75014017808982 59.99036250151655 C 57.32939535007327 74.33065198135745 63.28581937732708 62.556189637837235 63.44597565417292 68.8100467506619 C 63.60613193101876 75.06390386348656 57.05484173262326 63.609754073658024 59.207729540506506 77.85852568101558 M 59.207729540506506 77.85852568101558 C 60.42082716773965 93.05953654691311 54.35700175345909 80.4814672535008 54.06105091548812 87.09491565258459 C 53.76510007751715 93.70836405166838 60.928171461404176 81.72219643419803 58.3621557177323 96.7540925355407 M 58.3621557177323 96.7540925355407 C 56.600518475275734 114.43859996766304 63.954176579075266 99.92144670966344 64.14756016713133 107.63424576270995 C 64.3409437551874 115.34704481575646 56.26900375289391 101.21665873386901 58.91468025503534 118.79066125853073 M 58.91468025503534 118.79066125853073 C 62.62585754202211 134.9935034507408 54.0976814410947 122.38631222001091 54.823881692831534 129.5658307105699 C 55.55008194456837 136.74534920112893 61.38094282475896 122.68575746692535 60.98953811714058 139.30357123155648 M 60.98953811714058 139.30357123155648 C 58.377894008909166 155.522276099362 65.97248481913473 142.53784884034303 65.72078377308611 149.66499485076403 C 65.46908272703749 156.79214086118503 58.809381516421084 143.30431151006886 60.27039227128738 159.66684554704503 M 60.27039227128738 159.66684554704503 C 61.9281978150773 173.78898463269235 55.84151784551179 162.27920155481632 55.79522659053259 168.45185099791462 C 55.7489353355534 174.6245004410129 62.00755425218449 163.20729987309528 60.13813154277538 177.30298681304018 M 60.13813154277538 177.30298681304018 C 55.593757796565 193.63289785520942 64.87538595535446 181.19280512756526 63.797112474642184 188.47192539360336 C 62.7188389939299 195.75104565964145 57.4422266206432 181.15440597057272 57.05735016931172 198.1004732874347 M 57.05735016931172 198.1004732874347 C 54.07907772698885 215.9411757310824 62.52321962064032 201.6930814524285 62.2009247001438 209.53867563658642 C 61.878629779647284 217.38426982074435 54.63158330498287 202.4915857010974 56.13650753932168 220.5164566707431 M 56.13650753932168 220.5164566707431 C 56.380866700399565 237.41982146761688 61.76333454182977 222.9061219570066 62.77877813104884 230.1744136069865 C 63.794221720267906 237.44270525696638 54.64010626173832 224.9598929247942 59.03777493709043 241.28300424211423 M 59.03777493709043 241.28300424211423 C 63.24161052013056 256.9567938953596 54.46777432930743 244.9642883458249 55.434684060673035 251.94243503554048 C 56.40159379203864 258.92058172525606 61.58405098064666 244.99425671299008 61.8003741695636 261.22056621273015 M 61.8003741695636 261.22056621273015 C 63.549314054582474 276.26023867925954 57.081327567675864 263.9971676890368 57.02488853917857 270.56996951458126 C 56.968449510681275 277.1427713401257 63.646066674863555 264.9925784068977 61.63911980242847 280" stroke-miterlimit="10" stroke-width="0.1"/><path fill="none" stroke="#000000" paint-order="fill stroke markers" d=" M 78.22458645850341 0 C 80.94021731038386 16.80651901803915 73.06240698473452 3.3545845228738704 73.32725078918861 10.740542068822759 C 73.5920945936427 18.126499614771646 80.48619935989113 4.1448775106981985 78.98128304265794 21.102735845568255 M 78.98128304265794 21.102735845568255 C 81.88677707183918 38.79786907149745 73.55292656450015 24.649995649779402 73.85170912644358 32.428964256366356 C 74.150491688387 40.207932862953314 81.37457839422188 25.462494317348394 79.83494750535344 43.3283604358167 M 79.83494750535344 43.3283604358167 C 82.45147117382781 58.15547015651202 75.31301082620817 46.36086506995215 75.641745883052 52.88881745486183 C 75.97048093989582 59.41676983977151 81.88792536209553 46.964694639524 80.77419052490723 61.97965296413007 M 80.77419052490723 61.97965296413007 C 83.12520279659279 77.71303273730713 75.91368208579502 65.05678945161348 76.07924384581156 71.96083832238051 C 76.2448056058281 78.86488719314754 82.8413826365644 65.87752038742077 81.24722412495451 81.7055068806073 M 81.24722412495451 81.7055068806073 C 79.34419001750491 94.35728123038773 85.15390604033155 84.184077490347 85.01538688980298 89.73654366219199 C 84.87686773927442 95.28900983403699 79.58165141841104 84.83876779293914 80.85145512344431 97.5696959430216 M 80.85145512344431 97.5696959430216 C 78.82467450359479 113.99549465902304 85.98838214660525 100.64078626807972 85.99977350276245 107.8256492868107 C 86.01116485891966 115.01051230554168 78.80514646446815 101.67858662691279 80.88400185532205 118.09787599653869 M 80.88400185532205 118.09787599653869 C 78.7902964737316 133.27030896679182 85.59657274355796 121.00791874917869 85.51164604680955 127.65647401075798 C 85.42671935006113 134.30502927233726 78.93588509672888 121.87278566122731 80.6413541503266 137.09374817247954 M 80.6413541503266 137.09374817247954 C 81.49702054015826 154.6189005617379 74.96963190931655 139.9381447121616 74.39456461013012 147.53351547006383 C 73.81949731094369 155.12888622796606 82.48285019590642 141.59826497676264 78.99830472407966 158.79480748077162 M 78.99830472407966 158.79480748077162 C 80.20081628966076 173.9026442350119 74.17684887264664 161.40062975500666 73.88135495259172 167.9733715949799 C 73.5858610325368 174.54611343495316 80.7073772954692 162.63508679505776 78.15403638106558 177.57406988069522 M 78.15403638106558 177.57406988069522 C 75.96855388026388 194.48973756820908 83.42980209681838 180.7692501391355 83.3992071258007 188.1736791238 C 83.36861215478302 195.57810810846453 76.02100240200848 181.79643073735562 78.06662217815794 198.729581265451 M 78.06662217815794 198.729581265451 C 81.15763481799283 213.6435687503966 73.58529739588256 201.93172977104228 74.11374966846822 208.5226558297792 C 74.64220194105387 215.11358188851614 80.25171663641743 202.34483836399048 79.57648581411694 217.5607985761279 M 79.57648581411694 217.5607985761279 C 77.39550895610431 235.99245496249563 85.35435246266749 220.97605608563197 85.4073285446357 229.03328374442182 C 85.46030462660391 237.09051140321168 77.30469281558737 222.18006469028447 79.72784604831182 240.5814490298132 M 79.72784604831182 240.5814490298132 C 82.77389710965218 255.73467473451254 75.16081731649179 243.8036912146357 75.65701946650844 250.49525272919374 C 76.1532216165251 257.18681424375177 81.92326485248077 244.2634264238416 81.14556647693084 259.70019621426474 M 81.14556647693084 259.70019621426474 C 79.21499697118792 275.95246560195676 86.23915696202039 262.71410088436545 86.28264921888378 269.8190322093728 C 86.32614147574716 276.9239635343801 79.14043881656497 263.7725833305156 81.2698300679691 280" stroke-miterlimit="10" stroke-width="0.1"/><path fill="none" stroke="#000000" paint-order="fill stroke markers" d=" M 96.60793572633182 0 C 100.81226408370038 15.629678966921682 92.05259759719621 3.675000151833542 93.02209479138227 10.634171849135035 C 93.99159198556833 17.59334354643653 99.15026889366715 3.6996703429762627 99.37792770972057 19.883347706575695 M 99.37792770972057 19.883347706575695 C 101.9219634142928 38.33627434890086 93.64608796177356 23.42180264119711 93.74836113838717 31.507742194291072 C 93.85063431500078 39.593681747385034 101.74663796866948 24.474663686454072 99.67013678575944 42.98603214398701 M 99.67013678575944 42.98603214398701 C 100.63856230394154 58.523424336071706 104.950967163491 44.93655640835454 106.20476388935862 51.57744090165814 C 107.45856061522623 58.218325394961745 98.48919648816849 47.13905091897982 103.25241314538121 61.959987839140155 M 103.25241314538121 61.959987839140155 C 103.48489135797756 77.7690174376013 98.05725017080816 64.34743495846635 97.30613919170176 71.1699965354048 C 96.55502821259536 77.99255811234326 104.77251017930283 66.0731975914211 101.10638177650578 81.45302091610716 M 101.10638177650578 81.45302091610716 C 103.50974709408312 95.55864713060278 96.79193572889545 84.30957173711673 97.06769783876362 90.51525346969208 C 97.34345994863179 96.72093520226744 103.03701204859485 84.92033558904504 101.89427351898627 99.18354015203674 M 101.89427351898627 99.18354015203674 C 103.71109417403459 116.10411711157967 96.56300262041376 102.25749592433208 96.43452506630533 109.64418864986855 C 96.3060475121969 117.03088137540503 103.93134140964902 103.44121529637427 101.5271947929622 120.28837651071238 M 101.5271947929622 120.28837651071238 C 103.17255884930941 137.33145779879817 96.13034419052303 123.32352419453206 95.92141202236029 130.75375573704923 C 95.71247985419754 138.18398727956642 103.53072828044554 124.59391801162585 100.93024574106863 141.5176094893329 M 100.93024574106863 141.5176094893329 C 97.28373716455108 156.35273532692585 105.30429764924295 144.89197302552154 104.53230842292118 151.47883923275867 C 103.7603191965994 158.0657054399958 98.607147266817 145.0609646859479 98.7245622372921 160.33722722429616 M 98.7245622372921 160.33722722429616 C 99.32844711749262 175.45580841502033 93.81206086438957 162.74661255100676 93.25811844097541 169.29174901902184 C 92.70417601756125 175.8368854870369 100.27806270048832 164.23557446985166 97.14186959896594 179.0376171329106 M 97.14186959896594 179.0376171329106 C 96.77414142476326 194.17644109487978 102.09558186861844 181.3718476465116 102.752343329991 187.91298794720154 C 103.40910479136357 194.45412824789148 95.64826463383885 182.96305772226847 99.01833091717329 197.72658942059616 M 99.01833091717329 197.72658942059616 C 102.22513662651747 212.77082403707087 94.51084799385889 200.98607482994092 95.08216705084314 207.63934235677164 C 95.65348610782739 214.29260988360235 101.2457325288302 201.3652225625039 100.65067107998541 216.73592521154106 M 100.65067107998541 216.73592521154106 C 98.01854300761057 233.60984757329555 105.84734975829558 220.0727408421984 105.62210579275167 227.483237371159 C 105.39686182720776 234.89373390011957 98.40467551997158 220.90613923793455 100.00711689271708 237.90877243714274 M 100.00711689271708 237.90877243714274 C 101.09567074225673 255.09378506964742 94.48193981535978 240.78048824904886 94.02550848571892 248.24187735956454 C 93.56907715607805 255.70326647008022 101.8781244502125 242.30283230876339 98.70302737945747 259.22702703861614 M 98.70302737945747 259.22702703861614 C 100.44763531610923 275.88699157765905 93.44740488420776 262.23900755798417 93.30185328943236 269.5095480944685 C 93.15630169465696 276.7800886309529 100.6971523357242 263.4232078008288 98.28716568009919 280" stroke-miterlimit="10" stroke-width="0.1"/><path fill="none" stroke="#000000" paint-order="fill stroke markers" d=" M 116.89212310289179 0 C 116.66207736703151 15.983773601657656 122.14544153281437 2.412182039026824 122.90700964053305 9.309886976287213 C 123.66857774825172 16.207591913547603 115.35653203951378 4.159136566354131 119.06803198208802 19.70772839217254 M 119.06803198208802 19.70772839217254 C 118.91930866566473 37.18156454044986 124.82610283873326 22.310789849276162 125.70293627964278 29.8459889840338 C 126.5797697205523 37.381188118791435 117.41616562410555 24.264080309436768 121.57327038468664 41.23686877719437 M 121.57327038468664 41.23686877719437 C 119.57921448508677 58.912922667342144 127.12852619379399 44.47986437408361 127.22133578497431 52.201536752125726 C 127.31414537615464 59.92320913016784 119.42011232877765 45.67577001926995 121.83844064520184 63.29878985731469 M 121.83844064520184 63.29878985731469 C 119.70009909278153 77.90076744083039 126.35579869593407 66.1402226330137 126.22092728169616 72.54544675258157 C 126.08605586745826 78.95067087214943 119.93130723147507 66.92038323585693 121.45309374737926 81.59943019893714 M 121.45309374737926 81.59943019893714 C 123.50778108221363 96.26368471620823 116.90291001752693 84.42229474682966 116.99839239544868 90.84984139537599 C 117.09387477337042 97.27738804392231 123.34409700577635 85.24503331870025 121.72590054144139 99.96384919478378 M 121.72590054144139 99.96384919478378 C 120.62143233898951 115.81775267886776 116.32049480557833 101.91563406780043 114.99105216153299 108.6855365115815 C 113.66160951748765 115.45543895536258 122.90047687163865 104.2122056323859 117.92749298702614 119.30642760558685 M 117.92749298702614 119.30642760558685 C 121.3626480147856 136.74024413953893 112.6629840221607 122.99069053126952 113.2039991438289 130.68561215508208 C 113.74501426549709 138.38053377889463 120.43519352049728 123.54894992728882 119.47325047750671 141.291917959337 M 119.47325047750671 141.291917959337 C 121.9724215023208 157.19850011141398 114.57710599236947 144.4433749974637 114.79716370256216 151.43001190277147 C 115.01722141275485 158.41664880807923 121.59517971341904 145.22140827374355 120.10198679234297 161.25373768878777 M 120.10198679234297 161.25373768878777 C 119.76311379557472 177.61492583947884 125.46423681958234 163.75707702512747 126.199247813704 170.82322046678962 C 126.93425880782567 177.88936390845177 118.50309494850902 165.50153708234376 122.20201820411914 181.4427189506796 M 122.20201820411914 181.4427189506796 C 119.8167037286764 196.37457675052303 126.7923944376565 184.41405603253395 126.56889746822658 190.9746809411442 C 126.34540049879666 197.53530584975442 120.19984139055626 185.12779119290548 121.56345543431938 200.18736154670887 M 121.56345543431938 200.18736154670887 C 120.09164315395682 214.46531758295157 126.07105294379282 202.7609699524335 126.20585451728049 208.99072552160374 C 126.34065609076815 215.22048109077397 119.8605547422637 203.78573660723117 121.94860278714127 217.98666317290952 M 121.94860278714127 217.98666317290952 C 124.87585972638416 233.17001261127393 117.35424783326393 221.17401461688155 117.7976550834874 227.87215590244392 C 118.24106233371087 234.5702971880063 124.11573301171536 221.68748469316702 123.21548064492262 237.1242097030877 M 123.21548064492262 237.1242097030877 C 123.72585480280479 255.99188222398115 117.04922826493296 240.0506086775947 116.25313015104948 248.20570314125015 C 115.45703203716599 256.3607976049056 125.09059442660505 242.0117202862861 120.94091460525553 260.4244795992461 M 120.94091460525553 260.4244795992461 C 116.47477448539506 275.77132240987606 125.3644344404843 264.14474143429203 124.26692715557833 270.9961735745559 C 123.16941987067236 277.84760571481974 118.35621554523388 264.0260101694238 117.80517950552418 280" stroke-miterlimit="10" stroke-width="0.1"/><path fill="none" stroke="#000000" paint-order="fill stroke markers" d=" M 137.12591544947625 0 C 135.09579895127334 14.732989713920393 141.70242578972795 2.824783184517022 141.6212288981747 9.280615795801348 C 141.54003200662146 15.736448407085673 135.23499362250743 3.6658480945758325 136.89392433075272 18.44523603224093 M 136.89392433075272 18.44523603224093 C 141.2736589585681 35.65616794384337 131.8411926825188 22.409361380829445 132.80110511156835 30.05913314578671 C 133.7610175406179 37.708904910743975 139.62809479448313 22.542273489630922 139.63653127089432 40.301726789261686 M 139.63653127089432 40.301726789261686 C 143.58638077728102 57.44565498059891 134.54313302777007 44.11386651549272 135.32147206637234 51.71162747902804 C 136.0998111049746 59.30938844256336 142.25208528253427 44.420921900252644 141.8603570954722 62.009615256505455 M 141.8603570954722 62.009615256505455 C 140.60633901747892 77.47118119859512 146.79128780337976 64.68417318153175 147.08364125897208 71.41206409924693 C 147.3759947145644 78.13995501696212 140.10516166503493 65.93765391108337 142.69565268287886 81.2321607356917 M 142.69565268287886 81.2321607356917 C 137.47643368439475 96.4398281627225 146.96307220896443 85.18117687452556 145.53366765568833 92.01320694301106 C 144.10426310241223 98.84523701149655 139.92684149001093 84.72777661674738 138.61163967351854 100.75224664565025 M 138.61163967351854 100.75224664565025 C 135.34964008334637 115.29993228110257 142.94681267437377 103.95741594911945 142.32498053897783 110.39975743155433 C 141.70314840358188 116.84209891398922 136.41563802973945 104.25591831121419 136.8349764295301 119.1589365954642 M 136.8349764295301 119.1589365954642 C 140.2939746721263 136.20568926502355 131.70198105890142 122.79451525048931 132.27410900427427 130.32398553659314 C 132.8462369496471 137.853455822697 139.31318390862995 123.29802591741701 138.46962770202396 140.67170884147515 M 138.46962770202396 140.67170884147515 C 143.3565696958991 156.88579420713086 133.82075252633499 144.65790982366045 135.05283063477668 151.90558193469005 C 136.28490874321838 159.15325404571965 141.24443579571337 144.46121344536587 141.9898508690002 161.37934344441683 M 141.9898508690002 161.37934344441683 C 143.81331046233362 179.79282612986353 136.16574299822423 164.6736890870078 135.9597380630592 172.7038371449951 C 135.75373312789418 180.7339852029824 144.1664617797594 166.02685803045674 141.40126533995723 184.32262361009484 M 141.40126533995723 184.32262361009484 C 143.79804752115732 198.2104889158332 137.15788574992686 187.145170337792 137.44253763459636 193.25669289463622 C 137.72718951926586 199.36821545148044 143.31007286172385 187.73359310410027 142.21455643901297 201.78411662964976 M 142.21455643901297 201.78411662964976 C 140.23205645156216 216.150858122337 146.67688247304363 204.53962115135317 146.5964762511326 210.83512133214273 C 146.51607002922157 217.1306215129323 140.36989568912395 205.35857209812636 141.98482437641002 219.77126000333422 M 141.98482437641002 219.77126000333422 C 141.39860401001883 235.34630823351847 147.05089273745995 222.24151686585978 147.63702348433213 228.98233412320636 C 148.22315423120432 235.72315138055293 140.39380844395225 223.79062150663862 143.65948365318766 239.03073788146733 M 143.65948365318766 239.03073788146733 C 138.9474091356637 255.28400177475416 148.34687543455982 242.96482417551334 147.19223446741879 250.21995724971896 C 146.03759350027775 257.4750903239246 140.9267936507626 242.84663079040166 140.36050946135612 259.7596895220548 M 140.36050946135612 259.7596895220548 C 136.26807778591427 275.693387825955 145.03276196315855 263.4421112898864 144.12783668856284 270.5262199571672 C 143.22291141396713 277.610328624448 137.81937825664977 263.54920153918795 137.77500867679697 280" stroke-miterlimit="10" stroke-width="0.1"/><path fill="none" stroke="#000000" paint-order="fill stroke markers" d=" M 159.7715478102729 0 C 160.8224132871407 14.660386399004876 155.0759311095289 2.4902658237416047 154.73920620115632 8.862094259759663 C 154.40248129278373 15.233922695777721 161.39965598720798 3.73725193725963 158.80947664349407 18.20522410290874 M 158.80947664349407 18.20522410290874 C 161.06286230070637 34.64328412019051 153.70161315690882 21.353060438204764 153.7871760544697 28.55540705796065 C 153.8727389520306 35.757753677716536 160.91618304774485 22.29640420060899 159.05394206509663 38.78335730221127 M 159.05394206509663 38.78335730221127 C 162.22879108962664 55.880715996641385 153.8626782774472 42.33234440412636 154.30967854292928 49.868313866124794 C 154.75667880841135 57.40428332812323 161.4625049202288 42.96191120464407 160.33108568075968 60.31469862220679 M 160.33108568075968 60.31469862220679 C 164.67028823296954 78.03353164463601 155.10443205404837 64.33964890813895 156.01953599071567 72.20602634753516 C 156.93463992738296 80.07240378693136 163.1015386272542 64.54831317709967 162.94566835695196 82.79006273476736 M 162.94566835695196 82.79006273476736 C 159.4218133220697 95.4217321527874 166.608810967045 85.8018126227852 165.77100945914296 91.43289318165672 C 164.93320795124092 97.06397374052824 160.8580444784732 85.76845119472192 160.5519497629461 98.87886433154314 M 160.5519497629461 98.87886433154314 C 156.63080529167098 112.96396116318982 164.63777606145825 102.23444934743637 163.70709596476686 108.5130142233682 C 162.77641586807547 114.79157909930004 158.22625688599905 102.2007070901638 157.8928637723993 116.81762111991983 M 157.8928637723993 116.81762111991983 C 155.1567837816458 133.38936709909032 162.97439882839942 120.14465660612476 162.68810453895324 127.43058225819262 C 162.40181024950707 134.71650791026048 155.64757399212496 120.89920883840256 157.07488008826738 137.63455155439942 M 157.07488008826738 137.63455155439942 C 162.7897842823773 155.29617341584506 152.06821423938987 142.10617998297013 153.57900871508247 150.02198885681418 C 155.08980319077506 157.93779773065822 160.19985089547572 141.72621534639813 161.39143573310332 160.25114833681099 M 161.39143573310332 160.25114833681099 C 159.3863872213123 178.56561700245283 167.15625289386153 163.59108672645877 167.27870338616304 171.58836045613938 C 167.40115387846456 179.58563418582 159.17647209165258 164.8560048944289 161.7412942825362 183.1005018501842 M 161.7412942825362 183.1005018501842 C 164.80865231206113 196.66145871234258 157.7040531862913 186.09707550903482 158.29517127566274 192.10388389740052 C 158.88628936503417 198.11069228576622 163.7953070159958 186.36407290371562 163.43020310931175 200.2628115312291 M 163.43020310931175 200.2628115312291 C 163.22983551029066 216.8572797483514 157.9119791268682 202.62188144944 156.93211864175254 209.75947873379155 C 155.95225815663687 216.8970760181431 164.9095963419175 204.62139868946304 160.63060172326698 220.6559466293764 M 160.63060172326698 220.6559466293764 C 159.5465765813583 236.38449907106994 165.67468847170204 223.31329722548602 166.05464584974027 230.14704424647218 C 166.4346032277785 236.98079126745833 158.89522107614994 224.66950417795084 161.7161942319476 240.18093811790825 M 161.7161942319476 240.18093811790825 C 160.85026849044823 256.0462905920918 156.34186542057546 242.2132988111776 155.11456304485816 249.00097772166822 C 153.88726066914086 255.78865663215885 162.95421542024934 244.41026960267928 158.20961601561245 259.5743064335958 M 158.20961601561245 259.5743064335958 C 160.8374113826915 275.84170803541434 153.21292250096866 262.82104359681847 153.46895888053555 269.97003634505995 C 153.72499526010245 277.11902909330144 160.39849187486254 263.58629189557183 158.94114852866073 280" stroke-miterlimit="10" stroke-width="0.1"/><path fill="none" stroke="#000000" paint-order="fill stroke markers" d=" M 179.60687230326462 0 C 179.34784277887135 15.40373103612972 174.4739338762104 2.1656355395196396 173.53292025606476 8.787141165308187 C 172.59190663591912 15.408646791096734 180.96100898483527 4.052578534777921 176.91826195999138 18.918587502252993 M 176.91826195999138 18.918587502252993 C 180.21206646323378 35.07727939796252 172.05486606803828 22.369731653467646 172.60365229043526 29.50775763564019 C 173.15243851283225 36.64578361781273 179.27129008198182 22.84066342852388 178.48622259541136 39.3129474513174 M 178.48622259541136 39.3129474513174 C 178.3840390412403 56.637391480012475 184.20168110083165 41.87878075419865 185.0905182482723 49.34712037332266 C 185.97935539571296 56.81545999244667 176.8603182170563 43.83452356151417 181.02575730238468 60.65106064881458 M 181.02575730238468 60.65106064881458 C 180.35215098746485 78.64172931640249 186.87806678486777 63.50327431208937 187.5566262236186 71.28937192431522 C 188.23518566236942 79.07546953654108 179.18890623532062 65.2941334097296 182.96449855595844 82.89705382660273 M 182.96449855595844 82.89705382660273 C 178.60001757518702 95.13653619071825 186.37505704074545 86.12953726576708 185.15402197632707 91.63694018311992 C 183.9329869119087 97.14434310047275 180.69322054276142 85.69527404668482 179.47582694333448 98.63249073332511 M 179.47582694333448 98.63249073332511 C 179.58960067235066 113.41108718201843 174.60415043223827 100.83007229388564 173.85739007596175 107.2023631956544 C 173.11062971968522 113.57465409742316 180.8697612831104 102.48715992184341 177.34222592540155 116.83903616695014 M 177.34222592540155 116.83903616695014 C 181.15950720565954 131.94684945693496 172.9029364858289 120.30974037895633 173.73380616786392 127.02326740357907 C 174.56467584989895 133.7367944282018 179.73515917931377 120.43794598615312 179.71613930264448 136.02054195158652 M 179.71613930264448 136.02054195158652 C 179.23254702630217 153.46076462171294 185.41414946852856 138.7294550178567 186.14492170864946 146.2682059060219 C 186.87569394877036 153.8069567941871 177.97979461466636 140.5371916705726 181.80405998870418 157.5598302034871 M 181.80405998870418 157.5598302034871 C 183.41836791933702 175.1990854084652 176.20547442615006 160.671838587424 175.95106256215462 168.35721125660248 C 175.69665069815917 176.04258392578097 183.8545025433292 162.02416083273064 181.0771689487172 179.51803782971135 M 181.0771689487172 179.51803782971135 C 184.69870430436433 196.5303763071725 175.97931215815157 183.20234899405435 176.62330916256704 190.72574670349553 C 177.2673061669825 198.24914441293672 183.5947094396521 183.6331230909876 182.91716038990424 201.01345985668615 M 182.91716038990424 201.01345985668615 C 180.99738899137077 217.6401013542194 188.13615983468728 204.0785087689175 188.20446208210927 211.34412664316054 C 188.27276432953127 218.60974451740358 180.88029942436162 205.1847564269456 183.11230966825278 221.77236806880916 M 183.11230966825278 221.77236806880916 C 181.55510122597897 236.16095010180078 187.64401787606383 224.39039131222927 187.74799019501467 230.67239941179426 C 187.8519625139655 236.95440751135925 181.3768629649204 225.39179335968936 183.40937343668372 239.72096263899482 M 183.40937343668372 239.72096263899482 C 182.6860780701222 256.0954836768846 177.8874733090381 241.87491801559298 176.69419494140215 248.88961117371528 C 175.50091657376618 255.90430433183758 184.73169812892667 244.07029540581783 180.00000667200956 259.7629430907728 M 180.00000667200956 259.7629430907728 C 177.43242545495298 275.8846041773878 184.9572942381663 262.9684627290737 184.71934869548272 270.0514326473032 C 184.48140315279915 277.13440256553275 177.84033209955336 263.7423700318515 179.32016226434223 280" stroke-miterlimit="10" stroke-width="0.1"/><path fill="none" stroke="#000000" paint-order="fill stroke markers" d=" M 199.28567973813523 0 C 198.84770245525186 15.554855369141306 194.0766001285363 2.1285325296130813 193.0503638560328 8.805502219549462 C 192.02412758352926 15.482471909485842 200.60696463668648 4.108621614964649 196.3535761024109 19.07705625696109 M 196.3535761024109 19.07705625696109 C 199.6056478940386 35.60742239995005 191.36114240927552 22.56871813201326 191.87193823489267 29.864602797773074 C 192.38273406050982 37.16048746353289 198.72999790726635 23.100191544361795 197.81299274703133 39.922441016274846 M 197.81299274703133 39.922441016274846 C 199.12118452480573 56.18083568807431 203.3819667059936 41.865958341812465 204.8209474925933 48.79913341239977 C 206.259928279193 55.73230848298707 196.65436031920623 44.295392709924656 201.9243664230305 59.73151264652428 M 201.9243664230305 59.73151264652428 C 205.76878809201014 78.65944612881074 196.225465438202 63.76951932290557 196.86232758502396 72.13009798975864 C 197.49918973184592 80.4906766566117 204.67702441174393 64.32702555706263 203.7439725568075 83.61888026610447 M 203.7439725568075 83.61888026610447 C 203.21389410124272 98.43563749584514 198.76557216038765 85.60907267976437 197.73940528254295 91.96313310804533 C 196.71323840469825 98.31719353632629 204.97303732040507 87.54296247593494 200.8120671915369 101.77333863262149 M 200.8120671915369 101.77333863262149 C 197.36847701014787 116.4850031662642 205.17493920307723 105.06253866292103 204.48371306136733 111.58529516410346 C 203.79248691965742 118.10805166528588 198.55343611022198 105.3031348785229 198.83713535808005 120.40978577885699 M 198.83713535808005 120.40978577885699 C 201.6412404109282 135.34580778304198 194.3065895874967 123.52025451233379 194.71026442542131 130.1052234939053 C 195.11393926334594 136.6901924754768 200.94922640305742 124.05728952891938 199.9904920378647 139.2239828690613 M 199.9904920378647 139.2239828690613 C 203.03242497139544 153.5469330284887 195.69749102926244 142.32351493960698 196.23662636127574 148.65719755085814 C 196.77576169328904 154.9908801621093 202.10819297365833 142.68919140920102 201.53087870075984 157.32021890120745 M 201.53087870075984 157.32021890120745 C 203.8705401556259 175.70990041140823 195.79008841386616 160.78182960315405 195.80772895925918 168.829520332041 C 195.8253695046522 176.87721106092795 203.84029922066642 161.9138591618877 201.58128025902562 180.31362098374163 M 201.58128025902562 180.31362098374163 C 199.37090331620055 198.21467411903546 207.1793427429022 183.6610534307575 207.19108322866262 191.4912966167285 C 207.20282371442303 199.3215398026995 199.35077676918272 184.7914000859423 201.61482450405535 202.68574437223023 M 201.61482450405535 202.68574437223023 C 201.1654888587992 219.24109675550756 207.02515354421732 205.25399920321703 207.72303562536035 212.40973061075798 C 208.4209177065034 219.56546201829892 199.96911957683966 206.97412862829452 203.6087733073212 223.13069125091866 M 203.6087733073212 223.13069125091866 C 203.86089519058157 238.70857268533106 198.4929380311844 225.49085269887274 197.76273538058203 232.21490049510285 C 197.03253272997966 238.93894829133296 205.11267116304276 227.1816336060794 201.5224800198859 242.34225638300472 M 201.5224800198859 242.34225638300472 C 198.8546780525651 256.48205393458375 205.8095804609536 245.29126898358007 205.421747173962 251.52590957326984 C 205.03391388697037 257.7605501629596 199.51953511597932 245.7940986379727 200.41438491419552 260.15551521068977 M 200.41438491419552 260.15551521068977 C 198.630320302639 276.05615102555976 205.4130780866558 263.0695679705318 205.50074602863214 270.0151376467904 C 205.58841397060849 276.96070732304895 198.48003240210812 264.14946015197364 200.66486474841366 280" stroke-miterlimit="10" stroke-width="0.1"/><path fill="none" stroke="#000000" paint-order="fill stroke markers" d=" M 221.2072256109907 0 C 217.50102090205527 15.311642571990394 225.73016977349695 3.4637539334772356 224.95812388352425 10.25910329496962 C 224.18607799355155 17.054452656462004 218.82452814200846 3.6624722380034482 219.0013802110687 19.41528388997824 M 219.0013802110687 19.41528388997824 C 216.83661873055175 36.15848046318001 224.22312624582142 22.578402955771022 224.1921703466173 29.907420943947308 C 224.1612144474132 37.2364389321236 216.88968598633025 23.59444962630637 218.9129347847712 40.355335284767634 M 218.9129347847712 40.355335284767634 C 222.55976536599087 56.94626676097243 213.95816345835863 43.986423077385595 214.6357480138576 51.32965366766257 C 215.3133325693566 58.67288425793954 221.39819184227832 44.35787146335476 220.84889065762542 61.33599411413041 M 220.84889065762542 61.33599411413041 C 218.31857839998304 77.29726510556368 225.75857311713636 64.50574469809851 225.52804550569067 71.51761670828128 C 225.29751789424498 78.52948871846405 218.71376859103282 65.2769130881075 220.19024033920914 81.36991414322402 M 220.19024033920914 81.36991414322402 C 221.98522280309345 98.80285426431328 214.68630373618578 84.51153036051419 214.52083017564652 92.11775746842332 C 214.35535661510727 99.72398457633246 222.2688917640179 85.7636077936119 219.71745873766838 103.101991594393 M 219.71745873766838 103.101991594393 C 221.24473302515335 119.09349115591782 214.6511797401041 105.94438610232243 214.44800176447708 112.91526991353615 C 214.24482378885006 119.88615372474987 221.59303812622827 107.14340462240857 219.13695023587684 123.01880248357507 M 219.13695023587684 123.01880248357507 C 222.55422000911295 137.27356138426487 214.9213617201986 126.23251801713091 215.6258524509401 132.55703637752538 C 216.3303431816816 138.88155473791983 221.34652161355612 126.43152990930291 221.14978089513826 141.08885494184497 M 221.14978089513826 141.08885494184497 C 222.01148072309016 157.1800600524894 215.95324610262577 143.7256702472617 215.4579903687088 150.70366551642903 C 214.96273463479184 157.68166078559636 222.8604905526621 145.21778244820257 219.73476451251838 161.02598428232304 M 219.73476451251838 161.02598428232304 C 223.0944288163071 177.39086344258212 214.8127938808326 164.52904789084488 215.3788480876815 171.75943929931432 C 215.94490229453038 178.98983070778377 222.12405017599474 164.99590674234875 221.35206224637236 181.6842454493786 M 221.35206224637236 181.6842454493786 C 218.54741911724338 199.24894319526328 226.7520144280615 185.17908323187365 226.4896518818305 192.89643381397707 C 226.2272893355995 200.6137843960805 218.9971834822108 186.01919934022882 220.60245497142665 203.73381854110266 M 220.60245497142665 203.73381854110266 C 220.02546028675854 218.35157992359404 225.3532306671069 206.06111267731853 225.8917893389225 212.38906344818156 C 226.4303480107381 218.7170142190446 219.10221684936042 207.5036643164003 222.1411940337569 221.8136778864256 M 222.1411940337569 221.8136778864256 C 222.66085636612323 237.25767893039142 217.10874433702176 224.24276634894179 216.5009988239814 230.92354861654678 C 215.89325331094105 237.60433088415178 223.70270581704955 225.80490932878286 220.40477828221302 240.90162722243988 M 220.40477828221302 240.90162722243988 C 221.71710041682798 256.17119581170834 215.54587575312948 243.56740918385944 215.28897621015685 250.21573299879282 C 215.0320766671842 256.86405681372617 222.15749963335247 244.77406927182255 219.6707795880055 259.8968381222495 M 219.6707795880055 259.8968381222495 C 219.37825667656696 276.19409178399195 225.01865629675623 262.37550200505694 225.77019085515346 269.4116086622696 C 226.52172541355068 276.44771531948226 218.08991171931459 264.1321946573417 221.81802118342617 280" stroke-miterlimit="10" stroke-width="0.1"/><path fill="none" stroke="#000000" paint-order="fill stroke markers" d=" M 238.74242532680947 0 C 237.29018577801827 15.519155291142505 243.66343398905636 2.748540393305606 243.87350069910013 9.51191249442498 C 244.0835674091439 16.275284595544353 236.93007141794322 3.9248031177950065 239.34261592693454 19.323920288912497 M 239.34261592693454 19.323920288912497 C 241.66537016715176 34.73175017723955 234.58565935282735 22.3441295212783 234.75657803154945 29.10641993226165 C 234.92749671027156 35.868710343245 241.37236671791385 23.139252329839522 239.83095500899773 38.64475003457921 M 239.83095500899773 38.64475003457921 C 238.555952426581 55.75464939811622 245.30403672873751 41.56715925728016 245.67610712050228 49.006231429857 C 246.04817751226705 56.445303602433846 237.91811746926993 43.001954245127344 240.8940132711828 59.89924195622734 M 240.8940132711828 59.89924195622734 C 241.34814854899386 78.8298670727205 234.69871858094592 62.81623960360615 233.8750047328072 70.99542386105456 C 233.0512908846685 79.17460811850297 242.7602294315174 64.80840834566607 238.5405451336436 83.26833983465139 M 238.5405451336436 83.26833983465139 C 236.8153055570782 99.74270125685875 243.73760658902955 86.24678728706871 243.88150746339716 93.43633279998849 C 244.02540833776476 100.62587831290827 236.56861834387658 87.41776609185342 238.9516904889796 103.8098984429936 M 238.9516904889796 103.8098984429936 C 240.77714047896993 117.83586168648398 234.57912995313137 106.463649606039 234.61023346647772 112.60389646423434 C 234.64133697982408 118.74414332242968 240.7238201703762 107.30972421529196 239.0405576699692 121.35346089498027 M 239.0405576699692 121.35346089498027 C 239.1005668269571 136.09807224313985 243.92639199268945 123.48859337086147 244.74618270213898 129.83688699700008 C 245.56597341158852 136.1851806231387 237.6952113250436 125.21528316975935 241.382816839825 139.49144268394775 M 241.382816839825 139.49144268394775 C 242.33900894866204 154.75765609917252 236.47297432608067 142.03893741909593 236.06284558906762 148.66663969613012 C 235.65271685205457 155.2943419731643 243.0420867835416 143.39588076711388 240.2110204483591 158.42773490404545 M 240.2110204483591 158.42773490404545 C 239.19007422249703 176.1678013087698 245.92967334921886 161.3582114379057 246.44511547371727 169.0550602244103 C 246.96055759821567 176.75190901091491 238.30645915192832 162.97320338904763 241.6837122326403 180.41873143691578 M 241.6837122326403 180.41873143691578 C 237.09532596323007 196.90804709118484 246.4672601866001 184.34640533703697 245.37861079039172 191.69656211030573 C 244.28996139418334 199.0467188835745 238.96158207101587 184.30777833700984 238.57328538633064 201.41917936054082 M 238.57328538633064 201.41917936054082 C 241.38304297944842 215.6115151357119 234.2895542781528 204.42282517771247 234.73570869960201 210.68774138203096 C 235.18186312105124 216.95265758634946 240.61820682839263 204.87165878545161 239.848012304757 219.31893994430794 M 239.848012304757 219.31893994430794 C 240.58145759383933 235.16774279146645 234.712911828332 221.87790457143527 234.17546041493586 228.7445743903926 C 233.6380090015397 235.6112442093499 241.50280287394702 223.39630881611103 238.31243683791087 238.9379965699003 M 238.31243683791087 238.9379965699003 C 236.5028119071585 255.0881326068682 243.38992126795185 241.89696931393678 243.4800132382337 248.951392333825 C 243.57010520851557 256.0058153537132 236.34836852953242 242.99483600134553 238.56984246728763 259.0934909124381 M 238.56984246728763 259.0934909124381 C 238.27425250345104 276.0430808006025 244.13304366635055 261.668510730285 244.9183828297529 268.98578891093166 C 245.70372199315523 276.3030670915783 236.92795679476134 263.4991753480654 240.81366864843716 280" stroke-miterlimit="10" stroke-width="0.1"/><path fill="none" stroke="#000000" paint-order="fill stroke markers" d=" M 259.5883003414867 0 C 261.9633042311482 15.12161222033475 254.9336522524803 2.995659995706194 255.1424901930857 9.637470084678322 C 255.3513281336911 16.27928017365045 261.60529633296755 3.735652067811103 260.1849801717878 18.97660025420608 M 260.1849801717878 18.97660025420608 C 258.96647746526224 32.643722132589545 264.5275547052224 21.37714588551288 264.7385831789398 27.33013314809098 C 264.94961165265715 33.28312041066908 258.6047143674611 22.43860111102709 260.78791866812304 35.9851352901435 M 260.78791866812304 35.9851352901435 C 263.2401980791661 53.82082637203983 255.2468309164944 39.403028714996445 255.34281406607238 47.218141457023336 C 255.43879721565037 55.033254199050226 263.07565553703245 40.423490242850875 261.06215623834584 58.314028838791764 M 261.06215623834584 58.314028838791764 C 261.74078931017544 77.78654665263528 254.72043133349578 61.38448315072791 253.96424538984618 69.80918645132824 C 253.2080594461966 78.23388975192859 263.0371080707176 63.34419813732041 258.9016249707756 82.38460969764986 M 258.9016249707756 82.38460969764986 C 260.57647822985007 98.2215053797695 253.90805341378535 85.25322283688429 253.77677274250328 92.16545461390137 C 253.6454920712212 99.07768639091846 260.8015308091907 86.37196519059735 258.5265373385411 102.1338433462701 M 258.5265373385411 102.1338433462701 C 261.03454978113126 116.54442635715955 254.12651554577928 105.06957882502606 254.43093566661636 111.41226140739482 C 254.73535578745344 117.75494398976359 260.5126867168391 105.67125621595594 259.39630911236134 120.25579358160944 M 259.39630911236134 120.25579358160944 C 259.46701149577086 135.3728410087541 264.4068966866075 122.44182203260281 265.251347959384 128.94997387288154 C 266.0957992321605 135.45812571316026 258.0193807424397 124.216009282562 261.8090270345799 138.85051312526295 M 261.8090270345799 138.85051312526295 C 263.39634055055257 154.48432563201496 256.86983487314257 141.66048942384072 256.71178002196723 148.4805255391478 C 256.5537251707919 155.3005616544549 263.667291723996 142.79283514863138 261.35744174550746 158.3363305975689 M 261.35744174550746 158.3363305975689 C 263.12364256025563 175.26519857398256 256.0160301493108 161.39475464823067 255.86530068616463 168.7822932050184 C 255.71457122301848 176.1698317618061 263.382035925649 162.60084676234646 260.9267861365185 179.44358361696234 M 260.9267861365185 179.44358361696234 C 257.3801947334413 196.51088541350617 266.0537764487717 183.11113872824433 265.4450225564908 190.65417750076736 C 264.8362686642099 198.1972162732904 258.42377283449423 183.57996180346666 259.18748930143016 200.99512296702818 M 259.18748930143016 200.99512296702818 C 257.5445696253777 215.09873648191572 263.61241166523916 203.59984760435987 263.6641177632797 209.76371525486812 C 263.71582386132025 215.92758290537637 257.45593060016523 204.53210622390162 259.3352210101175 218.60617339705172 M 259.3352210101175 218.60617339705172 C 257.14917853353006 232.7764298310625 263.702807314789 221.4002864642784 263.5241412867058 227.62210690766852 C 263.34547525862257 233.84392735105865 257.45546315310133 222.110451928108 258.8247466441654 236.3828032353092 M 258.8247466441654 236.3828032353092 C 257.1650172396828 254.08059081182418 264.43605439112673 239.51839037643643 264.6740518248543 247.23142276194577 C 264.9120492585819 254.9444551474551 256.757021639007 240.85824957952244 259.50473931195836 258.4200386224788 M 259.50473931195836 258.4200386224788 C 262.7826541809924 275.54401788308553 254.3197337296934 262.0070074326326 254.80969817462926 269.559993914765 C 255.2996626195651 277.11298039689746 261.942715132531 262.5960410565728 260.9046377260608 280" stroke-miterlimit="10" stroke-width="0.1"/><path fill="none" stroke="#000000" paint-order="fill stroke markers" d="" stroke-miterlimit="10" stroke-width="0.1"/><path fill="none" stroke="#000000" paint-order="fill stroke markers" d=" M 0 20.241048980790325 C 14.91838242669808 21.098435297449907 2.463975982489429 15.431817409009668 8.93652306027181 14.997855537825437 C 15.40907013805419 14.563893666641206 3.8225874362139973 21.84236993376573 18.492991650806804 19.001157920263953 M 18.492991650806804 19.001157920263953 C 34.992234813424794 17.75743448584878 21.315804941342144 24.276824925946148 28.490140950169174 24.62948792449289 C 35.664476958996204 24.98215092303963 22.693373084007032 17.152869345482937 38.99109453316974 20.008766487540353 M 38.99109453316974 20.008766487540353 C 54.92735723476003 18.27553145002897 41.89354144042516 25.026672875660857 48.85172110620697 25.138155004972354 C 55.80990077198879 25.24963713428385 42.99904923627692 18.08441922835212 58.87160786397492 20.327286857001774 M 58.87160786397492 20.327286857001774 C 74.88180310806469 22.95861356572326 62.081921387919 15.416185410615993 69.12030770045806 15.68759255661426 C 76.15869401299712 15.958999702612529 62.81599800085487 22.49334417258337 78.98128304265794 21.102735845568255 M 78.98128304265794 21.102735845568255 C 95.4205375902073 22.16688980108047 81.73593270796918 15.820666457953715 88.87475834144111 15.393880609306319 C 96.01358397491303 14.967094760658922 83.18255078996972 22.898522684476006 99.37792770972057 19.883347706575695 M 99.37792770972057 19.883347706575695 C 115.14757305905484 21.71186268228992 102.2875385219749 14.934478741323357 109.1790750173035 14.873011981282254 C 116.07061151263211 14.81154522124115 103.33351049563437 21.81723427093181 119.06803198208802 19.70772839217254 M 119.06803198208802 19.70772839217254 C 133.45499509701295 20.480323739093723 121.42629274440482 15.061881451016621 127.66535506643747 14.620009125040557 C 133.9044173884701 14.178136799064493 122.75945968781411 21.23781915505269 136.89392433075272 18.44523603224093 M 136.89392433075272 18.44523603224093 C 154.40236498801258 16.061671257501047 140.24126015999698 23.888122321026437 147.91170346945646 23.80411814576017 C 155.58214677891593 23.720113970493905 141.2530336003678 16.20567841510036 158.80947664349407 18.20522410290874 M 158.80947664349407 18.20522410290874 C 173.2251685567575 20.586793354033873 161.70413529080474 13.785032283686048 168.04221015157881 14.034709473456537 C 174.38028501235289 14.284386663227027 162.35989736685912 20.158775314427324 176.91826195999138 18.918587502252993 M 176.91826195999138 18.918587502252993 C 192.4506663984562 20.98889392026142 179.87317627003134 14.083529279854329 186.67553621987815 14.138993344002163 C 193.47789616972497 14.194457408149997 180.78947791300448 20.893812667436567 196.3535761024109 19.07705625696109 M 196.3535761024109 19.07705625696109 C 214.50564215263884 17.08285795250903 199.66618981045528 24.78974142907811 207.5929212484855 24.908121100634112 C 215.51965268651574 25.026500772190115 200.91695968744418 16.879921372698742 219.0013802110687 19.41528388997824 M 219.0013802110687 19.41528388997824 C 235.2652324236548 17.30806943753906 222.07540646871502 24.486888278784843 229.19483896926806 24.45491101841183 C 236.3142714698211 24.42293375803882 223.0604909941353 17.36288759817851 239.34261592693454 19.323920288912497 M 239.34261592693454 19.323920288912497 C 256.05123932628777 21.13030068563269 242.38214055498594 14.061231222493221 249.67696804068459 13.939669210345976 C 256.97179552638323 13.81810719819873 243.54582077937584 21.338692706456538 260.1849801717878 18.97660025420608 M 260.1849801717878 18.97660025420608 C 276.07635781630785 17.30999252698724 263.05882869114396 23.989397884184577 269.9940856310182 24.12716412101062 C 276.92934257089246 24.26493035783666 264.1873459193805 17.073821835285454 280 19.370218073709058" stroke-miterlimit="10" stroke-width="0.1"/><path fill="none" stroke="#000000" paint-order="fill stroke markers" d=" M 0 40.16807710927051 C 15.345579412850455 40.11205589444768 2.224285358513667 35.08404389516125 8.831672270943402 34.23361124962254 C 15.439059183373137 33.38317860408383 4.018630420113765 41.56994042965689 18.878248321227815 37.73826955058849 M 18.878248321227815 37.73826955058849 C 35.031430559099505 36.974189197436196 21.491832303574824 42.96957193150071 28.491268978904674 43.510216361412816 C 35.490705654234525 44.05086079132492 23.032396258534046 36.047370174729735 38.87663882217025 39.28296792176593 M 38.87663882217025 39.28296792176593 C 54.33035665311056 41.97076080672893 42.02429830556467 34.56418483010334 48.82601175731389 34.88988003580601 C 55.627725209063115 35.215575241508674 42.6702764501119 41.412426168381515 58.31010582716802 40.21352565234497 M 58.31010582716802 40.21352565234497 C 75.21849569136918 44.85787764694089 62.31754077476376 35.29954045031938 69.85123536212866 36.38973262453448 C 77.38492994949355 37.479924798749586 62.30359068445793 42.98897677685786 79.83494750535344 43.3283604358167 M 79.83494750535344 43.3283604358167 C 95.73733175886122 45.03801673039355 82.72464382445693 38.31821387194074 89.66696007259903 38.19839896980035 C 96.60927632074112 38.07858406765996 83.83621819061761 45.24341370549136 99.67013678575944 42.98603214398701 M 99.67013678575944 42.98603214398701 C 117.01772732822194 39.396388090660174 103.39289766729667 48.19944103869991 111.05899442692119 47.587233860322485 C 118.72509118654571 46.97502668194506 103.87584716886562 40.44588611073576 121.57327038468664 41.23686877719437 M 121.57327038468664 41.23686877719437 C 135.93036489485954 38.68242909822745 124.51654501460095 45.61241270055638 130.83868632477365 45.285113004779944 C 137.16082763494634 44.957813309003505 125.09240836313491 39.24351429098706 139.63653127089432 40.301726789261686 M 139.63653127089432 40.301726789261686 C 155.01862295755114 37.145290120201125 142.9287352617873 44.928324064754705 149.7248290397581 44.39689474428706 C 156.52092281772892 43.865465423819415 143.36817648102974 38.05631181243137 159.05394206509663 38.78335730221127 M 159.05394206509663 38.78335730221127 C 174.65272550425902 37.2638013684647 161.83638660736733 43.72086595715587 168.6376847929775 43.90622250934302 C 175.43898297858766 44.09157906153016 162.9933571860702 36.94604727900102 178.48622259541136 39.3129474513174 M 178.48622259541136 39.3129474513174 C 194.00858807320307 37.86786528812136 181.232864726915 44.23606402396601 187.997234279982 44.449386771701114 C 194.76160383304898 44.66270951943622 182.4125259822311 37.50216914914689 197.81299274703133 39.922441016274846 M 197.81299274703133 39.922441016274846 C 214.7362358040725 38.15876222729509 200.86976048556912 45.262360665983735 208.25474019877808 45.41387365995621 C 215.63971991198704 45.565386653928684 202.0762705814286 37.899025666199414 218.9129347847712 40.355335284767634 M 218.9129347847712 40.355335284767634 C 235.47629243913357 36.89506506219424 222.4782841309523 45.328252553296004 229.79959120943158 44.72954771573006 C 237.12089828791088 44.13084287816411 222.92548030459767 37.92141621230729 239.83095500899773 38.64475003457921 M 239.83095500899773 38.64475003457921 C 256.33056446185446 34.421361873118116 243.63940324397544 43.48504873769519 250.9743405246693 42.55418357714269 C 258.30927780536314 41.62331841659019 243.75638626637922 36.01713071977954 260.78791866812304 35.9851352901435 M 260.78791866812304 35.9851352901435 C 276.28022259633167 35.04503805861227 263.3631337111369 40.972113917173324 270.08736217729387 41.40134993664803 C 276.8115906434508 41.83058595612274 264.75297379720547 34.309204882369926 280 37.21152391721409" stroke-miterlimit="10" stroke-width="0.1"/><path fill="none" stroke="#000000" paint-order="fill stroke markers" d=" M 0 61.51523236313141 C 15.906032388974968 61.683931215343726 2.380528200274262 56.27866225133226 9.241441321413372 55.49485385903276 C 16.102354442552482 54.71104546673326 4.1444670384507765 63.02760274500002 19.602608917540316 59.27577981370427 M 19.602608917540316 59.27577981370427 C 34.34712886860825 57.55801609920018 22.32576060057083 63.9017555623223 28.76974108719647 63.955731498054966 C 35.213721573822106 64.00970743378763 23.300305177250014 57.46548592365846 38.01398173647071 59.429996772940456 M 38.01398173647071 59.429996772940456 C 54.546871916908394 61.95190519996324 41.264496934857604 54.33001202182209 48.52215238942429 54.526140026823725 C 55.77980784399098 54.72226803182536 42.105176851936925 61.61568576281759 58.75014017808982 59.99036250151655 M 58.75014017808982 59.99036250151655 C 76.5683095018051 59.379389836925625 61.55642511445906 65.79476865761292 69.26484273584515 66.49102031952765 C 76.97326035723124 67.18727198144238 63.35387929371465 58.185815559357515 80.77419052490723 61.97965296413007 M 80.77419052490723 61.97965296413007 C 98.75873513378541 64.21174312618554 84.14100763673085 56.357147540263085 92.00838555389674 56.350264746516615 C 99.87576347106264 56.343381952770144 85.27180156150102 64.22354220117948 103.25241314538121 61.959987839140155 M 103.25241314538121 61.959987839140155 C 118.25511534705517 61.17242670369772 105.70561676581067 66.80731501682149 112.2107263907479 67.27589572318257 C 118.71583601568511 67.74447642954365 107.10349884716278 60.369145492793 121.83844064520184 63.29878985731469 M 121.83844064520184 63.29878985731469 C 137.98489126549904 64.26964182169434 124.5194344625401 58.09993455462571 131.52710522013473 57.64872344434248 C 138.53477597772937 57.19751233405925 125.97174139533685 65.04314658217987 141.8603570954722 62.009615256505455 M 141.8603570954722 62.009615256505455 C 156.80643162713204 62.50075480759527 144.20723722469066 57.13769561503879 150.67199222954127 56.544474793034254 C 157.1367472343919 55.95125397102972 145.72399447595956 63.51770478817447 160.33108568075968 60.31469862220679 M 160.33108568075968 60.31469862220679 C 176.92045918072046 58.51432108133052 163.3511959173515 65.53882083160421 170.59433098492025 65.65654754091693 C 177.837466052489 65.77427425022965 164.50365620774545 58.312503865365855 181.02575730238468 60.65106064881458 M 181.02575730238468 60.65106064881458 C 197.83659939913036 62.00528315904692 183.930661669909 55.28847616830958 191.24517486213503 54.96663436750797 C 198.55968805436106 54.644792566706364 185.29743392674285 62.5570119604211 201.9243664230305 59.73151264652428 M 201.9243664230305 59.73151264652428 C 217.22443395746706 59.1226453971497 204.36192469131822 64.70331592531393 210.98550817342644 65.26488443897607 C 217.60909165553466 65.8264529526382 205.8697194167101 58.159956516586014 220.84889065762542 61.33599411413041 M 220.84889065762542 61.33599411413041 C 237.02866396426163 62.1911046491637 223.49647101018328 56.1092006370556 230.51226392492836 55.60633738178953 C 237.52805683967344 55.10347412652346 225.0015903961272 63.05315594390554 240.8940132711828 59.89924195622734 M 240.8940132711828 59.89924195622734 C 257.18704895665684 60.64788575899519 243.52293143689838 54.61942424682125 250.58178147540542 54.064599655718794 C 257.64063151391247 53.50977506461634 245.08616317635898 61.59901362945653 261.06215623834584 58.314028838791764 M 261.06215623834584 58.314028838791764 C 276.0937200925065 55.470555221325164 264.19961069050055 62.87042304646133 270.8278560070795 62.45493400339206 C 277.45610132365846 62.03944496032279 264.73101383551403 56.18282215230105 280 57.12691728716528" stroke-miterlimit="10" stroke-width="0.1"/><path fill="none" stroke="#000000" paint-order="fill stroke markers" d=" M 0 82.59340394736626 C 14.662202197334857 81.6980806173999 1.8467918350831436 77.61274365694501 8.114607679244585 76.43756271956455 C 14.382423523406027 75.2623817821841 3.917375035915242 83.71267651005212 17.90804526903269 79.23574412627922 M 17.90804526903269 79.23574412627922 C 33.84374594064602 75.007685799984 21.635620813581518 83.88883659304663 28.72789501276931 82.92559535019095 C 35.8201692119571 81.96235410733526 21.685561599181234 76.65895650202232 38.17168583814067 76.4836262895487 M 38.17168583814067 76.4836262895487 C 55.13801073918003 75.47994143248562 40.98336754562882 81.94887212386017 48.345982841456866 82.43008691087358 C 55.70859813728491 82.911301697887 42.51638451776053 74.6550017976055 59.207729540506506 77.85852568101558 M 59.207729540506506 77.85852568101558 C 76.45462708810574 83.14006009913375 63.47539902807163 72.92569921484233 71.18922213262843 74.27214263469943 C 78.90304523718524 75.61858605455654 63.23093033743693 80.83187137937873 81.24722412495451 81.7055068806073 M 81.24722412495451 81.7055068806073 C 97.15979884264554 83.48943387416232 84.16297628156218 76.70284457304444 91.11368145960512 76.6144744854694 C 98.06438663764806 76.52610439789436 85.24430425171478 83.6409254528624 101.10638177650578 81.45302091610716 M 101.10638177650578 81.45302091610716 C 117.36911042492156 83.60481953945849 104.19499089284432 76.3883043158133 111.31634008265003 76.43954756480379 C 118.43768927245574 76.49079081379428 105.16108324239748 83.51697396976051 121.45309374737926 81.59943019893714 M 121.45309374737926 81.59943019893714 C 138.48386784210348 83.42987052189075 124.54766022189285 76.23370004557542 131.98255584931772 76.10515573343952 C 139.41745147674257 75.97661142130362 125.73833248080372 83.65023219983802 142.69565268287886 81.2321607356917 M 142.69565268287886 81.2321607356917 C 158.73987502222977 84.50348390235955 146.12263053375872 76.40334211703478 153.2101360196843 76.94860781671126 C 160.2976415056099 77.49387351638774 146.58986561778593 83.56874270291415 162.94566835695196 82.79006273476736 M 162.94566835695196 82.79006273476736 C 178.9500334069736 84.8775386281363 165.9752406597618 77.80140384879104 172.98183122941407 77.83885073093342 C 179.98842179906634 77.87629761307579 166.9387352875697 84.81334397303507 182.96449855595844 82.89705382660273 M 182.96449855595844 82.89705382660273 C 199.66026040058787 81.39656757811922 185.9009630462104 88.20019629274026 193.17377894650755 88.45283554656586 C 200.44659484680471 88.70547480039147 187.19257600007845 80.96347171441816 203.7439725568075 83.61888026610447 M 203.7439725568075 83.61888026610447 C 217.12588339501684 83.46433414604027 205.64867119344765 79.16996840207199 211.40486491728822 78.38283025906384 C 217.1610586411288 77.59569211605569 207.25812272557587 84.81371381976855 220.19024033920914 81.36991414322402 M 220.19024033920914 81.36991414322402 C 234.68064160561397 84.72368517580936 223.41739248123116 77.06710179832952 229.83999915928322 77.7315507903291 C 236.2626058373353 78.39599978232867 223.6704587289533 83.58462976095294 238.5405451336436 83.26833983465139 M 238.5405451336436 83.26833983465139 C 254.74103598964902 80.52524774133697 241.81563964346378 88.22605027338415 248.94201758645997 87.91674472543362 C 256.06839552945615 87.60743917748309 242.52438808736983 81.0554858235379 258.9016249707756 82.38460969764986 M 258.9016249707756 82.38460969764986 C 276.1289973418364 81.70506841912203 261.19470035595606 76.58700741882183 268.5791316161846 75.36665420193732 C 275.96356287641316 74.14630098505282 263.4699723243017 83.79710250520974 280 78.89788622083701" stroke-miterlimit="10" stroke-width="0.1"/><path fill="none" stroke="#000000" paint-order="fill stroke markers" d=" M 0 100.38502731299182 C 15.600453856688935 98.72189536992653 2.830179206376137 105.30210430467939 9.639927972345655 105.4257026753345 C 16.449676738315173 105.54930104598962 3.9265988293126153 98.51001244880347 19.456425045627196 100.7381655148636 M 19.456425045627196 100.7381655148636 C 34.475153192715815 99.93391358449198 21.385448136309538 95.65288784561844 27.811748234189242 94.4977401138459 C 34.23804833206895 93.34259238207335 23.458638739207753 101.9141668389592 37.81728246814064 97.4377434240849 M 37.81728246814064 97.4377434240849 C 54.32154615666839 98.94531003820872 40.72810073344334 92.19897747840537 47.918806370800425 91.9596996674149 C 55.10951200815751 91.72042185642442 41.99462220691339 99.35550057133523 58.3621557177323 96.7540925355407 M 58.3621557177323 96.7540925355407 C 76.27203490155382 99.65550520209662 61.939451480459326 91.25410819523483 69.81070627245853 91.53956938785315 C 77.68196106445774 91.82503058047146 62.778455258126606 99.16614315760809 80.85145512344431 97.5696959430216 M 80.85145512344431 97.5696959430216 C 97.52432541897636 100.9650531497879 84.41133893502939 92.55106797548838 91.77632537346908 93.11591344864368 C 99.14131181190876 93.68075892179898 84.89863438165119 99.99674662437882 101.89427351898627 99.18354015203674 M 101.89427351898627 99.18354015203674 C 117.83760604122506 97.82462468398886 104.67394031166776 104.25849326406258 111.61500976952706 104.53160142902404 C 118.55607922738636 104.80470959398549 105.93862982775198 97.35643925834064 121.72590054144139 99.96384919478378 M 121.72590054144139 99.96384919478378 C 135.15565210201646 102.28314106868467 124.45586077396958 95.86067402939446 130.36586947019657 96.13661313719773 C 136.27587816642358 96.412552245001 125.02420862277016 101.81010259816479 138.61163967351854 100.75224664565025 M 138.61163967351854 100.75224664565025 C 156.35122597647128 101.44757180330733 141.4343406084059 94.98616177617728 149.11344913970555 94.3304779662398 C 156.7925576710052 93.67479415630231 143.18703992281476 102.57160119177158 160.5519497629461 98.87886433154314 M 160.5519497629461 98.87886433154314 C 175.666414147435 96.78937773492989 163.45212473955885 103.57287758690754 170.0754817526948 103.48664682753123 C 176.69883876583074 103.40041606815493 164.31208783920195 96.9372018938607 179.47582694333448 98.63249073332511 M 179.47582694333448 98.63249073332511 C 196.85890393182606 99.01154502794198 181.8910510057408 104.43767798027018 189.35873509261162 105.53697474502391 C 196.82641917948246 106.63627150977764 184.0571597829046 97.12703628836415 200.8120671915369 101.77333863262149 M 200.8120671915369 101.77333863262149 C 216.06924572461924 100.94572184742555 203.31571268301377 106.69898446342009 209.9325997241598 107.16401300004011 C 216.5494867653058 107.62904153666014 204.72601079694036 100.14853007036264 219.71745873766838 103.101991594393 M 219.71745873766838 103.101991594393 C 235.0340534538573 105.5917402484046 222.7795702125152 98.39961968385528 229.51155132547413 98.64738708086549 C 236.24353243843305 98.89515447787569 223.49351440307055 105.16699613924423 238.9516904889796 103.8098984429936 M 238.9516904889796 103.8098984429936 C 254.44396245895646 100.51156968065864 242.30693129059472 108.45220189087544 249.15812768794126 107.86558260702222 C 256.0093240852878 107.278963323169 242.69905434921958 101.51720273869275 258.5265373385411 102.1338433462701 M 258.5265373385411 102.1338433462701 C 275.7857640303024 103.63753711166247 261.5464153312745 96.6447928370141 269.0621272627851 96.36319486793444 C 276.57783919429573 96.08159689885478 262.9016864334271 104.12027648722761 280 101.32927772032821" stroke-miterlimit="10" stroke-width="0.1"/><path fill="none" stroke="#000000" paint-order="fill stroke markers" d=" M 0 117.04091218552108 C 15.249824274150988 120.50924181283132 3.3760371937169946 112.50364925575495 10.131948476360279 113.17655455737277 C 16.88785975900356 113.84945985899058 3.668262075333927 119.35568986720078 19.3026036646951 118.963498761572 M 19.3026036646951 118.963498761572 C 36.242468972656205 116.74919474990503 22.510853767410033 124.24305593096165 29.927258269929194 124.20134848867224 C 37.343662772448354 124.15964104638283 23.52863268262336 116.82069322240115 40.49233081474985 118.84433464074512 M 40.49233081474985 118.84433464074512 C 55.23557770519968 120.64363087900216 43.24226488523908 114.2306962733416 49.690087189339 114.21191058956656 C 56.137909493438926 114.19312490579152 44.18216804102838 120.67583490833078 58.91468025503534 118.79066125853073 M 58.91468025503534 118.79066125853073 C 76.5594160614639 120.43336520896577 62.036882179580346 113.19441306916025 69.72614473968069 112.95193822746303 C 77.41540729978104 112.70946338576582 63.37782310129189 120.84903636616099 80.88400185532205 118.09787599653869 M 80.88400185532205 118.09787599653869 C 97.61760625685154 117.78595711411363 83.43285566742466 123.58724930807477 90.65797319559871 124.35392448803557 C 97.88309072377277 125.12059966799637 85.23169049426745 116.47165680560941 101.5271947929622 120.28837651071238 M 101.5271947929622 120.28837651071238 C 114.74562823872591 121.14284720601835 103.7417522957904 116.04100962642757 109.48185666371279 115.69732750963362 C 115.22196103163517 115.35364539283968 104.90544932228755 121.73201654909367 117.92749298702614 119.30642760558685 M 117.92749298702614 119.30642760558685 C 133.06822884204155 121.07918314173912 120.72674275087108 114.55743309344247 127.34436195574746 114.50581123989954 C 133.96198116062385 114.45418938635662 121.72373877653921 121.16767774781272 136.8349764295301 119.1589365954642 M 136.8349764295301 119.1589365954642 C 153.91541785137989 119.39167294931562 139.40833066207438 113.54326743841524 146.7785912320786 112.72380702197472 C 154.14885180208285 111.9043466055342 141.28068544565835 120.79646223464225 157.8928637723993 116.81762111991983 M 157.8928637723993 116.81762111991983 C 173.45021199009807 118.7796893728443 160.81562185710723 111.95849283872381 167.622898610658 111.96598810518442 C 174.4301753642088 111.97348337164503 161.78059469829674 118.76684034462613 177.34222592540155 116.83903616695014 M 177.34222592540155 116.83903616695014 C 194.18107851035367 121.84512679974347 181.45914974328005 112.00092125056653 188.98236804471753 113.25068361473393 C 196.505586346155 114.50044597890133 181.28413285074657 119.70267703259935 198.83713535808005 120.40978577885699 M 198.83713535808005 120.40978577885699 C 214.81608558984567 124.52698063041113 202.5343617659291 115.7261845651155 209.63929697315797 116.63934041176684 C 216.74423218038683 117.55249625841817 202.6361966631676 122.96157060758028 219.13695023587684 123.01880248357507 M 219.13695023587684 123.01880248357507 C 235.2263703420102 123.67688995610847 221.706155953842 117.79309938676276 228.67241855577433 117.21022983075459 C 235.63868115770666 116.62736027474641 223.2842058815548 124.67609490926536 239.0405576699692 121.35346089498027 M 239.0405576699692 121.35346089498027 C 255.43492555522 122.51090218852282 241.8195035579853 116.09987293737662 248.94401656282255 115.71568937769682 C 256.0685295676598 115.33150581801702 243.2214746897847 123.16950257654533 259.39630911236134 120.25579358160944 M 259.39630911236134 120.25579358160944 C 275.9550682117006 121.70971155654627 262.2973467724362 114.99116127585721 269.5086385831097 114.72583891355788 C 276.7199303937832 114.46051655125855 263.59285367911747 122.16454989191655 280 119.49772968932565" stroke-miterlimit="10" stroke-width="0.1"/><path fill="none" stroke="#000000" paint-order="fill stroke markers" d=" M 0 137.4313502727399 C 16.055264616073686 136.57488041486184 2.629832550724286 142.61676143575136 9.592064146918691 143.112334822454 C 16.554295743113094 143.60790820915662 4.1200104511689855 135.72532603765728 19.89209027484116 138.84727423474746 M 19.89209027484116 138.84727423474746 C 37.70515302704212 138.05290823499828 22.758289738541418 144.6231876528198 30.474382631783712 145.24016413958483 C 38.19047552502601 145.85714062634986 24.477565210055335 136.9952342576868 41.938069969819146 140.61006419693322 M 41.938069969819146 140.61006419693322 C 57.048595191138624 137.65972300989966 45.122413433261556 145.17695728895706 51.790427284824055 144.7196847510752 C 58.458441136386554 144.26241221319333 45.61771430274576 138.44361878912574 60.98953811714058 139.30357123155648 M 60.98953811714058 139.30357123155648 C 76.9319732495971 139.50089438761353 63.384854757349245 134.0591437643984 70.26299036896435 133.2857056937215 C 77.14112598057946 132.51226762304458 65.14088362968549 140.82678822305968 80.6413541503266 137.09374817247954 M 80.6413541503266 137.09374817247954 C 96.43008129123488 142.66172638503642 84.79065321815126 132.68510447232205 91.89176527491097 134.23345593322074 C 98.99287733167067 135.78180739411943 84.25674633678967 140.0074095949244 100.93024574106863 141.5176094893329 M 100.93024574106863 141.5176094893329 C 115.78721868321868 143.19135673898 103.65527356903539 136.848004575724 110.14532522678871 136.76901254022542 C 116.63537688454204 136.69002050472685 104.66141584135583 143.3267716569775 119.47325047750671 141.291917959337 M 119.47325047750671 141.291917959337 C 134.6083313453343 138.8961129425958 122.47775934064978 145.94798089778703 129.12649136923082 145.7309077065354 C 135.77522339781186 145.51383451528375 123.21050501062396 139.2682384133129 138.46962770202396 140.67170884147515 M 138.46962770202396 140.67170884147515 C 153.0501138823111 136.38145777319022 142.0197048817294 144.86744834497463 148.5315432169146 143.80444329449813 C 155.0433815520998 142.74143824402162 141.88696245056508 138.20375214543566 157.07488008826738 137.63455155439942 M 157.07488008826738 137.63455155439942 C 175.02648649948776 134.07921795071138 160.87457137112716 143.05276491757178 168.79901209615915 142.48786155658726 C 176.72345282119113 141.92295819560275 161.4417309708615 135.04762371239914 179.71613930264448 136.02054195158652 M 179.71613930264448 136.02054195158652 C 196.25596558256814 136.55585941204433 181.95643198355882 141.56964627301278 189.0524554408859 142.69085059412896 C 196.14847889821297 143.81205491524514 184.09135394143598 134.63379486155944 199.9904920378647 139.2239828690613 M 199.9904920378647 139.2239828690613 C 216.7314359164052 142.8318094130156 203.63060338465166 134.21389146566048 211.0363544846974 134.86659669113476 C 218.44210558474313 135.51930191660904 204.03586260204105 141.71288616934538 221.14978089513826 141.08885494184497 M 221.14978089513826 141.08885494184497 C 237.17646842509794 137.7876215410585 224.58408935131555 145.90750208933207 231.66565193195592 145.34840779906804 C 238.7472145125963 144.789313508804 225.03664685828588 138.74606889579687 241.382816839825 139.49144268394775 M 241.382816839825 139.49144268394775 C 257.7878779514974 141.0213200564754 244.28651597936707 134.2887507014563 251.43568954753127 134.06442535591663 C 258.5848631156955 133.84010001037694 245.53215183464448 141.4058777916863 261.8090270345799 138.85051312526295 M 261.8090270345799 138.85051312526295 C 276.5682970670849 139.0176771404534 264.0214438289706 133.99303239365452 270.3882843668676 133.27031158306323 C 276.7551249047646 132.54759077247195 265.65371328783283 140.25662710146707 280 136.78559652357353" stroke-miterlimit="10" stroke-width="0.1"/><path fill="none" stroke="#000000" paint-order="fill stroke markers" d=" M 0 161.8124383339823 C 17.1294257188403 164.63592000568502 3.437452311855248 156.55921407130705 10.968315480755061 156.8531294065645 C 18.499178649654873 157.14704474182196 4.219374572154906 164.13206514524364 21.516751911142325 162.6521964347179 M 21.516751911142325 162.6521964347179 C 38.47686541721404 163.79330486511907 24.37298128900857 157.20909012253745 31.74032063787645 156.78740764222945 C 39.10765998674433 156.36572516192146 25.84714081915482 164.51618911707558 42.566292907907695 161.44738934812366 M 42.566292907907695 161.44738934812366 C 56.55151801850357 158.2525443709228 45.66704376268431 165.6063326188068 51.863478539867195 164.98314228842926 C 58.05991331705008 164.35995195805174 45.92905840047577 159.32087065156998 60.27039227128738 159.66684554704503 M 60.27039227128738 159.66684554704503 C 75.33992604014855 160.84200633930553 62.86156962263787 154.85406172390594 69.41633898111517 154.54884840071026 C 75.97110833959248 154.24363507751457 64.10317856847317 161.36522917906956 78.99830472407966 158.79480748077162 M 78.99830472407966 158.79480748077162 C 94.62506876029715 162.00136902691247 82.34284828694267 154.0946060639972 89.24703841656702 154.63445297423078 C 96.15122854619138 155.17429988446438 82.78931425236969 161.07591718079777 98.7245622372921 160.33722722429616 M 98.7245622372921 160.33722722429616 C 115.91815292778196 158.93269314038437 101.70204830442685 165.8190599327326 109.18414689869465 166.13983859530467 C 116.66624549296245 166.46061725787672 103.09169819475143 158.3827868616894 120.10198679234297 161.25373768878777 M 120.10198679234297 161.25373768878777 C 137.62483862923168 159.1654358856253 123.35376496493429 166.74454457129644 131.01451739176431 166.7885065857666 C 138.67526981859436 166.83246860023678 124.49212018323732 159.09007243224784 141.9898508690002 161.37934344441683 M 141.9898508690002 161.37934344441683 C 157.39829924952213 158.53662887192183 145.18213737551713 166.06051039430173 151.9726920779532 165.6656421066397 C 158.7632467803893 165.27077381897766 145.75734833106026 159.21354593648533 161.39143573310332 160.25114833681099 M 161.39143573310332 160.25114833681099 C 177.4524033242516 156.0568314045918 165.12615890477443 164.95060668071264 172.27057739423472 164.00864533404928 C 179.414995883695 163.06668398738591 165.2048287708911 157.6716222845861 181.80405998870418 157.5598302034871 M 181.80405998870418 157.5598302034871 C 197.56155382812074 155.3954592904578 184.82298562108244 162.45559318615906 191.72737217030192 162.37172923036118 C 198.6317587195214 162.2878652745633 185.72546260088734 155.53922607182562 201.53087870075984 157.32021890120745 M 201.53087870075984 157.32021890120745 C 216.46456388827824 158.46444262492406 203.3350202272447 162.42705516131443 209.7063802613602 163.72407304470488 C 216.0777402954757 165.02109092809533 205.5422324012231 156.24098339625473 219.73476451251838 161.02598428232304 M 219.73476451251838 161.02598428232304 C 236.3755941990187 160.99501037328503 222.1566405583251 155.51718289162122 229.32333013586936 154.60779560922407 C 236.4900197134136 153.69840832682692 224.08984063751427 162.5539600002516 240.2110204483591 158.42773490404545 M 240.2110204483591 158.42773490404545 C 257.13729791672546 160.46925358857905 243.36013256631225 153.1274189337869 250.76138002031416 153.0954274265201 C 258.1626274743161 153.0634359192533 244.44944513843643 160.52409617246497 261.35744174550746 158.3363305975689 M 261.35744174550746 158.3363305975689 C 276.516819505858 158.2379371689664 263.54049759179014 153.30769429881107 270.06539298086255 152.44903525016343 C 276.59028836993497 151.5903762015158 265.33128455316245 159.7099241095052 280 155.88301903000422" stroke-miterlimit="10" stroke-width="0.1"/><path fill="none" stroke="#000000" paint-order="fill stroke markers" d=" M 0 183.2306955267034 C 16.65667364508591 180.1533922283601 3.4523141621953375 188.2904509426278 10.793197602296983 187.86174117961534 C 18.134081042398627 187.43303141660286 4.072302033483088 180.88832325066724 20.973952686004704 182.0058104895249 M 20.973952686004704 182.0058104895249 C 38.05331284002971 183.08551303082905 23.827299241408966 176.5142863484611 31.242699906136117 176.05973112719076 C 38.65810057086327 175.60517590592042 25.341197414783167 183.86475055300673 42.16081172808228 180.70708128589538 M 42.16081172808228 180.70708128589538 C 56.88307702712228 179.78153768908052 44.006386082072446 175.70213716129382 50.29844801721503 174.5107040957945 C 56.590509952357614 173.31927103029517 46.09668513830643 181.82399437279363 60.13813154277538 177.30298681304018 M 60.13813154277538 177.30298681304018 C 74.57796372017305 175.7182627833352 62.77274650160516 181.847625482761 69.07831319500673 181.94250455644027 C 75.3838798884083 182.03738363011954 63.76842081719893 175.55561294274216 78.15403638106558 177.57406988069522 M 78.15403638106558 177.57406988069522 C 93.49065768060741 176.8461243606775 80.6363245506968 182.54056027300263 87.28206617696192 183.05280181127802 C 93.92780780322704 183.5650433495534 82.09795774986719 175.96799600934827 97.14186959896594 179.0376171329106 M 97.14186959896594 179.0376171329106 C 117.4304986648654 178.4556837266105 100.29961643529667 185.66341955686426 109.07066844710029 186.5052051930834 C 117.84172045890391 187.34699082930257 102.39440950177348 177.0126226359491 122.20201820411914 181.4427189506796 M 122.20201820411914 181.4427189506796 C 137.27342544684808 185.6665673917956 125.80188143934866 177.0748928656324 132.521617936892 178.08285949642772 C 139.24135443443532 179.09082612722304 125.75387716534524 183.93862459614644 141.40126533995723 184.32262361009484 M 141.40126533995723 184.32262361009484 C 157.55107631802935 181.31092330790844 144.75780012132176 189.224312581753 151.87681025122438 188.79656996578427 C 158.995820381127 188.36882734981555 145.34705895248197 182.0441963638548 161.7412942825362 183.1005018501842 M 161.7412942825362 183.1005018501842 C 176.8517476134337 178.30094316718782 165.53729148758157 187.3971009136585 172.30484762074494 186.14323850649302 C 179.0724037539083 184.88937609932754 165.25022281372512 180.45042157947154 181.0771689487172 179.51803782971135 M 181.0771689487172 179.51803782971135 C 197.56001631236697 178.10409322190472 183.9538898567559 184.763403130393 191.13032881536384 185.0418572343036 C 198.30676777397179 185.3203113382142 185.25754952618192 177.62674332948657 201.58128025902562 180.31362098374163 M 201.58128025902562 180.31362098374163 C 217.2608434023393 183.3871987549859 204.88955367353685 175.5765191567505 211.80932736910822 176.05623771972344 C 218.72910106467958 176.5359562826964 205.39837420993126 182.56482407560372 221.35206224637236 181.6842454493786 M 221.35206224637236 181.6842454493786 C 237.743933636633 182.70499923803516 224.08543124119683 176.4115058509422 231.2015087363906 175.96857594658022 C 238.31758623158436 175.52564604221823 225.5449436448722 183.46430764551283 241.6837122326403 180.41873143691578 M 241.6837122326403 180.41873143691578 C 256.9806565737475 177.71430579056522 244.8139602732104 185.0832277398923 251.54903613956776 184.7419260029086 C 258.2841120059251 184.4006242659249 245.43481223142058 178.29939448253728 260.9267861365185 179.44358361696234 M 260.9267861365185 179.44358361696234 C 276.2551787827259 180.7923325599327 263.6132143274852 174.57054781795864 270.2888391797037 174.32617237398085 C 276.9644640319222 174.08179693000307 264.811250464637 181.21126189246604 280 178.7453680627401" stroke-miterlimit="10" stroke-width="0.1"/><path fill="none" stroke="#000000" paint-order="fill stroke markers" d=" M 0 202.6387998551476 C 16.556188331065194 205.04311984506433 3.21502567582045 197.51392279032157 10.476385571736357 197.65814279892066 C 17.737745467652264 197.80236280751976 4.10814279520935 204.79588554460875 20.746742559759735 203.05085702257355 M 20.746742559759735 203.05085702257355 C 36.21575197965261 199.07593781166835 24.322378752428108 207.5865796383289 31.19998615235378 206.70725340854858 C 38.07759355227945 205.82792717876825 24.425567865494315 200.58335420557745 40.39704941669022 200.53849636605835 M 40.39704941669022 200.53849636605835 C 53.969092326649786 200.2541079784216 42.28658875992754 196.00771771610943 48.11769402334506 195.15440963859115 C 53.94879928676258 194.30110156107287 43.97291187507689 201.71692182559576 57.05735016931172 198.1004732874347 M 57.05735016931172 198.1004732874347 C 73.92767857419034 196.5028324689631 60.05146397613457 203.44715748634871 67.40470917923075 203.6673452786544 C 74.75795438232693 203.8875330709601 61.322115368882585 196.12536768215335 78.06662217815794 198.729581265451 M 78.06662217815794 198.729581265451 C 94.72768998488475 195.83201691566558 81.46012645022397 203.8170596734766 88.79322450887933 203.4660125277774 C 96.1263225675347 203.1149653820782 82.15666474147552 196.4338120225785 99.01833091717329 197.72658942059616 M 99.01833091717329 197.72658942059616 C 116.80835331827889 201.94971957320095 103.01529262627338 192.45942411022654 110.90608620727451 193.320694354366 C 118.79687978827565 194.18196459850546 103.28127860799124 200.4732562975333 121.56345543431938 200.18736154670887 M 121.56345543431938 200.18736154670887 C 138.24401174636836 199.39965551259223 124.2619318142882 205.5896500603234 131.48981716593096 206.14851433935272 C 138.7177025175737 206.70737861838202 125.85335114355219 198.4416024628277 142.21455643901297 201.78411662964976 M 142.21455643901297 201.78411662964976 C 159.33920428509407 202.6886372179431 145.01657716495262 196.25200919731196 152.4420534995572 195.71955241286474 C 159.8675298341618 195.18709562841752 146.60981628291478 203.6014202769955 163.43020310931175 200.2628115312291 M 163.43020310931175 200.2628115312291 C 179.09483376633145 198.9146344635355 166.16558462003636 205.24714810019577 172.98601966824373 205.50987501410575 C 179.8064547164511 205.77260192801572 167.40265939797595 198.46424546826125 182.91716038990424 201.01345985668615 M 182.91716038990424 201.01345985668615 C 197.7080632296707 204.22105388053652 186.13988113591293 196.58988650548 192.68406357586582 197.17518608592042 C 199.2282460158187 197.76048566636084 186.48946476118005 203.21768317121007 201.61482450405535 202.68574437223023 M 201.61482450405535 202.68574437223023 C 216.90973629483963 201.62544066059104 204.20095053194294 207.58986311440395 210.84662119552289 207.9566890735093 C 217.49229185910283 208.32351503261464 205.51715801441685 200.9965961592676 220.60245497142665 203.73381854110266 M 220.60245497142665 203.73381854110266 C 235.21058322140604 203.67919023814358 222.7194197385218 198.89391506029241 229.00921038373818 198.08379134709577 C 235.29900102895456 197.27366763389912 224.42808497246364 205.0679737464807 238.57328538633064 201.41917936054082 M 238.57328538633064 201.41917936054082 C 255.10705415776152 203.14135463724065 241.5594018752174 196.20201992273903 248.77437324550223 196.0536001850096 C 255.98934461578708 195.90518044728017 242.73853180870182 203.39578847334826 259.18748930143016 200.99512296702818 M 259.18748930143016 200.99512296702818 C 275.8543592315515 202.94148306676152 262.26721247805193 195.76670323548754 269.5515912225514 195.70768843605845 C 276.83596996705086 195.64867363662935 263.3668528124096 203.04265129435427 280 200.82650925437363" stroke-miterlimit="10" stroke-width="0.1"/><path fill="none" stroke="#000000" paint-order="fill stroke markers" d=" M 0 221.14755585004505 C 15.422813243689674 222.97334232454938 2.8580174617983856 216.31300949263678 9.600002438476478 216.26904295314768 C 16.34198741515457 216.22507641365857 3.865124712241514 223.04871353510214 19.262814219080266 221.02193716579043 M 19.262814219080266 221.02193716579043 C 34.65976613957167 219.55744137073947 21.997548108899714 225.90073341559935 28.708938709767985 226.0989403303731 C 35.420329310636255 226.29714724514685 23.154525109511773 219.2176580882702 38.438215935846756 221.58824263657255 M 38.438215935846756 221.58824263657255 C 52.704027815209635 222.50064302425648 40.82501318491064 217.0029018408294 47.01941524612686 216.6277767527891 C 53.213817307343085 216.25265166474878 42.08505285312468 223.14371460375415 56.13650753932168 220.5164566707431 M 56.13650753932168 220.5164566707431 C 74.59292434969636 215.80793236757142 60.39141880419477 225.93310252524964 68.5954112003731 224.89862219213433 C 76.79940359655144 223.864141859019 60.5289373848192 217.58132722434055 79.57648581411694 217.5607985761279 M 79.57648581411694 217.5607985761279 C 96.5183213632704 219.00831841104528 82.5313952628505 212.16852125497275 89.90736010590446 211.87981557736737 C 97.28332494895842 211.591109899762 83.87381020374931 219.50324242979738 100.65067107998541 216.73592521154106 M 100.65067107998541 216.73592521154106 C 117.56394264957325 219.8663087513514 104.15804532640091 211.59905297895736 111.61232142390546 212.0368112654363 C 119.06659752141 212.47456955191527 104.78518362527974 219.11586597453032 121.94860278714127 217.98666317290952 M 121.94860278714127 217.98666317290952 C 138.15603974159873 217.4107184783224 124.50788681792542 223.26340809479038 131.52056437416948 223.88801698543904 C 138.53324193041354 224.5126258760877 126.13430678803749 216.3399603800676 141.98482437641002 219.77126000333422 M 141.98482437641002 219.77126000333422 C 156.9899149164998 218.61443156948226 144.56051932192804 224.5654073339548 151.08654139332796 224.87504765306954 C 157.61256346472788 225.1846879721843 145.80244850838562 218.08361959385695 160.63060172326698 220.6559466293764 M 160.63060172326698 220.6559466293764 C 178.7276102231989 219.30091298642404 163.72375255515666 226.44383683153777 171.5923503359017 226.83458433533923 C 179.46094811664673 227.2253318391407 165.2385854562074 218.63106012276435 183.11230966825278 221.77236806880916 M 183.11230966825278 221.77236806880916 C 199.64531289771847 220.80938025058992 185.84719841858563 227.10023245589272 193.0209606922596 227.57564556963104 C 200.19472296593355 228.05105868336935 187.34743471427743 219.9943863413242 203.6087733073212 223.13069125091866 M 203.6087733073212 223.13069125091866 C 218.56641122491908 223.9303226319678 206.05938307516328 218.30003406463578 212.5457303294158 217.8390793870632 C 219.0320775836683 217.37812470949063 207.44695878905765 224.72053065066362 222.1411940337569 221.8136778864256 M 222.1411940337569 221.8136778864256 C 236.0571748563452 218.04720570563146 225.42090125993633 225.866171762858 231.61828765478637 224.9930134831168 C 237.8156740496364 224.11985520337564 225.43308389374513 219.54404847090206 239.848012304757 219.31893994430794 M 239.848012304757 219.31893994430794 C 255.36650261431976 216.8000058359669 242.94928524737514 224.0838271385596 249.7698082942513 223.83435884701993 C 256.59033134112747 223.58489055548026 243.67417739110346 217.22766576432065 259.3352210101175 218.60617339705172 M 259.3352210101175 218.60617339705172 C 275.85801467591045 216.46745928915882 262.4575116738826 223.75882385535272 269.6901843203415 223.72722051395692 C 276.92285696680034 223.69561717256113 263.4591472819809 216.52163644583732 280 218.5158781359209" stroke-miterlimit="10" stroke-width="0.1"/><path fill="none" stroke="#000000" paint-order="fill stroke markers" d=" M 0 240.06377276973615 C 16.331453626643388 243.0999944379465 3.3911934664559134 235.10558589089254 10.589770041605929 235.5341107988408 C 17.788346616755945 235.96263570678906 3.991036640671933 242.36538031003516 20.56736164328576 241.28812964958834 M 20.56736164328576 241.28812964958834 C 37.048830335553184 240.17326134973098 23.344955812877668 246.57675008089765 30.504696773385184 246.9839628197735 C 37.664437733892704 247.39117555864934 24.774988688968868 239.47518236880094 41.023764387592955 242.45159461780503 M 41.023764387592955 242.45159461780503 C 55.31811378962186 239.71532126230267 44.01801356394028 246.7798086988258 50.3229172562644 246.370802067334 C 56.627820948588514 245.96179543584222 44.50970745992337 240.41647548771712 59.03777493709043 241.28300424211423 M 59.03777493709043 241.28300424211423 C 75.65998734729764 242.79076718339556 61.96589680069839 236.00525318246375 69.20742168962587 235.75970885815838 C 76.44894657855336 235.514164533853 63.24594468056482 243.21170031077617 79.72784604831182 240.5814490298132 M 79.72784604831182 240.5814490298132 C 95.68399506456898 236.4153806712363 83.43790582314023 245.25036525201395 90.53565061868207 244.3149284445793 C 97.63339541422391 243.37949163714464 83.51643255792582 238.01898662683857 100.00711689271708 237.90877243714274 M 100.00711689271708 237.90877243714274 C 118.65226416788703 239.60195862511927 103.29223077203415 231.9889970889831 111.41515808530609 231.71440013206384 C 119.53808539857803 231.4398031751446 104.72724591656369 240.07269626555228 123.21548064492262 237.1242097030877 M 123.21548064492262 237.1242097030877 C 139.3800302336967 240.69383254661793 126.75871314075728 232.2991881777784 133.91411419365005 232.96647304021127 C 141.0695152465428 233.63375790264413 127.11362842873767 239.54991563959013 143.65948365318766 239.03073788146733 M 143.65948365318766 239.03073788146733 C 158.2198721398397 238.14522701274407 146.0804401808914 243.71744556162346 152.4002888834574 244.1200156443778 C 158.72013758602338 244.5225857271321 147.38584579258375 237.45510687087952 161.7161942319476 240.18093811790825 M 161.7161942319476 240.18093811790825 C 179.11673514362784 241.98227565525113 164.85517724292967 234.6886469948872 172.44778996458732 234.5276555772675 C 180.04040268624496 234.3666641596478 166.1008276207862 242.25826094259918 183.40937343668372 239.72096263899482 M 183.40937343668372 239.72096263899482 C 197.63772932884447 243.62930829252298 186.78166286016653 235.58588005479578 193.1212501642873 236.50333286519924 C 199.46083746840804 237.4207856756027 186.76986537892319 242.056532046117 201.5224800198859 242.34225638300472 M 201.5224800198859 242.34225638300472 C 216.48425571369108 239.30152322832015 204.7149820493762 246.84673657450176 211.3237864411907 246.34251636830408 C 217.93259083300518 245.8382961621064 205.15487675629484 240.16590072465905 220.40477828221302 240.90162722243988 M 220.40477828221302 240.90162722243988 C 234.53454206151733 237.53995684483843 223.5818347287026 245.08399726348338 229.84951522319685 244.39672653509453 C 236.1171957176911 243.70945580670568 223.78994692809863 238.71813523636217 238.31243683791087 238.9379965699003 M 238.31243683791087 238.9379965699003 C 254.46676534945536 234.84261092160196 242.0280816424968 243.68279502127527 249.2073900746859 242.78847735416838 C 256.38669850687495 241.8941596870615 242.15937946570264 236.37572692235662 258.8247466441654 236.3828032353092 M 258.8247466441654 236.3828032353092 C 275.6594105832505 239.34463853555346 262.26488151149704 231.24729801472446 269.67622018603913 231.61668362426354 C 277.0875588605812 231.98606923380262 262.9542585697497 238.71140606205785 280 237.4381906911352" stroke-miterlimit="10" stroke-width="0.1"/><path fill="none" stroke="#000000" paint-order="fill stroke markers" d=" M 0 260.6826593788635 C 16.684899591132087 259.24712283663894 2.913393565747424 265.99170159514364 10.178033049585643 266.2717342934002 C 17.442672533423863 266.55176699165673 4.2312319045522795 258.76706678248485 20.756112810966343 261.4827528024536 M 20.756112810966343 261.4827528024536 C 39.32429263394288 258.895130843422 24.325829433081058 267.24634445757965 32.463763462311114 267.1315016041571 C 40.601697491541174 267.01665875073456 25.373548583834214 259.0920043064321 44.00735289448079 261.1546303641034 M 44.00735289448079 261.1546303641034 C 58.248363499409706 259.4280769154965 46.65982212358652 265.61277606016813 52.88737956986551 265.63585360718747 C 59.114937016144495 265.6589311542068 47.57255073436002 259.3885154063205 61.8003741695636 261.22056621273015 M 61.8003741695636 261.22056621273015 C 77.42856501530393 261.9387894446945 64.32206051605232 256.15621263611854 71.09287782363086 255.62408313665563 C 77.8636951312094 255.09195363719274 65.82144963088359 262.8510114437738 81.14556647693084 259.70019621426474 M 81.14556647693084 259.70019621426474 C 95.238852116517 261.07740696399856 83.66089331839768 255.23985561228577 89.806004634282 255.07424640080876 C 95.95111595016633 254.90863718933176 84.70437557500102 261.36130846938767 98.70302737945747 259.22702703861614 M 98.70302737945747 259.22702703861614 C 116.37359190403292 262.4087778096999 102.33807360348467 253.8471731162611 110.121334132514 254.26628151248158 C 117.90459466154331 254.68538990870206 103.03085956855408 261.69030627332194 120.94091460525553 260.4244795992461 M 120.94091460525553 260.4244795992461 C 136.54306949785513 261.83460702310316 123.68765631437279 255.46986237364231 130.484514514008 255.23718584662535 C 137.2813727136432 255.0045093196084 124.89131258419476 262.23348106941796 140.36050946135612 259.7596895220548 M 140.36050946135612 259.7596895220548 C 154.6583330136071 261.3962937067132 142.99152967237978 255.2696054202219 149.2387169663695 255.20472133926123 C 155.48590426035923 255.13983725830056 143.9488690810533 261.50752355978864 158.20961601561245 259.5743064335958 M 158.20961601561245 259.5743064335958 C 175.62306487501243 261.9042548249771 161.5253337783663 254.15500426807307 169.15197050810528 254.22102709808505 C 176.77860723784426 254.28704992809702 162.54883048117418 261.7910728306709 180.00000667200956 259.7629430907728 M 180.00000667200956 259.7629430907728 C 196.29225205376665 262.11843861092495 183.1603064383167 254.71823434821385 190.30533882308177 254.8556345901848 C 197.45037120784684 254.99303483215573 184.04362510845505 261.8828953389748 200.41438491419552 260.15551521068977 M 200.41438491419552 260.15551521068977 C 215.84536836208753 261.8742130073186 203.23817484315694 255.3026149789712 209.97791297899045 255.21207799801712 C 216.71765111482395 255.12154101706304 204.29153155780156 262.0294192603827 219.6707795880055 259.8968381222495 M 219.6707795880055 259.8968381222495 C 234.87036461241235 261.1440666423286 222.30480221744497 255.0515703209573 228.9194742251937 254.77039879752328 C 235.53414623294245 254.48922727408927 223.53092688484307 261.62607496821545 238.56984246728763 259.0934909124381 M 238.56984246728763 259.0934909124381 C 255.2504147140283 256.4612393960035 241.87844006647808 264.2261972801119 249.20565396211282 263.9904889786261 C 256.5328678577476 263.75478067714033 242.68947660722586 256.86531076997915 259.50473931195836 258.4200386224788 M 259.50473931195836 258.4200386224788 C 275.92699865549343 256.57891889848884 262.5139014324102 263.58292998414186 269.6872426732248 263.67410775999804 C 276.86058391403935 263.7652855358542 263.6298422426685 256.4226141398782 280 258.6805465534965" stroke-miterlimit="10" stroke-width="0.1"/><path fill="none" stroke="#000000" paint-order="fill stroke markers" d="" stroke-miterlimit="10" stroke-width="0.1"/></g></g></svg>