<svg version="1.1" xmlns="http://www.w3.org/2000/svg" xmlns:xlink="http://www.w3.org/1999/xlink" width="1133.8500000000001" height="1133.8500000000001"><defs/><g transform="scale(3.7795,3.7795)"><g transform="translate(10,10)"><path fill="none" stroke="#000000" paint-order="fill stroke markers" d=" M 0 0 L 280 0 L 280 280 L 0 280 L 0 0" stroke-miterlimit="10" stroke-width="0.1"/><path fill="none" stroke="#000000" paint-order="fill stroke markers" d=" M 18.302734407660925 0 C 18.018012316070013 16.61308383440274 23.75621813950008 2.5222434060927803 24.52811929112876 9.693979939690394 C 25.30002044275744 16.865716473288007 16.69475319899228 4.318678348235402 20.50816626945715 20.490675810278898 M 20.50816626945715 20.490675810278898 C 18.219499659871943 36.51095514780728 25.47268431508485 23.589121745857387 25.349427586053523 30.61340104715497 C 25.226170857022193 37.63768034845255 18.430796909639938 24.469333488439993 20.156004186510494 40.560045242557706 M 20.156004186510494 40.560045242557706 C 22.483689657304197 55.291929366201636 15.623350391344273 43.483093500968195 15.832790372105348 49.95447280265755 C 16.042230352866426 56.4258521043469 22.12464969028521 44.19813627759132 20.754404131542138 59.049700390241576 M 20.754404131542138 59.049700390241576 C 18.33256199703533 76.38086168547748 26.13305747876917 62.383787131728305 26.023018782878943 69.97992503538029 C 25.912980086988714 77.57606293903227 18.521199761418583 63.35891099350264 20.440007857570052 80.75295154353296 M 20.440007857570052 80.75295154353296 C 17.954480963748907 96.42391832428198 25.260212169797793 83.86545943021406 25.033344949884402 90.74986579928093 C 24.80647772997101 97.63427216834779 18.34339619788615 84.62207883445305 19.791815800674648 100.42268402658117 M 19.791815800674648 100.42268402658117 C 17.353460028391037 115.20082178311893 24.323593984195686 103.3890987618305 24.06897122302555 109.88636187546203 C 23.814348461855413 116.38362498909356 17.78995619039699 104.06265644546485 19.0643221973314 118.98629292267127 M 19.0643221973314 118.98629292267127 C 21.395241791851554 133.76878613340722 14.515401152979386 121.9178076424278 14.723509190040748 128.41116192675744 C 14.931617227102109 134.90451621108707 21.038485156889216 122.63732164598495 19.65891658893529 137.53873373504166 M 19.65891658893529 137.53873373504166 C 16.384701455143155 153.3541032416707 24.411615060035277 140.93322043795715 23.852780745066383 147.92229888647847 C 23.29394643009749 154.9113773349998 17.342703137946977 141.37282590134845 18.062247117595593 157.50752930224542 M 18.062247117595593 157.50752930224542 C 20.656427390961728 175.80547532183516 12.388999012607878 161.03991950322197 12.521218037003074 169.06179826484188 C 12.65343706139827 177.0836770264618 20.429766206284253 162.05368315905818 18.440015758724723 180.42718290687375 M 18.440015758724723 180.42718290687375 C 16.170763450713874 196.59974218996265 23.45774079965254 183.54146348859032 23.351046843752655 190.6302949194292 C 23.24435288785277 197.71912635026806 16.353667375113677 184.44745973709598 18.135175884725047 200.68098699498483 M 18.135175884725047 200.68098699498483 C 21.452959238835586 217.75370558672697 12.972952686903424 204.27365112936832 13.482851438349542 211.80670285718625 C 13.99275018979566 219.3397545850042 20.578847093499384 204.83990262475334 19.59202946028538 222.20399193160753 M 19.59202946028538 222.20399193160753 C 22.865530948993644 236.6493625397118 15.292380169031329 225.39801197444163 15.924676239115428 231.79689862424777 C 16.556972309199526 238.19578527405392 21.781594828849475 225.67984256861558 21.398589660525662 240.48652521676792 M 21.398589660525662 240.48652521676792 C 23.348668737497896 256.7097058842937 16.317472227901543 243.5026316244048 16.2839504097305 250.59608293917594 C 16.25042859155946 257.6895342539471 23.40613471150539 244.5495036304003 21.30281303717983 260.7535289732569 M 21.30281303717983 260.7535289732569 C 19.37384732647547 276.1501659686476 26.113621054859973 263.64184919227773 26.111731663846825 270.3781140516378 C 26.109842272833678 277.11437891099786 19.37708628249801 264.6022833526017 21.29741477714227 280" stroke-miterlimit="10" stroke-width="0.1"/><path fill="none" stroke="#000000" paint-order="fill stroke markers" d=" M 36.948699992752076 0 C 37.40483076578258 17.042220752868214 42.65240750860524 2.3399120851091126 43.76655265137283 9.656615521643008 C 44.88069779414041 16.973318958176904 35.4948676638953 4.499300575952964 40.13197182923088 20.904866961525418 M 40.13197182923088 20.904866961525418 C 38.010879073386484 36.65696898746475 45.032276635033554 23.908689476865078 44.96676524929732 30.808423036430565 C 44.90125386356108 37.70815659599605 38.12318430607717 24.828854313923912 39.94479644141306 40.61839141742681 M 39.94479644141306 40.61839141742681 C 38.66964463416118 54.5702128034903 44.373261328051086 43.079284756250175 44.57521708571524 49.15796214294493 C 44.77717284337939 55.23663952963969 38.32343476387979 44.14962299772785 40.52181289188206 57.98604109369755 M 40.52181289188206 57.98604109369755 C 38.541483341087634 73.12359682115355 45.23941777507832 60.85348516681928 45.201451892368354 67.48091153292003 C 45.163486009658385 74.10833789902078 38.606567711447575 61.762294479266565 40.413338941282156 76.92154499684256 M 40.413338941282156 76.92154499684256 C 42.185079242421786 94.27880657892378 34.93103753891416 80.04441271229292 34.75962696806224 87.61678833309696 C 34.588216397210324 95.189163953901 42.47892593531079 81.29759122897399 39.92359445313382 98.55690391342554 M 39.92359445313382 98.55690391342554 C 41.78074853811777 114.00951888946842 35.08377509655576 101.42965245341881 35.051716049838845 108.18616412459795 C 35.01965700312193 114.94267579577709 41.8357069039182 102.42692745316131 39.83199717679978 117.86122297393739 M 39.83199717679978 117.86122297393739 C 40.863849066425736 134.70258827313415 34.4122008540108 120.66395814269627 33.94984815189292 127.97426137333012 C 33.48749544977505 135.284564603964 41.65645369862781 122.17063987776184 38.51098945646299 138.74780363289125 M 38.51098945646299 138.74780363289125 C 36.776387554028716 153.92654424132743 43.27813107197456 141.53998788954482 43.348234746764824 148.17192394638687 C 43.418338421555084 154.80386000322892 36.65620982581684 142.5575110010268 38.71128567014945 157.69619236672568 M 38.71128567014945 157.69619236672568 C 42.22276343203062 175.48833790019484 33.339407358892295 161.45807166593187 33.894005327592765 169.31146008291216 C 34.448603296293236 177.16484849989246 41.27202405711552 162.0253863282286 40.29585129500794 180.13444498666942 M 40.29585129500794 180.13444498666942 C 36.780938598056196 197.73461108661604 45.60372668774349 183.8694019241149 45.03731170059217 191.64027646623546 C 44.47089671344085 199.41115100835603 37.75193571888703 184.41311187155225 38.67752276028989 202.33694367844245 M 38.67752276028989 202.33694367844245 C 40.81472114377675 217.95970470261256 33.82235387757402 205.32718975497448 33.90176758762074 212.17207441680475 C 33.98118129766746 219.016959078635 40.678583355125234 206.22561671090352 38.90441907470909 221.89375699795747 M 38.90441907470909 221.89375699795747 C 38.81096642743939 237.28360549477287 43.98124895982399 224.17395380774278 44.7696765846748 230.80845907199316 C 45.5581042095256 237.44296433624353 37.45937621340944 225.91016789891506 41.15706943142567 240.84948632438713 M 41.15706943142567 240.84948632438713 C 42.9397770085857 256.712754556091 36.170537969908565 243.75762880300448 36.08429755990114 250.687028603124 C 35.99805714989371 257.6164284032435 43.087617711455565 244.83378347017182 40.910668259975886 260.6477714675857 M 40.910668259975886 260.6477714675857 C 41.035977220823014 276.3557935300664 35.73325227204838 262.98500765607463 34.941414944125874 269.75828764241965 C 34.149577616203366 276.53156762876466 42.39341264011874 264.7444564106179 38.648275894483014 280" stroke-miterlimit="10" stroke-width="0.1"/><path fill="none" stroke="#000000" paint-order="fill stroke markers" d=" M 58.79095068103347 0 C 57.616236330046064 16.305417548127778 64.01259208026988 2.7716588500529724 64.38454530474372 9.858784874299644 C 64.75649852921757 16.945910898546316 56.97860223094804 4.156058649419195 59.85367417953017 20.248931497847636 M 59.85367417953017 20.248931497847636 C 58.599605162622915 36.0510454874942 64.8972402582499 22.973278678849915 65.2079089734862 29.84786995991575 C 65.5185776887225 36.72246124098159 58.06703022221782 24.266031862809914 60.74129908020533 39.89062087232145 M 60.74129908020533 39.89062087232145 C 60.18894640205712 54.575354560057704 65.51782867780413 42.21955245099346 66.07060856886454 48.57502595299552 C 66.62338845992495 54.93049945499757 59.24132373166784 43.68025712805417 62.320670197520805 58.04911659232733 M 62.320670197520805 58.04911659232733 C 58.477517534827925 72.96444934446593 66.69251179560385 61.500246490684454 65.84013318140515 68.13225189651993 C 64.98775456720645 74.7642573023554 59.93873801631141 61.59529722017654 59.88530272838166 76.99770346614298 M 59.88530272838166 76.99770346614298 C 59.670440492251196 94.66327944907451 54.01067080720832 79.5085255240052 52.966891444871194 87.1067425962456 C 51.92311208253407 94.704959668486 61.45977654197199 81.63776446809096 56.903075978847006 98.70689510111556 M 56.903075978847006 98.70689510111556 C 55.60159341272283 114.29006175755528 61.86729134400507 101.41492523046706 62.1457462893291 108.19775377449393 C 62.424201234653125 114.9805823185208 55.12424207788163 102.66235568208064 57.698661536915665 118.08640522690662 M 57.698661536915665 118.08640522690662 C 56.58845747720363 133.3926163449523 62.59922462108056 120.69068819467958 62.94516347094553 127.34391320259145 C 63.2911023208105 133.99713821050332 55.995419448863686 121.98708775996054 58.68705825081558 137.09561953522626 M 58.68705825081558 137.09561953522626 C 57.9687513276851 153.20395709476531 63.91021735482098 139.68750885311746 64.46816485652457 146.66516309770284 C 65.02611235822816 153.64281734228823 57.01226989619324 141.2422641040475 60.28119396996869 157.03177451975594 M 60.28119396996869 157.03177451975594 C 58.60484844740065 176.3372447336779 66.42184515665984 160.40782676233243 66.73925240461094 168.8142940749294 C 67.05665965256203 177.22076138752635 58.06072173662733 161.92615791208308 61.18807182125755 181.05025255574725 M 61.18807182125755 181.05025255574725 C 64.40960246027211 198.15570713419132 56.00095286178202 184.6158637439631 56.46762619821053 192.15783428908597 C 56.934299534639045 199.69980483420883 63.60959102639466 185.2266147711236 62.5214242110533 202.59873982752683 M 62.5214242110533 202.59873982752683 C 62.49443140356824 217.56857352006267 57.56591873319747 204.77771020780625 56.74822309422121 211.22480049341866 C 55.93052745524495 217.67189077903106 63.89619535609898 206.51641874472713 60.18515095683541 221.0189977864194 M 60.18515095683541 221.0189977864194 C 57.935003160560065 237.69690217010572 65.37282080582986 224.2008173135723 65.30156737578668 231.50630716019046 C 65.23031394574349 238.81179700680863 58.05715189777697 225.17320529018886 59.98156972814058 241.89182591961415 M 59.98156972814058 241.89182591961415 C 57.92759937610959 256.9629735237338 64.66644596112948 244.77392230127265 64.59318206509181 251.3767073650797 C 64.51991816905414 257.9794924288868 58.05319462645989 245.6439134143503 59.77224431089008 260.75692610192004 M 59.77224431089008 260.75692610192004 C 55.58687793171129 275.86875284671265 64.15906422490305 264.3499681208104 63.169850917053324 271.0850439851384 C 62.1806376092036 277.8201198494664 57.282672173739385 264.3229085078647 56.94592057417658 280" stroke-miterlimit="10" stroke-width="0.1"/><path fill="none" stroke="#000000" paint-order="fill stroke markers" d=" M 78.02510463580853 0 C 77.49768500449028 15.298378099684689 83.00825298420388 2.4103709849284165 83.60481565608058 9.028841069555881 C 84.20137832795727 15.647311154183345 76.47500613841595 3.952429383180464 79.72956941259909 18.90991452750704 M 79.72956941259909 18.90991452750704 C 79.8342319387429 35.579035038422354 85.25849841233826 21.311551458916323 86.20115183572642 28.48646000451825 C 87.14380525911459 35.66136855012017 78.21825464150606 23.279191817390473 82.42286490799384 39.409653229226834 M 82.42286490799384 39.409653229226834 C 81.20489375348437 55.548632578903465 87.58313152415089 42.17129451605578 87.92748899180631 49.18905329808238 C 88.27184645946174 56.206812080108975 80.61456666607505 43.518188952572146 83.40674338700936 59.46039260644568 M 83.40674338700936 59.46039260644568 C 79.05811469232466 75.22147011653588 87.98445406189296 63.202327272316104 86.95987202857211 70.22587143714567 C 85.93528999525125 77.24941560197524 80.81454103516043 63.181108691113764 80.47936614894977 79.52766164881588 M 80.47936614894977 79.52766164881588 C 75.51526426610047 95.52908078711245 85.04662066566219 83.50830276104784 83.76985319280462 90.6685195681598 C 82.49308571994705 97.82873637527175 77.70400850528489 83.25442340349197 76.83145908364241 99.98542395485002 M 76.83145908364241 99.98542395485002 C 81.01269496531091 116.77788727452496 71.88813261445533 103.82273123166209 72.78507081549927 111.28155120915036 C 73.6820090165432 118.74037118663864 79.47508662066417 103.99133874168791 79.39413965805366 121.29633817624509 M 79.39413965805366 121.29633817624509 C 80.8264880534252 134.56871935417755 75.21338757236875 123.70992450995043 75.11573251002474 129.50438439250289 C 75.01807744768074 135.29884427505533 80.99389673172922 124.63535955551622 79.11512519421363 137.85193784068068 M 79.11512519421363 137.85193784068068 C 83.9024796050021 153.60295513529 74.60486357988117 141.73751913499976 75.81897685635724 148.78035336095084 C 77.03309013283331 155.82318758690192 81.82114255961456 141.52952503365958 82.58402026985954 157.97432134339806 M 82.58402026985954 157.97432134339806 C 85.01217248929164 174.96992875785028 77.31728006484234 161.26145277655326 77.44810523705027 168.7133841669021 C 77.5789304092582 176.16531555725095 84.7879007655066 162.195189231538 82.95780647616793 179.2655538872519 M 82.95780647616793 179.2655538872519 C 85.92542534007386 196.1351987171567 77.81157594330877 182.71271437122226 78.18156934768875 190.1394331598531 C 78.55156275206873 197.56615194848393 85.2911509325653 183.40368079378953 84.01493048868218 200.48475042619717 M 84.01493048868218 200.48475042619717 C 84.49900167827147 215.71688541893465 79.04735778033206 202.87110139553835 78.43568887008466 209.45870184108006 C 77.82401995983726 216.04630228662177 85.5475769529813 204.42385608372027 82.26730503083246 219.3064659848878 M 82.26730503083246 219.3064659848878 C 80.29645834700202 236.088288824694 87.53016883943928 222.41108937997265 87.58482534393266 229.74630480932618 C 87.63948184842604 237.0815202386797 80.20276148215623 223.51363380294507 82.4234664722421 240.26422435446935 M 82.4234664722421 240.26422435446935 C 85.19861170311864 256.5274490575567 77.44969029650287 243.55908984897977 77.76942537348344 250.71421754120306 C 78.08916045046402 257.8693452334264 84.6504944282948 244.26151587088822 83.33699526361518 260.7074463322502 M 83.33699526361518 260.7074463322502 C 83.16438385073636 276.40422261390677 78.11975682549264 262.94449601377084 77.2001901093941 269.69688979748327 C 76.28062339329556 276.4492835811957 84.74078393547671 264.8286904132569 80.70966178904793 280" stroke-miterlimit="10" stroke-width="0.1"/><path fill="none" stroke="#000000" paint-order="fill stroke markers" d=" M 95.71972929595277 0 C 100.50412777252261 15.603861037294811 91.25771042250008 3.8630961092392644 92.47847417193736 10.842380781735404 C 93.69923792137465 17.821665454231542 98.4113899163444 3.639373027301426 99.20762572291645 19.94081334998897 M 99.20762572291645 19.94081334998897 C 102.03438646302692 37.60283816588682 93.7787133150587 23.45719168327212 94.04536275917332 31.217658720741756 C 94.31201220328794 38.97812575821139 101.57727313025899 24.29918038736744 99.96948127752967 42.11357631418793 M 99.96948127752967 42.11357631418793 C 100.08337444722866 57.5444538525959 105.09018669580523 44.33118605982404 105.9701417748206 50.972200598000605 C 106.85009685383598 57.61321513617717 98.57488002605945 46.15985750143607 102.48363864614504 61.087903566120964 M 102.48363864614504 61.087903566120964 C 102.77116436184572 79.27884399847089 96.50865826158555 63.84168413527311 95.65300331583778 71.69326370620773 C 94.79734837009 79.54484327714235 104.23800141169906 65.8189933054401 100.03891022972282 83.5209880545056 M 100.03891022972282 83.5209880545056 C 96.05205477764765 98.14008977796348 104.2917650029479 86.97635510977429 103.36153274716325 93.4884911457602 C 102.43130049137861 100.0006271817461 97.64673864470706 86.97642800198764 97.38110378462383 102.12709101446532 M 97.38110378462383 102.12709101446532 C 100.77280037613473 117.75422666503883 92.7078376481934 105.53292586674121 93.32741502950569 112.44724488653115 C 93.94699241081797 119.3615639063211 99.71066772245655 105.90110834539892 99.15132487408748 121.88228821386515 M 99.15132487408748 121.88228821386515 C 100.01429139359618 135.5139203431762 94.76852627647432 124.16004645075581 94.40625473945363 130.0786015652018 C 94.04398320243294 135.99715667964782 100.6353283142031 125.36782586126877 98.11626333974264 138.79244568371087 M 98.11626333974264 138.79244568371087 C 101.04680253530084 155.13244900409967 93.1398025854264 142.14993221060618 93.52234236779975 149.34650113607296 C 93.90488215017311 156.54307006153974 100.39102005123222 142.79547370329948 99.20923414652368 159.35407118504452 M 99.20923414652368 159.35407118504452 C 101.52862449678592 175.03141718932906 94.36263828860635 162.41255856306518 94.51759550079629 169.2907670914634 C 94.67255271298623 176.16897561986164 101.26298356160315 163.24020256921781 99.65196903849495 179.00609555189664 M 99.65196903849495 179.00609555189664 C 98.97318091609414 196.97261386127687 105.4955329844775 181.85649352990785 106.17055985610224 189.6324669313086 C 106.84558672772698 197.40844033270938 97.81599199330887 183.64237374458986 101.58061724313706 201.22316241304165 M 101.58061724313706 201.22316241304165 C 103.23270238967147 215.6017581967667 97.06607877455228 203.871108422209 97.00351414162806 210.15392349847318 C 96.94094950870384 216.43673857473735 103.33995604611297 204.8312180660281 101.40186114906787 219.1740626309393 M 101.40186114906787 219.1740626309393 C 99.232659099762 235.63406049430634 106.52928475820612 222.29725991958642 106.48116683730181 229.50452372492254 C 106.43304891639751 236.71178753025865 99.31514696416937 223.27875111373012 101.26438137505558 239.76624493189965 M 101.26438137505558 239.76624493189965 C 105.21324479150044 255.23764613675618 96.72405947585267 243.33361223804891 97.59203288267511 250.21084694102643 C 98.46000628949756 257.088081644004 103.72529037980483 243.44810093165182 103.74430539454826 259.4154869404069 M 103.74430539454826 259.4154869404069 C 104.74656866981583 276.01512089191783 98.4001418738953 262.1731051397547 97.93805961046765 269.3776847106123 C 97.47597734704 276.5822642814699 105.53870969283463 263.664413056162 102.42407035618358 280" stroke-miterlimit="10" stroke-width="0.1"/><path fill="none" stroke="#000000" paint-order="fill stroke markers" d=" M 118.03429284226273 0 C 121.53189967148884 15.628053625720185 113.37620225648834 3.441000865733895 114.0413530800008 10.361418179925534 C 114.70650390351327 17.281835494117175 120.39164111689604 3.7644810871059455 119.93472376658407 19.7726208976904 M 119.93472376658407 19.7726208976904 C 122.35672333304912 36.79251054387445 114.6590525125604 23.061266164117278 114.78591980639698 30.52332629605237 C 114.91278710023356 37.985386427987464 122.139236543615 24.000407460557145 120.29720174897429 41.09279270321924 M 120.29720174897429 41.09279270321924 C 117.98684645424741 59.10598779151855 125.9177451197209 44.48968489053418 125.89245642059313 52.3736188290561 C 125.86716772146536 60.25755276757802 118.03019850989502 45.59067246833812 120.22494832289496 63.618318241853295 M 120.22494832289496 63.618318241853295 C 120.92609314903254 79.02735694353812 115.23058745769623 66.10232564843736 114.70290160655709 72.77781934903207 C 114.17521575541795 79.45331304962679 121.83069746527109 67.58365345680433 118.7172744624974 82.69115738640963 M 118.7172744624974 82.69115738640963 C 115.23202006001952 97.10084082298927 122.97417103269622 85.95000296026781 122.24873670590618 92.34491875462015 C 121.52330237911615 98.7398345489725 116.47562176308814 86.13812803267096 116.64460495738302 100.96234537027348 M 116.64460495738302 100.96234537027348 C 114.48804201795828 118.3454040733622 122.07919594495029 104.21627092222695 122.0862258396721 111.82048036798804 C 122.0932557343939 119.42468981374913 114.47599076986374 105.30961645205747 116.6646903708739 122.68865807244802 M 116.6646903708739 122.68865807244802 C 118.8096334541599 137.4938279342639 112.0810874056766 125.5619717644157 112.20786143360971 132.05508033245178 C 112.33463546154282 138.54818890048784 118.59230654913169 126.36278467477347 117.02690187925423 141.24039683826538 M 117.02690187925423 141.24039683826538 C 116.82961742489417 157.1981186455007 122.27639136447175 143.63793488345732 123.05066923529085 150.52265344027037 C 123.82494710610996 157.40737199708343 115.50228393206142 145.3957439766783 119.23912436730882 160.9110212863027 M 119.23912436730882 160.9110212863027 C 118.14502272707853 175.87977151802795 124.03041920423044 163.46065686270794 124.36512351014721 169.96764705084814 C 124.69982781606399 176.47463723898835 117.57124391693549 164.7249311955019 120.19542238421388 179.50242182384613 M 120.19542238421388 179.50242182384613 C 122.3414787919985 195.5336652233592 115.20643473474347 182.55529913250373 115.2676690042769 189.5766224034824 C 115.32890327381033 196.59794567446104 122.2365057585126 183.49711104453866 120.3703774400237 199.56334545521372 M 120.3703774400237 199.56334545521372 C 122.73893059966399 214.3481585008011 115.82618935596913 202.50764725314212 116.05038386074409 209.00402727368348 C 116.27457836551905 215.50040729422483 122.35459716290693 203.21150703701593 121.01093316795215 218.12443122818902 M 121.01093316795215 218.12443122818902 C 117.86104499610192 233.52985404117496 125.64620475020784 221.41787911154512 125.11885261226391 228.22367060946945 C 124.59150047431997 235.02946210739378 118.76507723257723 221.8627829018761 119.50421277382662 237.56954979368712 M 119.50421277382662 237.56954979368712 C 121.95994260046024 255.99717744924362 113.76783490857362 241.07509831677035 113.8334308832089 249.14538491290574 C 113.89902685784419 257.2156715090411 121.84749235822832 242.16240042729726 119.69162984421314 260.62751149693105 M 119.69162984421314 260.62751149693105 C 121.8309145714176 276.100247814774 114.88638944536419 263.59652098392183 114.97478014150687 270.376891959996 C 115.06317083764955 277.15726293607014 121.67938766374442 264.47675471293263 119.94417469033507 280" stroke-miterlimit="10" stroke-width="0.1"/><path fill="none" stroke="#000000" paint-order="fill stroke markers" d=" M 138.5620444571996 0 C 137.01710970363914 17.38346471911101 144.0861615541544 3.051677108201609 144.35668391441894 10.623127627779608 C 144.6272062746835 18.194578147357607 136.55335708604278 4.4038352569773 139.33496548652687 21.632715770222855 M 139.33496548652687 21.632715770222855 C 142.79126890434407 38.404830652288965 134.29241798660138 25.227263691187435 134.87817327293445 32.638283362882994 C 135.46392855926752 40.04930303457855 141.78711698491594 25.700225500810866 141.0085520189071 42.80705768935302 M 141.0085520189071 42.80705768935302 C 138.75514167567127 58.08217749896809 145.73174705961452 45.78493400582861 145.58355367073835 52.48632309614472 C 145.4353602818622 59.187712186460836 139.00918748517327 46.59408191556904 140.58514233640378 61.95388366168477 M 140.58514233640378 61.95388366168477 C 138.44076410227046 76.08641111153123 144.94633844328735 64.72870124333718 144.7835885281909 70.93202574203207 C 144.62083861309446 77.13535024072695 138.71976395672155 65.45214054234 140.12014257898534 79.67766794367014 M 140.12014257898534 79.67766794367014 C 141.53165302552284 96.9444367129707 134.61512443594142 82.6681568345765 134.2934106176414 90.18215394385798 C 133.97169679934137 97.69615105313947 142.0831624283229 84.06329881134529 139.20096024098527 101.14623111304584 M 139.20096024098527 101.14623111304584 C 134.77808721286817 118.03905489349383 144.14216666425477 105.07813259025775 143.14654264032077 112.5931959971955 C 142.15091861638678 120.10825940413324 136.4848712538979 105.15608905302912 136.35632017260238 122.61784084715369 M 136.35632017260238 122.61784084715369 C 134.45848334724505 137.20298941182793 140.90326239259625 125.37726243345502 140.87108683669402 131.76228687498778 C 140.8389112807918 138.14731131652053 134.51364144307746 126.2572332263432 136.26439001288173 140.86076782296158 M 136.26439001288173 140.86076782296158 C 136.59596809549416 156.43042658989532 141.46281547863393 143.02665750772627 142.44401535551725 149.71573323364936 C 143.42521523240057 156.40480895957245 134.91391116369417 144.96343963117 139.06781823254835 159.97241275417042 M 139.06781823254835 159.97241275417042 C 142.71295941135733 172.71628927785338 135.3852874008484 163.0406798667763 136.26929332659859 168.72662658660636 C 137.15329925234877 174.41257330643643 141.1975206814999 162.96895204385896 141.59354944897743 176.21797481082774 M 141.59354944897743 176.21797481082774 C 138.17492493851364 193.59575862885004 146.84194051417856 179.8885805530767 146.30502908448767 187.55847490217283 C 145.76811765479678 195.22836925126896 139.09534453226945 180.44736831611385 140.05951679271774 198.13195866538808 M 140.05951679271774 198.13195866538808 C 141.92962915734876 214.06393831176874 135.06303225528407 201.07905439585244 135.0107432929354 208.04275937085038 C 134.9584543305867 215.00646434584831 142.0192673785179 202.12615835462938 139.9101197574358 218.02825859395364 M 139.9101197574358 218.02825859395364 C 140.70344337706706 234.81001961630602 134.47517687137304 220.74338455602162 133.91328299093368 228.01516826824587 C 133.35138911049432 235.28695198047012 141.66669002924883 222.34410468106444 138.3047086704662 238.80478348602293 M 138.3047086704662 238.80478348602293 C 134.761766207375 255.38416287601473 143.27084257024248 242.39981990389037 142.6373877840643 249.73248023528407 C 142.0039329978861 257.06514056667777 135.8476886979662 242.81388802219698 136.49483785281421 259.7552415757192 M 136.49483785281421 259.7552415757192 C 136.00372562316113 276.1427187667407 141.84353313627972 262.3127792103691 142.51437971686877 269.3984446588674 C 143.18522629745783 276.48411010736567 134.8537029135799 263.9958637121722 138.41154236878296 280" stroke-miterlimit="10" stroke-width="0.1"/><path fill="none" stroke="#000000" paint-order="fill stroke markers" d=" M 162.31112168199573 0 C 159.0696123964042 17.94532615145085 167.7731243595815 3.694969970446161 167.34306869086635 11.5998071202953 C 166.9130130221512 19.50464427014444 159.80685068563017 4.394176751709466 161.08239119995247 22.585248999568968 M 161.08239119995247 22.585248999568968 C 162.69032591722183 39.13202454745239 155.84423282356116 25.535479216894863 155.6459014030373 32.74990209152838 C 155.44756998251344 39.96432496616189 163.03032263811986 26.764442476652075 160.51572999845575 43.19788578423615 M 160.51572999845575 43.19788578423615 C 161.56239851019106 56.95286428674002 156.11898096857348 45.55443453463762 155.8292008696477 51.536015117117344 C 155.53942077072193 57.51759569959707 162.0591643940638 46.698726145346214 159.68778685866783 60.28811601989249 M 159.68778685866783 60.28811601989249 C 156.79478998573936 75.1479338184829 164.18013474138897 63.4168498945782 163.73406473912848 69.97377893174406 C 163.287994736868 76.53070796890992 157.55948141818587 63.90748404048427 158.4133011379236 79.02219898322353 M 158.4133011379236 79.02219898322353 C 155.5957650863603 95.72370414498793 163.52585142235566 82.39514243161388 163.21145540116186 89.74135044253502 C 162.89705937996806 97.08755845345617 156.13472969412112 83.13020469769454 157.5150267916556 100.01136472871252 M 157.5150267916556 100.01136472871252 C 154.2846169480313 118.73967360640042 163.23763828943805 103.81709928218878 162.85452452713693 112.05862363646487 C 162.4714107648358 120.30014799074097 154.94138339769037 104.61134614192711 156.42041604222385 123.55857716950135 M 156.42041604222385 123.55857716950135 C 157.52036737543852 138.33381393428863 161.4683718592772 125.35420479413771 162.73778672091976 131.65969402102684 C 164.00720158256232 137.96518324791595 155.34422761262272 127.52440383105015 160.0473156469169 141.57426067489882 M 160.0473156469169 141.57426067489882 C 163.90049211744196 156.25102380298742 155.75585055793357 144.99383827233163 156.6253931768011 151.52361496822883 C 157.49493579566865 158.05339166412602 162.40984762795472 145.05712089573507 162.53172312939563 160.2307655203194 M 162.53172312939563 160.2307655203194 C 161.9641940307941 174.93611994692102 167.31285534070673 162.5677307922063 167.86020804428 168.93290426589786 C 168.40756074785327 175.29807773958942 161.02587511038277 164.02439399202123 164.0955879967478 178.41697544515242 M 164.0955879967478 178.41697544515242 C 163.41903230567146 194.26059257439053 158.75612572991943 180.50879722006965 157.6115685098814 187.2973100616066 C 156.46701128984338 194.08582290314354 165.3811303971652 182.62314198889865 160.8254245109249 197.8127264209722 M 160.8254245109249 197.8127264209722 C 162.75578625289978 214.3151355196417 155.6490651405767 200.86312125004636 155.59201432411444 208.07579387865647 C 155.53496350765218 215.28846650726658 162.85358765254935 201.95055387059577 160.6624221781756 218.4203625027154 M 160.6624221781756 218.4203625027154 C 161.9904094744943 235.48642701512108 155.21158359814953 221.3538908063878 154.86469772897266 228.77693329691817 C 154.51781185979578 236.19997578744855 162.5850709645118 222.761211317069 159.67131969481312 239.6290553328022 M 159.67131969481312 239.6290553328022 C 155.8658585222845 255.30969565630699 164.30181024583356 243.17957069099702 163.50687683508687 250.13921750887368 C 162.71194342434018 257.09886432675034 157.22860151213595 243.37887253994697 157.400081378394 259.51376052673555 M 157.400081378394 259.51376052673555 C 160.80683458790895 275.7329859475736 152.53317074673822 263.01111184215915 153.1273522989457 270.1812956578017 C 153.7215338511532 277.3514794734442 159.78823764126756 263.44124226361487 159.09774295612965 280" stroke-miterlimit="10" stroke-width="0.1"/><path fill="none" stroke="#000000" paint-order="fill stroke markers" d=" M 180.1464107884488 0 C 180.38698010077584 17.22949522867111 185.88055780204166 2.438584068574528 186.91192971043407 9.847566742569088 C 187.94330161882647 17.256549416563647 178.61891397210317 4.528382073251863 183.09318766956994 21.168521925698744 M 183.09318766956994 21.168521925698744 C 179.74051292351155 36.781385131031186 187.7674361130637 24.55936357940511 187.16389962581798 31.465433292643773 C 186.56036313857226 38.37150300588243 180.77514690164705 24.942408479764918 181.36879770601075 40.9001496778092 M 181.36879770601075 40.9001496778092 C 180.01767027871853 56.518744275790695 176.00517471499725 42.73595597002522 174.58214934488777 49.39121293537844 C 173.15912397477828 56.04646990073166 182.4571423417634 45.10973233518518 177.30301093426934 59.91516957881839 M 177.30301093426934 59.91516957881839 C 175.6507468429209 73.75804430560959 181.64032320747245 62.48487708448775 181.67396423802649 68.53692964863964 C 181.70760526858052 74.58898221279154 175.59307650482825 63.38309705277777 177.39912816442376 77.20674833353809 M 177.39912816442376 77.20674833353809 C 180.65615383984633 94.1783594998874 172.26146822350074 80.76453845818277 172.75063868241782 88.25076465082523 C 173.2398091413349 95.7369908434677 179.81757591027423 81.3448288839289 178.79675804704394 98.59596602680226 M 178.79675804704394 98.59596602680226 C 182.57457914367592 117.90575946082777 172.9618156099125 102.66775358373809 173.54942658970643 111.18923958359849 C 174.13703756950036 119.7107255834589 181.56724603545774 103.29749774678136 180.4756465607409 122.94306888354626 M 180.4756465607409 122.94306888354626 C 178.47086286519314 137.18643814634564 184.89390800754833 125.68791284432889 184.7972595297708 131.9314679565258 C 184.70061105199326 138.17502306872274 178.6365459699546 126.48320081115091 180.1995080528051 140.78179777553746 M 180.1995080528051 140.78179777553746 C 180.08920639010023 155.34912402342502 185.0018103379418 142.94735293096954 185.73869026581673 149.228448173436 C 186.47557019369165 155.50954341590244 178.82598365660036 144.58153217919684 182.30487927530487 158.72778418258446 M 182.30487927530487 158.72778418258446 C 180.90802158288392 173.53542358927203 186.99863464708613 161.35401517874726 187.19424576301876 167.8079060296815 C 187.38985687895138 174.26179688061575 180.57268824128516 162.4716107019562 182.86376817796946 177.16747232811085 M 182.86376817796946 177.16747232811085 C 184.7472194534822 192.89721500128076 177.93612694172666 180.08942244839756 177.90047365493066 186.9667282070599 C 177.86482036813467 193.84403396572225 184.80833937370386 181.10754798643103 182.76190164426666 196.81691735286037 M 182.76190164426666 196.81691735286037 C 179.26114706274595 213.08200023681977 187.63024185166174 200.3520636744036 186.99803664875833 207.54706308649875 C 186.36583144585492 214.7420624985939 180.34492741058037 200.74771553037093 180.9556010645426 217.3740585302751 M 180.9556010645426 217.3740585302751 C 177.12669813512912 234.08082967018518 185.92207801344475 221.08230066583718 185.17229981292334 228.48523531461302 C 184.42252161240194 235.88816996338886 178.41203219316586 221.39008455799802 178.8133776344814 238.52530038392035 M 178.8133776344814 238.52530038392035 C 175.27620447266642 255.23026226748038 183.8218935646245 242.13678285888716 183.1976861501882 249.52322960974922 C 182.57347873575188 256.9096763606113 176.3462743259858 242.56778212314543 177.0299278789491 259.62943395781195 M 177.0299278789491 259.62943395781195 C 176.756663604233 276.14636083275025 182.4532804512779 262.13383376117054 183.22493959543533 269.26353187593634 C 183.99659873959277 276.39322999070214 175.433819357106 263.9240212074374 179.2346682908275 280" stroke-miterlimit="10" stroke-width="0.1"/><path fill="none" stroke="#000000" paint-order="fill stroke markers" d=" M 200.11796382876045 0 C 203.66903991902 16.225681797296915 195.27001097053866 3.5460325079215593 195.9260147280268 10.726768763924975 C 196.5820184855149 17.90750501992839 202.54446204904036 3.9158482155767684 201.99226027872655 20.5163893028669 M 201.99226027872655 20.5163893028669 C 198.95623658084338 36.00199067905384 206.67069419346697 23.78389272714789 206.19670867463506 30.618091519083663 C 205.72272315580315 37.45229031101943 199.76878318455522 24.286221321449652 200.63801593920678 40.04267156554054 M 200.63801593920678 40.04267156554054 C 196.97621227962094 52.85217522263385 204.3398189216905 43.12604177205565 203.45216908063546 48.841155852165855 C 202.56451923958042 54.55626993227606 198.49789772142958 43.05483679958779 198.10187353619241 56.37156893728398 M 198.10187353619241 56.37156893728398 C 195.61713816826904 71.78050858350524 202.83552301924604 59.44551873804482 202.59488761093712 66.21700925930523 C 202.3542522026282 72.98849978056565 196.02965601108434 60.17223911848738 197.41434379816693 75.71868471231373 M 197.41434379816693 75.71868471231373 C 195.6389865075994 94.97103090156853 203.52295224137595 79.11972272070022 203.79484774178366 87.50863724094823 C 204.06674324219136 95.89755176119624 195.1728799354719 80.59003458114336 198.1911880850461 99.68701191302232 M 198.1911880850461 99.68701191302232 C 202.7075709508211 115.29871495112405 193.68740380667185 103.46260284342429 194.792292416031 110.4308339987637 C 195.89718102539013 117.39906515410311 200.81347619191973 103.35317582768508 201.34801268321505 119.59624378542061 M 201.34801268321505 119.59624378542061 C 203.56275409466582 134.55720367314373 196.72308046510327 122.51541392818311 196.87153277146618 129.07939041735733 C 197.0199850778291 135.64336690653155 203.30826442661507 123.30467254884506 201.77216212996626 138.35046232591841 M 201.77216212996626 138.35046232591841 C 204.55387368171384 155.00292841152273 196.67059657459873 141.70438888246943 196.9722010692036 149.02754335674692 C 197.27380556380848 156.3506978310244 204.03683740524835 142.4489493127613 202.63388925740878 159.27376082385413 M 202.63388925740878 159.27376082385413 C 205.5964880975329 174.54157018860514 198.01676291339388 162.48514642428188 198.47084652488383 169.22157347279668 C 198.92493013637377 175.95800052131148 204.8180590492644 162.99340953400832 203.9312710045229 178.52069524818214 M 203.9312710045229 178.52069524818214 C 201.31765458907077 194.05134998334435 208.6863436331259 181.65506406227848 208.39674412451677 188.48592544748809 C 208.10714461590766 195.3167868326977 201.8141108895435 182.3413018944136 203.10384383706833 198.03744206306672 M 203.10384383706833 198.03744206306672 C 199.10572774938225 213.001042249854 207.4690023168054 201.5468835655241 206.55246924293687 208.2080252814771 C 205.63593616906834 214.86916699743009 200.67692730458546 201.58194216536313 200.48517791172966 217.06927553721815 M 200.48517791172966 217.06927553721815 C 201.69282200722935 234.02974238057095 195.0516791698091 219.94756450745038 194.65863918092072 227.31863875280618 C 194.26559919203234 234.68971299816198 202.36660484532368 221.39361510281816 199.36220651490575 238.12948766680617 M 199.36220651490575 238.12948766680617 C 199.74534417612725 254.8297483747839 193.89427116967624 240.69702515053 193.1600702779267 247.91161409880158 C 192.42586938617717 255.12620304707315 201.00397427626933 242.46188160631837 197.26448968133565 258.74259894758205 M 197.26448968133565 258.74259894758205 C 196.37641289416692 275.90322770427554 202.81090181657885 261.54443931854695 203.3523795182358 268.9845296868932 C 203.89385721989277 276.4246200552395 195.44816540561212 263.14878707282475 198.81156882892697 280" stroke-miterlimit="10" stroke-width="0.1"/><path fill="none" stroke="#000000" paint-order="fill stroke markers" d=" M 220.18164104663154 0 C 221.96377111241864 16.45618234738705 214.99890743364935 2.99460813407076 214.8804921048214 10.1793859949491 C 214.76207677599345 17.364163855827442 222.1667688189808 4.139420300167033 219.84331153569457 20.527936745366688 M 219.84331153569457 20.527936745366688 C 222.16120880108178 35.53434760905806 215.21842215803014 23.48787050553428 215.4088634719982 30.076980422645256 C 215.59930478596624 36.66609033975624 221.8347379771366 24.23873060829638 220.38742957560325 39.353965079969484 M 220.38742957560325 39.353965079969484 C 222.1116585387746 53.361172024434005 216.00627920397466 41.97149413659406 215.99478976802345 48.09821099530338 C 215.98330033207225 54.224927854012705 222.13135471469093 42.858228838075156 220.3546026157427 56.85887039056756 M 220.3546026157427 56.85887039056756 C 216.51073199359033 72.24782952984664 224.8830003170358 60.37946008594338 224.05581538730058 67.21552782559488 C 223.22863045756537 74.05159556524637 217.92876330170787 60.52885626187264 217.99121710221348 76.39049250385756 M 217.99121710221348 76.39049250385756 C 221.2414195537845 93.41666644981062 212.83451223224324 79.95400027609341 213.31780546044558 87.46336303097317 C 213.80109868864793 94.97272578585293 220.41291687686618 80.54347315573104 219.37205489707733 97.84581466065686 M 219.37205489707733 97.84581466065686 C 219.85095102167318 113.85485468193572 224.73734526078744 100.02719333024669 225.80566420791297 106.8976084711655 C 226.8739831550385 113.7680236120843 218.0195471123151 102.07700015464633 222.42439474600744 117.47557220613918 M 222.42439474600744 117.47557220613918 C 224.06342145161923 134.37601216997243 217.07379927648276 120.487776111171 216.86981785930914 127.85622091820134 C 216.66583644213551 135.2246657252317 224.41310388105975 121.74439250077755 221.8415906969399 138.5282716547973 M 221.8415906969399 138.5282716547973 C 220.51492136520451 154.19904633560617 226.8311029582615 141.25743704095106 227.10342557509597 148.07936063670064 C 227.37574819193043 154.90128423245022 220.0480825934883 142.50432017146403 222.61965531646695 158.01948192836753 M 222.61965531646695 158.01948192836753 C 221.5147762097544 174.08429559799632 227.77191904544003 160.73287624614898 228.1609995509131 167.71259716342743 C 228.55008005638615 174.6923180807059 220.84778105751485 162.11905973980467 223.73131390353282 177.9615416920203 M 223.73131390353282 177.9615416920203 C 224.44096549260217 196.011909497443 217.86452593860312 180.83440328150502 217.19827912591023 188.64815834479086 C 216.53203231321734 196.4619134080767 225.58310288578997 182.61690081752445 221.82775158155314 200.28655615855126 M 221.82775158155314 200.28655615855126 C 219.75750136856297 215.68687622926353 226.61912857381324 203.22214723933672 226.5565764858712 209.9676062812661 C 226.49402439792917 216.71306532319545 219.86473351932074 204.1232321573846 221.6490313302902 219.55929627834948 M 221.6490313302902 219.55929627834948 C 220.8044631845927 234.90683674381 216.44910029349745 221.52304119049376 215.25888029797989 228.08881264469304 C 214.06866030246232 234.65458409889231 222.8448403197657 223.65122853661123 218.24840277166857 238.31864329034744 M 218.24840277166857 238.31864329034744 C 215.69471568937206 255.7988358464648 223.65708142820253 241.71812177577036 223.49827274577342 249.38555710437535 C 223.3394640633443 257.0529924329803 215.9669591449648 242.65466099742767 217.79466367901398 260.22560137207597 M 217.79466367901398 260.22560137207597 C 221.24402878432497 275.8611296191004 213.1270500050052 263.65173780455166 213.7710172986071 270.57277732432505 C 214.41498459220898 277.49381684409843 220.14008485243605 263.996490442346 219.63457023216222 280" stroke-miterlimit="10" stroke-width="0.1"/><path fill="none" stroke="#000000" paint-order="fill stroke markers" d=" M 238.08223407118973 0 C 235.857296015568 17.06588373745883 243.40192005314293 3.2301855954111707 243.36241739966135 10.701447562234605 C 243.32291474617978 18.17270952905804 235.92501485010786 4.2580060800472275 237.96936934695665 21.346462762352672 M 237.96936934695665 21.346462762352672 C 236.74906995074306 36.79087475309349 242.89955417060125 24.00736046897775 243.205508922503 30.726046370939144 C 243.51146367440472 37.44473227290054 236.2245760903401 25.273127492588248 238.84352578096158 40.54270819652808 M 238.84352578096158 40.54270819652808 C 238.52477890324036 54.92746982636276 243.55497623793227 42.75052809428864 244.19223397836652 48.964204089787025 C 244.82949171880077 55.17788008528541 237.43233706249592 44.275453834079805 240.66426218220232 58.296068183666335 M 240.66426218220232 58.296068183666335 C 238.02582220688714 76.42879171319251 246.27639104557645 61.81895022981673 246.11620970779978 69.77203944120652 C 245.95602837002312 77.7251286525963 238.30041878593286 62.79492449366717 240.20660121712612 81.01918021620858 M 240.20660121712612 81.01918021620858 C 241.21179153161157 96.94204379211232 235.08672031105968 83.67885399670892 234.66234040782783 90.59205932326283 C 234.23796050459597 97.50526464981674 241.9392999371519 85.09083466087705 238.99408720789225 100.77119543493401 M 238.99408720789225 100.77119543493401 C 239.20164249352686 114.9867325883187 243.7264845003738 102.78019796287265 244.58134493167557 108.89263791356572 C 245.43620536297735 115.0050778642588 237.7361674684381 104.50826410141629 241.43654558304019 118.23530957977138 M 241.43654558304019 118.23530957977138 C 240.9865297352218 132.7563953661958 246.17390241156096 120.5064735136041 246.76195405023128 126.785942090331 C 247.3500056889016 133.0654106670579 239.978441211787 121.99159209180685 243.11669312209824 136.17664837041966 M 243.11669312209824 136.17664837041966 C 240.56725632524876 151.75738147035798 247.89771023099982 139.29710768706087 247.63845385466135 146.1460854653262 C 247.37919747832288 152.99506324359152 241.0116958275433 140.01627670761744 242.375960618274 155.7451563083206 M 242.375960618274 155.7451563083206 C 241.24186157500517 173.28026690600817 248.01028272503135 158.68310523306386 248.46594601549873 166.29775820824375 C 248.92160930596611 173.91241118342364 240.46072450563253 160.22657609141405 243.6778557338951 177.50130766597744 M 243.6778557338951 177.50130766597744 C 244.24949497187924 197.09380837808385 237.28080661774987 180.5539076718493 236.47207040499887 189.02453470680197 C 235.66333419224787 197.49516174175466 245.63589990802384 182.5727334610221 241.36718084032077 201.70309919441365 M 241.36718084032077 201.70309919441365 C 243.74126762250822 217.87863262925077 236.36379400311745 204.85249047822876 236.51548727818388 211.94824801535333 C 236.66718055325032 219.0440055524779 243.4812220081086 205.71447685132298 241.80059019765346 221.97669215762667 M 241.80059019765346 221.97669215762667 C 240.83417114479207 236.91833657306228 236.7171081063604 223.84080927009003 235.49625443045048 230.22517199235438 C 234.27540075454056 236.60953471461872 242.9270631606376 225.97371476346626 238.31243683791087 240.21772850695336 M 238.31243683791087 240.21772850695336 C 236.27429284679494 257.0064800094963 243.56775667466582 243.34562443130952 243.59379665170667 250.68744821654195 C 243.61983662874752 258.02927200177436 236.22965288615353 244.42049637766928 238.38683677231327 261.19436789333173 M 238.38683677231327 261.19436789333173 C 237.7476902810481 276.39405066859155 243.32101043386817 263.62726998451893 243.8641302486064 270.20924122185284 C 244.4072500633446 276.79121245918674 236.81662774149686 265.11067140459056 239.93860767156534 280" stroke-miterlimit="10" stroke-width="0.1"/><path fill="none" stroke="#000000" paint-order="fill stroke markers" d=" M 258.39977656829365 0 C 255.94402501274902 17.5243512452151 263.8373752143621 3.3735383888269554 263.72313191902373 11.05472247052586 C 263.60888862368535 18.735906552224765 256.1398706619006 4.3566071051598305 258.0733671530411 21.946240233425442 M 258.0733671530411 21.946240233425442 C 257.4765652456201 37.13898354212918 263.0114342763739 24.364121809459846 263.57242117133814 30.9408236451472 C 264.13340806630237 37.51752548083456 256.51487342568146 25.864637538093714 259.67618685293894 40.736816906817886 M 259.67618685293894 40.736816906817886 C 262.13960963985636 55.339248679915094 255.2061904430024 43.68584293394325 255.48107239420008 50.10876707857298 C 255.75595434539775 56.531691223202714 261.66838343780324 44.32852157483554 260.46156385636084 59.08802874861713 M 260.46156385636084 59.08802874861713 C 262.1975511566001 77.84195843721389 254.51206218016767 62.403198887029646 254.25004511088477 70.57529099213036 C 253.98802804160186 78.74738309723108 262.6467232753708 63.83265768561265 259.7129436584097 82.43686333461918 M 259.7129436584097 82.43686333461918 C 256.17866568476927 99.38331369530458 264.80175968925823 86.08268264015426 264.19180265849616 93.57299930179938 C 263.5818456277341 101.06331596344451 257.22430630893274 86.5427708467701 257.97020928480384 103.83776808217667 M 257.97020928480384 103.83776808217667 C 258.0803671223352 116.82730398915471 262.28284807644343 105.69980189155156 263.0297372322173 111.28936270638272 C 263.7766263879912 116.87892352121388 256.79998571243715 107.24519973515844 260.1041783013006 119.80794183883714 M 260.1041783013006 119.80794183883714 C 263.11443587000423 134.99650711054036 255.5202289714708 123.02350965127268 255.99910948643603 129.7283670220135 C 256.4779900014013 136.4332243927543 262.29349784434953 123.5024659035561 261.4724083440584 138.9646771838109 M 261.4724083440584 138.9646771838109 C 262.95973117339827 154.61061026805157 256.51459304509774 141.74335110890462 256.31281263627733 148.56322428215736 C 256.1110322274569 155.3830974554101 263.3056404456618 142.919399113904 260.8958928902858 158.45002910739015 M 260.8958928902858 158.45002910739015 C 263.09090088795296 174.80505096814204 255.80696375138848 161.56641956318995 255.87185063480462 168.72985248769592 C 255.93673751822075 175.8932854122019 262.97966623066816 162.5248802404175 261.0812839857605 178.91698032026434 M 261.0812839857605 178.91698032026434 C 262.90242987127505 196.9683863266058 255.37660178231505 182.157641760246 255.18909660957988 190.0316937414285 C 255.0015914368447 197.90574572261102 263.22386731024966 183.47001150172153 260.54555492080283 201.41427169507148 M 260.54555492080283 201.41427169507148 C 258.9147574693081 218.17726675357994 265.85189058186023 204.40366551450177 266.05201602898217 211.71246017170898 C 266.2521414761041 219.0212548289162 258.5716852742419 205.64790448408186 261.1173419125798 222.29654214423496 M 261.1173419125798 222.29654214423496 C 261.6630337237821 238.52300275981685 255.82988297367842 224.84859983329463 255.19121772074195 231.86784319599465 C 254.55255246780547 238.88708655869468 262.75788844310176 226.4900141380454 259.292584047047 242.35152318052073 M 259.292584047047 242.35152318052073 C 261.0000478279 257.0297204479318 254.68704042656648 245.0615746471168 254.63219881776564 251.47643075050902 C 254.5773572089648 257.89128685390125 261.0940620144157 246.03282427068797 259.1358937361874 260.6796834759271 M 259.1358937361874 260.6796834759271 C 261.75986985452664 276.0494436369439 254.4355541925314 263.79396360014175 254.73827989637664 270.55607438356725 C 255.04100560022187 277.31818516699275 261.24091150507775 264.4572537225002 260.0008243186023 280" stroke-miterlimit="10" stroke-width="0.1"/><path fill="none" stroke="#000000" paint-order="fill stroke markers" d="" stroke-miterlimit="10" stroke-width="0.1"/><path fill="none" stroke="#000000" paint-order="fill stroke markers" d=" M 0 21.811947866640185 C 16.538660221201848 22.80574684849687 2.745906926328251 16.486715490821705 9.923765120638253 16.024270271095254 C 17.101623314948256 15.561825051368803 4.233760459527557 23.59851008231364 20.50816626945715 20.490675810278898 M 20.50816626945715 20.490675810278898 C 36.16579160215148 22.784409287253485 23.55528489123484 15.646853093022443 30.423616837155645 15.791819995958726 C 37.29194878307645 15.936786898895008 24.391508266287243 22.535894596505575 40.13197182923088 20.904866961525418 M 40.13197182923088 20.904866961525418 C 55.84374016310253 18.407948355553263 43.25421104769522 25.736902229548573 50.156806870299974 25.50732481726135 C 57.059402692904726 25.277747404974125 44.010718752922955 18.801509633759935 59.85367417953017 20.248931497847636 M 59.85367417953017 20.248931497847636 C 75.88829206301936 21.16530744488205 62.50030422190536 15.079105144029315 69.45686755347948 14.610449204410108 C 76.4134308850536 14.1417932647909 63.96275492317801 21.96871762708641 79.72956941259909 18.90991452750704 M 79.72956941259909 18.90991452750704 C 95.41510434310118 17.78682795446085 82.39355315352621 23.93406342845867 89.2108728621373 24.294878016327345 C 96.02819257074837 24.65569260419602 83.72827055691076 17.168288660971694 99.20762572291645 19.94081334998897 M 99.20762572291645 19.94081334998897 C 115.7724849126207 17.73354958378335 102.35873854254125 25.097358993061093 109.61322285782491 25.038491634756593 C 116.86770717310857 24.979624276452093 103.33622608642011 17.834465055162493 119.93472376658407 19.7726208976904 M 119.93472376658407 19.7726208976904 C 135.26890765528506 23.200720967710645 123.3097837427086 15.201574698584567 130.0998683446886 15.852607903970927 C 136.88995294666856 16.503641109357286 123.62876262331939 22.08466404419117 139.33496548652687 21.632715770222855 M 139.33496548652687 21.632715770222855 C 156.63765273433273 24.569484925042303 142.83521265087725 16.33873932626837 150.44681165057622 16.67212595653951 C 158.0584106502752 17.00551258681065 143.58919730627738 23.99796498743464 161.08239119995247 22.585248999568968 M 161.08239119995247 22.585248999568968 C 178.54935566825944 19.25078769351104 164.73819243886263 27.875439055892805 172.44197120322875 27.379584580038227 C 180.14574996759487 26.88373010418365 165.34287778648894 20.100823937833177 183.09318766956994 21.168521925698744 M 183.09318766956994 21.168521925698744 C 198.2776590191784 22.53672308834893 185.7650154052355 16.345933879984816 192.3796908184403 16.117687461993672 C 198.99436623164513 15.889441044002528 186.93821545368445 22.928002662048037 201.99226027872655 20.5163893028669 M 201.99226027872655 20.5163893028669 C 216.27194654005098 22.310732382563533 204.6728048278967 16.055358604999864 210.9206727678355 16.059400209874788 C 217.1685407077743 16.063441814749712 205.56131578587016 22.30380391706366 219.84331153569457 20.527936745366688 M 219.84331153569457 20.527936745366688 C 234.26230518300565 22.995363340081685 222.76685171163035 16.119201195099063 229.1109719455721 16.40568530104416 C 235.45509217951383 16.692169406989255 223.3866704962484 22.504247729890093 237.96936934695665 21.346462762352672 M 237.96936934695665 21.346462762352672 C 254.11254533893148 19.815884958602442 240.83502465010113 26.4624288345347 247.8714238822307 26.672350949410166 C 254.90782311436024 26.882273064285634 242.0501466552808 19.456018475958782 258.0733671530411 21.946240233425442 M 258.0733671530411 21.946240233425442 C 275.8191166229869 22.503357979091856 260.85125409913826 16.157917233117686 268.52557559557386 15.442366059792292 C 276.19989709200945 14.726814886466896 262.66313691481156 23.730017133363962 280 19.901808309638596" stroke-miterlimit="10" stroke-width="0.1"/><path fill="none" stroke="#000000" paint-order="fill stroke markers" d=" M 0 42.100583745522044 C 16.27885719950483 42.883753361801624 2.63826600223549 36.830501923449766 9.692867467514162 36.29131344741225 C 16.747468932792835 35.752124971374734 4.1852546875985315 43.80807646358022 20.156004186510494 40.560045242557706 M 20.156004186510494 40.560045242557706 C 35.981203372945636 42.585601407943244 23.138909568463156 35.62159910506243 30.064986857679052 35.64202026626661 C 36.99106414689495 35.662441427470796 24.107928020004096 42.55059370302179 39.94479644141306 40.61839141742681 M 39.94479644141306 40.61839141742681 C 56.50922149793634 37.956524717463296 43.246214473508246 45.708351495359075 50.52499039708554 45.4536318045722 C 57.80376632066283 45.19891211378532 44.031319914660976 38.39318704452651 60.74129908020533 39.89062087232145 M 60.74129908020533 39.89062087232145 C 78.1346485067456 41.67400334062461 63.873292043599946 34.398084268910125 71.46184008332592 34.22974559382701 C 79.0503881230519 34.0614069187439 65.1257090100725 41.96258392648137 82.42286490799384 39.409653229226834 M 82.42286490799384 39.409653229226834 C 96.18976569512638 43.3274533341493 85.7308381346645 35.42858759958705 91.87215386400203 36.37496067932343 C 98.01346959333956 37.32133375905981 85.6617958734049 41.70509948317264 99.96948127752967 42.11357631418793 M 99.96948127752967 42.11357631418793 C 116.12957929358849 39.26417737826851 103.27383525098854 47.042388890403785 110.38853741599415 46.68511462656474 C 117.50323958099976 46.327840362725695 103.93294701072172 39.87664754484973 120.29720174897429 41.09279270321924 M 120.29720174897429 41.09279270321924 C 137.03770846353393 40.393069665132984 122.97533804293074 46.527770018622505 130.22431063740723 47.12776276376933 C 137.4732832318837 47.72775550891616 124.61089830157422 39.36451067345271 141.0085520189071 42.80705768935302 M 141.0085520189071 42.80705768935302 C 156.65337721203434 41.16900236730466 143.8369216921186 47.74247639847266 150.66443398496065 47.879266231681754 C 157.4919462778027 48.01605606489085 144.94907042430515 40.934505510374784 160.51572999845575 43.19788578423615 M 160.51572999845575 43.19788578423615 C 176.96841055385707 39.27439012833909 164.21812418119572 48.066492295160856 171.51669787883998 47.26228465791142 C 178.81527157648424 46.45807702066199 164.45656992932405 40.65303179219526 181.36879770601075 40.9001496778092 M 181.36879770601075 40.9001496778092 C 196.6984244813407 38.28724536467467 184.47354996905736 45.58883251926791 191.21777635067596 45.28871517997388 C 197.96200273229456 44.988597840679844 185.1368935414231 38.80173223203587 200.63801593920678 40.04267156554054 M 200.63801593920678 40.04267156554054 C 216.36867619976687 37.51676501344405 203.77260460605902 44.876719001804 210.68489937879778 44.63567173185413 C 217.59719415153654 44.394624461904264 204.51902801792897 37.92998890478668 220.38742957560325 39.353965079969484 M 220.38742957560325 39.353965079969484 C 235.03343222823403 42.1505691937522 223.45302978554665 34.91825249611369 229.91266345742207 35.3343125869092 C 236.3722971292975 35.75037267770471 223.95977450501906 41.43732332381703 238.84352578096158 40.54270819652808 M 238.84352578096158 40.54270819652808 C 255.4902437675145 42.78126127195766 242.01695211933065 35.363659235077215 249.30838349452273 35.43159728367865 C 256.5998148697148 35.49953533228008 242.99064712432806 42.66479604578378 259.67618685293894 40.736816906817886 M 259.67618685293894 40.736816906817886 C 276.0399896751007 41.9311797854209 262.4628780637159 35.498735163283285 269.57621266518726 35.132102097488186 C 276.6895472666586 34.76546903169309 263.845701786864 42.55969361249822 280 39.68929386168902" stroke-miterlimit="10" stroke-width="0.1"/><path fill="none" stroke="#000000" paint-order="fill stroke markers" d=" M 0 61.456101545257795 C 16.844163420735335 61.606421034399034 2.5115603309772663 55.90654033911982 9.775601777017014 55.064299934864145 C 17.039643223056764 54.22205953060847 4.3915209418100485 63.05026172740876 20.754404131542138 59.049700390241576 M 20.754404131542138 59.049700390241576 C 36.67469706946848 60.17551382904035 23.45360062145712 53.948299305674986 30.372193687576093 53.57601855188458 C 37.290786753695066 53.203737798094174 24.814251813264523 60.813709406966765 40.52181289188206 57.98604109369755 M 40.52181289188206 57.98604109369755 C 57.954591186530074 60.21638722316525 43.80741036238532 52.54578809208233 51.43701041935888 52.567864516602754 C 59.066610476332436 52.589940941123174 44.875276803146825 60.17854192398738 62.320670197520805 58.04911659232733 M 62.320670197520805 58.04911659232733 C 79.33065635052348 57.069530084673154 65.13076217241449 63.53232629181722 72.51088778873549 64.02627289675864 C 79.89101340505648 64.52021950170007 66.67901243683035 56.222764476202144 83.40674338700936 59.46039260644568 M 83.40674338700936 59.46039260644568 C 98.50550849835038 62.670090900099474 86.67515541579854 54.93529543561305 93.35206875649602 55.5049242714994 C 100.0289820971935 56.074553107385746 87.05937134286897 61.69358432429431 102.48363864614504 61.087903566120964 M 102.48363864614504 61.087903566120964 C 116.42364491997174 64.88636627438183 105.77743876659062 57.03213834829334 111.98689715345309 57.91778348479965 C 118.19635554031555 58.80342862130596 105.77885911392178 63.36811746894242 120.22494832289496 63.618318241853295 M 120.22494832289496 63.618318241853295 C 136.34666007568515 60.250751176367594 123.69508606996341 68.45870155820522 130.8211539746915 67.87614945514623 C 137.94722187941957 67.29359735208725 124.13054366757987 61.2494119244687 140.58514233640378 61.95388366168477 M 140.58514233640378 61.95388366168477 C 156.03383471839427 62.53153400047736 143.0340971042953 56.92835738484991 149.72002268708772 56.34533871022261 C 156.40594826988013 55.762320035595316 144.57224800503582 63.53099458555272 159.68778685866783 60.28811601989249 M 159.68778685866783 60.28811601989249 C 173.81726076325646 61.75128127459336 162.23683385973956 55.828368034831 168.40216228620008 55.69783678045507 C 174.5674907126606 55.56730552607914 163.24812631789555 61.975049139237825 177.30301093426934 59.91516957881839 M 177.30301093426934 59.91516957881839 C 193.58774095165435 55.00040280539855 181.3087404849414 64.583345133069 188.5883423956145 63.34308490853196 C 195.86794430628757 62.10282468399491 181.10842339050052 57.1265631903192 198.10187353619241 56.37156893728398 M 198.10187353619241 56.37156893728398 C 215.952786945161 54.53613719195582 201.3179575348041 62.00784642516409 209.1064127126467 62.17840193381334 C 216.89486789048928 62.34895744246259 202.60114949743084 54.243756319985664 220.3546026157427 56.85887039056756 M 220.3546026157427 56.85887039056756 C 236.45861048960052 60.03959458169255 223.76035099898633 51.99703516791747 230.8687318472472 52.50005439550204 C 237.97711269550808 53.003073623086614 224.27281474972472 59.17727590583328 240.66426218220232 58.296068183666335 M 240.66426218220232 58.296068183666335 C 256.42290746503403 60.90936680304282 243.83184757456382 53.46553684986932 250.7609031605193 53.7427230476021 C 257.68995874647476 54.01990924533487 244.54452646053895 60.434190464072344 260.46156385636084 59.08802874861713 M 260.46156385636084 59.08802874861713 C 276.2141402625742 60.067252432565176 263.08776054965176 54.02067847575436 269.9262131999255 53.59428225619742 C 276.7646658501992 53.167886036640475 264.49107857639063 60.798217380377075 280 57.86975383559729" stroke-miterlimit="10" stroke-width="0.1"/><path fill="none" stroke="#000000" paint-order="fill stroke markers" d=" M 0 82.46231695930524 C 16.181069744478815 79.0508238409304 3.4933425325785787 87.3159141113319 10.647345282728097 86.71763621581161 C 17.801348032877613 86.11935832029131 3.917065029936781 80.07644309039378 20.440007857570052 80.75295154353296 M 20.440007857570052 80.75295154353296 C 36.801813379208774 79.68515941455185 22.478155883454267 75.18490779060137 29.468821762753503 73.84391549925974 C 36.459487642052736 72.5029232079181 24.817814728981514 81.98400334256608 40.413338941282156 76.92154499684256 M 40.413338941282156 76.92154499684256 C 55.983294124031715 78.92966815099284 43.35317312667219 72.06497782046274 50.16836045215702 72.09163328471789 C 56.983547777641846 72.11828874897303 44.30011585177201 78.88397306941259 59.88530272838166 76.99770346614298 M 59.88530272838166 76.99770346614298 C 76.61354928310344 76.9622636702245 62.341922695798665 82.52571304868593 69.5498448929975 83.41119841262145 C 76.75776709019634 84.29668377655696 64.25711123076258 75.44428876062074 80.47936614894977 79.52766164881588 M 80.47936614894977 79.52766164881588 C 96.52633405413718 80.76636836529035 82.4149661596433 85.0165466298626 89.26080658791386 86.414210871854 C 96.10664701618443 87.81187511384539 84.79060760567334 78.37037252187652 100.03891022972282 83.5209880545056 M 100.03891022972282 83.5209880545056 C 115.06458468275207 84.72495994330627 102.63320719761502 78.72692239609755 109.17063467908612 78.43648166226396 C 115.70806216055722 78.14604092843037 103.85756614308733 85.22285834416385 118.7172744624974 82.69115738640963 M 118.7172744624974 82.69115738640963 C 135.5382200114138 78.14007902056925 122.68107704065547 87.58985099912069 130.17208088142624 86.53512969416187 C 137.66308472219703 85.48040838920305 122.69649914152103 79.94817268621294 140.12014257898534 79.67766794367014 M 140.12014257898534 79.67766794367014 C 154.6891225300913 77.32397691941902 143.02798360293772 84.15263723933771 149.43058909856612 83.9232231031814 C 155.8331945941945 83.69380896702509 143.71322739472834 77.717258295687 158.4133011379236 79.02219898322353 M 158.4133011379236 79.02219898322353 C 173.4204176941552 75.67125576082516 161.71503785432 83.49633814239574 168.36007731359504 82.86093041500584 C 175.00511677287008 82.22552268761594 162.0289214782551 76.76052615063642 177.39912816442376 77.20674833353809 M 177.39912816442376 77.20674833353809 C 193.26249430929587 74.01477587318429 180.77342641479134 81.98734269879024 187.77875188660144 81.46652043136172 C 194.78407735841154 80.94569816393319 181.25336492904995 74.9076140459189 197.41434379816693 75.71868471231373 M 197.41434379816693 75.71868471231373 C 213.8086616622498 78.31381827595345 200.66882674165987 70.67523755503368 207.87073239807617 70.91037028207401 C 215.07263805449247 71.14550300911435 201.46253767982188 77.91073360102716 217.99121710221348 76.39049250385756 M 217.99121710221348 76.39049250385756 C 236.22639316537868 77.87190426224711 220.1663527913626 82.63864168943837 227.94173723158204 84.25868238876123 C 235.71712167180146 85.87872308808409 222.8971626964311 75.0946916348365 240.20660121712612 81.01918021620858 M 240.20660121712612 81.01918021620858 C 255.95344348199404 80.2026924668087 242.77813180371604 86.10841829429106 249.6053516581653 86.60460738573477 C 256.4325715126145 87.10079647717848 244.24963801722387 79.35208259576235 259.7129436584097 82.43686333461918 M 259.7129436584097 82.43686333461918 C 275.9248953761645 80.26661085632036 262.80023549844196 87.48208738674055 269.90070521799856 87.42016064242938 C 277.00117493755516 87.35823389811821 263.7526615712103 80.3727709894252 280 82.25992977944443" stroke-miterlimit="10" stroke-width="0.1"/><path fill="none" stroke="#000000" paint-order="fill stroke markers" d=" M 0 99.5230956354814 C 15.743493801429741 102.22194792842868 3.1936694678761395 94.71007994397769 10.120804998112266 95.02493588086261 C 17.04794052834839 95.33979181774754 3.8684043210249524 101.68219489376881 19.791815800674648 100.42268402658117 M 19.791815800674648 100.42268402658117 C 35.710660711326426 96.91688207081074 23.27802762683243 105.1757616727226 30.32415015519314 104.52273863311814 C 37.37027268355385 103.86971559351367 23.63159351985092 98.03635013870412 39.92359445313382 98.55690391342554 M 39.92359445313382 98.55690391342554 C 53.492180554935366 100.37484501614887 42.50801447891331 94.33453221015075 48.45083301291292 94.38702912584226 C 54.39365154691254 94.43952604153377 43.304491639507454 100.28485030353487 56.903075978847006 98.70689510111556 M 56.903075978847006 98.70689510111556 C 72.97363534805677 97.7368798736236 59.572701231132704 103.88077020537457 66.5476353178111 104.32825530418164 C 73.52256940448949 104.7757404029887 61.01660548517953 96.96976256138291 76.83145908364241 99.98542395485002 M 76.83145908364241 99.98542395485002 C 93.05700813846602 103.7537220726404 80.44932255369346 95.16926283854696 87.64169819903695 95.91884630941232 C 94.83407384438044 96.66842978027768 80.72722131787717 102.46872183687123 97.38110378462383 102.12709101446532 M 97.38110378462383 102.12709101446532 C 112.67543015841201 99.26894438183594 100.56181537158567 106.76825446102634 107.30404078205139 106.3605934855592 C 114.04626619251711 105.95293251009207 101.11732945475649 99.96779176835103 116.64460495738302 100.96234537027348 M 116.64460495738302 100.96234537027348 C 134.67130060998758 103.3650894928516 120.07402968561645 95.35083941078878 127.96875403487724 95.41519942075911 C 135.86347838413803 95.47955943072944 121.13748743982623 103.25475804718819 139.20096024098527 101.14623111304584 M 139.20096024098527 101.14623111304584 C 153.96570011995487 102.06974466064621 141.6643536275025 96.39748451772826 148.0742769202371 96.00028128321159 C 154.48420021297173 95.60307804869493 142.97726018955265 102.75066449124621 157.5150267916556 100.01136472871252 M 157.5150267916556 100.01136472871252 C 174.39887192577524 96.75087264164547 161.0611361554414 105.11948773727306 168.50974209482732 104.62409819160447 C 175.95834803421323 104.12870864593589 161.62983317254225 97.60011186279164 178.79675804704394 98.59596602680226 M 178.79675804704394 98.59596602680226 C 194.42140666606767 97.52935973197809 181.43316108118924 103.60823041923581 188.22121159449 103.99009647941283 C 195.00926210779076 104.37196253958984 182.7847486432664 96.87473220024604 198.1911880850461 99.68701191302232 M 198.1911880850461 99.68701191302232 C 215.32000125990763 100.33214079233308 200.90801879375942 94.1156156221597 208.32132217797036 93.47119658383178 C 215.7346255621813 92.82677754550387 202.61148117268888 101.43685914375234 219.37205489707733 97.84581466065686 M 219.37205489707733 97.84581466065686 C 234.77714266830156 102.14832251116007 223.04670493726886 93.3791136990947 229.9144162460541 94.4029969700917 C 236.78212755483932 95.42688024108871 223.0039232818126 100.39309404659377 238.99408720789225 100.77119543493401 M 238.99408720789225 100.77119543493401 C 254.4816421341458 101.32684134503698 241.07386235761834 105.9752118512483 247.7155050845374 107.04851227778323 C 254.35714781145646 108.12181270431816 243.09596888799882 99.48689775669139 257.97020928480384 103.83776808217667 M 257.97020928480384 103.83776808217667 C 275.6130783330535 101.78708081939902 261.22708670185136 109.37377047511482 268.93751345217004 109.44039814143945 C 276.6479402024887 109.50702580776407 262.39520390393585 101.67286196284255 280 104.02813284310415" stroke-miterlimit="10" stroke-width="0.1"/><path fill="none" stroke="#000000" paint-order="fill stroke markers" d=" M 0 118.09090738162475 C 15.340996311969773 116.90078359472884 2.6358019443380796 122.99129576211458 9.30831471340407 123.30468070148086 C 15.980827482470058 123.61806564084715 3.9024029935709317 116.36355227010091 19.0643221973314 118.98629292267127 M 19.0643221973314 118.98629292267127 C 35.565955186032724 116.00946946573733 22.460740931435126 124.00945117522828 29.72942717424906 123.61567669317142 C 36.998113417062996 123.22190221111457 23.105350198351687 116.68451143497767 39.83199717679978 117.86122297393739 M 39.83199717679978 117.86122297393739 C 54.10281043959557 119.82803521232437 42.56829239405947 113.4283342218538 48.82162492010003 113.50714801039304 C 55.07495744614059 113.58596179893227 43.38281182352604 119.69292586054281 57.698661536915665 118.08640522690662 M 57.698661536915665 118.08640522690662 C 74.73405073889222 122.82389939849119 61.75546649242098 113.1440256390229 69.34888383481928 114.26750217129137 C 76.94230117721757 115.39097870355984 61.71676386620941 120.89793962888812 79.39413965805366 121.29633817624509 M 79.39413965805366 121.29633817624509 C 95.1412928271187 123.74081672794452 82.50420494986375 116.44493437787965 89.41921977547558 116.65001689104668 C 96.33423460108742 116.8550994042137 83.28698169749842 123.38924670537249 99.15132487408748 121.88228821386515 M 99.15132487408748 121.88228821386515 C 113.24265425737491 120.77604755105281 101.57673723395972 126.3815850668492 107.70641515783497 126.6638145173532 C 113.83609308171022 126.94604396785721 102.73463495930305 120.29222563590308 116.6646903708739 122.68865807244802 M 116.6646903708739 122.68865807244802 C 132.41091248972725 120.6628413120397 119.63613914745675 127.600942939086 126.52820957806172 127.57615691023298 C 133.42028000866668 127.55137088137997 120.59593460869016 120.7053316472163 136.35632017260238 122.61784084715369 M 136.35632017260238 122.61784084715369 C 152.50167050053432 121.36402031806966 139.13075047245866 127.7749752629112 146.15318402682618 128.10423297573288 C 153.1756175811937 128.43349068855457 140.46321297876145 120.79957852466107 156.42041604222385 123.55857716950135 M 156.42041604222385 123.55857716950135 C 175.603049628442 120.66064748888557 160.1825776914902 129.48005855623734 168.60190837297117 129.26463065615306 C 177.02123905445214 129.04920275606878 161.16991131733175 121.02995246045863 180.4756465607409 122.94306888354626 M 180.4756465607409 122.94306888354626 C 197.50822196853278 122.35284541729315 182.7697952045806 117.22295358820888 190.07512334744655 116.0515648038649 C 197.3804514903125 114.88017601952093 184.98480229504827 124.36094047616854 201.34801268321505 119.59624378542061 M 201.34801268321505 119.59624378542061 C 218.42118549137712 120.0073447282747 203.97930209781356 114.0090475328303 211.3560358197909 113.2668124800818 C 218.73276954176822 112.5245774273333 205.77535625370166 121.27974767584355 222.42439474600744 117.47557220613918 M 222.42439474600744 117.47557220613918 C 237.71008915299686 116.18214702134166 225.08628302815427 122.3425705214422 231.74053582111574 122.60847860221347 C 238.3947886140772 122.87438668298473 226.30279865077722 115.72630459716234 241.43654558304019 118.23530957977138 M 241.43654558304019 118.23530957977138 C 256.2133885317419 121.36017865885003 244.6298485555457 113.80429623906615 251.16352000693684 114.35471752973916 C 257.69719145832795 114.90513882041218 245.0128089007857 120.41659930341058 260.1041783013006 119.80794183883714 M 260.1041783013006 119.80794183883714 C 276.2694007848395 119.80688066560242 262.467138744657 125.1547449503811 269.4306763392018 126.02472288640901 C 276.3942139337466 126.89470082243692 264.33190776561986 118.31548991812599 280 122.29359308463117" stroke-miterlimit="10" stroke-width="0.1"/><path fill="none" stroke="#000000" paint-order="fill stroke markers" d=" M 0 138.32174621832584 C 15.805434519476652 139.66122789059202 2.7530843675192482 133.2895651985994 9.6337051736466 133.01551082944994 C 16.51432597977395 132.74145646030047 4.010084566115476 140.13103538056254 19.65891658893529 137.53873373504166 M 19.65891658893529 137.53873373504166 C 34.61966789317249 140.3911969400741 22.788994993526842 133.00707600283718 29.387220497161536 133.43025046708453 C 35.98544600079623 133.8534249313319 23.308424172655872 139.66575500136435 38.51098945646299 138.74780363289125 M 38.51098945646299 138.74780363289125 C 54.48662608217857 135.408449475324 41.95044580003212 143.54399321682965 49.01206987805553 142.9657287826469 C 56.073693956078934 142.38746434846414 42.38098480556701 136.399759933923 58.68705825081558 137.09561953522626 M 58.68705825081558 137.09561953522626 C 75.10514363607948 135.65786748524997 61.562188715961696 142.31608401689397 68.71201214615101 142.580795423803 C 75.86183557634033 142.84550683071205 62.84830347004063 135.20407650197734 79.11512519421363 137.85193784068068 M 79.11512519421363 137.85193784068068 C 94.22198492633382 140.50445792965772 82.20042287680054 133.24272948075293 88.8508212277357 133.5719072258135 C 95.50121957867084 133.90108497087408 82.82130203901642 139.94015322383962 98.11626333974264 138.79244568371087 M 98.11626333974264 138.79244568371087 C 112.99997905589646 142.64187046130564 101.56484690930802 134.43197872201614 108.18357039813706 135.28876162611022 C 114.80229388696611 136.1455445302043 101.65359593218952 141.1730997685729 117.02690187925423 141.24039683826538 M 117.02690187925423 141.24039683826538 C 132.45485528768663 142.86044243938508 119.81761784547241 136.37408045256294 126.55073869224204 136.2412102972066 C 133.28385953901167 136.10834014185028 120.9123624075101 143.08821984856738 136.26439001288173 140.86076782296158 M 136.26439001288173 140.86076782296158 C 155.21938123491614 143.8098546679149 140.01020207097133 135.02206034224335 148.33422604288364 135.2717828404214 C 156.65825001479595 135.52150533859944 140.94962585449505 143.38175895675252 160.0473156469169 141.57426067489882 M 160.0473156469169 141.57426067489882 C 176.24831586156358 142.95550959599854 162.87202878295977 136.4173431385226 169.92529612502065 136.1399811237461 C 176.97856346708153 135.86261910896962 164.15700041803066 143.43098733561538 180.1995080528051 140.78179777553746 M 180.1995080528051 140.78179777553746 C 197.70076485949593 140.99399482355835 182.82757230197453 135.0239339388043 190.37800122898093 134.17296653143765 C 197.92843015598734 133.321999124071 184.7571724131992 142.45279609332977 201.77216212996626 138.35046232591841 M 201.77216212996626 138.35046232591841 C 217.8099240506573 140.49965264571887 204.82702874723205 133.35977658350683 211.85132874567282 133.42200984861444 C 218.87562874411358 133.48424311372204 205.7682669104731 140.39296704839154 221.8415906969399 138.5282716547973 M 221.8415906969399 138.5282716547973 C 238.6265103086288 134.51946278477936 225.62076188180805 143.49430376843023 233.06704773061347 142.67123561889807 C 240.51333357941888 141.8481674693659 225.86144885353383 135.93043675540594 243.11669312209824 136.17664837041966 M 243.11669312209824 136.17664837041966 C 258.0800681810055 136.57149989893665 245.17304320204448 141.18378149791837 251.59754352973053 142.15959158260532 C 258.0220438574166 143.13540166729226 247.0666390478294 134.8986826109019 261.4724083440584 138.9646771838109 M 261.4724083440584 138.9646771838109 C 276.57842612294564 139.38347365128854 263.5416859571147 144.02249177899728 270.02634303669424 145.01629736846618 C 276.5110001162738 146.0101029579351 265.4618711293807 137.67980692648467 280 141.80412172515065" stroke-miterlimit="10" stroke-width="0.1"/><path fill="none" stroke="#000000" paint-order="fill stroke markers" d=" M 0 158.98465606368973 C 14.597510370220906 159.60917936629386 2.3400553772782615 154.2475252700742 8.661841868436719 153.73053090356868 C 14.983628359595176 153.21353653706316 3.760162099663549 160.49545542316042 18.062247117595593 157.50752930224542 M 18.062247117595593 157.50752930224542 C 34.6003442660867 155.59355589857424 21.112437134358604 162.6980884000559 28.339600627752453 162.764120472624 C 35.566764121146306 162.8301525451921 22.21092113455439 155.4803580598861 38.71128567014945 157.69619236672568 M 38.71128567014945 157.69619236672568 C 55.90077052530786 155.00766725916796 42.112876376864776 162.989006764635 49.66234428180151 162.7564605181956 C 57.21181218673824 162.5239142717562 42.95882554541632 155.4063179673498 60.28119396996869 157.03177451975594 M 60.28119396996869 157.03177451975594 C 78.21770969224558 155.55552934868055 63.39098120904179 162.74886311827495 71.19697041400359 163.0787545065497 C 79.00295961896538 163.40864589482445 64.83601391231107 154.99000125449527 82.58402026985954 157.97432134339806 M 82.58402026985954 157.97432134339806 C 95.74621638702621 160.74064260438163 85.42273981177077 154.02498035047898 91.24156466860322 154.50789279505526 C 97.06038952543567 154.99080523963153 85.77108806102773 159.91279269939375 99.20923414652368 159.35407118504452 M 99.20923414652368 159.35407118504452 C 115.07745131302597 162.60262028812957 102.602955204956 154.58014114503695 109.6134167822308 155.12507368047733 C 116.6238783595056 155.6700062159177 103.05951718055489 161.66845022737468 119.23912436730882 160.9110212863027 M 119.23912436730882 160.9110212863027 C 135.19594031271365 162.14300384712084 121.97877631406166 155.813056540173 128.9188191668955 155.4845435539267 C 135.85886201972934 155.1560305676804 123.29872399356995 162.7061689664002 139.06781823254835 159.97241275417042 M 139.06781823254835 159.97241275417042 C 157.81310687341127 162.52548545677433 142.65199215861267 154.14518944488094 150.86435887250923 154.2356129130331 C 159.0767255864058 154.32603638118525 143.73476393530288 162.37047379708494 162.53172312939563 160.2307655203194 M 162.53172312939563 160.2307655203194 C 178.50054617989653 161.00569606472237 165.1219512168483 155.06202928318183 172.04255586791652 154.5359858149746 C 178.96316051898475 154.00994234676736 166.63665249235098 161.90748486736337 182.30487927530487 158.72778418258446 M 182.30487927530487 158.72778418258446 C 198.62268492511495 157.1316644973898 185.21773661230304 163.8919331743009 192.3328901060394 164.0830249987453 C 199.44804359977576 164.27411682318967 186.42527893585262 156.80407851262802 202.63388925740878 159.27376082385413 M 202.63388925740878 159.27376082385413 C 218.49707421510666 156.27176110155904 205.94532389013918 164.08206050429567 212.94034201080953 163.64306289087537 C 219.93536013147988 163.20406527745507 206.50561457967174 157.024328438851 222.61965531646695 158.01948192836753 M 222.61965531646695 158.01948192836753 C 238.65213211991727 158.17565196251067 225.01451970672628 152.73925675990873 231.92922656235874 151.9432427928923 C 238.8439334179912 151.14722882587589 226.79834893883304 159.54024733453883 242.375960618274 155.7451563083206 M 242.375960618274 155.7451563083206 C 256.9214191559765 159.7610477747774 245.83016865884315 151.52090416017808 252.31214495404728 152.4676096398524 C 258.7941212492514 153.41431511952675 245.80945979276942 158.13812409533568 260.8958928902858 158.45002910739015 M 260.8958928902858 158.45002910739015 C 276.03530178723173 161.51145414496466 264.12120093380634 153.88981751619968 270.8076384222063 154.39338628408854 C 277.4940759106063 154.8969550519774 264.57283752140324 160.64819340001236 280 159.888797015644" stroke-miterlimit="10" stroke-width="0.1"/><path fill="none" stroke="#000000" paint-order="fill stroke markers" d=" M 0 179.4452651501212 C 14.653820831304524 182.0748009313957 3.0114818029968466 174.98254887395288 9.4654873185505 175.32622008881629 C 15.919492834104151 175.6698913036797 3.589811376069689 181.4856502773442 18.440015758724723 180.42718290687375 M 18.440015758724723 180.42718290687375 C 35.95395797977173 182.37857612433862 21.645206609116123 174.9193133347723 29.294749046815248 174.8168550627008 C 36.94429148451437 174.71439679062928 22.8404566580018 182.55421887646122 40.29585129500794 180.13444498666942 M 40.29585129500794 180.13444498666942 C 57.10120847291541 178.7778689893067 43.20073248167592 185.4948712535935 50.51300966586329 185.81540390277073 C 57.82528685005065 186.13593655194796 44.56587615716564 178.22838444786004 61.18807182125755 181.05025255574725 M 61.18807182125755 181.05025255574725 C 78.7823294120354 181.79946708644204 64.00735735237029 175.34011409174533 71.62676448158892 174.71546955777197 C 79.24617161080755 174.0908250237986 65.72048861908917 182.87028628753922 82.95780647616793 179.2655538872519 M 82.95780647616793 179.2655538872519 C 96.33908235956508 180.7274034752004 85.39706627667817 175.05309449636684 91.24002317349263 174.9622840789925 C 97.08298007030709 174.87147366161815 86.32258482216886 180.88307847641354 99.65196903849495 179.00609555189664 M 99.65196903849495 179.00609555189664 C 116.03709908787515 181.45750190402813 102.85756860834016 173.94468115625932 110.04777727934179 174.11839535144165 C 117.23798595034341 174.29210954662398 103.71102708044378 181.15970614085845 120.19542238421388 179.50242182384613 M 120.19542238421388 179.50242182384613 C 136.9854793347229 174.73505150695505 124.22625319718303 184.35928653808426 131.71559766985027 183.20973008352783 C 139.2049421425175 182.0601736289714 124.14660309586476 176.7057197147661 141.59354944897743 176.21797481082774 M 141.59354944897743 176.21797481082774 C 159.8150803506262 175.72697146351047 144.41910507256182 182.173334542919 152.29481856428146 182.94298476493265 C 160.1705320560011 183.71263498694628 146.31385722196399 174.40757108291564 164.0955879967478 178.41697544515242 M 164.0955879967478 178.41697544515242 C 179.2350824534293 179.2941909696413 166.5984392446707 173.53750493229077 173.16730230809827 173.10017884132623 C 179.73616537152586 172.66285275036168 167.9741743446963 180.04389283986626 182.86376817796946 177.16747232811085 M 182.86376817796946 177.16747232811085 C 199.5824481472051 180.35680094682323 186.3621993319703 172.1035800594832 193.735825321264 172.57720808150813 C 201.10945131055772 173.05083610353307 186.94194645127303 179.54486719478047 203.9312710045229 178.52069524818214 M 203.9312710045229 178.52069524818214 C 219.82722067934702 180.05337669315364 206.76148905033392 173.48681149000538 213.69150406498738 173.29110774534874 C 220.62151907964085 173.0954040006921 207.94719493994106 180.38886882685077 223.73131390353282 177.9615416920203 M 223.73131390353282 177.9615416920203 C 239.64252396521834 175.5987002881498 226.83835368459788 182.87914204570444 233.81964332522466 182.71806013658943 C 240.80093296585144 182.55697822747442 227.674598867001 175.87484070377548 243.6778557338951 177.50130766597744 M 243.6778557338951 177.50130766597744 C 257.4590310699587 180.3741886145935 246.64228813524662 173.36280150115414 252.7334880233995 173.85828693015455 C 258.8246879115524 174.35377235915496 247.01697411883947 179.52478502202135 261.0812839857605 178.91698032026434 M 261.0812839857605 178.91698032026434 C 276.39033321854924 178.41772009001747 263.4839003344036 183.9077739559199 270.1054509393874 184.51704143080988 C 276.72700154437126 185.12630890569986 265.03910361000555 177.37326156163465 280 180.6577445342357" stroke-miterlimit="10" stroke-width="0.1"/><path fill="none" stroke="#000000" paint-order="fill stroke markers" d=" M 0 200.71296575408752 C 14.511338583690307 202.5009003352779 2.712281692933086 196.17437496904085 9.059593252586852 196.1631824033549 C 15.406904812240619 196.15198983766896 3.6302330528552775 202.52008759073948 18.135175884725047 200.68098699498483 M 18.135175884725047 200.68098699498483 C 34.40345771683116 204.05998702930742 21.630517086924176 195.79379377861227 28.82033849337187 196.37337861782242 C 36.01015989981956 196.95296345703258 22.078049591492253 203.06641301923284 38.67752276028989 202.33694367844245 M 38.67752276028989 202.33694367844245 C 57.77882353580906 200.1619904526336 42.18865894063331 208.33718846349595 50.5340244484005 208.42881711567549 C 58.87938995616769 208.52044576785502 43.472482665351 200.004912763183 62.5214242110533 202.59873982752683 M 62.5214242110533 202.59873982752683 C 79.50483029302345 198.7581976787002 66.27394750303004 207.6550179867346 73.79667470020016 206.9151216962692 C 81.31940189737027 206.17522540580381 66.6087265264461 200.026591319498 84.01493048868218 200.48475042619717 M 84.01493048868218 200.48475042619717 C 97.99363869356164 202.83204869111825 86.83438649856153 196.20409053561013 92.98237686262074 196.4625347310057 C 99.13036722667995 196.72097892640124 87.4542266408887 202.38900149901156 101.58061724313706 201.22316241304165 M 101.58061724313706 201.22316241304165 C 116.44644370486358 198.01633282709065 104.81403551212705 205.67162991858913 111.39045158103737 205.09069398334935 C 117.96686764994769 204.50975804810957 105.1725875867316 199.0122230017874 120.3703774400237 199.56334545521372 M 120.3703774400237 199.56334545521372 C 136.2648276011615 200.38714995862262 122.9659016454714 194.42635259856635 129.8571004189143 193.9253672221274 C 136.74829919235722 193.42438184568843 124.45134398954508 201.245982032518 140.05951679271774 198.13195866538808 M 140.05951679271774 198.13195866538808 C 156.64031974284188 195.79998209803466 143.2542110115528 203.2755507582775 150.5222787129253 203.16381947273194 C 157.7903464142978 203.0520881871864 144.1807751119176 195.9915214446842 160.8254245109249 197.8127264209722 M 160.8254245109249 197.8127264209722 C 178.4741871244095 199.2097268798169 163.86694381389822 192.17923577742 171.54471081056784 191.83070260358085 C 179.22247780723745 191.4821694297417 165.31230084440443 199.80721232068402 182.76190164426666 196.81691735286037 M 182.76190164426666 196.81691735286037 C 198.91340292748737 199.8275313403056 186.11832415073852 191.9145105111909 193.2380039182191 192.34169415976314 C 200.3576836856997 192.76887780833536 186.70823761180637 199.0952165141818 203.10384383706833 198.03744206306672 M 203.10384383706833 198.03744206306672 C 217.85805862310772 201.70912411390285 206.47470852261216 193.6938322412682 213.02807623318185 194.4810221746878 C 219.58144394375154 195.2682121081074 206.6237139764168 200.35965565661212 221.82775158155314 200.28655615855126 M 221.82775158155314 200.28655615855126 C 237.317640684981 203.37373351311794 225.11280172933388 195.6141802992387 231.95160196990255 196.10997036179054 C 238.79040221047123 196.60576042434238 225.5939831297204 202.5238076916005 241.36718084032077 201.70309919441365 M 241.36718084032077 201.70309919441365 C 256.6809973547722 199.5541997868917 244.31614382722864 206.45436858963285 251.02857475539736 206.35327896486308 C 257.7410056835661 206.2521893400933 245.17397290648296 199.72749628649703 260.54555492080283 201.41427169507148 M 260.54555492080283 201.41427169507148 C 276.2248319322875 200.39459477216712 263.1744193123651 206.45146438706115 269.98347509008414 206.85648770550537 C 276.7925308678032 207.2615110239496 264.5521648847692 199.7002690834056 280 202.57148117634068" stroke-miterlimit="10" stroke-width="0.1"/><path fill="none" stroke="#000000" paint-order="fill stroke markers" d=" M 0 221.73223529625605 C 15.720799231763454 220.1504376585087 2.820865260204937 226.70100615663011 9.67807557130482 226.86612097900314 C 16.535285882404704 227.03123580137617 3.9655815555922236 219.8673836772978 19.59202946028538 222.20399193160753 M 19.59202946028538 222.20399193160753 C 35.01091765845934 220.02456502324512 22.566446635861453 226.98555409516595 29.32578300090975 226.87697186838844 C 36.08511936595805 226.76838964161092 23.42348388980512 220.21070598343513 38.90441907470909 221.89375699795747 M 38.90441907470909 221.89375699795747 C 55.84152865925633 219.0658764405144 42.31521865991256 227.08272608675833 49.76347481865677 226.77656036272 C 57.211730977400975 226.47039463868168 43.07308952998054 219.59073196743722 60.18515095683541 221.0189977864194 M 60.18515095683541 221.0189977864194 C 78.0221273961862 221.85718775259383 63.06934111755207 215.24157949769042 70.79809504345104 214.64219336715436 C 78.52684896935001 214.0428072366183 64.77283495178797 222.88470683351278 82.26730503083246 219.3064659848878 M 82.26730503083246 219.3064659848878 C 97.56170959002593 217.28708768990546 85.17058928705491 224.0702445113544 91.8676839284373 224.0239033374724 C 98.5647785698197 223.97756216359042 86.08097591908468 217.36652970227456 101.40186114906787 219.1740626309393 M 101.40186114906787 219.1740626309393 C 117.19408190445033 220.29526471062752 104.08081410121295 214.1143499158057 110.94398930782245 213.7469789248431 C 117.80716451443195 213.3796079338805 105.42863869311975 220.92504355227766 121.01093316795215 218.12443122818902 M 121.01093316795215 218.12443122818902 C 136.13989970296262 219.93741177974908 123.82176799781584 213.38520868568278 130.43648330413512 213.3515482637004 C 137.0511986104544 213.31788784171803 124.80038774927242 219.99511536029033 139.9101197574358 218.02825859395364 M 139.9101197574358 218.02825859395364 C 156.5511720849038 216.26671147888905 142.92493914335634 223.27514978545287 150.18824499061526 223.4123861535195 C 157.45155083787418 223.54962252158612 144.09979063245996 216.031449133632 160.6624221781756 218.4203625027154 M 160.6624221781756 218.4203625027154 C 177.00159568451323 219.61263721339986 163.4448230180206 213.1901221852576 170.54743562824905 212.82391579490348 C 177.6500482384775 212.45770940454938 164.82568835269302 220.24041959686406 180.9556010645426 217.3740585302751 M 180.9556010645426 217.3740585302751 C 196.60974084159793 219.08318982054826 183.80884184335642 212.4459468695198 190.6441937398719 212.33927282194986 C 197.47954563638737 212.23259877437994 184.8919947332857 219.26605961638242 200.48517791172966 217.06927553721815 M 200.48517791172966 217.06927553721815 C 217.16725857246496 221.17767747197925 204.2822611097966 212.15181529374772 211.6896098062928 213.0233225531437 C 219.096958502789 213.89482981253965 204.46894652132866 219.68366502730046 221.6490313302902 219.55929627834948 M 221.6490313302902 219.55929627834948 C 238.01201801210854 219.4780570950349 224.06741619057541 224.9597953770819 231.12046179415256 225.8058839348289 C 238.1735073977297 226.6519724925759 225.92108269169057 218.0276195674686 241.80059019765346 221.97669215762667 M 241.80059019765346 221.97669215762667 C 257.2220065709337 224.16424731840593 244.77806545154448 217.19548172688633 251.5389285517687 217.30742922219923 C 258.2997916519929 217.41937671751214 245.6319555419779 223.97233732644096 261.1173419125798 222.29654214423496 M 261.1173419125798 222.29654214423496 C 276.21574359887524 220.34647806636715 263.9690525847946 227.0056194906289 270.5779829153917 226.97858274788638 C 277.1869132459888 226.95154600514385 264.88614874642315 220.39282676821148 280 222.21929430782774" stroke-miterlimit="10" stroke-width="0.1"/><path fill="none" stroke="#000000" paint-order="fill stroke markers" d=" M 0 239.0035848946712 C 17.2671657606302 238.050078186296 2.839053368554673 244.57567335811711 10.328559749738654 245.09470247085096 C 17.818066130922634 245.6137315835848 4.428011964314803 237.160313993038 21.398589660525662 240.48652521676792 M 21.398589660525662 240.48652521676792 C 37.16907736648375 242.7527420799533 24.453101903065466 235.6013494401858 31.368569822880467 235.72838582785252 C 38.28403774269547 235.85542221551924 25.31398950394374 242.53496541538178 41.15706943142567 240.84948632438713 M 41.15706943142567 240.84948632438713 C 56.11243570927489 243.56580803024025 44.241329374739664 236.29971218949248 50.82990447858988 236.66453104782192 C 57.4184795824401 237.02934990615137 44.817735531245944 242.94040427310404 59.98156972814058 241.89182591961415 M 59.98156972814058 241.89182591961415 C 77.77232696690731 238.34555499308814 63.75475463104201 247.25815987086781 71.60941849147754 246.68849932306713 C 79.46408235191308 246.11883877526645 64.30718892044641 239.32211593217502 82.4234664722421 240.26422435446935 M 82.4234664722421 240.26422435446935 C 97.4464004522359 237.98174932613225 85.37409856330655 244.89975616678726 91.96841877929127 244.72546336888786 C 98.56273899527599 244.55117057098846 86.14185151054782 238.28053697967405 101.26438137505558 239.76624493189965 M 101.26438137505558 239.76624493189965 C 115.63657698025116 236.18490568145253 104.54952986942436 243.9966985108605 110.93347085899423 243.22785521248613 C 117.31741184856409 242.45901191411176 104.69267814098853 237.50292276438003 119.50421277382662 237.56954979368712 M 119.50421277382662 237.56954979368712 C 134.66813286037186 236.6776871578918 122.01547873523862 242.4549588216974 128.59565229906246 242.88729061401494 C 135.1758258628863 243.31962240633248 123.38783532238811 235.9365469424903 138.3047086704662 238.80478348602293 M 138.3047086704662 238.80478348602293 C 155.48042467462167 237.32753986101167 141.3036323624234 244.27007701912655 148.78194622094483 244.5585721654993 C 156.26026007946626 244.84706731187205 142.6604580600135 236.8329767529441 159.67131969481312 239.6290553328022 M 159.67131969481312 239.6290553328022 C 174.87459055165957 236.8318455797299 162.81856712298384 244.249006575387 169.51828740186772 243.86269234327835 C 176.2180076807516 243.4763781111697 163.3893557878586 237.494098549059 178.8133776344814 238.52530038392035 M 178.8133776344814 238.52530038392035 C 195.29202201053232 240.26353309827144 181.79674878726655 233.32872125624715 188.98883889541506 233.19018680525718 C 196.18092900356356 233.05165235426722 182.9627246822777 240.50102072853997 199.36220651490575 238.12948766680617 M 199.36220651490575 238.12948766680617 C 214.45224795796187 240.16943179131547 202.24242485930552 233.43631194614665 208.8525935491725 233.5025164143861 C 215.46276223903948 233.56872088262554 203.1205302039042 240.0559384171907 218.24840277166857 238.31864329034744 M 218.24840277166857 238.31864329034744 C 234.10972150300182 241.8443148702564 221.7327791857564 233.58749755627775 228.7551911089412 234.25217738208983 C 235.777603032126 234.9168572079019 222.07130106325644 240.70486374029286 238.31243683791087 240.21772850695336 M 238.31243683791087 240.21772850695336 C 254.88317513786305 244.0227789667209 241.99290758767313 235.29276090570443 249.3359591108708 236.039589041453 C 256.67901063406845 236.7864171772016 242.29508681238136 242.74250216258045 259.292584047047 242.35152318052073 M 259.292584047047 242.35152318052073 C 275.98885572063904 243.3795534859792 262.072849161916 236.97916082543807 269.32044474544955 236.52297463613445 C 276.5680403289831 236.06678844683083 263.5644061488672 244.16158695335682 280 241.0481340682247" stroke-miterlimit="10" stroke-width="0.1"/><path fill="none" stroke="#000000" paint-order="fill stroke markers" d=" M 0 259.25891924735276 C 16.892789457153455 262.58488833179405 3.569074387053007 254.15740744694347 11.025058950065947 254.6805208510099 C 18.481043513078887 255.20363425507634 4.111101634845552 261.6881224962516 21.30281303717983 260.7535289732569 M 21.30281303717983 260.7535289732569 C 36.9996729659838 262.6297084909995 24.21755194418144 255.83570154170718 31.08030127216006 255.79868641472225 C 37.943050600138676 255.76167128773733 25.23495983230616 262.69316299440226 40.910668259975886 260.6477714675857 M 40.910668259975886 260.6477714675857 C 56.010844564140676 258.8489375699618 43.71261600902943 265.3795386754644 50.3141676268494 265.4177427974814 C 56.91571924466936 265.45594691949844 44.69389893359216 258.78344478936117 59.77224431089008 260.75692610192004 M 59.77224431089008 260.75692610192004 C 78.62899305003715 263.07381738145665 63.29458701138138 254.85831639828825 71.54224984483517 254.8409984789038 C 79.78991267828896 254.82368055951935 64.49014247840209 263.1035052432586 83.33699526361518 260.7074463322502 M 83.33699526361518 260.7074463322502 C 99.79203930754598 261.71460983186887 86.07510193529433 255.41182489074043 93.2176604811209 254.95963910359526 C 100.36021902694748 254.5074533164501 87.54765322898612 262.4897854669748 103.74430539454826 259.4154869404069 M 103.74430539454826 259.4154869404069 C 116.38096249862774 261.9798390305927 106.43941020112904 255.6104595114693 112.02097375851174 256.03466810625275 C 117.60253731589445 256.4588767010362 106.81256782882882 261.2526242966782 119.69162984421314 260.62751149693105 M 119.69162984421314 260.62751149693105 C 133.04696925897284 258.24937475910144 122.43017852580628 264.69747301089956 128.31130132881665 264.39217853847543 C 134.19242413182704 264.0868840660513 122.96504445381217 258.7727367118286 136.49483785281421 259.7552415757192 M 136.49483785281421 259.7552415757192 C 153.19488456837968 257.4715323839743 139.69099464389708 264.9453302997666 147.00782987785 264.86081193262237 C 154.32466511180294 264.7762935654781 140.6517384530318 257.6164210133645 157.400081378394 259.51376052673555 M 157.400081378394 259.51376052673555 C 173.09239123573045 261.5692839216522 160.37347671124635 254.62364991625824 167.24392298644065 254.66413561713497 C 174.11436926163495 254.7046213180117 161.3144833353974 261.4998798630063 177.0299278789491 259.62943395781195 M 177.0299278789491 259.62943395781195 C 193.30626082188132 260.9434221298667 179.8434033967496 254.43776825568082 186.9255000275849 254.12737600210036 C 194.00759665842017 253.8169837485199 181.1655237404494 261.47552313600465 197.26448968133565 258.74259894758205 M 197.26448968133565 258.74259894758205 C 213.54032863702892 261.98201828694505 200.7147663871109 253.8325058118366 207.9003272862983 254.35155666040947 C 215.08588818548571 254.87060750898235 201.22222423842194 261.09221683224865 217.79466367901398 260.22560137207597 M 217.79466367901398 260.22560137207597 C 234.365278805779 258.9413972797506 220.64129801269493 265.5189596235891 227.8485585953497 265.85802790602867 C 235.05581917800444 266.1970961884682 222.0099749497994 258.3601373669972 238.38683677231327 261.19436789333173 M 238.38683677231327 261.19436789333173 C 255.03755078515306 262.85752605579546 241.37052421254322 255.9299009897525 248.63269414989918 255.74976144366087 C 255.89486408725514 255.56962189756925 242.58811660682858 263.1663367062382 259.1358937361874 260.6796834759271 M 259.1358937361874 260.6796834759271 C 275.7008433427943 257.5825896140004 262.5813481868672 265.70620693521545 269.88378537920164 265.26403301966434 C 277.18622257153606 264.82185910411323 263.18237958450675 258.34060204065946 280 259.41632943149534" stroke-miterlimit="10" stroke-width="0.1"/><path fill="none" stroke="#000000" paint-order="fill stroke markers" d="" stroke-miterlimit="10" stroke-width="0.1"/></g></g></svg>