<svg version="1.1" xmlns="http://www.w3.org/2000/svg" xmlns:xlink="http://www.w3.org/1999/xlink" width="1133.8500000000001" height="1133.8500000000001"><defs/><g transform="scale(3.7795,3.7795)"><g transform="translate(10,10)"><path fill="none" stroke="#000000" paint-order="fill stroke markers" d=" M 0 0 L 280 0 L 280 280 L 0 280 L 0 0" stroke-miterlimit="10" stroke-width="0.1"/><path fill="none" stroke="#000000" paint-order="fill stroke markers" d=" M 24.85704795957385 0 C 22.01022203997413 17.012358764075262 30.068138224057247 3.428064085078601 29.757863299833726 10.909755409889467 C 29.447588375610206 18.39144673470033 22.542121910071593 4.186602207256633 23.970548176078083 21.376260928031048 M 23.970548176078083 21.376260928031048 C 26.667133333191682 39.77347798716116 18.279431133328572 24.957032357872254 18.450417667055117 33.027188137957495 C 18.62140420078166 41.09734391804274 26.374013561089033 25.938925221300746 24.459081129582493 44.43384887113174 M 24.459081129582493 44.43384887113174 C 25.724471355275654 62.84534270509615 18.554067125180186 47.5433116599789 18.10777016980377 55.54255309291627 C 17.661473214427357 63.541794525853646 26.489551850206652 49.132357391489215 23.183946971364165 67.28882439380996 M 23.183946971364165 67.28882439380996 C 20.515578221602482 87.62125357636023 29.51929657601178 71.14310139925772 29.464668532097917 80.04536767211269 C 29.410040488184055 88.94763394496766 20.609226296883392 72.36022568003742 23.027866845895986 92.72387088768133 M 23.027866845895986 92.72387088768133 C 24.400025334445047 109.29138193209923 17.748390202607236 95.59914415577018 17.447377110667404 102.80980360121053 C 17.14636401872757 110.02046304665089 24.91604777777047 96.93025145420148 22.16782944035361 113.32575501751091 M 22.16782944035361 113.32575501751091 C 21.400012453700647 130.62286875739915 27.776963040882748 116.10776495200287 28.377594155703147 123.60017332385142 C 28.978225270523545 131.09258169569998 20.370359114008536 117.77874011994449 23.88391833984046 134.73263607993536 M 23.88391833984046 134.73263607993536 C 20.46702344519661 154.9623285055374 30.07588581139934 138.81948713036712 29.693283756623636 147.71780282341496 C 29.310681701847933 156.6161185164628 21.122912681954958 139.7080730317411 22.790769611909884 160.15639520292922 M 22.790769611909884 160.15639520292922 C 20.485370003322018 178.5278901211305 28.53055183436747 163.60401509996848 28.526690960109686 171.64202673596375 C 28.522830085851904 179.68003837195903 20.491988644906783 164.74844160228145 22.779738542601937 183.12214273434432 M 22.779738542601937 183.12214273434432 C 24.586259763858433 204.23483800126405 16.060338594342895 186.80538598500206 15.701694913742323 195.99735970420437 C 15.34305123314175 205.18933342340668 25.20107750203084 188.4771687683458 21.755042312314586 209.38492478920807 M 21.755042312314586 209.38492478920807 C 24.475369022764273 228.80175306493427 15.73013917110164 213.12256929527064 15.856450693063941 221.63322060614615 C 15.982762215026241 230.14387191702167 24.258834985114618 214.21206510343342 22.115932375064016 233.70107139170952 M 22.115932375064016 233.70107139170952 C 18.82267114274957 253.4431023074071 28.164665959379562 237.67575462546162 27.809062785535517 246.35734354780982 C 27.45345961169147 255.03893247015802 19.432276583625075 238.56037844052446 21.09992330693817 258.5056111698472 M 21.09992330693817 258.5056111698472 C 23.2592818619873 275.6998822749652 15.72818603790632 261.73286939188074 15.73252589442113 269.25590548243423 C 15.736865750935939 276.7789415729877 23.25184210796191 262.80324897687353 21.112322896980483 280" stroke-miterlimit="10" stroke-width="0.1"/><path fill="none" stroke="#000000" paint-order="fill stroke markers" d=" M 47.39058014655618 0 C 45.00157115274585 18.04850666190741 53.01130795870713 3.4280693331544985 52.95403905855308 11.331449610258245 C 52.89677015839903 19.23482988736199 45.0997464101528 4.499854758300983 47.226954717544615 22.581086506010706 M 47.226954717544615 22.581086506010706 C 45.278740842511525 40.77128187902149 52.95897269765104 25.884062726884764 53.09921416387583 33.824743019298886 C 53.239455630100615 41.76542331171301 45.03832690041189 27.158687092025858 47.62764462104401 45.268744484336764 M 47.62764462104401 45.268744484336764 C 44.95981011511431 62.894963435088634 53.067941230810675 48.72732174448494 52.8678243102199 56.46380715051273 C 52.66770738962913 64.20029255654052 45.30286769326992 49.63241702475528 47.05588199078467 67.37298850155902 M 47.05588199078467 67.37298850155902 C 44.35352525853603 86.61178506971638 53.02452410246191 71.07866907295657 52.89636717147097 79.51166218789928 C 52.76821024048003 87.94465530284198 44.5732228545205 72.1552254441003 46.68971933081055 91.46725454425247 M 46.68971933081055 91.46725454425247 C 48.94320489046399 109.08634744355066 41.19122110745357 94.78773642234295 41.213232961649766 102.49884104756043 C 41.23524481584596 110.20994567277792 48.90547028327051 95.86731094317783 46.75261034279968 113.49898204487386 M 46.75261034279968 113.49898204487386 C 50.410976246836476 131.33973614626316 41.38612207985321 117.31655175102755 42.00137755613271 125.19878860492031 C 42.61663303241221 133.08102545881306 49.35625257321447 117.82733011101843 48.51048313216969 136.01965877028175 M 48.51048313216969 136.01965877028175 C 48.947856560611086 156.33347584210202 41.855221294109036 139.13327093787842 40.94980739018578 147.90738916880937 C 40.04439348626253 156.68150739974033 50.49999468162239 141.29213030336325 45.923586263817526 161.08856800151307 M 45.923586263817526 161.08856800151307 C 47.67898632651631 179.80372605546907 39.98974630128806 164.404492660907 39.73817935616067 172.56092844137183 C 39.486612411033285 180.71736422183665 48.11024394673469 165.82126471752937 45.204823563453566 184.39267023141258 M 45.204823563453566 184.39267023141258 C 41.49764271798529 205.9042110162492 51.778360622561856 188.76288601038974 51.339734916005185 198.22901331707536 C 50.901109209448514 207.69514062376098 42.24957250065387 189.67656420478815 43.95160725900594 211.43874825051432 M 43.95160725900594 211.43874825051432 C 42.59541925735189 230.1619942189942 49.9464688329537 214.6238079233777 50.370439553620876 222.76223169450427 C 50.794410274288055 230.90065546563082 41.86861230763674 216.2104106113487 45.16295217519787 234.6913875965902 M 45.16295217519787 234.6913875965902 C 47.98606108280561 253.0097620346595 39.516405778333 238.30248603774749 39.746140222637216 246.34549165994085 C 39.97587466694143 254.3884972821342 47.59223060685553 239.22175239661377 45.81933630178135 257.6714036599998 M 45.81933630178135 257.6714036599998 C 42.90915396405138 275.4496153940337 51.27448737983204 261.23235645591546 50.97815869695019 269.0473651749155 C 50.68183001406834 276.86237389391556 43.41714599184884 262.05245759003355 44.97268292211891 280" stroke-miterlimit="10" stroke-width="0.1"/><path fill="none" stroke="#000000" paint-order="fill stroke markers" d=" M 69.37449288511027 0 C 65.28603514565853 18.61802176531634 74.93521779941041 4.073431510287966 74.17654486824054 12.313650149010098 C 73.41787193707067 20.553868787732227 66.58661731337831 4.491932670364111 67.20685593891064 23.543481824920377 M 67.20685593891064 23.543481824920377 C 65.86384089616027 40.20116383471315 72.5204177897478 26.422294171261363 72.83884034109033 33.670227231627884 C 73.15726289243287 40.918160291994404 65.31797366528735 27.77613573122768 68.11663465703215 44.25186199739615 M 68.11663465703215 44.25186199739615 C 64.97380911725391 63.5571665801597 74.04289936320941 48.11295649957286 73.7285832236076 56.59831677198214 C 73.41426708400579 65.08367704439142 65.51263678514275 49.01083468460094 67.2185885438841 68.4957484899941 M 67.2185885438841 68.4957484899941 C 71.83229886349851 87.0804549634831 61.74565098782753 72.73804823414574 62.7323804692428 80.99219850147408 C 63.719109950658066 89.24634876880242 70.14076260964377 72.93048307663452 70.037815633642 92.07903496807509 M 70.037815633642 92.07903496807509 C 70.7352148694881 110.36021943904528 76.18659653927888 94.5202221819755 77.47138614315713 102.35764168754017 C 78.75617574703539 110.19506119310483 68.5327184056968 96.92464314379154 73.70864307329416 114.4716621268313 M 73.70864307329416 114.4716621268313 C 75.20940184368251 132.1574058774033 68.0780848837771 117.55290642212027 67.77225630599051 125.2521907407722 C 67.46642772820393 132.95147505942413 75.73367940560237 118.95863275971429 72.83484713676106 136.46961732297967 M 72.83484713676106 136.46961732297967 C 73.39151881160477 155.8804420551814 66.49570327781763 139.49071387628825 65.69030205217021 147.88227454342058 C 64.8849008265228 156.2738352105529 74.77220662700034 141.49490948295457 70.53370077776843 160.44550494335775 M 70.53370077776843 160.44550494335775 C 67.41681791191752 178.55745345303615 76.06903163519154 164.12360482732296 75.7016331665769 172.0935071088841 C 75.33423469796226 180.06340939044523 68.04664385811404 164.89476382750277 69.48399086744091 183.2166543192467 M 69.48399086744091 183.2166543192467 C 74.34611186473937 205.38132783569438 62.86321654237491 188.06434662460313 63.76418624417167 197.8740125007736 C 64.66515594596844 207.68367837694407 72.8015923759449 188.56475776225932 72.05819001543166 211.24427110830516 M 72.05819001543166 211.24427110830516 C 68.28019525823005 231.51584389395754 78.2112340877103 215.45668385820568 77.67533641922012 224.39248416048986 C 77.13943875072994 233.32828446277404 69.1988769756418 216.1973290900418 70.52705381974543 236.7751291148314 M 70.52705381974543 236.7751291148314 C 69.45874428982971 253.78049772554874 75.99576896737966 239.61389306398527 76.45124778737767 246.99680697867436 C 76.90672660737567 254.37972089336344 68.67792345554741 241.124073871796 71.8284218768826 257.86916887108595 M 71.8284218768826 257.86916887108595 C 70.49716153665454 276.0168767058571 65.63114969719419 260.08118621132326 64.08049943645442 267.82697710644317 C 62.529849175714645 275.5727680015631 73.15541912649414 262.7383780285087 67.39799256048326 280" stroke-miterlimit="10" stroke-width="0.1"/><path fill="none" stroke="#000000" paint-order="fill stroke markers" d=" M 90.8505397069216 0 C 93.27211861811718 18.22350812073623 85.17668701554511 3.4644195959646016 85.23856287848203 11.444938881653815 C 85.30043874141894 19.42545816734303 93.16604571022532 4.542617916697575 91.02732788674135 22.801483673397755 M 91.02732788674135 22.801483673397755 C 88.48296695409744 42.13248380541777 97.04955979410002 26.468380001182908 96.99442739945448 34.93258410827236 C 96.93929500480894 43.39678821536181 88.57747963063262 27.62241962183586 90.86980675918268 46.984923979367615 M 90.86980675918268 46.984923979367615 C 93.37562405604345 66.48066027989279 84.78745189547323 50.6631480830214 84.81711046870805 59.196240036155515 C 84.84676904194288 67.72933198928963 93.3247807876409 51.85250264594859 90.9545455398536 71.36518670260794 M 90.9545455398536 71.36518670260794 C 90.26268469531279 88.68885029826563 96.58356229806132 74.1259530459368 97.21834258940993 81.62570833261846 C 97.85312288075853 89.12546361930012 89.17448991014375 75.83212694966849 92.76820351513533 92.79305895026984 M 92.76820351513533 92.79305895026984 C 97.43074770389546 111.25422900680111 87.34326526248609 97.03345611327586 88.35768283306184 105.23702020933025 C 89.3721004036376 113.44058430538465 95.69174615433701 97.19097627070785 95.66653943106607 116.23181351042527 M 95.66653943106607 116.23181351042527 C 99.2162582421675 134.60417367870093 90.1083330477974 120.09114237253756 90.6481617573647 128.19652853485408 C 91.187990466932 136.3019146971706 98.29083759719497 120.70922597187263 97.20890717268695 139.39005968847246 M 97.20890717268695 139.39005968847246 C 97.15431124656124 159.11785186638397 90.67558112463632 142.25529373891027 89.58979714687923 150.7504798195269 C 88.50401316912215 159.24566590014354 99.01565520843052 144.55467572818398 94.10666723623814 163.66201991880573 M 94.10666723623814 163.66201991880573 C 98.05823962531419 180.33490012801855 89.16932897774808 167.40588404730812 89.97377430331554 174.80082480453467 C 90.778219628883 182.19576556176122 96.67919049576999 167.6578588299159 96.40508245214514 184.79042208231016 M 96.40508245214514 184.79042208231016 C 95.15297307024571 205.8999563527227 103.2044662626963 188.2898209635372 103.80176329736184 197.4505800775095 C 104.39906033202739 206.6113391914818 94.12903529653336 190.19579787162735 98.1116454083324 210.96401955080245 M 98.1116454083324 210.96401955080245 C 94.66157326280221 230.97245066149662 104.22557746213836 215.02950642281004 103.81676959771659 223.83429601679146 C 103.40796173329481 232.63908561077287 95.36238674466811 215.87852564324277 96.94362293855589 236.12056124789223 M 96.94362293855589 236.12056124789223 C 93.74944585224324 253.10526052818432 102.09479758788373 239.65947587125373 101.63340511194939 247.1479558658733 C 101.17201263601504 254.6364358604929 94.54040438241638 240.2678662516936 95.62535872160063 257.51621837537675 M 95.62535872160063 257.51621837537675 C 94.24319517857768 275.957061388261 89.32368674566632 259.7542413361061 87.73532474951651 267.6235649047242 C 86.1469627533667 275.49288847334236 96.96610145769164 262.4667924134871 91.08718158974402 280" stroke-miterlimit="10" stroke-width="0.1"/><path fill="none" stroke="#000000" paint-order="fill stroke markers" d=" M 112.10898888689823 0 C 116.45837986494026 19.217836219243658 106.38800020347763 4.247405386318743 107.22677744375184 12.760055887272117 C 108.06555468402605 21.27270638822549 115.02047602447017 4.62472107475215 114.5054952876817 24.3218585741525 M 114.5054952876817 24.3218585741525 C 115.85429890817039 42.13238807580257 108.81145298166886 27.37107869886301 108.43344756809822 35.11593467913858 C 108.05544215452757 42.86079065941416 116.5023081885772 28.85549210961587 113.425479820337 46.450018517797 M 113.425479820337 46.450018517797 C 111.64430313824556 68.15521619390805 120.34456553659115 50.211475080689624 120.74603084071158 59.65731590097315 C 121.14749614483202 69.10315672125668 110.95607690261053 51.962346216279144 114.5725235463954 73.43813514717851 M 114.5725235463954 73.43813514717851 C 115.13639828523657 92.73685022844367 121.03835715049067 76.07220416851597 122.32041861929036 84.35513433296951 C 123.60248008809006 92.63806449742306 112.93857862443707 78.53754137509473 118.23555631439454 97.10364990276007 M 118.23555631439454 97.10364990276007 C 121.33586919707919 115.1851818478484 112.70786455387308 100.77182344823791 113.0697629986017 108.72773097980513 C 113.43166144333033 116.68363851137235 120.71547186325867 101.54648322230459 119.26955187076206 119.83481427866643 M 119.26955187076206 119.83481427866643 C 120.95909331704993 137.636722327544 113.62816141982155 122.99547993342838 113.39739960943677 130.75496947851423 C 113.166637799052 138.51445902360007 121.35468499199527 124.33474025025399 118.61023241251982 142.0047844074831 M 118.61023241251982 142.0047844074831 C 121.26253201007988 160.05321314533947 113.0280113096415 145.5199307822089 113.19870189655202 153.43745467838485 C 113.36939248346255 161.35497857456082 120.96991957537611 146.48031503760922 119.09791980369276 164.62628125370017 M 119.09791980369276 164.62628125370017 C 116.61158122412101 181.8581300609088 124.43429723213974 167.9671865326121 124.29112785671238 175.5240165576943 C 124.14795848128502 183.0808465827765 116.85701443913936 168.90356430362502 118.68886444532886 186.21722418250644 M 118.68886444532886 186.21722418250644 C 116.2485417523492 205.03180674465165 124.55548689921834 189.7742314477286 124.51736387712722 198.01037669642852 C 124.47924085503611 206.24652194512845 116.31389550450538 190.91270060402323 118.57994152506853 209.7490677502205 M 118.57994152506853 209.7490677502205 C 119.74591276480689 229.17885961689737 112.3235753965141 212.97447397157134 111.77962036850342 221.40701353474114 C 111.23566534049273 229.83955309791094 120.67840709853951 214.72307750860628 117.02578430218085 233.8420379307056 M 117.02578430218085 233.8420379307056 C 118.10059336795587 252.8948235016716 110.88079655370537 236.98218958975698 110.31787200514106 245.24741770848408 C 109.75494745657674 253.51264582721117 119.0656068797804 238.72586101242516 115.41742844913995 257.456975412783 M 115.41742844913995 257.456975412783 C 111.34193483341934 275.26374618793176 120.7117112540069 261.4075513374277 119.91494012281989 269.29760994295367 C 119.11816899163287 277.1876685484796 112.70782820116852 261.7379314356015 113.14093950289131 280" stroke-miterlimit="10" stroke-width="0.1"/><path fill="none" stroke="#000000" paint-order="fill stroke markers" d=" M 137.99197120687782 0 C 136.12105499297496 19.123667644082268 144.04405044250385 3.413839095656815 144.2678532542732 11.752468338471637 C 144.49165606604257 20.09109758128646 135.73739302994179 4.828874656399712 138.63140781193312 23.82465497947092 M 138.63140781193312 23.82465497947092 C 140.25981277344425 42.40583759343764 132.7233219801496 27.07899254108897 132.4242635151254 35.17087762657138 C 132.12520505010121 43.2627627120538 140.77248442777142 28.534034589753496 137.77695505472116 46.944326652277816 M 137.77695505472116 46.944326652277816 C 141.36063837420164 67.08565416179167 131.63859274826757 51.073431309342624 132.09780023537766 59.942663030643686 C 132.55700772248775 68.81189475194475 140.57342553915578 51.88125692527555 139.08897644646424 72.284988713138 M 139.08897644646424 72.284988713138 C 136.70389166923448 90.45939234066526 144.75192064043583 75.73016036193722 144.7031212394191 83.68756187410749 C 144.65432183840235 91.64496338627775 136.78754778526317 76.81813260551624 138.94954958641642 95.02042160505306 M 138.94954958641642 95.02042160505306 C 143.7217006473793 112.61022568562046 133.82885185329255 99.16971986006988 134.93740439829216 107.00382821344306 C 136.04595694329177 114.83793656681624 141.8213248559514 99.18032565126641 142.1168425721296 117.40358832897645 M 142.1168425721296 117.40358832897645 C 142.0850668124814 134.45200795785644 147.75129106911822 119.90579087215795 148.6555948757479 127.25143648396423 C 149.5598986823776 134.5970820957705 140.5348317154019 121.85947262333137 144.7005677339287 138.39114721985155 M 144.7005677339287 138.39114721985155 C 146.6337617440969 157.4745120752313 138.67092156017384 141.81969548669343 138.47611625695663 150.14431694801993 C 138.28131095373942 158.46893840934644 146.9677136924693 143.20373242724304 144.14398115330806 162.17577996649865 M 144.14398115330806 162.17577996649865 C 141.5341007865689 180.64800967349544 149.8725823104836 165.7388355065196 149.7429846751881 173.83663570774263 C 149.6133870398926 181.93443590896567 141.7562681613612 166.7660664713988 143.7737021953209 185.31235196999305 M 143.7737021953209 185.31235196999305 C 142.76079281416602 205.32244375639382 137.00693892565036 187.90186458962347 135.49314224988512 196.46705516170314 C 133.9793455741199 205.03224573378282 145.35587282976354 190.63925991854293 139.4485688359917 209.78432503307786 M 139.4485688359917 209.78432503307786 C 141.31332645200501 229.94763633538463 133.0517073644922 213.3480749733271 132.7692708058814 222.13421909825996 C 132.48683424727062 230.92036322319282 141.7975034096235 214.88567497835686 138.6416072399609 234.88759396145747 M 138.6416072399609 234.88759396145747 C 140.7062909573282 253.4866593297675 132.7913701614428 238.2888527448781 132.6792842429382 246.41193310370068 C 132.56719832443358 254.53501346252324 140.89843824619328 239.5613787146431 138.32136175851912 258.0963949866648 M 138.32136175851912 258.0963949866648 C 137.87177544603298 275.8368757709389 144.1236581722618 260.83794380465025 144.88524687988252 268.5042055593176 C 145.64683558750323 276.17046731398494 136.56619480439744 262.69471276293774 140.49732949457834 280" stroke-miterlimit="10" stroke-width="0.1"/><path fill="none" stroke="#000000" paint-order="fill stroke markers" d=" M 164.25764226941027 0 C 159.7608499856364 19.69319178513401 170.11432067994153 4.36563624707556 169.23764356151537 13.090992292874956 C 168.3609664430892 21.816348338674352 161.2637250457955 4.73543856376361 161.75285050247842 24.92958870228399 M 161.75285050247842 24.92958870228399 C 159.2488804584676 45.01492677069596 168.0304974725208 28.69337435760932 168.0333824264768 37.48034914329506 C 168.0362673804328 46.2673239289808 159.2439348231145 29.95154142380612 161.76109322806695 50.03523094710039 M 161.76109322806695 50.03523094710039 C 158.73175179316593 68.24605059615314 167.34192213303731 53.698825216583046 167.0175576498751 61.7066043734389 C 166.6931931667129 69.71438353029475 159.2878051928726 54.51842918440025 160.8343375618892 72.91459996668854 M 160.8343375618892 72.91459996668854 C 162.95927307611905 91.28690776430459 155.06791094244983 76.30264669950846 154.9939896671695 84.33129120155543 C 154.92006839188917 92.3599357036024 163.08599526231387 77.52351718936691 160.62313391823113 95.85358425825133 M 160.62313391823113 95.85358425825133 C 162.65143639200465 112.54990110577349 166.44220600627077 97.62291513310255 168.21496874830132 104.70595841113968 C 169.98773149033187 111.7890016891768 159.6124145485237 100.407541200567 165.68817032403274 116.09085076692882 M 165.68817032403274 116.09085076692882 C 169.24015691081757 132.03130339327546 160.93469557184818 119.595497098716 161.6064500370445 126.6534144308922 C 162.27820450224084 133.7113317630684 168.08857782762385 119.93201653811627 167.60746879602226 136.25632885886083 M 167.60746879602226 136.25632885886083 C 163.34289903867983 155.6362028012604 173.39445152012743 140.4993604317171 172.60093776001685 149.07724450153074 C 171.80742399990626 157.6551285713444 164.7032083417266 140.93125868157986 165.3402866242777 160.76456905832836 M 165.3402866242777 160.76456905832836 C 168.16680989952988 182.92445112373397 158.4235867274881 164.9382479820095 158.44794156561335 174.63624074039012 C 158.4722964037386 184.33423349877074 168.12505874845803 166.29932068079577 165.40987187606413 188.47311979655868 M 165.40987187606413 188.47311979655868 C 161.17946025094383 207.8957662054925 171.21599475842464 192.71110427078878 170.43949840346926 201.30557411906676 C 169.66300204851387 209.90004396734474 162.51059685943878 193.16238932273026 163.1913108619059 213.02874793449573 M 163.1913108619059 213.02874793449573 C 160.401464413172 232.34890773522753 169.17407846887144 216.7752589614916 169.01261475714855 225.24801183827714 C 168.85115104542567 233.72076471506267 160.6782593475541 217.8241885178809 162.72998597126906 237.23661329674007 M 162.72998597126906 237.23661329674007 C 166.80100132204626 253.97080401241038 157.78982513196866 241.0289462481336 158.6424214753058 248.45672922915648 C 159.49501781864296 255.88451221017937 165.33940759061113 241.23746175922827 165.16597552366096 258.45885038537693 M 165.16597552366096 258.45885038537693 C 166.32119711845706 275.8166317479087 159.59339561375532 261.37786865048724 159.15637976583884 268.9172710156053 C 158.71936391792235 276.4566733807234 167.0703671434567 262.89194197913486 163.91735881532819 280" stroke-miterlimit="10" stroke-width="0.1"/><path fill="none" stroke="#000000" paint-order="fill stroke markers" d=" M 188.44568394003713 0 C 185.47231932651786 21.35091129416453 195.07333977074643 4.104015330541957 194.94217023768545 13.461435213371558 C 194.81100070462446 22.818855096201162 185.69718138319382 5.309620066456635 188.0709138455772 26.73548537951315 M 188.0709138455772 26.73548537951315 C 184.36708747197068 45.23594907046533 193.64896951951891 30.664511104076006 193.04965389578584 38.83337842183422 C 192.45033827205276 47.00224573959243 185.39448568408454 31.232176525736964 186.35858349205412 50.07510628739376 M 186.35858349205412 50.07510628739376 C 185.57826023376012 66.64336375279682 180.76426646959322 52.23851391613234 179.5359902794218 59.333592033474744 C 178.3077140892504 66.42867015081715 187.68387655976827 54.48037269449554 182.8492229487072 70.3467580512292 M 182.8492229487072 70.3467580512292 C 179.119115898072 89.08702792838058 188.50275810836442 74.31952521156143 187.90503421839895 82.59310876906083 C 187.3073103284335 90.86669232656024 180.1437854237271 74.90374182981016 181.1414404059487 93.98556821551323 M 181.1414404059487 93.98556821551323 C 182.31923914503977 111.27511679159802 187.03243090452085 96.12292265524165 188.4707660539185 103.50730826360405 C 189.90910120331617 110.89169387196644 179.8535217460724 98.61617003440536 185.2509694042277 115.08381281083435 M 185.2509694042277 115.08381281083435 C 185.7385350023752 131.7359782671499 190.8302529502767 117.3563191412163 191.9369362709726 124.50330611326737 C 193.04361959166852 131.65029308531845 183.8413635954679 119.48400060077664 188.41292174907315 135.50377558812312 M 188.41292174907315 135.50377558812312 C 191.04757964309195 155.6633623098638 182.1298161410078 139.32164048932222 182.17922948726064 148.14763634836538 C 182.22864283351348 156.97363220740854 190.96287104951568 140.53308369436127 188.55410273836696 160.7209066139607 M 188.55410273836696 160.7209066139607 C 183.4400731320648 183.4181474936013 195.31421654840392 165.7297593046081 194.3334090730544 175.78240312386956 C 193.3526015977049 185.835046943131 185.12145737552112 166.18504380343882 185.7517956659398 189.44274609756485 M 185.7517956659398 189.44274609756485 C 179.93838152704316 208.27178264024033 191.13020876360142 194.117580730514 189.6398400252977 202.54158031022249 C 188.149471286994 210.96557988993098 182.49329936413525 193.8306405035972 181.49359927078635 213.51131632530337 M 181.49359927078635 213.51131632530337 C 181.7805865208256 230.5082274344461 187.15759877420086 215.90055370470358 188.19644234163314 223.20684686902447 C 189.23528590906542 230.51314003334537 179.9997118337988 217.98315343846738 184.46172374916432 234.38643965193452 M 184.46172374916432 234.38643965193452 C 189.11773529067457 253.34356776903152 178.8717830588068 238.69716219431746 179.8566811319214 247.11401800468673 C 180.84157920503597 255.530873815056 187.42933859390672 238.9146720941128 187.2757182437774 258.4345991101324 M 187.2757182437774 258.4345991101324 C 190.30451273044142 275.5778880223168 182.04791572087495 261.94198874288674 182.42952701985877 269.4898790543404 C 182.81113831884258 277.0377693657941 189.65032193218346 262.63864748839626 188.36603624087397 280" stroke-miterlimit="10" stroke-width="0.1"/><path fill="none" stroke="#000000" paint-order="fill stroke markers" d=" M 213.09486429861306 0 C 208.9012178249614 20.178288982356147 219.15630386201255 4.336263761782979 218.43633324933563 13.254261518148406 C 217.71636263665872 22.172259274513834 210.13545316097898 4.890292828586838 211.03780540525045 25.479993589615507 M 211.03780540525045 25.479993589615507 C 209.6438795707789 42.34928867283145 216.41392154158373 28.406573723949194 216.72180784044608 35.74840453549837 C 217.02969413930842 43.09023534704755 209.11607448701488 29.763292995889994 211.91748054485717 46.456653051184595 M 211.91748054485717 46.456653051184595 C 212.17538509010677 63.93272579270012 206.17462714850774 49.09615518606557 205.34470518961058 56.63819676561647 C 204.51478323071342 64.18023834516737 213.59810844821618 51.003511656327156 209.54627494800812 68.00534327847286 M 209.54627494800812 68.00534327847286 C 205.6967728268871 85.74248116201105 214.85055486101461 71.87099105536078 214.14738444872222 79.71888518094528 C 213.44421403642983 87.56677930652978 206.90220781938834 72.28894837529475 207.53721662717274 90.427897923 M 207.53721662717274 90.427897923 C 205.40629666834232 109.59033707855336 213.56411973848824 93.93340486288632 213.67800863382956 102.30273588152325 C 213.79189752917088 110.67206690016017 205.21105856204295 95.24291247517577 207.86261347100506 114.34027226196265 M 207.86261347100506 114.34027226196265 C 208.41691034693048 133.06125571655755 214.1359513878525 116.8930716463666 215.3827783819601 124.92764853348842 C 216.6296053760677 132.96222542061025 206.27949264274602 119.28769533863444 211.4249763113125 137.29620622516788 M 211.4249763113125 137.29620622516788 C 210.96611877485984 156.8988436341871 204.8739632206938 140.0094311228902 203.62077488296703 148.42893644712026 C 202.36758654524024 156.84844177135034 213.11444163953433 142.465405935507 207.84443820352166 161.35193572296805 M 207.84443820352166 161.35193572296805 C 210.80876130618861 182.55883513862054 201.26309561950333 165.43191250998402 201.3981248336555 174.726809656101 C 201.53315404780764 184.021706802218 210.57728265335632 166.62472574527715 208.23023595824213 187.90878471187372 M 208.23023595824213 187.90878471187372 C 204.0883701927257 205.17638986753676 213.3364788209244 191.80251337244914 212.48208461492996 199.463889903801 C 211.6276904089355 207.12526643515287 205.55304597443046 192.04260152807637 205.78910965540084 209.79843194430765 M 205.78910965540084 209.79843194430765 C 208.80569586327206 228.60357833915558 200.0098315244092 213.54467031692747 200.29669923884654 221.80778032897808 C 200.58356695328388 230.0708903410287 208.31392263852234 214.43824688992592 206.60873169665035 233.40731769302374 M 206.60873169665035 233.40731769302374 C 205.1476850756095 251.8410889366073 212.49251844799122 236.58475352635332 212.8557322012743 244.60412672626074 C 213.21894595455737 252.62349992616817 204.52503292712427 238.0935920224803 207.6464852774591 256.3198125499021 M 207.6464852774591 256.3198125499021 C 207.88410043602633 275.5896667479276 214.05508849690426 259.057580072549 215.1950533297192 267.34564568008324 C 216.33501816253414 275.6337112876175 205.92987500834357 261.3815542778688 210.90352765693035 280" stroke-miterlimit="10" stroke-width="0.1"/><path fill="none" stroke="#000000" paint-order="fill stroke markers" d=" M 235.59020218226541 0 C 239.15807249401132 19.532171913498523 229.65101867182491 4.034843767396506 230.1362150876963 12.640818531536034 C 230.6214115035677 21.246793295675563 238.32630720966034 4.779072317830761 236.97647765618368 24.588499326112938 M 236.97647765618368 24.588499326112938 C 234.0851331101627 40.962609563824934 241.96994837808535 27.93800632607779 241.6061289710608 35.147156980954854 C 241.24230956403625 42.35630763583192 234.70882352220477 28.604065584035677 235.93699363611353 45.186072625761696 M 235.93699363611353 45.186072625761696 C 231.79439961385626 61.30733988234376 240.66395675619157 48.91250047831648 239.74752295272745 56.08010912850415 C 238.83108914926333 63.247717778691815 233.36542899122327 49.02001076773633 233.3186113405018 65.66495448344074 M 233.3186113405018 65.66495448344074 C 231.29273004615362 83.61589831350908 238.96014087973506 68.9586531636582 239.05404283609644 76.80045334476793 C 239.14794479245782 84.64225352587766 231.1317552638198 70.17281228874954 233.58690264439147 88.07009785803996 M 233.58690264439147 88.07009785803996 C 229.80189770318327 109.96487652057812 240.27582871059286 92.52206714311825 239.8243146639014 102.15747206381513 C 239.37280061720992 111.79287698451202 230.5759217832258 93.44703951366918 232.29686251098724 115.59982620288818 M 232.29686251098724 115.59982620288818 C 231.233743726952 135.89826609187617 238.85558295967812 118.91816824599807 239.4906170159623 127.71935644039479 C 240.12565107224648 136.52054463479152 230.14511391617913 120.81051490148178 234.11124552894205 140.7460781868788 M 234.11124552894205 140.7460781868788 C 230.35240937155527 160.11726190113373 239.96926870373136 144.8205585356363 239.39314148208618 153.3674673133285 C 238.817014260441 161.91437609102067 231.34005603723273 145.46541828223286 232.46516775281293 165.1658175517136 M 232.46516775281293 165.1658175517136 C 229.04261345899118 184.1711798672842 238.2513373527123 169.07560000271496 237.8003719354429 177.44681669293578 C 237.3494065181735 185.8180333831566 229.81569703145303 169.8205226840485 231.1766951320432 189.0835795237731 M 231.1766951320432 189.0835795237731 C 228.68049937360763 206.73295849369788 236.64973802663155 192.48876889332155 236.5248048752245 200.22598883658952 C 236.39987172381745 207.9632087798575 228.89467049030546 193.46915287666707 230.81974327088017 211.18992221882445 M 230.81974327088017 211.18992221882445 C 232.9901773463987 228.306160834749 225.4754354781886 214.4094391338234 225.48874807755448 221.89945760321115 C 225.50206067692037 229.38947607259888 232.96735574748573 215.46612917294146 230.85777926906843 232.58997498850368 M 230.85777926906843 232.58997498850368 C 229.3794730124205 250.0041683459081 236.40179846516133 235.6241045487079 236.70267695077325 243.20520433187085 C 237.00355543638517 250.7863041150338 228.86368132280012 237.00799728905733 231.71743208510244 254.25026008325497 M 231.71743208510244 254.25026008325497 C 232.75053747739173 275.0427855915741 224.99089674353144 257.6308871334588 224.31632923130041 266.6432961043196 C 223.6417617190694 275.6557050751803 233.90693892693065 259.5929416415271 229.7900963358709 280" stroke-miterlimit="10" stroke-width="0.1"/><path fill="none" stroke="#000000" paint-order="fill stroke markers" d=" M 257.46666826919727 0 C 261.05598548126414 17.975921931365562 252.0453789152015 3.814485821652478 252.62361207178756 11.751230811198168 C 253.20184522837363 19.687975800743857 260.0647286414024 4.370073377858664 259.1187630023003 22.67641425584483 M 259.1187630023003 22.67641425584483 C 256.8430682486625 40.75936085197362 264.7674437970266 26.072036253789985 264.76084164294343 33.98415065885673 C 264.75423948886026 41.896265063923465 256.8543862270908 27.19573615757349 259.0998997049198 45.282455413178376 M 259.0998997049198 45.282455413178376 C 256.344186337537 63.39323352328849 264.6876297414926 48.84092048155954 264.4757489583951 56.790871002619895 C 264.26386817529766 64.74082152368024 256.70741053713255 49.764746915756454 258.4945260389271 67.99659975906509 M 258.4945260389271 67.99659975906509 C 259.6305254373381 86.22841535418917 252.63003310030768 71.03700337782686 252.13767353988572 78.95187775564091 C 251.64531397946377 86.86675213345495 260.4745703980614 72.66005927793653 257.08778443772155 90.6105265528195 M 257.08778443772155 90.6105265528195 C 260.149432035937 110.92948366799381 250.81437019474922 94.59291910598549 251.0391360847019 103.51055858011833 C 251.2639019746546 112.42819805425117 259.7641190817325 95.64210171233749 257.7299726947292 116.08949647891335 M 257.7299726947292 116.08949647891335 C 255.17848439347884 137.4499801939264 264.4224536333585 120.05536715229036 264.47353087285904 129.394194122671 C 264.5246081123596 138.73302109305163 255.09092341147792 121.44056253041673 257.8759076647308 142.77185925142945 M 257.8759076647308 142.77185925142945 C 260.5208396245419 160.76847086146833 252.30974926476725 146.2769953657573 252.48005625306843 154.17180131868696 C 252.6503632413696 162.06660727161662 260.2288847874542 147.2345177993032 258.362499059877 165.32844768837134 M 258.362499059877 165.32844768837134 C 259.3738600996885 183.68506355715388 252.43850965525215 168.34586481313104 251.88573971023652 176.30778801259646 C 251.3329697652209 184.26971121206188 260.3214657197153 170.03605235807032 256.78315635983233 188.07679968684394 M 256.78315635983233 188.07679968684394 C 254.72048946851808 205.60672471573486 262.2800494775811 191.3211323935781 262.3354350874937 198.9835513924788 C 262.3908206974063 206.6459703913795 254.6255427086679 192.47114928904793 256.9414009595826 209.9694253979888 M 256.9414009595826 209.9694253979888 C 253.30469043056854 227.60142612062475 262.24200504436783 213.74932206320182 261.6248374707806 221.54046832605343 C 261.0076698971934 229.33161458890504 254.36269198528944 214.24517538430766 255.17806503504775 232.22984329185059 M 255.17806503504775 232.22984329185059 C 258.0490260616077 251.36076739413778 249.2697459820192 235.97552700020086 249.47634097256804 244.3711306687701 C 249.68293596311688 252.76673433733933 257.6948632206669 236.96830396230476 255.76833643661584 256.2172823449056 M 255.76833643661584 256.2172823449056 C 254.28880974036088 275.3557996026379 261.88253055087466 259.50383215902775 262.2757315186735 267.8277833383108 C 262.6689324864724 276.1517345175938 253.61475093842 261.0861690095813 256.891767773184 280" stroke-miterlimit="10" stroke-width="0.1"/><path fill="none" stroke="#000000" paint-order="fill stroke markers" d="" stroke-miterlimit="10" stroke-width="0.1"/><path fill="none" stroke="#000000" paint-order="fill stroke markers" d=" M 0 23.46341196303289 C 19.38515364436265 24.190745952639226 3.073794467661253 17.157702263763095 11.463486329288582 16.42719940151245 C 19.853178190915912 15.696696539261804 5.0028247387158 25.44303657364033 23.970548176078083 21.376260928031048 M 23.970548176078083 21.376260928031048 C 42.455190851453345 24.66576204456143 27.760215551792975 15.742883129361362 35.89995784130626 16.164572081654242 C 44.03970013081955 16.58626103394712 28.501346926573422 23.94286669777363 47.226954717544615 22.581086506010706 M 47.226954717544615 22.581086506010706 C 63.114636162746464 25.348992883275045 50.46453873047694 17.730470498505653 57.45750415795504 18.067308860124037 C 64.45046958543315 18.40414722174242 51.126695429926855 24.771555691929244 67.20685593891064 23.543481824920377 M 67.20685593891064 23.543481824920377 C 86.18903368202294 20.56783610891921 70.96542626896591 29.38730008914966 79.30259145070666 29.127600736116744 C 87.6397566324474 28.867901383083826 71.8967505133245 21.013034999832783 91.02732788674135 22.801483673397755 M 91.02732788674135 22.801483673397755 C 109.9618992975691 21.669966853907514 94.16895927169371 28.899081758746053 102.38631786202284 29.431212974010215 C 110.60367645235196 29.963344189274377 95.87499885700488 20.75774191345467 114.5054952876817 24.3218585741525 M 114.5054952876817 24.3218585741525 C 133.85594566655098 26.336686950832377 118.00008126764901 18.215799903887408 126.44415065113701 18.041778645748856 C 134.888220034625 17.867757387610304 119.38039815200014 26.635009107641327 138.63140781193312 23.82465497947092 M 138.63140781193312 23.82465497947092 C 157.01806859208807 27.02074622677591 142.37585764621818 18.210034365256558 150.46836258790904 18.59676116824113 C 158.5608675295999 18.983487971225703 143.14520297776087 26.357785993088065 161.75285050247842 24.92958870228399 M 161.75285050247842 24.92958870228399 C 182.98789084468038 23.74249970975744 165.24908583463596 31.77998903964306 174.46040800472053 32.412052876673265 C 183.6717301748051 33.044116713703474 167.1970528388211 22.658961703419944 188.0709138455772 26.73548537951315 M 188.0709138455772 26.73548537951315 C 206.56997627230555 28.02778110356236 191.20207463205378 20.80543872111019 199.24048667793943 20.366016594646013 C 207.27889872382508 19.926594468181836 192.7898413365016 28.781076177500946 211.03780540525045 25.479993589615507 M 211.03780540525045 25.479993589615507 C 231.87789263234728 27.360665403906776 214.7057326770148 18.861601387356814 223.78426796484143 18.549578395130915 C 232.86280325266807 18.237555402905016 216.31468928178734 27.895561962008316 236.97647765618368 24.588499326112938 M 236.97647765618368 24.588499326112938 C 254.49909742605016 20.84460273528679 240.77584172566816 29.837257902101875 248.52564159680898 29.168028127508038 C 256.2754414679498 28.4987983529142 241.2137262183802 21.991853777447655 259.1187630023003 22.67641425584483 M 259.1187630023003 22.67641425584483 C 275.8791338521708 24.321487941929078 262.1124954226784 17.373033128853827 269.42092837187334 17.179198747866323 C 276.72936132106827 16.98536436687882 263.35039165355096 24.653775452193372 280 22.122601738737675" stroke-miterlimit="10" stroke-width="0.1"/><path fill="none" stroke="#000000" paint-order="fill stroke markers" d=" M 0 45.45734462509042 C 19.464915328270127 42.192639908965226 3.924736107927046 51.418590544392245 12.485414503280918 51.060367030506704 C 21.04609289863479 50.70214351662116 4.789466650520628 42.80673736134043 24.459081129582493 44.43384887113174 M 24.459081129582493 44.43384887113174 C 42.91044236143121 47.41862171084191 28.143089556602973 38.76694234024711 36.252086778614505 39.05915580486887 C 44.361084000626036 39.35136926949063 29.009304266554295 46.91768434291889 47.62764462104401 45.268744484336764 M 47.62764462104401 45.268744484336764 C 64.12052489852859 46.50413749838308 50.446772504707084 39.99396460229864 57.61791901730293 39.63805573186942 C 64.78906552989878 39.282146861440204 51.8271308769357 47.114266990547456 68.11663465703215 44.25186199739615 M 68.11663465703215 44.25186199739615 C 86.04586614055543 48.71362879318837 72.2128759678476 38.97352826915424 80.17648620360028 39.93009996284425 C 88.14009643935296 40.88667165653427 72.3939628792651 47.07379160400549 90.86980675918268 46.984923979367615 M 90.86980675918268 46.984923979367615 C 108.9678357542632 48.81256691622655 94.11943135296318 41.265769894843444 102.0139169243672 41.078552983293726 C 109.90840249577121 40.89133607174401 95.4344319175706 49.133510193168924 113.425479820337 46.450018517797 M 113.425479820337 46.450018517797 C 132.9560908212924 44.41031750194323 116.9546240718744 52.612033546565165 125.47764040390886 52.78504139363345 C 134.00065673594332 52.95804924070173 118.34520568066192 44.11373262125475 137.77695505472116 46.944326652277816 M 137.77695505472116 46.944326652277816 C 156.65517516391552 51.81546390547045 142.1473018544287 41.411927753164754 150.5417502150997 42.493744256352656 C 158.93619857577073 43.57556075954056 142.26469225990806 49.96092132857691 161.76109322806695 50.03523094710039 M 161.76109322806695 50.03523094710039 C 181.43509790522737 52.5268802457338 165.4606856027384 43.891839682147605 174.0698071951339 43.905796051250285 C 182.6789287875294 43.919752420352964 166.67660374683504 52.50295504155778 186.35858349205412 50.07510628739376 M 186.35858349205412 50.07510628739376 C 207.16754645791747 49.736233403706734 189.2878047409223 43.14261403876162 198.23341870940337 41.876155406088415 C 207.17903267788444 40.60969677341521 191.83220822623565 51.907305345432235 211.91748054485717 46.456653051184595 M 211.91748054485717 46.456653051184595 C 231.00603297531995 43.03823740172064 215.83805261490133 52.27094426018525 224.24488219684105 51.82624111128724 C 232.65171177878076 51.381537962389224 216.59432512056614 43.80058565697438 235.93699363611353 45.186072625761696 M 235.93699363611353 45.186072625761696 C 254.4769567699002 42.94688824881441 239.3873338495803 50.99125656107576 247.49435097366248 51.024990536671595 C 255.60136809774465 51.05872451226743 240.57921312861646 42.889058576364405 259.0998997049198 45.282455413178376 M 259.0998997049198 45.282455413178376 C 275.77889855296473 47.70111654684034 262.3376182192299 40.11905242143719 269.652653322508 40.26283727950454 C 276.9676884257861 40.40662213757189 263.2388383759166 47.454628218724885 280 45.693269293370804" stroke-miterlimit="10" stroke-width="0.1"/><path fill="none" stroke="#000000" paint-order="fill stroke markers" d=" M 0 69.31381869398547 C 18.344658147073783 65.37542855670866 3.983840620748502 74.80605629180018 12.09822206072596 74.09730828673875 C 20.212603500703416 73.38856028167733 4.434289964255281 66.59042513681395 23.183946971364165 67.28882439380996 M 23.183946971364165 67.28882439380996 C 42.27307857612566 69.74334918195126 26.78577825121451 61.333465255117204 35.140955508011686 61.36292269282937 C 43.49613276480886 61.39238013054154 27.94991756447336 69.69285071730182 47.05588199078467 67.37298850155902 M 47.05588199078467 67.37298850155902 C 63.073771234420704 70.28746714761702 50.36097797085836 62.50072586154943 57.417925264443156 62.89369185750171 C 64.47487255802795 63.28665785345399 50.976147302561046 69.61381115455598 67.2185885438841 68.4957484899941 M 67.2185885438841 68.4957484899941 C 85.92041031939831 73.16489475968213 71.49634164643298 62.99217497289379 79.8039265950223 63.99647834730864 C 88.11151154361163 65.00078172172348 71.6788361218166 71.44323183211381 90.9545455398536 71.36518670260794 M 90.9545455398536 71.36518670260794 C 109.64163310062999 75.38534325891857 95.01547935197752 65.77163446765807 103.28177165426715 66.49716642325778 C 111.54806395655677 67.22269837885749 95.4708462967049 74.14157419217625 114.5725235463954 73.43813514717851 M 114.5725235463954 73.43813514717851 C 134.30100050985453 74.96726328995298 117.96170487289561 67.13604995705523 126.54246338791971 66.73244870514105 C 135.1232219029438 66.32884745322687 119.59112876981322 75.6591511503773 139.08897644646424 72.284988713138 M 139.08897644646424 72.284988713138 C 156.42230421344917 74.96321382752093 142.50818342716565 66.94309012231433 150.1190598175644 67.16345406105702 C 157.72993620796314 67.38381799979972 143.37508754419417 74.5854470753906 160.8343375618892 72.91459996668854 M 160.8343375618892 72.91459996668854 C 178.70303006288952 73.06181497300287 163.49460989104708 67.02570233266515 171.19981977643337 66.12695766225438 C 178.90502966181967 65.22821299184362 165.49409883079875 74.60252012227848 182.8492229487072 70.3467580512292 M 182.8492229487072 70.3467580512292 C 203.9727230708723 65.80392103309404 187.43913444179142 76.66980883514098 196.78310264154675 75.85031366467626 C 206.12707084130207 75.03081849421154 187.95449187129174 67.20876989674784 209.54627494800812 68.00534327847286 M 209.54627494800812 68.00534327847286 C 228.79818294150627 68.51026588169653 212.52702820812414 61.71120086109463 220.84734594549693 60.89206478283339 C 229.16766368286972 60.07292870457214 214.53478110601006 69.91449915871581 233.3186113405018 65.66495448344074 M 233.3186113405018 65.66495448344074 C 253.22617857167964 70.04786217378275 237.67790986417168 59.72072260017806 246.48948000862055 60.53679844664658 C 255.3010501530694 61.3528742931151 238.12062975262444 68.64887500840814 258.4945260389271 67.99659975906509 M 258.4945260389271 67.99659975906509 C 275.9405697032585 67.77936832674281 261.11618589440525 73.735464992543 268.64310178078074 74.58129072669894 C 276.17001766715623 75.42711646085488 263.03728532661484 66.32938135390405 280 70.41324471379635" stroke-miterlimit="10" stroke-width="0.1"/><path fill="none" stroke="#000000" paint-order="fill stroke markers" d=" M 0 92.72196417090632 C 18.422102805039287 95.02627622891592 3.4546567060781506 86.96528346694858 11.514410102141746 86.96595081781983 C 19.57416349820534 86.96661816869108 4.605382697501696 95.02513219885091 23.027866845895986 92.72387088768133 M 23.027866845895986 92.72387088768133 C 42.08301046817052 94.0847630614297 26.26299063277596 86.61991531493837 34.544639002496055 86.18009959473827 C 42.82628737221615 85.74028387453816 27.885898977221785 94.83873286748702 46.68971933081055 91.46725454425247 M 46.68971933081055 91.46725454425247 C 65.42937441545797 89.62186925302743 50.038988670279615 97.39604568353373 58.21082237627062 97.61016883187165 C 66.38265608226163 97.82429198020957 51.4205166337591 89.25480099873384 70.037815633642 92.07903496807509 M 70.037815633642 92.07903496807509 C 88.15072354061718 94.92329294198022 73.62587981141469 86.50354159503097 81.58151556993735 86.75344998879913 C 89.53715132846001 87.0033583825673 74.5124908117212 94.49487855266338 92.76820351513533 92.79305895026984 M 92.76820351513533 92.79305895026984 C 112.71102665929368 98.78826699218794 97.66595417314679 87.07280939332857 106.5795276528875 88.58151622670015 C 115.49310113262823 90.09022306007172 97.43061497973814 96.20191242069382 118.23555631439454 97.10364990276007 M 118.23555631439454 97.10364990276007 C 135.01507376178276 97.50846659179665 120.82184823077108 91.61266734009855 128.07174587597873 90.8835374359011 C 135.3216435211864 90.15440753170365 122.58667779856961 98.75840357042085 138.94954958641642 95.02042160505306 M 138.94954958641642 95.02042160505306 C 156.20510078654834 97.85431016079315 142.4088778994882 89.72699992007911 149.99463241562336 90.01860684869851 C 157.5803869317585 90.31021377731791 143.20095018745954 97.3544125688742 160.62313391823113 95.85358425825133 M 160.62313391823113 95.85358425825133 C 176.85097750413138 92.30734077528909 164.1678839020733 100.70295847377002 171.34929117277446 100.04915285881168 C 178.53069844347561 99.39534724385334 164.53999361150082 93.42815040093195 181.1414404059487 93.98556821551323 M 181.1414404059487 93.98556821551323 C 202.61382841217926 93.77900960362506 184.211389266004 86.85297361633023 193.44991094343243 85.60778901395061 C 202.68843262086085 84.36260441157098 186.77636267944484 95.91361177913298 207.53721662717274 90.427897923 M 207.53721662717274 90.427897923 C 228.61274544744376 91.14662647275385 210.85521951351552 83.56180640895131 219.97260961954208 82.73657638621529 C 229.08999972556865 81.91134636347927 212.98293383711248 92.56130651172987 233.58690264439147 88.07009785803996 M 233.58690264439147 88.07009785803996 C 252.13356520957757 92.4525289931966 237.74714208708585 82.57594171392438 245.97245071475137 83.46509175709721 C 254.1977593424169 84.35424180027005 238.03303613357954 90.92827177632888 257.08778443772155 90.6105265528195 M 257.08778443772155 90.6105265528195 C 275.2728102048153 94.05972157087963 260.8864834788859 85.09959268634344 268.90575892568336 85.60620607589507 C 276.9250343724808 86.1128194654467 261.5254808674482 93.1912414745054 280 92.05799338010986" stroke-miterlimit="10" stroke-width="0.1"/><path fill="none" stroke="#000000" paint-order="fill stroke markers" d=" M 0 116.31964229492077 C 18.033652280023876 116.14131541702824 2.5767025967005788 110.32860184322088 10.335442900824342 109.28074129612743 C 18.094183204948106 108.23288074903398 4.732954615811706 117.93764778347416 22.16782944035361 113.32575501751091 M 22.16782944035361 113.32575501751091 C 41.81833145957417 115.92281472964588 25.898853332561252 107.20554384600383 34.50352664841738 107.26617330558086 C 43.1081999642735 107.3268027651579 27.06746291810653 115.81887851322811 46.75261034279968 113.49898204487386 M 46.75261034279968 113.49898204487386 C 68.41470453539101 111.58152283739037 50.55284523188449 120.38389223979108 59.987456687557554 120.7243302684762 C 69.42206814323062 121.06476829716131 52.24108489709432 110.99791478821591 73.70864307329416 114.4716621268313 M 73.70864307329416 114.4716621268313 C 91.45097529787108 113.68399359792929 76.56228968106146 120.22515892381338 84.24755340628163 120.84121190807127 C 91.93281713150179 121.45726489232916 78.27623748320792 112.62790276777291 95.66653943106607 116.23181351042527 M 95.66653943106607 116.23181351042527 C 114.18864930599874 121.4745153689878 100.10774148908075 110.87151051573744 108.36879584297435 112.13256078462184 C 116.62985019686795 113.39361105350625 100.02684184218116 119.3127149080431 119.26955187076206 119.83481427866643 M 119.26955187076206 119.83481427866643 C 137.3042618368871 115.6051044487777 123.30445196338967 125.18195306155481 131.3010037088683 124.33102397916332 C 139.29755545434693 123.48009489677183 123.59588741606657 117.06384001859169 142.1168425721296 117.40358832897645 M 142.1168425721296 117.40358832897645 C 161.1051785298569 118.71053105452866 145.32435734440318 111.31384575669352 153.57432205756928 110.85438760997685 C 161.82428677073537 110.39492946326018 146.96238187871498 119.49817359175724 165.68817032403274 116.09085076692882 M 165.68817032403274 116.09085076692882 C 181.43911338379814 117.24150031007274 168.37083069703837 111.04909530346592 175.2178103751066 110.69663201883284 C 182.06479005317485 110.34416873419977 169.70143393568117 117.84572308372942 185.2509694042277 115.08381281083435 M 185.2509694042277 115.08381281083435 C 203.41463871253677 116.75014477841472 188.45683087702636 109.31937071180924 196.37090630039845 109.05913151970415 C 204.28498172377053 108.79889232759906 189.84765227247036 117.19626910773775 207.86261347100506 114.34027226196265 M 207.86261347100506 114.34027226196265 C 227.28405730889824 117.7913403187013 211.84263931223376 108.42064309310594 220.39462647622753 108.86148697242987 C 228.9466136402213 109.30233085175381 212.62350788490895 117.03560795414597 232.29686251098724 115.59982620288818 M 232.29686251098724 115.59982620288818 C 252.69231768558333 113.44825140533412 235.98941146954223 122.03155429022745 244.89100003385192 122.20293888683625 C 253.79258859816161 122.37432348344505 237.43245157533815 113.15444923971901 257.7299726947292 116.08949647891335 M 257.7299726947292 116.08949647891335 C 275.68476481176646 117.20633702687547 260.72355110846826 110.31383424336472 268.51806066531304 109.82813828849255 C 276.31257022215783 109.34244233362038 262.32274842860403 118.03895866379918 280 114.70179375070715" stroke-miterlimit="10" stroke-width="0.1"/><path fill="none" stroke="#000000" paint-order="fill stroke markers" d=" M 0 135.28496558077316 C 19.05190172178859 132.45471014611886 3.720670126185519 141.1730957406076 12.08004154512968 140.97978041531437 C 20.43941296407384 140.78646509002112 4.72155071788431 132.78610784662155 23.88391833984046 134.73263607993536 M 23.88391833984046 134.73263607993536 C 43.713872442738484 133.29959775297957 27.256147386103244 141.08233068156963 35.875445063418475 141.53278862319087 C 44.494742740733706 141.9832465648121 28.937933567340945 132.5273841387717 48.51048313216969 136.01965877028175 M 48.51048313216969 136.01965877028175 C 67.92497848057299 138.81206201289922 52.27162737103288 130.00606155203857 60.785154772639856 130.16354704548286 C 69.29868217424684 130.32103253892714 53.33036007781817 138.54208688128045 72.83484713676106 136.46961732297967 M 72.83484713676106 136.46961732297967 C 92.04205092895249 141.24337721896651 77.22106673352314 130.81416866882213 85.7519877460972 131.8363234967446 C 94.28290875867125 132.85847832466706 77.41761490739695 139.49111179967082 97.20890717268695 139.39005968847246 M 97.20890717268695 139.39005968847246 C 114.0684948926522 143.62197198766427 101.07278713841454 134.43193708636585 108.56325097235604 135.34709073801957 C 116.05371480629755 136.2622443896733 101.22769974875247 142.05313715625786 118.61023241251982 142.0047844074831 M 118.61023241251982 142.0047844074831 C 139.84386438841008 141.72290818951876 121.62037341382327 134.94015499898615 130.75199077631638 133.6753819833151 C 139.88360813880948 132.41060896764407 124.18966319556475 143.89109050209768 144.7005677339287 138.39114721985155 M 144.7005677339287 138.39114721985155 C 163.23957041970263 138.97398263726834 147.60289830299507 132.34419920017956 155.6203136747278 131.5970127738328 C 163.63772904646055 130.84982634748604 149.49542978244648 140.25487365386275 167.60746879602226 136.25632885886083 M 167.60746879602226 136.25632885886083 C 184.17657583138921 133.5737409469656 170.91642505666434 141.3448091065129 178.19833359023215 141.08141546175472 C 185.48024212379997 140.81802181699652 171.69330405955867 134.0252729094082 188.41292174907315 135.50377558812312 M 188.41292174907315 135.50377558812312 C 207.00180846256907 134.636514641535 191.41662227414787 141.52565382423964 199.47084137093165 142.1530045472053 C 207.52506046771543 142.780355270171 193.1945757252255 133.56105625930815 211.4249763113125 137.29620622516788 M 211.4249763113125 137.29620622516788 C 229.91897888158724 137.78747687277368 213.9654487035292 143.48525432383192 221.90564292969955 144.69270951043075 C 229.8458371558699 145.90016469702957 216.3072173510095 135.7175536957471 234.11124552894205 140.7460781868788 M 234.11124552894205 140.7460781868788 C 253.3255533440281 139.99023682494044 237.1694995831727 146.9911108805086 245.48713133069876 147.7001342531013 C 253.80476307822482 148.40915762569404 239.06675606255487 138.77476818621005 257.8759076647308 142.77185925142945 M 257.8759076647308 142.77185925142945 C 275.646518080699 144.4135761029332 261.01618014563894 137.1338313459828 268.75961246298317 136.88415342884767 C 276.5030447803274 136.63447551171254 262.3720626795375 144.8415953894506 280 142.0584937739005" stroke-miterlimit="10" stroke-width="0.1"/><path fill="none" stroke="#000000" paint-order="fill stroke markers" d=" M 0 158.14415352645278 C 18.031391521880263 162.03302382882492 3.9216758609055917 152.74829737494676 11.89844522507405 153.45258196171352 C 19.87521458924251 154.15686654848028 4.356929754734332 160.82567882293904 22.790769611909884 160.15639520292922 M 22.790769611909884 160.15639520292922 C 41.39024021329438 158.58885177660554 26.02764891005007 166.0794252856937 34.12413473821774 166.40568576519806 C 42.22062056638541 166.7319462447024 27.5105502221498 158.0295480974552 45.923586263817526 161.08856800151307 M 45.923586263817526 161.08856800151307 C 65.54737156916272 158.11310610359374 49.77586920544899 167.14463717127748 58.38940928533181 166.9195651009231 C 67.00294936521462 166.69449303056874 50.78130286079217 158.49894393848692 70.53370077776843 160.44550494335775 M 70.53370077776843 160.44550494335775 C 89.0704224469994 165.3760135695631 74.87377449040089 155.0347405750575 83.12431275086529 156.1605208164643 C 91.37485101132968 157.2863010578711 74.92664257191758 163.4461045842943 94.10666723623814 163.66201991880573 M 94.10666723623814 163.66201991880573 C 114.00324315671239 166.93255424346674 98.09642045507995 157.55884597717625 106.84335885368907 157.8963374443893 C 115.59029725229819 158.23382891160236 99.00849161623961 166.35399744253007 119.09791980369276 164.62628125370017 M 119.09791980369276 164.62628125370017 C 138.88971875466484 160.16127408897742 123.46745432793544 170.52022139802378 132.2335758003008 169.66254594750325 C 140.99969727266614 168.80487049698272 123.86208194489566 161.63157486129833 144.14398115330806 162.17577996649865 M 144.14398115330806 162.17577996649865 C 160.95990443926675 158.92718069286545 147.6762297009961 167.26317469801552 155.09493661583545 166.7692508801559 C 162.5136435306748 166.2753270622963 148.24212115668496 159.77390723776765 165.3402866242777 160.76456905832836 M 165.3402866242777 160.76456905832836 C 183.91570575998588 163.05102071424315 168.8114434302992 154.9545656631509 176.93627907023043 154.93928380762222 C 185.06111471016166 154.92400195209353 169.9874160915323 163.07721818086375 188.55410273836696 160.7209066139607 M 188.55410273836696 160.7209066139607 C 204.04947402139146 159.2966963546511 191.28989578088834 165.63814484660045 198.04151319369248 165.85900503475304 C 204.79313060649662 166.07986522290562 192.47527274229864 158.91807888924671 207.84443820352166 161.35193572296805 M 207.84443820352166 161.35193572296805 C 227.92241002582924 161.94096823103536 210.584077178729 168.0792003846027 219.20133252098094 169.41405902466363 C 227.8185878632329 170.74891766472456 213.14997229625448 159.65263913378806 232.46516775281293 165.1658175517136 M 232.46516775281293 165.1658175517136 C 253.19929581212995 162.70618853033338 236.3091099147081 171.66454489897828 245.37317587218052 171.72146544680848 C 254.43724182965295 171.77838599463868 237.6608970278915 162.60861044833874 258.362499059877 165.32844768837134 M 258.362499059877 165.32844768837134 C 275.74858165555924 163.7733523430296 261.4179195919359 170.85194568877782 268.99104492097894 171.1182321413212 C 276.56417025002196 171.38451859386456 262.76608109148543 163.31686128152668 280 166.08926612420953" stroke-miterlimit="10" stroke-width="0.1"/><path fill="none" stroke="#000000" paint-order="fill stroke markers" d=" M 0 185.7761692386511 C 18.48919348451223 185.93092188946585 2.7534541553135945 179.6831306273546 10.726362645224272 178.75422135084722 C 18.69927113513495 177.82531207433985 4.821350358951063 187.52333779204994 22.779738542601937 183.12214273434432 M 22.779738542601937 183.12214273434432 C 40.592753809576415 186.3810732340841 26.46113316999675 177.70645060369165 34.30991292729482 178.15113522766555 C 42.158692684592886 178.59581985163945 27.137702797065433 185.61875673584314 45.204823563453566 184.39267023141258 M 45.204823563453566 184.39267023141258 C 64.51055581542686 181.02394077128113 49.14070263709314 190.28605967058454 57.63841119348871 189.87445410132648 C 66.13611974988427 189.46284853206842 49.94305543303444 181.7295503185807 69.48399086744091 183.2166543192467 M 69.48399086744091 183.2166543192467 C 90.86348735889794 187.1677776881679 73.91559654591241 176.72244658753016 83.33797860055888 177.27326530460238 C 92.76036065520536 177.8240840216746 74.7108324080754 186.22351703032982 96.40508245214514 184.79042208231016 M 96.40508245214514 184.79042208231016 C 114.37478825671175 183.7034855631488 99.39094922607363 190.57538789563552 107.19027292368793 191.07476863070423 C 114.98959662130223 191.57414936577294 101.00451906080151 182.84740430303106 118.68886444532886 186.21722418250644 M 118.68886444532886 186.21722418250644 C 138.66624742407114 182.9848426374965 122.677808160956 192.35270278812746 131.45750137345323 192.03599751374776 C 140.23719458595045 191.71929223936806 123.61534477407594 183.52776596500456 143.7737021953209 185.31235196999305 M 143.7737021953209 185.31235196999305 C 160.76656115725893 190.00458319931988 147.8093196040738 180.37742472379207 155.38197899233393 181.48369346309005 C 162.95463838059405 182.58996220238802 147.784859348813 188.1081225033805 165.40987187606413 188.47311979655868 M 165.40987187606413 188.47311979655868 C 181.58644827786404 191.28301321635118 168.70356701979702 183.53308279424067 175.8232403462535 183.87245199959284 C 182.94291367270998 184.211821204945 169.38129400393865 190.7012374357475 185.7517956659398 189.44274609756485 M 185.7517956659398 189.44274609756485 C 203.88794403835078 190.46342101824217 188.74007136336235 183.5930418166356 196.60752546566818 183.0561553316437 C 204.474979567974 182.5192688466518 190.4008798629694 191.38379784965687 208.23023595824213 187.90878471187372 M 208.23023595824213 187.90878471187372 C 226.70488277847292 186.55397464401312 211.37850613133745 193.8216187271089 219.4097668421678 194.23279691127368 C 227.44102755299818 194.64397509543846 212.9370072741923 185.84909775687348 231.1766951320432 189.0835795237731 M 231.1766951320432 189.0835795237731 C 251.76254209796744 190.83880177700868 234.76596935697927 182.53094724128644 243.72823078670547 182.17857429836124 C 252.69049221643166 181.82620135543604 236.39866536129395 191.44286967916617 256.78315635983233 188.07679968684394 M 256.78315635983233 188.07679968684394 C 275.6649138109035 188.22137563432338 259.4949765585149 194.34343440529142 267.6208718325736 195.422423291571 C 275.74676710663226 196.50141217785057 261.7348076268029 186.37168040070122 280 191.15962507621418" stroke-miterlimit="10" stroke-width="0.1"/><path fill="none" stroke="#000000" paint-order="fill stroke markers" d=" M 0 209.15202767460093 C 17.42732356131238 207.16284113505517 3.205032068195403 214.62572281987065 10.819296877505508 214.70723680998316 C 18.43356168681561 214.78875080009567 4.3742981739236315 207.0231028662909 21.755042312314586 209.38492478920807 M 21.755042312314586 209.38492478920807 C 39.306911923537044 213.2476400529222 25.597982919644853 204.1438570717312 33.366780650986826 204.86269528318837 C 41.1355783823288 205.58153349464556 25.98897295552223 212.01534597613843 43.95160725900594 211.43874825051432 M 43.95160725900594 211.43874825051432 C 66.4174257499256 208.47250826110442 48.21621395802209 218.43622236828938 58.05351792277109 218.36815536851617 C 67.89082188752009 218.30008836874296 49.55347609607017 208.58919454642992 72.05819001543166 211.24427110830516 M 72.05819001543166 211.24427110830516 C 92.92897948550252 213.62541540159307 75.8961454349911 204.6888695264546 85.01485482250635 204.59078148132863 C 94.1335642100216 204.49269343620267 77.29690624976207 213.7935663360947 98.1116454083324 210.96401955080245 M 98.1116454083324 210.96401955080245 C 114.6077774817795 212.0388877220105 100.87815187569731 205.6647027515311 108.04205551655497 205.23946962132743 C 115.20595915741262 204.81423649112375 102.32679981173781 212.76785880235968 118.57994152506853 209.7490677502205 M 118.57994152506853 209.7490677502205 C 135.27131764552132 211.8641363075987 121.71904994242136 204.53719951491834 129.02306950124446 204.54953956391842 C 136.32708906006758 204.5618796129185 122.75014125896743 211.84298193788428 139.4485688359917 209.78432503307786 M 139.4485688359917 209.78432503307786 C 158.76720474686482 210.00558915162074 142.19887441452437 216.20667397476907 150.50883412359434 217.34222199026533 C 158.8187938326643 218.47777000576158 144.5215595313163 208.05893541077003 163.1913108619059 213.02874793449573 M 163.1913108619059 213.02874793449573 C 177.7848847499295 215.2450314880299 166.0572962209399 208.52556109089676 172.46309716404804 208.69446002767944 C 178.86889810715618 208.86335896446212 166.8035117046012 214.9554904535453 181.49359927078635 213.51131632530337 M 181.49359927078635 213.51131632530337 C 201.30129601657754 212.97055985896824 184.20970473322961 206.8805060720004 192.71313336784468 205.5809965386519 C 201.21656200245974 204.2814870053034 186.7239897858088 215.19829048756569 205.78910965540084 209.79843194430765 M 205.78910965540084 209.79843194430765 C 225.67446752033263 213.41468752546902 209.89157726635193 203.74949708161535 218.6522990317697 204.2365186776962 C 227.41302079718747 204.72354027377708 210.65608735104502 212.57979336075894 230.81974327088017 211.18992221882445 M 230.81974327088017 211.18992221882445 C 251.8391191039257 212.8256905310262 234.43286771897664 204.4764332735235 243.5754479100225 204.04925938623103 C 252.71802810106834 203.62208549893856 236.16612449070422 213.55798862352756 256.9414009595826 209.9694253979888 M 256.9414009595826 209.9694253979888 C 275.2004626958997 213.77782527016512 260.8697345556873 204.4865018819097 268.94024421983335 205.14386311796858 C 277.0107538839794 205.80122435402745 261.3653032716493 212.65092029406418 280 211.84760035815702" stroke-miterlimit="10" stroke-width="0.1"/><path fill="none" stroke="#000000" paint-order="fill stroke markers" d=" M 0 231.47830086224192 C 17.470468847104456 235.4681105233224 3.873082488626502 226.28273334789606 11.613658819898907 227.0607030332097 C 19.354235151171313 227.83867271852336 4.200909422066042 234.13444820564186 22.115932375064016 233.70107139170952 M 22.115932375064016 233.70107139170952 C 40.454516594683035 236.79802633562747 25.82056439630427 228.08786387240815 33.88702132635112 228.4344745441164 C 41.953478256397965 228.78108521582465 26.626304714602718 236.20383661269904 45.16295217519787 234.6913875965902 M 45.16295217519787 234.6913875965902 C 65.2458593390118 238.89479097563793 49.488502801440305 228.6629234131895 58.36593837703195 229.39223294457392 C 67.2433739526236 230.12154247595834 50.02739835228327 237.6445460646932 70.52705381974543 236.7751291148314 M 70.52705381974543 236.7751291148314 C 91.72576590148772 238.8931317331611 74.32589722083222 230.0728016550879 83.57169641241587 229.84370290165919 C 92.81749560399953 229.61460414823048 75.87582443020143 239.28587245332463 96.94362293855589 236.12056124789223 M 96.94362293855589 236.12056124789223 C 112.7814996977372 232.28952645778043 100.52557797239629 240.7993230912205 107.55433444966503 240.00183993020516 C 114.58309092693378 239.20435676918984 100.73220287956222 233.6566404480924 117.02578430218085 233.8420379307056 M 117.02578430218085 233.8420379307056 C 134.42299825548008 232.5169004615291 120.0067687351599 239.4028270697634 127.57230676338291 239.76877168052656 C 135.13784479160594 240.13471629128972 121.45350449281204 231.88956684307797 138.6416072399609 234.88759396145747 M 138.6416072399609 234.88759396145747 C 157.6774082914792 239.17564730281435 142.84211888347778 229.21785217892284 151.27305143943565 230.04000894627174 C 159.70398399539351 230.86216571362064 143.2243810526943 237.7662357016448 162.72998597126906 237.23661329674007 M 162.72998597126906 237.23661329674007 C 179.8303588291047 232.7833006031061 166.70229004915473 242.24202169449305 174.30839827141807 241.24446091881111 C 181.91450649368142 240.24690014312918 166.79131616236756 234.49340478998946 184.46172374916432 234.38643965193452 M 184.46172374916432 234.38643965193452 C 202.2772423030442 235.81784287955452 187.53899445155952 228.7028193712264 195.29044723317963 228.36012668560764 C 203.04190001479975 228.01743399998887 188.9890375345526 236.40531605490096 206.60873169665035 233.40731769302374 M 206.60873169665035 233.40731769302374 C 226.08970402503684 235.1783482866495 210.04175315638307 227.2224543942412 218.5289198067294 226.93638444765918 C 227.01608645707572 226.65031450107716 211.54027548158598 235.66875390936156 230.85777926906843 232.58997498850368 M 230.85777926906843 232.58997498850368 C 250.27799471218657 229.86984105458328 234.5958550581286 238.61602667550056 243.10795507622134 238.48998058167197 C 251.6200550943141 238.36393448784338 235.68582325259896 230.08592007257514 255.17806503504775 232.22984329185059 M 255.17806503504775 232.22984329185059 C 274.85602712508154 236.1487238437697 259.35031998461056 226.2937383735045 268.03799722234385 226.92228896025244 C 276.72567446007713 227.55083954700038 259.9628661461102 235.07120855220177 280 234.0257021111304" stroke-miterlimit="10" stroke-width="0.1"/><path fill="none" stroke="#000000" paint-order="fill stroke markers" d=" M 0 256.82866645460837 C 16.71224417402665 260.2802145574933 3.5842246748504376 251.80522733515966 10.969197832278796 252.39215798549324 C 18.354170989707157 252.97908863582683 4.05229018986375 259.27404772834996 21.09992330693817 258.5056111698472 M 21.09992330693817 258.5056111698472 C 40.958874453797456 260.3101864614536 24.599283378702786 252.20062679465929 33.2510779268979 251.90865416621267 C 41.90287247509301 251.61668153776606 26.127226656891548 260.81071096736207 45.81933630178135 257.6714036599998 M 45.81933630178135 257.6714036599998 C 66.60682824075374 260.43052438637886 49.77014044081808 251.19879704788735 58.873320392103516 251.26801487176752 C 67.97650034338895 251.33723269564769 51.00137689569298 260.31186525972714 71.8284218768826 257.86916887108595 M 71.8284218768826 257.86916887108595 C 90.90126640222795 259.9665021589904 75.30972477966301 251.86699208555 83.63865267531432 251.7434594120518 C 91.96758057096562 251.6199267385536 76.62310429539713 260.1782724564159 95.62535872160063 257.51621837537675 M 95.62535872160063 257.51621837537675 C 111.46493879989147 259.44803097805567 98.57935844008308 252.55931449910284 105.50658284472185 252.53857946219503 C 112.43380724936061 252.51784442528722 99.58969696336787 259.483576755612 115.41742844913995 257.456975412783 M 115.41742844913995 257.456975412783 C 133.6766331392551 260.2589044028264 119.01287333901728 251.82690502152045 127.02924999729998 252.05070187237908 C 135.04562665558268 252.2744987232377 119.9342731536276 259.8752526584973 138.32136175851912 258.0963949866648 M 138.32136175851912 258.0963949866648 C 159.8332983105038 255.70189792912035 142.25743997361238 264.8619167377571 151.65305479141202 264.9887761273063 C 161.04866960921166 265.11563551685555 143.72653005141868 255.48442468989302 165.16597552366096 258.45885038537693 M 165.16597552366096 258.45885038537693 C 182.85619482727856 260.65042363719294 168.4763741128673 252.92777701406115 176.21478406490803 252.91928906772557 C 183.95319401694877 252.91080112139 169.5903491952087 260.6649744023397 187.2757182437774 258.4345991101324 M 187.2757182437774 258.4345991101324 C 203.36085321469974 254.70569315857998 190.86002993888724 263.2100728845183 197.98979840067582 262.4698975884377 C 205.1195668624644 261.72972229235705 191.13839299449072 255.9745650947182 207.6464852774591 256.3198125499021 M 207.6464852774591 256.3198125499021 C 226.69628747690908 252.25707589582007 211.7745154152674 262.0271163818159 220.19934679794255 261.3027730184894 C 228.62417818061772 260.5784296551629 212.25371939232306 253.49880737580833 231.71743208510244 254.25026008325497 M 231.71743208510244 254.25026008325497 C 250.7614533401481 258.2289683277268 235.8168233032421 248.5325873346242 244.2346398262718 249.22104512620191 C 252.6524563493015 249.90950291777963 236.33091072924006 257.0487549707364 255.76833643661584 256.2172823449056 M 255.76833643661584 256.2172823449056 C 274.9655156294599 260.14566196415007 259.8734651157816 250.4415939408544 268.35454736296606 251.1001247433758 C 276.83562961015053 251.7586555458972 260.4265174914294 259.0167520169705 280 258.09879892353814" stroke-miterlimit="10" stroke-width="0.1"/><path fill="none" stroke="#000000" paint-order="fill stroke markers" d="" stroke-miterlimit="10" stroke-width="0.1"/></g></g></svg>