<svg version="1.1" xmlns="http://www.w3.org/2000/svg" xmlns:xlink="http://www.w3.org/1999/xlink" width="1133.8500000000001" height="1133.8500000000001"><defs/><g transform="scale(3.7795,3.7795)"><g transform="translate(10,10)"><path fill="none" stroke="#000000" paint-order="fill stroke markers" d=" M 0 0 L 280 0 L 280 280 L 0 280 L 0 0" stroke-miterlimit="10" stroke-width="0.1"/><path fill="none" stroke="#000000" paint-order="fill stroke markers" d=" M 23.627716961336887 0 C 22.02181046021493 17.751700419682322 29.264723842298597 3.1256637501708333 29.528809525952035 10.859021973325168 C 29.792895209605472 18.592380196479503 21.569092145380466 4.494514894274888 24.38224748606099 22.095309209012388 M 24.38224748606099 22.095309209012388 C 21.045114015595782 38.606437912511886 29.355885934612065 25.61229524437004 28.807412292907795 32.9044732573641 C 28.258938651203525 40.19665127035817 21.985354544231676 26.105561318807776 22.815179938334506 42.93010353185257 M 22.815179938334506 42.93010353185257 C 20.15056222656421 60.14582307097595 28.120166120324274 46.327620707617704 27.89933108120679 53.88710238587387 C 27.678496042089304 61.44658406413003 20.529136579337038 47.18671162253681 22.184222683713124 64.52862261258447 M 22.184222683713124 64.52862261258447 C 18.958751522478448 81.87528509375528 27.45054987315071 68.13079066701013 26.995167198835738 75.77687833681173 C 26.539784524520766 83.42296600661334 19.739407535589827 68.76770623123824 20.88312932852749 86.37458738344618 M 20.88312932852749 86.37458738344618 C 22.72752626398855 102.91592563357358 15.6813293055912 89.40223734480962 15.585151310475258 96.62705057985086 C 15.488973315359315 103.8518638148921 22.892402827044453 90.53053151636003 20.608335056767658 107.01691091213544 M 20.608335056767658 107.01691091213544 C 17.836641113849094 125.52856716723197 26.326327626411484 110.6392517459226 26.129148649351762 118.7627487296598 C 25.93196967229204 126.886245713397 18.174662217380046 111.6025723379682 20.044966550882737 130.2269022942417 M 20.044966550882737 130.2269022942417 C 18.17863657395896 145.58865101329735 24.853389053635368 133.08940548400926 24.876602609986584 139.8072688540522 C 24.8998161663378 146.52513222409516 18.138841905928306 134.07231380750946 20.1112909976005 149.42079763722157 M 20.1112909976005 149.42079763722157 C 18.428170578094768 166.57347127447855 25.53887313938082 152.48445130758026 25.737442154522956 159.96392489698744 C 25.936011169665093 167.4433984863946 18.087766552136817 153.75151654978058 20.67863104086375 170.7907221783849 M 20.67863104086375 170.7907221783849 C 17.718768225410674 187.68639674091997 25.834604984674524 174.23912154571298 25.469354248308164 181.67663550886786 C 25.104103511941805 189.11414947202275 18.34491234489586 174.93637280408302 19.63505750838844 192.04076207311317 M 19.63505750838844 192.04076207311317 C 21.737548796578867 209.14438227358886 14.284993399581996 195.2359613746611 14.269717789853797 202.71688576115318 C 14.254442180125597 210.19781014764527 21.763735556112923 196.31994046817385 19.59141290916501 213.4148317488049 M 19.59141290916501 213.4148317488049 C 19.24741485388504 231.6599684065731 25.576066087885895 216.19521261707132 26.410312745645122 224.073179072625 C 27.24455940340435 231.9511455281787 17.8172777262978 218.15488305419535 21.974974788477084 235.92330733610117 M 21.974974788477084 235.92330733610117 C 20.40359756603136 253.1892663457982 27.45635994378864 238.9665568880197 27.709164471564936 246.4888133887901 C 27.96196899934123 254.0110698895605 19.97021837555771 240.29396948733464 22.697273439266503 257.41546876687374 M 22.697273439266503 257.41546876687374 C 20.02976540484975 275.43196188948673 28.266708451716045 260.93097811156275 28.08774692810799 268.8355640431569 C 27.908785404499934 276.7401499747511 20.336556588177846 261.88124314961095 22.185954800386348 280" stroke-miterlimit="10" stroke-width="0.1"/><path fill="none" stroke="#000000" paint-order="fill stroke markers" d=" M 45.4601514636527 0 C 44.12024161833141 18.597890726994606 51.4159284959578 3.1613542089362507 51.84016144788834 11.244902283005072 C 52.26439439981888 19.32845035707389 43.39298512930763 4.7403797428766214 46.67224561202568 23.09585164019663 M 46.67224561202568 23.09585164019663 C 47.4837357867143 39.64894555770336 41.315593880227944 25.783565962844627 40.77383843684345 32.95782512133076 C 40.23208299345895 40.13208427981689 48.41245940394486 27.350215571727134 45.124372916641406 43.59373495015701 M 45.124372916641406 43.59373495015701 C 42.59564977876332 59.96653600636708 50.17040911508255 46.82310660397816 49.96272535871561 54.01216753561594 C 49.75504160234867 61.20122846725371 42.95167907539236 47.642431552130894 44.530990755592995 64.13390904055065 M 44.530990755592995 64.13390904055065 C 44.515502312863255 79.70005267627232 39.3799257036861 66.40383770240706 38.535076794125196 73.10841942934017 C 37.690227884564294 79.81300115627329 45.96381472925337 68.20648400152982 42.11713672827613 83.28985683178813 M 42.11713672827613 83.28985683178813 C 39.68047897317136 101.93566408277394 47.928469147086886 86.82098468746688 47.88283696609484 94.98422938239716 C 47.8372047851028 103.14747407732744 39.75870556915773 87.94153032003629 41.98675906829885 106.61341310301754 M 41.98675906829885 106.61341310301754 C 40.556804772098566 124.82281204388613 47.80087462852611 109.74777167696458 48.16540041313276 117.66881799051876 C 48.52992619773941 125.58986430407295 39.9319034270586 111.24387550636467 43.02826131003213 129.24497399888662 M 43.02826131003213 129.24497399888662 C 39.936496493484896 146.43019071292701 48.26072890379627 132.7793201887197 47.85424957511656 140.34866241719735 C 47.44777024643685 147.91800464567498 40.633318199792974 133.4541754641082 41.86689179951867 150.8716660802513 M 41.86689179951867 150.8716660802513 C 40.354533710524024 167.2267477982191 47.05561264707033 153.76226569923713 47.2847935627786 160.8889663363845 C 47.51397447848687 168.01566697353186 39.96165214073843 155.00954670596644 42.521694415828 171.23366790067237 M 42.521694415828 171.23366790067237 C 39.90661283902914 187.33315361651478 47.464704691382195 174.4516581806982 47.20510339684497 181.5276333431964 C 46.94550210230774 188.60360850569464 40.35164362966439 175.20291048080358 41.77997643143593 191.4507397935244 M 41.77997643143593 191.4507397935244 C 43.500669072811796 209.26494727001506 36.13907057525933 194.6235069137743 35.92106546434867 202.3899720458751 C 35.70306035343801 210.15643717797593 43.874392120087215 195.9510070435565 41.15710468597689 213.64064017095535 M 41.15710468597689 213.64064017095535 C 40.052769664194045 231.4446224390075 46.88471139453357 216.6080407019527 47.367673814968384 224.33691264167115 C 47.8506362354032 232.0657845813896 39.22483408630579 218.1951276852044 42.53699731579064 235.72313142729382 M 42.53699731579064 235.72313142729382 C 45.65257242257715 252.98142152233945 37.283839261498194 239.27603328419912 37.696640610073004 246.87813536935343 C 38.109441958647814 254.48023745450774 44.944912967877485 239.94924651921778 43.716429740290096 257.4434230991633 M 43.716429740290096 257.4434230991633 C 43.280629402313956 275.7161667888461 49.69679721901944 260.2582042117552 50.49298481056648 268.15300612704806 C 51.28917240211353 276.04780804234093 41.915736388233306 262.18222064834407 45.99125143042451 280" stroke-miterlimit="10" stroke-width="0.1"/><path fill="none" stroke="#000000" paint-order="fill stroke markers" d=" M 65.68184952811953 0 C 68.14231957223743 17.035755260086482 60.40655302546201 3.30368893722087 60.549137915077374 10.774654974710625 C 60.69172280469274 18.24562101220038 67.89788833289681 4.228384910104039 66.08923492702057 21.34561724997073 M 66.08923492702057 21.34561724997073 C 65.98604937740761 37.55801435864875 71.43671608263985 23.749252047649495 72.2652421517354 30.738610024059184 C 73.09376822083094 37.72796800046887 64.56571897324383 25.576257827660704 68.45645226729354 41.315211468284126 M 68.45645226729354 41.315211468284126 C 64.33094919444403 58.31580941954407 73.47676883283229 45.16450372371849 72.61504586036496 52.70998069895313 C 71.75332288789762 60.255457674187774 65.80818857581659 45.380706033427536 65.9943866316726 62.87371711181167 M 65.9943866316726 62.87371711181167 C 65.95465537297927 80.20870584038624 60.254698868258146 65.39415050965094 59.30416139451316 72.85939089418419 C 58.35362392076817 80.32463127871743 67.58414818511353 67.4111508954721 63.278565278115494 84.20297535333525 M 63.278565278115494 84.20297535333525 C 60.64578383675633 101.90973524978307 68.75062549474188 87.66172950726566 68.56994517596513 95.43102200180867 C 68.38926485718838 103.20031449635168 60.955521526087914 88.59094811628074 62.76233579589619 106.40095390917243 M 62.76233579589619 106.40095390917243 C 65.75432279528191 124.55831716949726 57.19372912508358 110.0443796239398 57.50488088772455 118.02712002066204 C 57.81603265036553 126.00986041738427 65.22091977361167 110.87361934654486 63.651340832013254 129.2087836140931 M 63.651340832013254 129.2087836140931 C 67.31113273642076 146.80341417777097 58.36647107774859 132.99085309562696 58.99559363698763 140.76714428714092 C 59.624716196226665 148.54343547865489 66.23263692058241 133.4726292780328 65.44883385841051 151.4267584469901 M 65.44883385841051 151.4267584469901 C 68.6992517446175 170.32466112313614 59.6730502027463 155.26389783124912 60.05565084039683 163.57955533176934 C 60.438251478047356 171.89521283228956 68.04336493721658 156.0692482651015 66.54197853741202 175.18577987704785 M 66.54197853741202 175.18577987704785 C 64.54185393243169 190.96345172157635 71.46842101295124 178.1533269775109 71.45639582089586 185.05756155849903 C 71.44437062884049 191.96179613948718 64.56246854738377 179.12762101131096 66.50762084582523 194.9121643941568 M 66.50762084582523 194.9121643941568 C 64.27710923277684 213.50741464641695 72.33235961658883 198.36771634918776 72.37280655070506 206.49808246778704 C 72.4132534848213 214.62844858638633 64.20777163143471 199.5696441573896 66.62318351472877 218.14178187586904 M 66.62318351472877 218.14178187586904 C 64.02779133837663 232.9846337565673 71.1534156648775 221.16959763984144 70.83463105940956 227.7031934133304 C 70.51584645394162 234.23678918681938 64.57427923346452 221.78418385915762 65.71237035624895 236.80919837155184 M 65.71237035624895 236.80919837155184 C 67.25522872781549 253.74273750777675 60.33677132703428 239.79443032205674 60.089581287450834 247.1719549392072 C 59.84239124786739 254.54947955635768 67.67898308138712 241.09555244980453 65.00611310029625 257.8878401348389 M 65.00611310029625 257.8878401348389 C 63.18479173074992 275.62630485408897 70.60725830726837 261.08282204680995 70.77783720219264 268.82207799961634 C 70.94841609711692 276.56133395242273 62.89237076802259 262.35900893499235 65.49348137150848 280" stroke-miterlimit="10" stroke-width="0.1"/><path fill="none" stroke="#000000" paint-order="fill stroke markers" d=" M 87.79900134207654 0 C 91.61743676333396 18.01844321109479 82.39713376459049 3.8964857240374595 83.07177438853473 11.86388470688446 C 83.74641501247898 19.831283689731464 90.46090997942953 4.360044954785647 89.72654598191723 22.763997093848577 M 89.72654598191723 22.763997093848577 C 86.58211779113122 39.97354152570705 94.959363481494 26.31931829699557 94.53150834564009 33.90197587791539 C 94.10365320978619 41.48463345883521 87.31558373830933 26.974699958415933 88.50410273662037 44.42873303933378 M 88.50410273662037 44.42873303933378 C 85.89640700080106 60.64069550005813 93.48539632762481 47.66071921928757 93.23503306623397 54.78474820352833 C 92.98466980484312 61.90877718776909 86.32560116318538 48.42807438421683 87.78877913264651 64.78310156573595 M 87.78877913264651 64.78310156573595 C 89.24193220951925 83.80774517822921 81.7083963105186 68.04428472683517 81.30996605680645 76.31776252558696 C 80.9115358030943 84.59124032433874 89.92495550159722 69.624640380369 86.65040697918322 88.42160956216962 M 86.65040697918322 88.42160956216962 C 85.07766478784147 104.22950676824769 81.19177865997668 90.21177981361416 79.66309525107141 96.93664941516015 C 78.13441184216614 103.66151901670614 87.69826491739336 92.70115887988311 82.28274009659675 107.63552270944389 M 82.28274009659675 107.63552270944389 C 80.10655187692335 125.99908480715915 88.03878312758107 111.03924404254042 88.09015539206027 119.06688092723094 C 88.14152765653947 127.09451781192146 80.01848513781614 112.23742157626111 82.42951799510875 130.57162809427396 M 82.42951799510875 130.57162809427396 C 88.32970964872669 146.23175014702662 78.11196717318857 134.81201701818068 79.81035085190655 141.87561837609974 C 81.50873453062452 148.9392197340188 85.41819477092447 134.12271924773685 87.2820427914458 150.75334625975694 M 87.2820427914458 150.75334625975694 C 89.6424889287589 169.2771996821566 81.499910325644 154.24144163614199 81.51927963128043 162.34804867164638 C 81.53864893691686 170.45465570715078 89.60928440481074 155.38015904986332 87.33738366469275 173.91508064691237 M 87.33738366469275 173.91508064691237 C 85.85663555012135 192.29035568893204 93.19894222338499 177.0904836832581 93.55051938398606 185.08571936906657 C 93.90209654458712 193.08095505487503 85.2539318462338 178.58423737040323 88.34188983783868 196.75861117779374 M 88.34188983783868 196.75861117779374 C 87.64219913037866 214.28528955681514 94.03691327519391 199.55163879027214 94.67925226777382 207.1392682070215 C 95.32159126035373 214.72689762377087 86.54104657167024 201.27792484238765 90.17714410235271 218.43755236850623 M 90.17714410235271 218.43755236850623 C 86.5069090645571 234.25436012432328 94.87243846990668 221.96324047608883 94.14308840970796 228.97426262678363 C 93.41373834950923 235.98528477747843 87.75722345346921 222.2354650088465 88.09328678749921 238.46904422763424 M 88.09328678749921 238.46904422763424 C 83.59207919050758 253.3915869654563 92.37133596737235 242.13889221755161 91.23587576532022 248.80943719060528 C 90.10041556326809 255.47998216365895 85.53858239402551 241.95636701165003 84.84911478163598 257.5277441506447 M 84.84911478163598 257.5277441506447 C 84.22994649933996 275.7090559929589 90.7724394882197 260.38981462097314 91.4847145581245 268.2551041682475 C 92.19698962802929 276.12039371552186 83.00890352236031 262.22570248334574 86.88418640993537 280" stroke-miterlimit="10" stroke-width="0.1"/><path fill="none" stroke="#000000" paint-order="fill stroke markers" d=" M 106.27320476166926 0 C 106.46937116700768 17.52264170314568 112.09782595348999 2.4961156686939727 113.12585526595899 10.033767749761582 C 114.15388457842799 17.571419830829193 104.70703520277509 4.600952421315493 109.21043136872356 21.536148803050313 M 109.21043136872356 21.536148803050313 C 112.26220887147213 39.969000113617845 103.55944033947601 25.23961501473471 103.88151403932176 33.34424667558872 C 104.2035877391675 41.44887833644273 111.71008252887941 26.07534583786811 110.13064193971141 44.69223926263321 M 110.13064193971141 44.69223926263321 C 107.70363792165004 61.03352839945893 115.18112160540632 47.88335977322035 115.01555852037819 55.05336915621012 C 114.84999543535007 62.223378539199885 107.98746035312683 48.74208374290504 109.65760455391676 65.17798035688969 M 109.65760455391676 65.17798035688969 C 106.09232862433548 83.49712228832966 115.19593424922348 69.0346769851155 114.64653841432755 77.11797605948247 C 114.09714257943162 85.20127513384945 107.03415005558566 69.6400381608434 108.0879021684998 88.27312056936678 M 108.0879021684998 88.27312056936678 C 104.05950708661871 104.42228062026398 112.8407819810601 91.9658515654278 111.9750434869904 99.13932639945403 C 111.1093049929207 106.31280123348027 105.5436302193096 92.12489519050472 105.61436361401495 108.76876295229887 M 105.61436361401495 108.76876295229887 C 109.1426888073311 126.93957453112195 100.11969654311967 112.59155836237758 100.66116215676539 120.60897162981838 C 101.2026277704111 128.6263848972592 108.2144620410813 113.19543750122341 107.16140822443127 131.67565800212975 M 107.16140822443127 131.67565800212975 C 105.93284125067241 149.32819919219705 112.82076590651954 134.662016944306 113.24205850498089 142.33234214015278 C 113.66335110344224 150.00266733599955 105.21062536759581 136.17907028503117 108.36510136289226 153.59087284740625 M 108.36510136289226 153.59087284740625 C 107.25536983424199 170.42191883365692 113.77010196569552 156.41785999718107 114.19835086030582 163.72791150433943 C 114.62659975491613 171.0379630114978 106.5212288720529 157.89040196424256 109.58866963320742 174.47673429643018 M 109.58866963320742 174.47673429643018 C 110.1447663073408 193.08075792492153 103.51630671615669 177.37972357280765 102.75410093424924 185.42370818753417 C 101.99189515234178 193.4676928022607 111.45140479061074 179.29107001396176 107.41093882775753 197.45954748136313 M 107.41093882775753 197.45954748136313 C 109.82759318058041 211.37341964136866 103.16186136486057 200.2924683137592 103.45367320053782 206.41626386322127 C 103.74548503621507 212.54005941268335 109.32734431941941 200.8754844137194 108.24468692969252 214.95610619411192 M 108.24468692969252 214.95610619411192 C 105.612450353036 231.49980792435852 113.3321229254166 218.24469469927283 113.08905110863937 225.51294818335288 C 112.84597929186214 232.78120166743292 106.02914489608266 219.03994480879274 107.55019602461473 235.7225447200549 M 107.55019602461473 235.7225447200549 C 104.06255402099552 252.80496110935917 112.69080146054796 239.3728102396888 112.10825501841299 246.91918571527629 C 111.52570857627802 254.46556119086378 105.06120506465547 239.8683174369235 105.88577761851482 257.28361750744773 M 105.88577761851482 257.28361750744773 C 104.30244114494312 275.54276122345 111.69392982459355 260.4759805764295 111.99506185145509 268.4267144488228 C 112.29619387831663 276.3774483212161 103.78621481318046 261.91293172791865 106.74615483811922 280" stroke-miterlimit="10" stroke-width="0.1"/><path fill="none" stroke="#000000" paint-order="fill stroke markers" d=" M 128.10608771925357 0 C 131.93238982094948 17.296803972603854 122.94406594317863 3.793617429633831 123.66095278846129 11.450580023308348 C 124.37783963374395 19.107542616982865 130.70344094332208 4.170582383447538 130.15433584863257 21.877035981927193 M 130.15433584863257 21.877035981927193 C 132.62254788773055 39.268930202345956 124.76237105836222 25.23533681169004 124.8891142479511 32.86013343182186 C 125.01585743753998 40.484930051953675 132.40527384843531 26.19785028211998 130.51645924745796 43.66216918230382 M 130.51645924745796 43.66216918230382 C 128.69074158382904 61.46888992585453 136.13953891179435 46.86858113356156 136.31189934288386 54.63747640497881 C 136.48425977397338 62.40637167639606 128.3952665591042 48.15078374628211 131.00891762199942 65.85901281492453 M 131.00891762199942 65.85901281492453 C 131.9205158113947 84.59741189613396 124.94406535358792 68.89923054328588 124.32776308464692 77.02024235769738 C 123.71146081570592 85.14125417210889 132.97703398672212 70.6756773571428 129.2480539964537 89.0619037132431 M 129.2480539964537 89.0619037132431 C 126.57226896777397 104.83641979257439 134.07470227234853 92.25247726509329 133.77145343349665 99.19173415465721 C 133.46820459464476 106.13099104422113 127.09212412009151 92.94055083903623 128.38162874259115 108.88835196914003 M 128.38162874259115 108.88835196914003 C 127.02373983035474 125.21295612191973 133.58284481364527 111.72340352397835 133.87692519813925 118.82865779275772 C 134.17100558263323 125.9339120615371 126.51960202836503 113.03252023258366 129.22185841257397 129.1890784513668 M 129.22185841257397 129.1890784513668 C 127.25565764213444 147.88939077425385 135.1199785298493 132.57255973801108 135.2799396307385 140.73395124166302 C 135.43990073162772 148.89534274531496 126.98143861203867 133.89843391085054 129.67889012940026 152.50733989037235 M 129.67889012940026 152.50733989037235 C 130.3927360760322 170.95325163024492 123.68188142302706 155.4393991116243 122.99614289096769 163.42376818131112 C 122.31040435890831 171.40813725099792 131.56828784527687 157.26576179649607 127.71963718065919 175.3198229466204 M 127.71963718065919 175.3198229466204 C 130.87010520955445 193.13188684305172 122.288407526832 178.96520247950266 122.6864210833175 186.80773212875204 C 123.08443463980299 194.6502617780014 130.18779625557931 179.68755030148134 128.85681877061776 197.72705051590435 M 128.85681877061776 197.72705051590435 C 126.57293801141341 211.55818848832197 133.09793568130294 200.50396200914838 132.85886370662203 206.5849688689162 C 132.61979173194112 212.66597572868403 126.982775682295 201.13360530014856 128.17375598581512 215.1013558295267 M 128.17375598581512 215.1013558295267 C 125.41651945270796 230.20815272863985 132.76763885145226 218.22128130650174 132.3933491009891 224.87729116867163 C 132.01905935052594 231.53330103084153 126.05815902493049 218.79785010777718 127.10435669877755 234.11852686429782 M 127.10435669877755 234.11852686429782 C 125.21302291965097 253.0892365068098 133.10285802819763 237.5167640620684 133.30962938101683 245.790603111565 C 133.51640073383604 254.06444216106158 124.8585577433895 238.9055124219585 127.69513199254668 257.75806700571667 M 127.69513199254668 257.75806700571667 C 132.48073556187353 275.231437117406 122.61491316958181 261.89479766420243 123.73553016266241 269.67947421220157 C 124.85614715574302 277.4641507602007 130.55967785944964 261.886277320836 130.89689482991983 280" stroke-miterlimit="10" stroke-width="0.1"/><path fill="none" stroke="#000000" paint-order="fill stroke markers" d=" M 147.29745683846932 0 C 149.68856502059495 16.797415163893895 142.0908584031843 3.2459118457337492 142.21639803435184 10.610473433833269 C 142.34193766551937 17.97503502193279 149.47335422430777 4.1724524414375725 147.656141498948 21.0416045374272 M 147.656141498948 21.0416045374272 C 145.54303717970592 36.38114488563835 152.42115113669786 23.982487247761213 152.33686606408187 30.70407178418059 C 152.2525809914659 37.42565632059997 145.68752587561903 24.85842853749085 147.41532700575945 40.24613178433971 M 147.41532700575945 40.24613178433971 C 151.3108033943154 57.63293837694733 142.23364522037818 44.07578416870471 142.97548392507724 51.775241891057924 C 143.7173226297763 59.47469961341114 150.03907990054554 44.43386799577038 149.5348661620425 62.24458241963461 M 149.5348661620425 62.24458241963461 C 146.89789379296388 79.8318811313908 154.96679977429653 65.68726309189421 154.7778816074803 73.40532104913957 C 154.5889634406641 81.12337900638494 147.22175350750598 66.6009246332559 148.995099971139 84.29617658319279 M 148.995099971139 84.29617658319279 C 149.7898502974527 103.8675326522469 155.5848581801335 86.89372659304311 156.98105441672539 95.28167034368029 C 158.37725065331728 103.66961409431747 147.39637103472376 89.48820050829742 152.98423207568723 108.26173015644189 M 152.98423207568723 108.26173015644189 C 155.49058442754344 123.85027140334134 148.19433531467638 111.36907965506425 148.43461179910446 118.21910101113627 C 148.67488828353254 125.0691223672083 155.07868188280958 112.10737765007501 153.67073631691034 127.83321974521908 M 153.67073631691034 127.83321974521908 C 150.95297570975265 146.1299292841808 159.32551369105926 131.40630580174255 159.13999348161232 139.43430625121917 C 158.9544732721654 147.4623067006958 151.27101035451875 132.36764279936375 153.14067857563342 150.77036388658084 M 153.14067857563342 150.77036388658084 C 151.68646558226777 169.59223493895254 146.70244394389547 153.04024381950654 145.06252836701026 161.0698229578085 C 143.42261279012504 169.09940209611045 154.4977494283567 155.82724213043488 148.45520549881851 173.7120185674436 M 148.45520549881851 173.7120185674436 C 144.6043811865342 193.03345109353268 154.2833280887295 177.80965443993526 153.6648962902272 186.34008514491202 C 153.04646449172492 194.8705158498888 145.6645499839667 178.4098555992868 146.6882575030977 198.08467772452005 M 146.6882575030977 198.08467772452005 C 146.4045231241943 212.37111560662163 151.37230270103004 200.26654617107988 152.0193483930002 206.43598203300306 C 152.66639408497036 212.60541789492623 145.29530193795975 201.79493984332476 148.5369594801553 215.71163733001484 M 148.5369594801553 215.71163733001484 C 149.0929083712401 232.06779656511807 143.20809934031814 218.28604369758105 142.56686874997217 225.36170953914547 C 141.9256381596262 232.43737538070988 150.19216081183316 219.9380836938648 146.70487207916685 235.92782544877034 M 146.70487207916685 235.92782544877034 C 147.1521433915774 253.6045329096825 152.61715343112857 238.36340064356784 153.76164685975453 245.95389847913867 C 154.9061402883805 253.5443963147095 145.19015465679 240.5922509058468 149.97485330381247 257.6149621218298 M 149.97485330381247 257.6149621218298 C 153.35210142829777 275.3806493822824 144.59210839739524 261.3285754087642 145.09030904468761 269.16333866612376 C 145.58850969198 276.9981019234833 152.49804317579657 261.9496266553803 151.39828372464783 280" stroke-miterlimit="10" stroke-width="0.1"/><path fill="none" stroke="#000000" paint-order="fill stroke markers" d=" M 171.13101649365873 0 C 172.34013697344955 17.230110936716223 165.6085435616374 2.9181868340662493 165.20162025633948 10.405494955717357 C 164.79469695104157 17.892803077368463 173.03771978253167 4.3947255853143234 169.96837847852183 21.392308919003167 M 169.96837847852183 21.392308919003167 C 167.12882965455742 36.87752877782106 174.67540175755144 24.594768740141703 174.28603102578003 31.41822376984596 C 173.89666029400863 38.241678799550215 167.7963223375941 25.180177298328058 168.8558906734607 40.88789471815818 M 168.8558906734607 40.88789471815818 C 174.27667464080434 58.33521206639574 163.8771233611939 45.23091579671426 165.27275936683682 53.038571637273556 C 166.66839537247975 60.846227477832855 171.88415577398789 44.950659196865516 172.8434221181548 63.19548283404189 M 172.8434221181548 63.19548283404189 C 170.43742539802247 79.38055500243195 177.84530031475677 66.35682306608113 177.6803748443823 73.4584078235486 C 177.51544937400783 80.55999258101606 170.72015477580723 67.2064097039163 172.37220648851348 83.48572499823463 M 172.37220648851348 83.48572499823463 C 175.66281474625598 100.89694401777209 167.09404601972116 87.1188735863434 167.57401162969668 94.79627760863798 C 168.0539772396722 102.47368163093256 174.84001655772653 87.7356799795528 173.74353680272927 105.42116506193342 M 173.74353680272927 105.42116506193342 C 172.76289124905176 120.9236085932706 178.72794300524947 108.01127418426834 179.14025803381423 114.74205385065775 C 179.552573062379 121.47283351704716 172.0560654857979 109.38512916517445 174.92157974148574 124.65196410876032 M 174.92157974148574 124.65196410876032 C 172.22346495006866 144.91293061385647 181.22894419288733 128.5056356443585 181.1576544791667 137.37871970455316 C 181.08636476544606 146.25180376474782 172.34567588787547 129.7019293678085 174.71789484514105 150.0036328521736 M 174.71789484514105 150.0036328521736 C 168.56938345134924 166.8110487125812 179.3786422721832 154.4938397081797 177.63506744887945 162.06503100002098 C 175.8914926255757 169.63622229186225 171.5583688627271 153.83186364085327 169.73625249284459 171.63560797172013 M 169.73625249284459 171.63560797172013 C 166.7652180043376 190.03685193761936 175.38858968709098 175.3077473437039 175.0995956594364 183.39441583224163 C 174.81060163178182 191.48108432077936 167.26063633745974 176.17399167155466 168.91055527097433 194.74037508182795 M 168.91055527097433 194.74037508182795 C 172.8856913100319 212.01825156091093 163.77654677975528 198.5804558724591 164.5585658784756 206.23727921939795 C 165.34058497719593 213.89410256633678 171.54508714079702 198.89226868044432 171.1448955530324 216.61701321593893 M 171.1448955530324 216.61701321593893 C 167.71881172216766 232.14538193543694 175.78046680035536 220.01978714207468 175.14075823503273 226.89341202752038 C 174.5010496697101 233.7670369129661 168.81545497700642 220.36202498895858 169.3171567949678 236.25594146006955 M 169.3171567949678 236.25594146006955 C 172.9292831047092 252.56265098333625 164.45132518254175 239.834010015923 165.12926446471602 247.05293784262398 C 165.80720374689028 254.27186566932494 171.76710147812477 240.18734613756317 171.25412617260852 256.88144953635805 M 171.25412617260852 256.88144953635805 C 168.20845795752706 275.2845632611819 176.89617381938453 260.5785487211285 176.57513055807073 268.6700413834032 C 176.25408729675692 276.7615340456779 168.758817834065 261.41343298299677 170.33685971171195 280" stroke-miterlimit="10" stroke-width="0.1"/><path fill="none" stroke="#000000" paint-order="fill stroke markers" d=" M 191.11956995713834 0 C 189.073180325455 17.29469133431683 196.54103399078173 3.2045683808800245 196.59076491359673 10.76477947429176 C 196.64049583641173 18.324990567703495 188.987927314915 4.334329459896708 191.26165830803836 21.600603124033533 M 191.26165830803836 21.600603124033533 C 192.80316707181822 37.56474899002846 186.2065074947617 24.443708110929215 186.01093418483637 31.40357526356133 C 185.81536087491105 38.36344241619344 193.13843560311878 25.633548156944833 190.70287742253745 41.48593784583958 M 190.70287742253745 41.48593784583958 C 195.77147361269857 59.80407912299767 185.38459475096255 45.83974031078522 186.58162857949267 54.00355634810814 C 187.7786624080228 62.167372385431065 193.71941562093266 45.808965916158364 194.12297407548067 64.81112652390509 M 194.12297407548067 64.81112652390509 C 193.51504763280292 81.83800124327615 199.6660895410351 67.50075311392966 200.32104525061698 74.86814133995676 C 200.97600096019886 82.23552956598387 192.39226641637686 69.20819285580112 195.99427610285744 85.86080716969683 M 195.99427610285744 85.86080716969683 C 199.0738397916721 101.4899313186821 191.2747328080968 89.16368868854106 191.7597458660254 96.06205713596319 C 192.24475892395404 102.96042558338532 198.24238883522298 89.66415683738701 197.38002769693927 105.57043130518863 M 197.38002769693927 105.57043130518863 C 194.46422670388816 121.94221718409243 202.3691551886692 108.92768803134533 201.99467553898816 116.13715430957586 C 201.62019588930713 123.3466205878064 195.1061918176271 109.58313213569723 196.31008584070773 126.16890638584732 M 196.31008584070773 126.16890638584732 C 193.64787214689875 143.31291823457065 201.5917046815749 129.55514803168987 201.36804403609614 137.08361079619115 C 201.14438339061738 144.61207356069244 194.03129039629093 130.4069820668541 195.67105542505413 147.67879999870817 M 195.67105542505413 147.67879999870817 C 195.62892605483 166.56042346268202 189.41943798670695 150.42448679021484 188.38458714839643 158.5558407009146 C 187.34973631008592 166.68719461161433 197.40295606336235 152.62095961576816 192.71433874416692 170.91123974356458 M 192.71433874416692 170.91123974356458 C 196.1921336892595 190.20224522900014 186.8417608063441 174.88104195019733 187.30114141039897 183.37827942558224 C 187.76052201445384 191.87551690096714 195.40462408230826 175.63555241405456 194.0268547557523 195.1890611018072 M 194.0268547557523 195.1890611018072 C 190.86971808548026 212.7622744183591 199.3781053394182 198.80173748516248 198.96435795234612 206.54173673453795 C 198.55061056527404 214.28173598391342 191.57899932046098 199.49370427657257 192.8447193641178 217.3033446714514 M 192.8447193641178 217.3033446714514 C 191.27077821071444 235.03339357815707 198.47923644929995 220.41527081624952 198.75592597050266 228.1375810227829 C 199.03261549170537 235.8598912293163 190.7964533172241 221.79514750981411 193.6352608532684 239.36708811868968 M 193.6352608532684 239.36708811868968 C 192.40525253207954 255.80145078014303 198.8914719020369 242.17588233698766 199.24654938391072 249.32153131613927 C 199.60162686578454 256.46718029529086 191.79654827743872 243.55176681588313 194.64976794433647 259.78322805912285 M 194.64976794433647 259.78322805912285 C 191.26226882674433 275.7859178713865 199.44786931889868 263.2425632013496 198.8503222273655 270.3184333806566 C 198.2527751358323 277.3943035599636 192.28663526937265 263.6558547068602 192.94249053995594 280" stroke-miterlimit="10" stroke-width="0.1"/><path fill="none" stroke="#000000" paint-order="fill stroke markers" d=" M 214.40439908176515 0 C 211.9292179346987 17.21348026771223 219.73633146420642 3.3345301108491547 219.59697929219305 10.882846749474924 C 219.4576271201797 18.431163388100693 212.16810737243586 4.273508887210907 214.00625001886985 21.566618967502198 M 214.00625001886985 21.566618967502198 C 216.79093702893226 39.20421844065986 208.57926752537298 25.065510747676655 208.82910811192215 32.813190590501776 C 209.07894869847132 40.5608704333269 216.36263888056226 25.92248156724536 214.7200802661532 43.70284708985969 M 214.7200802661532 43.70284708985969 C 215.4633734821066 63.01808815614511 221.21760285810234 46.27998533580912 222.57784214700533 54.56037339119612 C 223.93808143590832 62.84076144658312 213.13153470113002 48.82313720405311 218.60647823444745 67.36109867667969 M 218.60647823444745 67.36109867667969 C 220.71624556431868 84.80546273210912 213.14476996432504 70.60850569389217 213.11428090343875 78.23660383553175 C 213.08379184255247 85.86470197717134 220.76851252583802 71.72872306072696 218.5193666319152 89.15566479564994 M 218.5193666319152 89.15566479564994 C 218.40481845251142 104.31535293498408 213.48826659037647 91.33342251051907 212.62263185943837 97.8575817301105 C 211.75699712850027 104.38174094970192 219.88876370554812 93.13107998711307 216.04612454352068 107.79611970876829 M 216.04612454352068 107.79611970876829 C 216.7653771016849 124.17365528721939 210.7340612260724 110.42766613947315 210.16202579690346 117.52133352639939 C 209.58999036773452 124.61500091332563 217.7460092659745 112.01308262391726 214.411737603038 128.06374081427182 M 214.411737603038 128.06374081427182 C 216.28535025149088 143.87036077134252 209.45722977355004 130.99367253017812 209.41319876288748 137.90356488506373 C 209.3691677522249 144.81345723994934 216.3608319840553 132.02483102011007 214.28593471543067 147.80629039965928 M 214.28593471543067 147.80629039965928 C 218.12418860203348 164.92925630986593 209.1831600208658 151.5784540105658 209.9145558383913 159.1611760734719 C 210.64595165591678 166.743898136378 216.87036720056125 151.93030420202692 216.37563705121772 169.47121057939097 M 216.37563705121772 169.47121057939097 C 217.60967471480933 189.12556544411862 210.05494056217887 172.75195182526994 209.52821460147146 181.28489133349987 C 209.00148864076405 189.8178308417298 218.51263350459345 174.4976691442959 214.8707057349108 193.85103774576217 M 214.8707057349108 193.85103774576217 C 217.992461898081 212.93865951399337 209.01336443542073 197.67334796585993 209.3303259181893 206.06380267480716 C 209.64728740095785 214.4542573837544 217.44909935619205 198.55502287008386 215.77630997139238 217.82376548561137 M 215.77630997139238 217.82376548561137 C 214.73607115560503 236.119218418961 221.67584796088528 220.84179529186136 222.21288485972647 228.77892633784668 C 222.74992175856767 236.716057383832 213.81543647187726 222.51270805441476 217.31070111093868 240.50128275985514 M 217.31070111093868 240.50128275985514 C 212.53253385810203 254.767846280716 221.33129383088573 244.16686659653462 220.04120597309475 250.5697491191351 C 218.75111811530377 256.9726316417356 214.74411304288657 243.79147624197228 213.62473580296447 258.79523282442796 M 213.62473580296447 258.79523282442796 C 210.96439199932652 275.69156317912547 218.82470251821735 262.14465636516405 218.58851066805704 269.56632487661426 C 218.35231881789673 276.98799338806447 211.3692923138871 262.96870287378226 212.94990194536356 280" stroke-miterlimit="10" stroke-width="0.1"/><path fill="none" stroke="#000000" paint-order="fill stroke markers" d=" M 236.97069293208443 0 C 238.5701376102569 18.158294087906903 231.1982529559712 3.1829516063972845 230.90949021260437 11.091109926935697 C 230.62072746923752 18.99926824747411 239.06515945602862 4.601451252698191 236.14565652246486 22.59473805868118 M 236.14565652246486 22.59473805868118 C 235.29150606768604 40.35587898295107 241.89565806940954 25.473123805732076 242.48408546173474 33.1700695360595 C 243.07251285405994 40.86701526638693 234.28277339512857 27.161114873818335 237.826877643394 44.5860115739024 M 237.826877643394 44.5860115739024 C 242.42126478185966 62.47472231622079 232.58132990271056 48.72019735127219 233.59721224546325 56.67349359388057 C 234.61309458821594 64.62678983648895 240.67975219428365 48.84050018603499 240.72939862268737 67.30971512421206 M 240.72939862268737 67.30971512421206 C 237.57320817042356 84.40844734664967 245.9238437532397 70.85273129093252 245.4849549857804 78.38828773418139 C 245.0460662183211 85.92384417743025 238.3255889146395 71.49035058679446 239.47543071566076 88.8398763906374 M 239.47543071566076 88.8398763906374 C 239.7560293992604 107.6104764596432 233.30770434659263 91.67608519606735 232.4178530065814 99.77699130875598 C 231.52800166657016 107.87789742144462 241.2814888392797 93.72320883789125 236.93299831562865 111.98532242689063 M 236.93299831562865 111.98532242689063 C 232.90280439045264 128.11519222872758 241.67923459947977 115.67582908087117 240.811682513349 122.84109112994119 C 239.94413042721825 130.0063531790112 234.39003653810536 115.83188585889329 234.4542780695408 132.45749970994783 M 234.4542780695408 132.45749970994783 C 233.15562818025322 147.07124277952903 239.0982519471987 135.02290789118945 239.32572739094456 141.38798605366298 C 239.55320283469044 147.75306421613652 232.76567027668887 136.1596802152887 235.10420790881474 150.6434373170151 M 235.10420790881474 150.6434373170151 C 233.09076342505088 168.894017457303 240.84666560759064 153.97681528214827 240.96205922213863 161.94701989170574 C 241.07745283668663 169.9172245012632 232.89294580011148 155.2308095552045 235.43390395038045 173.41545048717927 M 235.43390395038045 173.41545048717927 C 234.07613955830857 191.25766146856776 241.1371158638446 176.47226492952905 241.5129671785653 184.23125081954643 C 241.888818493286 191.99023670956382 233.43182301878733 177.95654279996654 236.5077648495825 195.58398160151464 M 236.5077648495825 195.58398160151464 C 236.62884167962702 214.76091699212532 242.86860086163713 198.34671597635838 243.95336124792 206.60103016146522 C 245.03812163420284 214.85534434657205 234.7692524459993 200.61066410337077 239.60708023896203 219.16773641610556 M 239.60708023896203 219.16773641610556 C 236.16085690053694 234.1109299760042 244.04615008238946 222.49164627141596 243.36625660521628 229.11428013851827 C 242.6863631280431 235.73691400562058 237.326388575691 222.75784334668597 237.66452744703864 238.08954746496929 M 237.66452744703864 238.08954746496929 C 234.74701656113731 254.2838827740158 242.59470984286077 241.42143468778193 242.2099385932673 248.55455279168896 C 241.82516734367385 255.687670895596 235.40662441758323 242.05568031017518 236.5651810196288 258.4698849047037 M 236.5651810196288 258.4698849047037 C 231.99097875178958 275.3913281361521 241.49373652626983 262.45602428096987 240.43446556950937 269.9915645643236 C 239.3751946127489 277.5271048476773 233.80687182052176 262.47325907897425 233.5386925717418 280" stroke-miterlimit="10" stroke-width="0.1"/><path fill="none" stroke="#000000" paint-order="fill stroke markers" d=" M 257.5484766242313 0 C 255.54002927323847 16.65083932655129 262.7625196347916 3.097916794593572 262.793925970409 10.378733208007583 C 262.82533230602644 17.659549621421593 255.48618984075154 4.169439760698693 257.6382090117096 20.80233260975432 M 257.6382090117096 20.80233260975432 C 260.21956951552295 38.73674108661617 252.08333428145878 24.277350015326235 252.22960604203965 32.141937694025906 C 252.37587780262052 40.00652537272558 259.9688179259557 25.25459078027388 258.05612832765496 43.27258312032481 M 258.05612832765496 43.27258312032481 C 260.63755380759363 59.93026073723247 252.9235663783612 46.561022892314114 253.1386131749628 53.875637699286415 C 253.35365997156444 61.190252506258716 260.26890215627657 47.39092106813709 258.6705477465168 64.17148256881711 M 258.6705477465168 64.17148256881711 C 260.29431472132035 83.74508492845743 252.43352213926087 67.5693319899688 252.07902778596485 76.08847122814944 C 251.72453343266884 84.60761046633009 260.9020193269707 69.14084623443347 257.6577067370996 88.51188039219036 M 257.6577067370996 88.51188039219036 C 255.544061617524 108.08588552691045 263.82326799495365 92.071825297586 263.96675960454445 100.61751609282719 C 264.11025121413525 109.16320688806837 255.29807600108256 93.43612987792555 258.0676827645019 112.92813980716517 M 258.0676827645019 112.92813980716517 C 255.81994455415372 128.75148492348222 262.97304287223284 115.98426519374205 262.85681268788454 122.9215074551743 C 262.74058250353625 129.85874971660652 256.01919629875084 116.85906961816978 257.7355965235068 132.74883198268586 M 257.7355965235068 132.74883198268586 C 255.3244235378239 147.28314364635233 262.19069740665816 135.67061936725528 261.93465505625375 142.0613860139099 C 261.67861270584933 148.4521526605645 255.76335328137438 136.32754368065866 257.0040469509227 151.00816525884193 M 257.0040469509227 151.00816525884193 C 254.93954541947352 169.04556204735323 262.6685279725262 154.32727375756525 262.7504486783602 162.2083947643097 C 262.83236938419424 170.08951577105415 254.799109923758 155.53506889293416 257.2381061104485 173.52565384954033 M 257.2381061104485 173.52565384954033 C 256.01147789786154 190.28255695611205 262.60149763001334 176.38047055851035 262.975398721099 183.66487803124977 C 263.34929981218465 190.9492855039892 255.37050459885762 177.79500128855878 258.30639494212176 194.33824662879582 M 258.30639494212176 194.33824662879582 C 262.3363674533311 212.13870648307264 253.00754651119158 198.27284320735936 253.7850483700207 206.15773212595911 C 254.5625502288498 214.04262104455887 261.0035071239098 198.62175405118734 260.52782882449065 216.86650068193796 M 260.52782882449065 216.86650068193796 C 257.06525665235745 232.7543182261539 265.27696177165035 220.33387865687513 264.64089008834304 227.364307792883 C 264.00481840503573 234.3947369288909 258.1556652523128 220.70215399299755 258.7104811578984 236.95344107053194 M 258.7104811578984 236.95344107053194 C 256.32354349733254 253.898350737622 263.9664757743147 240.2195303249861 263.85067468722195 247.6474034402246 C 263.7348736001292 255.0752765554631 256.52205964663443 241.16485396864172 258.379620909062 258.17593568549904 M 258.379620909062 258.17593568549904 C 254.72813732317053 275.45155249279463 263.5601850212295 261.9086319434372 262.91746376616135 269.5470544535125 C 262.2747425110932 277.1854769635878 255.82994518900153 262.35711390409404 256.54327446601025 280" stroke-miterlimit="10" stroke-width="0.1"/><path fill="none" stroke="#000000" paint-order="fill stroke markers" d="" stroke-miterlimit="10" stroke-width="0.1"/><path fill="none" stroke="#000000" paint-order="fill stroke markers" d=" M 0 21.67680897960029 C 19.463947965907582 24.449833911736068 3.7619621802621754 15.644022142496858 12.295748800383521 15.790497222791092 C 20.829535420504868 15.936972303085327 4.834599474270986 24.198733774088808 24.38224748606099 22.095309209012388 M 24.38224748606099 22.095309209012388 C 42.114191743714315 25.12474296655625 27.975882812751756 16.672891042198852 35.777382156839394 17.023080893113338 C 43.57888150092703 17.373270744027824 28.7401928681355 24.52441750784571 46.67224561202568 23.09585164019663 M 46.67224561202568 23.09585164019663 C 62.030813624999006 19.753965196516422 50.02235260683138 27.68756381041147 56.8182988670796 27.074981773832402 C 63.61424512732781 26.462399737253335 50.380620036002064 20.804105830651963 66.08923492702057 21.34561724997073 M 66.08923492702057 21.34561724997073 C 84.85724578655011 24.844052230562674 69.98942654622454 15.64904646282824 78.26248541543836 16.145479408185487 C 86.53554428465219 16.641912353542732 70.6748591536121 23.993024324235964 89.72654598191723 22.763997093848577 M 89.72654598191723 22.763997093848577 C 105.43643912044212 23.730106999890598 92.34216671723863 17.708848503527253 99.16152660262084 17.27910160174786 C 105.98088648800305 16.84935469996847 93.74610788835831 24.466815974369556 109.21043136872356 21.536148803050313 M 109.21043136872356 21.536148803050313 C 125.93146623476308 23.903248994142718 112.43723883542913 16.35130575990459 119.76760540339728 16.4706162725115 C 127.09797197136544 16.589926785118408 113.36512354681768 23.69871668681659 130.15433584863257 21.877035981927193 M 130.15433584863257 21.877035981927193 C 144.0722372244349 19.458510261295658 132.9884645573049 26.12717267783105 139.1140965349153 25.834771672256053 C 145.2397285125257 25.542370666681055 133.57115383424565 19.959769127995653 147.656141498948 21.0416045374272 M 147.656141498948 21.0416045374272 C 165.47086064444946 23.553391740645356 151.09065314127807 15.516150949770136 158.8999360841289 15.638897483321724 C 166.70921902697975 15.761644016873312 152.08351845670518 23.342969111699777 169.96837847852183 21.392308919003167 M 169.96837847852183 21.392308919003167 C 186.982172921632 23.688272265979116 173.21444400420688 16.100233092378588 180.66709194453767 16.173136064139214 C 188.11973988486847 16.24603903589984 174.20620502392208 23.563295742960893 191.26165830803836 21.600603124033533 M 191.26165830803836 21.600603124033533 C 209.46073009235667 23.847874969891613 194.66485102553025 15.909357572845963 202.62545812432128 15.897463118059996 C 210.5860652231123 15.885568663274029 195.8139750658578 23.868265463810413 214.00625001886985 21.566618967502198 M 214.00625001886985 21.566618967502198 C 231.61496331262796 24.603054890804884 217.58419076720384 16.185985205280293 225.3329830434621 16.545826887192938 C 233.08177531972035 16.905668569105583 218.33131941047097 23.986183436097495 236.14565652246486 22.59473805868118 M 236.14565652246486 22.59473805868118 C 253.51893905875332 23.310068948464163 238.92143803361984 16.95273911903097 246.4438314048555 16.32539721190657 C 253.96622477609117 15.698055304782168 240.6234075652065 24.38551221782028 257.6382090117096 20.80233260975432 M 257.6382090117096 20.80233260975432 C 275.4677150413328 18.086739422852318 261.14229456247597 26.302890215313244 268.9689214083776 26.093146551781324 C 276.7955482542792 25.883402888249403 262.05064044835854 18.44629998890704 280 20.20306499966312" stroke-miterlimit="10" stroke-width="0.1"/><path fill="none" stroke="#000000" paint-order="fill stroke markers" d=" M 0 44.321820341184505 C 18.391315631600797 45.48996488755241 3.0743477884171933 38.409267835201085 11.05966076683427 37.92216695193491 C 19.044973745251347 37.43506606866874 4.702207668600093 46.324994973151576 22.815179938334506 42.93010353185257 M 22.815179938334506 42.93010353185257 C 40.72889746281047 41.23008936866543 25.99565103050444 48.606946489174966 33.80386857291185 48.839217485581514 C 41.612086115319265 49.07148848198806 27.34338167582633 40.83191051768277 45.124372916641406 43.59373495015701 M 45.124372916641406 43.59373495015701 C 63.56218404897583 39.43770822959349 49.19381568970745 49.084976265539105 57.3600434624357 48.2874930468836 C 65.52627123516395 47.49000982822809 49.562936438584536 40.80482231871722 68.45645226729354 41.315211468284126 M 68.45645226729354 41.315211468284126 C 84.80592479985997 41.80126367819116 70.68521944493014 46.79415232127327 77.70189710919453 47.88388487114065 C 84.71857477345893 48.97361742100803 72.77733451826387 39.93315073556138 88.50410273662037 44.42873303933378 M 88.50410273662037 44.42873303933378 C 105.77898347676326 46.80219193828243 91.81396017290888 39.06162417205593 99.38324889399074 39.15385135021073 C 106.9525376150726 39.24607852836553 92.80305995490863 46.64408820430277 110.13064193971141 44.69223926263321 M 110.13064193971141 44.69223926263321 C 126.33628877787572 41.82960146759505 113.44603205595574 49.63418307752044 120.58106811366703 49.273658549405155 C 127.71610417137832 48.91313402128987 114.10479839322778 42.44764351579268 130.51645924745796 43.66216918230382 M 130.51645924745796 43.66216918230382 C 144.37715719389556 42.61922603976268 132.19728006171215 38.92504663303384 138.11188377711767 37.729433543746396 C 144.0264874925232 36.533820454458954 134.23783653891465 44.66884847854114 147.41532700575945 40.24613178433971 M 147.41532700575945 40.24613178433971 C 164.63195423330228 38.61548576462436 150.47097082246003 45.70253714133779 157.97516810615548 45.927154168174255 C 165.47936538985093 46.15177119501072 151.76761603268156 38.230428004333284 168.8558906734607 40.88789471815818 M 168.8558906734607 40.88789471815818 C 186.27367575995396 43.55102789521098 172.28244946774257 35.51585450004119 179.92889482991944 35.725169594729685 C 187.57534019209632 35.93448468941818 173.1654837105079 43.19220201860214 190.70287742253745 41.48593784583958 M 190.70287742253745 41.48593784583958 C 210.13833062183204 40.85774495669409 193.75123053807476 47.82277494334652 202.1572515333403 48.598693178753564 C 210.5632725286058 49.374611414160604 195.7280089156626 39.52759941028203 214.7200802661532 43.70284708985969 M 214.7200802661532 43.70284708985969 C 233.11720171954155 46.720058414817935 218.40689099374998 38.05862241815589 226.49427007578427 38.36772998757084 C 234.58164915781856 38.67683755698579 219.2531232931971 46.19015972439231 237.826877643394 44.5860115739024 M 237.826877643394 44.5860115739024 C 253.87893534544503 41.51234374261423 241.18962235942755 49.446309976931 248.26986009891888 48.986610018178844 C 255.35009783841022 48.52691005942669 241.74138493488843 42.300400814760785 258.05612832765496 43.27258312032481 M 258.05612832765496 43.27258312032481 C 275.4114298128351 39.479829131522926 261.8471987102466 48.458857259367186 269.5275537955673 47.75957177493146 C 277.20790888088806 47.06028629049573 262.2451068094281 40.678604247698466 280 41.27462459336559" stroke-miterlimit="10" stroke-width="0.1"/><path fill="none" stroke="#000000" paint-order="fill stroke markers" d=" M 0 64.79949705833745 C 17.720290702395204 62.36437523336376 3.395352013995214 70.30492156240278 11.159829953294807 70.21011550638924 C 18.9243078925944 70.1153094503757 4.409757092167324 62.526899900815536 22.184222683713124 64.52862261258447 M 22.184222683713124 64.52862261258447 C 40.1011084984204 66.4475285621454 25.437559501486653 58.88272355880943 33.25892832664461 58.74457380859759 C 41.08029715180256 58.606424058385755 26.693047655292478 66.68435670536569 44.530990755592995 64.13390904055065 M 44.530990755592995 64.13390904055065 C 61.82772664933057 65.27209508516742 47.43545215482019 58.5790312822199 54.94764071144805 58.13796410716126 C 62.459829268075914 57.69689693210262 48.949689123682816 66.02821024241081 65.9943866316726 62.87371711181167 M 65.9943866316726 62.87371711181167 C 83.62083907784417 62.22178542485371 68.78619939333763 68.6087229051438 76.41423676867849 69.27700746401729 C 84.04227414401936 69.94529202289078 70.54420357725981 61.076154752499136 87.78877913264651 64.78310156573595 M 87.78877913264651 64.78310156573595 C 105.32332734877808 62.91212205653191 90.9703832480486 70.30953973972656 98.62447214549319 70.44774731663037 C 106.27856104293777 70.58595489353418 92.20203209601593 62.67519478183968 109.65760455391676 65.17798035688969 M 109.65760455391676 65.17798035688969 C 126.67055176257941 67.85793763012582 113.03055962863786 59.94230695857426 120.50351920246679 60.18066831888645 C 127.97647877629572 60.41902967919864 113.85976392172981 67.44931815530492 131.00891762199942 65.85901281492453 M 131.00891762199942 65.85901281492453 C 146.19111949356287 64.8200633526969 132.88420230418342 60.68536112062026 139.36828429319849 59.42031048226879 C 145.85236628221355 58.15525984391732 135.075550369537 66.98872158987085 149.5348661620425 62.24458241963461 M 149.5348661620425 62.24458241963461 C 168.27680096837307 60.67444715554921 152.7934244518575 68.21435647082377 160.95141903649682 68.54717161586632 C 169.10941362113613 68.87998676090886 154.29166739470568 60.10390690690484 172.8434221181548 63.19548283404189 M 172.8434221181548 63.19548283404189 C 189.7054993150292 66.61595298166503 176.43926583421947 58.117941398189906 183.8871090192835 58.68341668964202 C 191.33495220434756 59.24889198109414 176.93776814063364 65.64656676774712 194.12297407548067 64.81112652390509 M 194.12297407548067 64.81112652390509 C 213.96477461793154 64.40275383022808 197.15800666113205 71.31449838656296 205.7272331167704 72.20698864003407 C 214.29645957240876 73.09947889350518 199.27467212255146 62.87277053856334 218.60647823444745 67.36109867667969 M 218.60647823444745 67.36109867667969 C 236.30995290028616 69.53228387352958 221.91207040456655 61.822661046749566 229.6550925404505 61.804676803385895 C 237.39811467633447 61.786692560022225 223.0362006673422 69.56311400501015 240.72939862268737 67.30971512421206 M 240.72939862268737 67.30971512421206 C 254.7684946662114 63.00501416751317 244.20512913011052 71.32426752186016 250.48453132345082 70.22588612747194 C 256.7639335167911 69.12750473308371 244.00380519191376 64.88795370075013 258.6705477465168 64.17148256881711 M 258.6705477465168 64.17148256881711 C 275.7624512952094 62.26527131071711 261.79911121977415 69.54635825104697 269.2644195084933 69.64555436171811 C 276.72972779721243 69.74475047238926 262.9647799431195 62.09522083528087 280 64.45490002787751" stroke-miterlimit="10" stroke-width="0.1"/><path fill="none" stroke="#000000" paint-order="fill stroke markers" d=" M 0 86.75215543422158 C 16.744260267899534 88.53841392645401 3.0380773865852753 81.4747378944734 10.347172651569897 81.34258907670201 C 17.65626791655452 81.21044025893062 4.214382670783036 88.76495475691924 20.88312932852749 86.37458738344618 M 20.88312932852749 86.37458738344618 C 38.178808303492204 86.03020368209461 23.297047800575278 80.60337595076032 30.7289503904873 79.52372025768 C 38.16085298039932 78.44406456459967 25.438403863643025 87.88104201308944 42.11713672827613 83.28985683178813 M 42.11713672827613 83.28985683178813 C 59.137591420302336 81.90420879404189 45.06307138036525 88.71718174748003 52.46957137280903 89.03677323002152 C 59.876071365252805 89.35636471256302 46.440734290398716 81.35633768111362 63.278565278115494 84.20297535333525 M 63.278565278115494 84.20297535333525 C 81.55417521808623 89.91506689050951 67.83900008548424 78.99281005939348 76.01914468085795 80.46933203248551 C 84.19928927623165 81.94585400557754 67.5310701974456 87.3838863652089 86.65040697918322 88.42160956216962 M 86.65040697918322 88.42160956216962 C 103.81525202991676 90.446567886859 89.82890900938001 83.03996241592006 97.33203232564081 82.98799126843906 C 104.83515564190161 82.93602012095806 90.95275491632681 90.53566128254072 108.0879021684998 88.27312056936678 M 108.0879021684998 88.27312056936678 C 124.93714531647528 91.02016226726323 111.45912072866197 83.10140008395976 118.86517386844584 83.37747418431647 C 126.2712270082297 83.65354828467318 112.24105421970295 90.54689238093744 129.2480539964537 89.0619037132431 M 129.2480539964537 89.0619037132431 C 144.56911806319692 83.27461741173433 133.40154267516908 93.28380613740688 140.31300876630894 91.61580164188928 C 147.2244748574488 89.94779714637167 132.72089047838574 86.1340536897645 148.995099971139 84.29617658319279 M 148.995099971139 84.29617658319279 C 167.61574002654277 81.31010466348881 152.7042788449847 90.01888547479268 160.88626612606578 89.73522742005733 C 169.06825340714684 89.45156936532197 153.5894761161181 81.7963756144637 172.37220648851348 83.48572499823463 M 172.37220648851348 83.48572499823463 C 191.50737039713488 83.02358377396999 175.32174638779952 89.74750472753995 183.58947075281992 90.57878348755172 C 191.85719511784032 91.41006224756349 177.3341286285285 81.59853447109268 195.99427610285744 85.86080716969683 M 195.99427610285744 85.86080716969683 C 213.68486276350833 90.7492023233651 200.19675408870438 80.72376318132535 208.0805357738746 81.87696335040894 C 215.96431745904482 83.03016351949253 200.1698084460737 88.77228774779323 218.5193666319152 89.15566479564994 M 218.5193666319152 89.15566479564994 C 235.31579673941292 90.99864048001446 221.5838291432239 83.86928051396167 228.91845157253485 83.75875457220728 C 236.2530740018458 83.64822863045289 222.74215828916556 91.18811352302198 239.47543071566076 88.8398763906374 M 239.47543071566076 88.8398763906374 C 253.98845193296714 86.75925198973589 242.28477111848835 93.33624599623005 248.64856772599194 93.22144739677358 C 255.01236433349553 93.10664879731712 243.0790863201038 86.95604958880412 257.6577067370996 88.51188039219036 M 257.6577067370996 88.51188039219036 C 275.59537073044635 86.78828613011147 260.8494772689687 94.19319778245506 268.66927991098385 94.41660062304743 C 276.489082552999 94.6400034636398 262.1899947727061 86.40530983195312 280 89.1501742224543" stroke-miterlimit="10" stroke-width="0.1"/><path fill="none" stroke="#000000" paint-order="fill stroke markers" d=" M 0 110.3065774619822 C 16.815634700398803 109.73567772778156 2.26883362105346 104.66104371531327 9.48175089092214 103.5096604228669 C 16.69466816079082 102.35827713042053 4.450633666338206 111.70947765768962 20.608335056767658 107.01691091213544 M 20.608335056767658 107.01691091213544 C 37.670724485080825 104.55627026368799 23.915973110776815 112.30099224365055 31.398421514812732 112.15976801045929 C 38.880869918848646 112.01854377726802 24.843670078162106 104.79836894915874 41.98675906829885 106.61341310301754 M 41.98675906829885 106.61341310301754 C 58.58597453099222 104.36588807518172 45.15621037589973 111.7754384058401 52.4276622305588 111.70107768799431 C 59.69911408521787 111.62671697014852 46.1206284944338 104.49336359148877 62.76233579589619 106.40095390917243 M 62.76233579589619 106.40095390917243 C 78.25520235642949 109.34064937945965 65.99903864106915 101.706038154038 72.83118014631434 102.13813723413301 C 79.66332165155953 102.57023631422803 66.54295977600916 108.59990809929678 82.28274009659675 107.63552270944389 M 82.28274009659675 107.63552270944389 C 100.8347148862458 110.8752772554697 86.06579368492322 101.97260286651758 94.2318619160196 102.36923695151683 C 102.39793014711597 102.76587103651607 86.83574077579489 110.1953331097567 105.61436361401495 108.76876295229887 M 105.61436361401495 108.76876295229887 C 123.84013461856001 106.58770765291418 108.9995561290911 114.47851758696909 116.96809892409277 114.5203737428635 C 124.93664171909444 114.5622298987579 110.1797755414143 106.51595424280949 128.38162874259115 108.88835196914003 M 128.38162874259115 108.88835196914003 C 148.12637359033783 110.84731485229112 131.91536378938105 102.6437078639613 140.52627495596468 102.42439022951694 C 149.13718612254831 102.2050725950726 133.36481159048017 111.22328793991001 152.98423207568723 108.26173015644189 M 152.98423207568723 108.26173015644189 C 169.8757323667717 108.06520855353932 155.38798651111642 102.64581921050511 162.65374316558115 101.65162142742714 C 169.91949982004587 100.65742364434918 157.42014953054647 109.76954761024439 173.74353680272927 105.42116506193342 M 173.74353680272927 105.42116506193342 C 192.66765614242277 103.1769289671166 177.25169387604697 111.3526777219742 185.52446568902047 111.40492090711352 C 193.79723750199398 111.45716409225284 178.48576160589678 103.08736922116346 197.38002769693927 105.57043130518863 M 197.38002769693927 105.57043130518863 C 212.53547401456234 105.48437234339421 199.62352012303157 110.57080877737093 206.15665401933506 111.34979971862381 C 212.68978791563856 112.1287906598767 201.3358159066135 104.14895930124642 216.04612454352068 107.79611970876829 M 216.04612454352068 107.79611970876829 C 233.17454383301927 109.05879450605536 218.13185492980628 113.64621855951364 225.44226075004408 115.11243951085646 C 232.7526665702819 116.57866046219928 220.6424195697545 106.54527287518195 236.93299831562865 111.98532242689063 M 236.93299831562865 111.98532242689063 C 253.74646413669979 114.85304477599759 240.33890532802826 106.8430739217135 247.7360448851339 107.17306000480959 C 255.13318444223955 107.50304608790567 241.06565346737585 114.28735434783287 258.0676827645019 112.92813980716517 M 258.0676827645019 112.92813980716517 C 275.849501737222 113.2336500561419 260.7676173890225 107.0911127218082 268.44392842144686 106.26523457668247 C 276.1202394538712 105.43935643155675 262.69011139592317 114.64944116207171 280 110.56848796394881" stroke-miterlimit="10" stroke-width="0.1"/><path fill="none" stroke="#000000" paint-order="fill stroke markers" d=" M 0 133.3045584535641 C 15.728207624773951 128.83793687101792 3.7761590224630117 137.85415166738642 10.791897315271969 136.77697201162357 C 17.807635608080925 135.69979235586072 3.701227694244306 130.68453056661136 20.044966550882737 130.2269022942417 M 20.044966550882737 130.2269022942417 C 38.52979518773776 131.73968913387256 23.246978690916375 124.3337893601511 31.291131856618662 123.99011445677682 C 39.335285022320946 123.64643955340254 24.739818332248124 132.32884611108562 43.02826131003213 129.24497399888662 M 43.02826131003213 129.24497399888662 C 59.523105889137675 127.15371373885371 46.130770834527674 134.3953153216629 53.34884866722107 134.38264868698516 C 60.566926499914466 134.36998205230742 47.14925817594901 127.1754279697298 63.651340832013254 129.2087836140931 M 63.651340832013254 129.2087836140931 C 78.81016701050774 128.42124148192823 66.12735628643236 134.1077545768941 72.69971829351579 134.5847501449574 C 79.27208030059921 135.0617457130207 67.54326071265044 127.60353479381973 82.42951799510875 130.57162809427396 M 82.42951799510875 130.57162809427396 C 102.32543316935234 128.98166299762636 85.8632940525432 136.92020513778297 94.51945563280607 137.3066156055325 C 103.17561721306895 137.69302607328203 87.48629903175883 128.31924505291286 107.16140822443127 131.67565800212975 M 107.16140822443127 131.67565800212975 C 125.05842633002173 131.89243938033368 109.84883086496194 125.78755852247964 117.56998843081189 124.91725567971261 C 125.29114599666184 124.04695283694558 111.82215621713611 133.38438711079144 129.22185841257397 129.1890784513668 M 129.22185841257397 129.1890784513668 C 148.6453748654283 125.659503696015 133.22815477476135 135.09791912152872 141.78526204127908 134.62336857437703 C 150.34236930779682 134.14881802722533 133.97604812282648 126.47301891970362 153.67073631691034 127.83321974521908 M 153.67073631691034 127.83321974521908 C 170.35328549292478 123.16313089359454 157.65367673971136 132.66874225589413 165.09147193831274 131.55530278313356 C 172.52926713691411 130.44186331037298 157.60277943817954 125.07188427546978 174.92157974148574 124.65196410876032 M 174.92157974148574 124.65196410876032 C 191.88069039315462 128.00436854035212 178.5090912256408 119.53237892551789 185.9950683603685 120.06330872249833 C 193.4810454950962 120.59423851947878 179.04758673362144 127.09420317409993 196.31008584070773 126.16890638584732 M 196.31008584070773 126.16890638584732 C 210.9808906934144 125.8746087523539 198.55162499795114 130.97854449069357 204.88720311476675 131.64173654064214 C 211.22278123158236 132.30492859059072 200.11989963601624 124.7377080952992 214.411737603038 128.06374081427182 M 214.411737603038 128.06374081427182 C 230.00639408667266 133.5830019774629 218.51655839693242 123.71216953199752 225.5314475602084 125.24998514548412 C 232.54633672348436 126.78780075897072 217.98086980677095 130.9467466400573 234.4542780695408 132.45749970994783 M 234.4542780695408 132.45749970994783 C 253.1084660599874 130.36243368274165 237.87364276945118 138.32152916435004 246.0221042283393 138.42349545980835 C 254.1705656872274 138.52546175526666 239.1396749876078 130.18763431909883 257.7355965235068 132.74883198268586 M 257.7355965235068 132.74883198268586 C 275.79022783183524 133.03040411326415 260.467485727146 126.81806832286173 268.26002694391866 125.96718847789317 C 276.0525681606913 125.11630863292461 262.4315857459393 134.48905527606743 280 130.3177467113471" stroke-miterlimit="10" stroke-width="0.1"/><path fill="none" stroke="#000000" paint-order="fill stroke markers" d=" M 0 150.5346370634772 C 16.20041674070596 151.65469462223274 2.7382337930761693 145.33973840013874 9.777185642236343 144.94989460094928 C 16.816137491396518 144.56005080175981 4.1336421421456615 152.3229982779861 20.1112909976005 149.42079763722157 M 20.1112909976005 149.42079763722157 C 37.370684794832066 152.75705247183717 23.737348228645654 144.19952770319648 31.351808509317014 144.7073316582569 C 38.966268789988376 145.2151356133173 24.31732431368116 151.88653140601932 41.86689179951867 150.8716660802513 M 41.86689179951867 150.8716660802513 C 60.67693620995826 153.67393417953153 45.54295620003715 145.05944442053917 53.796635920649294 145.25372674889775 C 62.050315641261435 145.44800907725633 46.52777097462315 153.34087875948825 65.44883385841051 151.4267584469901 M 65.44883385841051 151.4267584469901 C 82.84805978611543 148.70470780390005 68.8921682451741 156.78404885216395 76.53379137173646 156.54835458663234 C 84.1754144982988 156.31266032110074 69.74813442629426 149.10875511623996 87.2820427914458 150.75334625975694 M 87.2820427914458 150.75334625975694 C 103.86473698983805 155.13167338702104 91.1538832240751 145.90821060504274 98.53295372408137 146.90134491071998 C 105.91202422408763 147.89447921639723 91.21490184697016 153.42915743443143 108.36510136289226 153.59087284740625 M 108.36510136289226 153.59087284740625 C 125.30777908039526 150.59266760512833 111.83305291712695 158.75679009547815 119.29287898540474 158.37755356051628 C 126.75270505368253 157.9983170255544 112.51950582049047 151.24278737934867 129.67889012940026 152.50733989037235 M 129.67889012940026 152.50733989037235 C 148.27462328600765 148.77158024271583 133.63240239728313 158.11224060136195 141.84402835346472 157.5042990000349 C 150.05565430964631 156.89635739870786 134.19755021826774 149.8137658449907 153.14067857563342 150.77036388658084 M 153.14067857563342 150.77036388658084 C 170.47912469468025 152.31470068600584 156.18557825745773 145.26105016404287 163.73760395178542 144.99269430200033 C 171.2896296461131 144.7243384399578 157.53279493297566 152.77473930665016 174.71789484514105 150.0036328521736 M 174.71789484514105 150.0036328521736 C 191.71290659441806 150.23908262739258 177.27966071876168 144.41661777917554 184.61326692173125 143.60292628046264 C 191.94687312470083 142.78923478174974 179.14101024647022 151.63398233947183 195.67105542505413 147.67879999870817 M 195.67105542505413 147.67879999870817 C 210.57570789745049 145.9193043904314 198.43141471837285 152.35164338144497 204.94662247000463 152.39626502177785 C 211.4618302216364 152.44088666211073 199.40678032322455 145.84281014986075 214.28593471543067 147.80629039965928 M 214.28593471543067 147.80629039965928 C 230.65683857840236 152.15783525288234 218.11796242377724 143.02729413891663 225.40435804146168 144.02029555999115 C 232.6907536591461 145.01329698106568 218.1658746623719 150.45554710246884 235.10420790881474 150.6434373170151 M 235.10420790881474 150.6434373170151 C 252.58760634831845 153.12520357468736 238.48036575058765 145.22318674776216 246.14530941532544 145.35084152740154 C 253.81025308006323 145.47849630704093 239.44770292305364 152.90636680959128 257.0040469509227 151.00816525884193 M 257.0040469509227 151.00816525884193 C 275.00189163978524 145.51722795073994 261.4507342842825 156.15877689551235 269.4993178514595 154.76256476911487 C 277.54790141863657 153.3663526427174 261.2043198103389 147.91073445313563 280 147.01898775484912" stroke-miterlimit="10" stroke-width="0.1"/><path fill="none" stroke="#000000" paint-order="fill stroke markers" d=" M 0 172.56324449217863 C 16.720157064070374 173.21308974523 2.6586640776811308 167.12770838489365 9.896184941983442 166.50732557506583 C 17.133705806285754 165.88694276523802 4.312978439552121 174.27660313350626 20.67863104086375 170.7907221783849 M 20.67863104086375 170.7907221783849 C 38.1973763130639 168.96077241871845 23.84435411653652 176.31792988046908 31.489426297774006 176.4729608832697 C 39.1344984790115 176.62799188607033 25.091538288085346 168.69500498534597 42.521694415828 171.23366790067237 M 42.521694415828 171.23366790067237 C 62.13313291073277 171.99332906961433 45.13670903997174 177.83155572752472 53.543808482526146 179.21479491925612 C 61.95090792508055 180.59803411098753 47.720962437782354 169.62206188378906 66.54197853741202 175.18577987704785 M 66.54197853741202 175.18577987704785 C 83.30537256225016 176.24876100566755 69.34361449897027 169.79632371070738 76.62200629351852 169.35157898015996 C 83.90039808806678 168.90683424961253 70.82812948588172 177.01118054374882 87.33738366469275 173.91508064691237 M 87.33738366469275 173.91508064691237 C 105.19457780445627 172.13927496967514 90.53466314759052 179.5621501864687 98.32261323657065 179.75872896379994 C 106.11056332555077 179.95530774113118 91.84380622334747 171.80228277996446 109.58866963320742 174.47673429643018 M 109.58866963320742 174.47673429643018 C 124.00913480614982 176.96430197132753 112.51908692787273 170.0704557070958 118.86492556948086 170.36553673466236 C 125.21076421108899 170.66061776222892 113.13055427767874 176.4584487812134 127.71963718065919 175.3198229466204 M 127.71963718065919 175.3198229466204 C 144.46887227310432 176.1071362750949 130.4280213335889 169.89476021020408 137.68547024494467 169.3320286774922 C 144.94291915630043 168.7692971447803 132.02753128220874 177.07181890260097 148.45520549881851 173.7120185674436 M 148.45520549881851 173.7120185674436 C 165.272402034467 169.92278539146224 152.1664651968533 178.7208187265916 159.61483164476243 177.99407501808838 C 167.06319809267157 177.26733130958516 152.5037738380514 171.1686317488963 169.73625249284459 171.63560797172013 M 169.73625249284459 171.63560797172013 C 188.0462846710869 168.75830476406347 173.36405748758182 177.27147430032738 181.40638767554464 177.01794542047293 C 189.44871786350745 176.76441654061847 174.2594329202935 169.19292570095678 192.71433874416692 170.91123974356458 M 192.71433874416692 170.91123974356458 C 211.49937447339022 167.3930865815206 196.62354078126796 176.61055994570123 204.90499518873574 176.10654973824046 C 213.18644959620352 175.6025395307797 197.30259548915973 168.25710408002476 216.37563705121772 169.47121057939097 M 216.37563705121772 169.47121057939097 C 232.01667456132674 170.72077581570534 218.24831710914506 174.8274132903499 224.918710523852 176.2078972580758 C 231.58910393855896 177.5883812258017 220.58171442182908 168.35423187103237 235.43390395038045 173.41545048717927 M 235.43390395038045 173.41545048717927 C 252.86624534219877 175.68403339307494 238.73208511498092 167.98093045151643 246.36355587100473 168.0195016283428 C 253.99502662702855 168.05807280516916 239.78372404615797 175.61791137565828 257.2381061104485 173.52565384954033 M 257.2381061104485 173.52565384954033 C 275.845997978183 172.61482918974917 259.656448303648 167.23761524301253 267.62311116499103 165.84329659668603 C 275.58977402633406 164.44897795035953 262.18886164445206 175.0050897263089 280 169.54188628860746" stroke-miterlimit="10" stroke-width="0.1"/><path fill="none" stroke="#000000" paint-order="fill stroke markers" d=" M 0 193.13860737512718 C 15.817830536912153 194.2238368843548 2.6707973007547645 188.06516620272797 9.543067428690717 187.68092034702306 C 16.41533755662667 187.29667449131816 4.036796031879087 194.88254406556322 19.63505750838844 192.04076207311317 M 19.63505750838844 192.04076207311317 C 37.409994874785305 193.7832361417469 22.809289776948372 186.41602900041298 30.560011400014993 186.2095212025569 C 38.31073302308161 186.00301340470085 24.123043520956813 194.13724950950018 41.77997643143593 191.4507397935244 M 41.77997643143593 191.4507397935244 C 61.21594950288413 196.69264391546926 46.35447924375242 185.78804238002198 55.00915478878868 186.9995409902433 C 63.66383033382493 188.21103960046463 46.379362854250545 194.6157891550898 66.50762084582523 194.9121643941568 M 66.50762084582523 194.9121643941568 C 84.15968071779969 194.205894921865 69.32114949871801 200.64769865970572 76.96314364592273 201.29395503397865 C 84.60513779312744 201.94021140825157 71.05911932259161 193.09802685168285 88.34188983783868 196.75861117779374 M 88.34188983783868 196.75861117779374 C 103.52703539941683 199.22626511964114 91.37748126221885 192.09648937584942 98.05164840869045 192.34181708209871 C 104.72581555516206 192.587144788348 92.08560600546551 198.8057033374995 107.41093882775753 197.45954748136313 M 107.41093882775753 197.45954748136313 C 124.5408924785916 199.81813790328212 110.69469657782187 192.13820295082928 118.20075455782295 192.2318290129187 C 125.70681253782402 192.3254550750081 111.67336451287545 199.6576360825574 128.85681877061776 197.72705051590435 M 128.85681877061776 197.72705051590435 C 143.15773247746327 196.23000840954893 131.44212777833584 202.23855428031666 137.68313133470383 202.36372380333216 C 143.92413489107182 202.48889332634766 132.4588692379753 196.01543208437948 146.6882575030977 198.08467772452005 M 146.6882575030977 198.08467772452005 C 164.80052598166822 197.63146538715404 149.18552650760617 192.0274578861471 156.96333072636298 190.85695196120486 C 164.7411349451198 189.68644603626262 151.46714732094222 199.63804697276927 168.91055527097433 194.74037508182795 M 168.91055527097433 194.74037508182795 C 189.04846346079464 192.58769394933356 172.5658286886962 201.08675285601936 181.3565335083685 201.24379296301208 C 190.1472383280408 201.4008330700048 173.97868376992787 192.31848233734598 194.0268547557523 195.1890611018072 M 194.0268547557523 195.1890611018072 C 210.5681332034746 192.0342573190553 197.48793824163735 200.19932034319007 204.78328608434282 199.7310121685743 C 212.0786339270483 199.26270399395852 198.0618226159795 192.83707133268234 214.8707057349108 193.85103774576217 M 214.8707057349108 193.85103774576217 C 232.3536474122234 193.07368691889698 217.68302863817345 199.52024410279296 225.25599932830855 200.12677445230634 C 232.82897001844364 200.7333048018197 219.37141194342038 192.0339206054455 236.5077648495825 195.58398160151464 M 236.5077648495825 195.58398160151464 C 254.0712424208858 196.7672566325935 239.4661256202837 189.947463832472 247.09564615267243 189.5114565920204 C 254.72516668506117 189.0754493515688 240.9920643653622 197.5146976162248 258.30639494212176 194.33824662879582 M 258.30639494212176 194.33824662879582 C 275.8282769921383 195.17162310487183 261.14294069151856 188.6643483587553 268.73570246177593 188.07985534575639 C 276.3284642320333 187.49536233275748 262.8121139574114 196.1736111271557 280 192.66826659165605" stroke-miterlimit="10" stroke-width="0.1"/><path fill="none" stroke="#000000" paint-order="fill stroke markers" d=" M 0 212.2296378268922 C 15.79164971952328 211.21865167350583 2.6424134558965813 217.30527014247036 9.499407974104335 217.7200880151398 C 16.35640249231209 218.13490588780923 4.036801974024269 210.50753532035824 19.59141290916501 213.4148317488049 M 19.59141290916501 213.4148317488049 C 36.86654717282956 211.43890930884407 22.76981457014918 218.8401259563304 30.317806692033336 218.91915890408308 C 37.86579881391749 218.99819185183574 23.927132106742434 211.3034242555538 41.15710468597689 213.64064017095535 M 41.15710468597689 213.64064017095535 C 61.079853578487025 219.78816141776147 46.102301936518096 207.94929171950446 55.01542952658125 209.52469131622425 C 63.928557116644406 211.10009091294404 45.800206281235894 217.08747639481328 66.62318351472877 218.14178187586904 M 66.62318351472877 218.14178187586904 C 85.49592903409165 216.0230022112164 70.08233497971307 224.0746375966706 78.32622118538144 224.17815726909362 C 86.57010739104982 224.28167694151662 71.36355268151728 215.8455399156341 90.17714410235271 218.43755236850623 M 90.17714410235271 218.43755236850623 C 104.28303374678512 213.8456411462568 93.75763707005227 222.43222114918206 100.0812770596212 221.21371498814403 C 106.40491704919013 219.995208827106 93.44250805038124 215.9345088508934 108.24468692969252 214.95610619411192 M 108.24468692969252 214.95610619411192 C 124.17341721104913 217.06521280805603 111.2703596969646 209.99562637539353 118.24553386660752 210.0464637477887 C 125.22070803625043 210.09730112018386 112.21597577737556 216.97806302680715 128.17375598581512 215.1013558295267 M 128.17375598581512 215.1013558295267 C 144.40329063123843 217.62590137935123 131.3808068850882 210.10209718101487 138.50792810810725 210.31569570618572 C 145.6350493311263 210.52929423135657 132.18536853463434 217.25973247905836 148.5369594801553 215.71163733001484 M 148.5369594801553 215.71163733001484 C 166.53277074986457 218.69673164604183 152.1544938625679 210.1954596946842 160.06727148807488 210.51234125475762 C 167.98004911358186 210.82922281483104 152.9680091061383 218.15350611448736 171.1448955530324 216.61701321593893 M 171.1448955530324 216.61701321593893 C 188.43612145634947 219.33606076145747 174.57145198857333 211.29500698149445 182.16639032245322 211.5352229909238 C 189.76132865633312 211.77543900035317 175.41622716969823 218.92426188814994 192.8447193641178 217.3033446714514 M 192.8447193641178 217.3033446714514 C 211.13794976852145 220.01284038350684 196.41456315874896 211.6485101417568 204.44061987129507 211.83065742671278 C 212.46667658384118 212.01280471166876 197.3789954041567 219.70058789501084 215.77630997139238 217.82376548561137 M 215.77630997139238 217.82376548561137 C 234.9753232784975 216.51586520324975 219.01493277890427 223.9830536920779 227.35570237255365 224.45344351775086 C 235.69647196620303 224.9238333434238 220.67686111795572 215.70948264495325 239.60708023896203 219.16773641610556 M 239.60708023896203 219.16773641610556 C 256.11355553396817 215.23467297021864 243.32050146033322 224.05273820236255 250.64276346526825 223.2473056954039 C 257.9650254702033 222.44187318844524 243.561106382651 216.61541441071915 260.52782882449065 216.86650068193796 M 260.52782882449065 216.86650068193796 C 276.00035361214947 214.0775863423979 263.71168488268864 221.57672524669235 270.5269447941169 221.2084827120721 C 277.34220470554516 220.84024017745188 264.31705090684386 214.70885925888976 280 215.81437915445156" stroke-miterlimit="10" stroke-width="0.1"/><path fill="none" stroke="#000000" paint-order="fill stroke markers" d=" M 0 234.31902157960167 C 17.419551255131715 237.799947663649 3.6973176573964404 229.06592074595733 11.388558833363419 229.62742076073215 C 19.0798000093304 230.18892077550697 4.2345663820454655 236.83737620974927 21.974974788477084 235.92330733610117 M 21.974974788477084 235.92330733610117 C 38.4045752194472 233.70696435632394 25.109322144775955 241.03378658160847 32.3060300293357 240.9637250135259 C 39.502737913895444 240.89366344544334 26.06736170305906 233.82706990160833 42.53699731579064 235.72313142729382 M 42.53699731579064 235.72313142729382 C 61.1859024425831 234.2744476786544 45.74178653579489 241.67988472904713 53.85316709995529 242.06000815953743 C 61.9645476641157 242.44013159002773 47.2806786183081 233.6228075120996 65.71237035624895 236.80919837155184 M 65.71237035624895 236.80919837155184 C 83.45111891564092 240.37516669954277 69.4844692849571 231.46294614215165 77.31779003589469 232.0438921917805 C 85.15111078683228 232.62483824140932 70.02256905689076 239.37925918589335 88.09328678749921 238.46904422763424 M 88.09328678749921 238.46904422763424 C 103.93346412794956 238.21753554528232 90.32519829617172 233.1928419922185 97.13511652916215 232.23156716456572 C 103.94503476215257 231.27029233691295 92.25931858568025 239.86543524982994 107.55019602461473 235.7225447200549 M 107.55019602461473 235.7225447200549 C 123.3539263495207 236.39474650286553 110.08231566179988 230.59340187315064 116.92627189775686 230.03199562363565 C 123.77022813371384 229.47058937412066 111.62142994502301 237.35715721631976 127.10435669877755 234.11852686429782 M 127.10435669877755 234.11852686429782 C 142.96569886153625 233.6059141938369 129.59210935971782 239.29005049706603 136.45228974285408 239.9233050016314 C 143.31247012599033 240.55655950619678 131.20538963330267 232.5203350431534 146.70487207916685 235.92782544877034 M 146.70487207916685 235.92782544877034 C 164.8275114529375 233.9290897862296 150.0146857837122 241.63011402941544 157.92898543424252 241.74495463337016 C 165.84328508477284 241.85979523732487 151.26014062345695 233.73222017945008 169.3171567949678 236.25594146006955 M 169.3171567949678 236.25594146006955 C 189.0827547074703 236.31304838113562 172.18708573905786 242.8021394734377 180.69842215946306 243.89104080395475 C 189.20975857986826 244.9799421344718 174.49189227248993 234.44636038596352 193.6352608532684 239.36708811868968 M 193.6352608532684 239.36708811868968 C 212.68903252352115 237.90689980585503 196.9030282316276 245.45607737928208 205.18943232181218 245.85304550369 C 213.47583641199677 246.25001362809792 198.483768368919 237.22638302115575 217.31070111093868 240.50128275985514 M 217.31070111093868 240.50128275985514 C 233.83493570930722 240.60727715755647 219.7608412376322 235.0510658815973 226.8846804552672 234.20695852838725 C 234.00851967290217 233.36285117517718 221.62263990764725 242.05431833448796 237.66452744703864 238.08954746496929 M 237.66452744703864 238.08954746496929 C 254.61490105517018 239.2852577205054 240.53739390505828 232.65764307808874 247.9034777038592 232.26000584003566 C 255.26956150266014 231.86236860198258 241.9873288286543 239.96692155716778 258.7104811578984 236.95344107053194 M 258.7104811578984 236.95344107053194 C 275.98612719616676 237.13014523804534 261.2938315727459 231.2650149131259 268.74516316748145 230.41090653707107 C 276.196494762217 229.55679816101625 263.2124158909058 238.5943310255679 280 234.513131424661" stroke-miterlimit="10" stroke-width="0.1"/><path fill="none" stroke="#000000" paint-order="fill stroke markers" d=" M 0 258.19000882998876 C 18.235272757724704 259.84010412342343 3.2109560001112234 252.3995094607049 11.155001703854499 252.12842043861465 C 19.099047407597773 251.8573314165244 4.616908694164802 260.3048281612924 22.697273439266503 257.41546876687374 M 22.697273439266503 257.41546876687374 C 39.51539391331433 255.33591660260302 25.843158301347653 262.67445099197306 33.19986300670591 262.6842350082744 C 40.556567712064165 262.69401902457577 26.903900132700176 255.3191440032293 43.716429740290096 257.4434230991633 M 43.716429740290096 257.4434230991633 C 60.792618131862575 255.66998839170313 46.79877798537212 262.8325064945161 54.25016716137427 262.9880524570026 C 61.701556337376424 263.1435984194891 48.01880811585888 255.40333817029781 65.00611310029625 257.8878401348389 M 65.00611310029625 257.8878401348389 C 80.84450484694862 255.61546317934955 68.07258734854575 262.7945761575447 75.01763793701465 262.66854256307676 C 81.96268852548356 262.5425089686088 68.93870383814478 255.83152076986607 84.84911478163598 257.5277441506447 M 84.84911478163598 257.5277441506447 C 101.70285771545875 259.436109119775 87.94358254636855 252.23195944494546 95.30641453927615 252.14651511982652 C 102.66924653218375 252.06107079470758 89.08086001333145 259.58258510569317 105.88577761851482 257.28361750744773 M 105.88577761851482 257.28361750744773 C 123.3807060675672 255.48224166865973 109.03856840005236 262.8071235256961 116.67184243096351 262.9731808500902 C 124.30511646187466 263.1392381744843 110.29509344314809 255.19757196969832 127.69513199254668 257.75806700571667 M 127.69513199254668 257.75806700571667 C 145.53321952994798 259.87155522973376 131.00131396826484 252.16667094531718 138.79921642720785 252.1165842359568 C 146.59711888615087 252.0664975265964 132.16538674318852 259.9574181600659 149.97485330381247 257.6149621218298 M 149.97485330381247 257.6149621218298 C 167.07162285739648 259.156079340332 152.98336608776393 252.18511701681004 160.43111159184255 251.92838761189492 C 167.87885709592118 251.6716582069798 154.30405913611887 259.59618689161505 171.25412617260852 256.88144953635805 M 171.25412617260852 256.88144953635805 C 189.6804617377144 261.5424365317427 175.48891706905894 251.46780587184082 183.67739168916373 252.4834283548085 C 191.8658663092685 253.49905083777617 175.64307667467762 259.8013694180838 194.64976794433647 259.78322805912285 M 194.64976794433647 259.78322805912285 C 209.73094270776937 257.09533508550413 197.74301193180443 264.3787707385756 204.38425068232422 264.0329724064324 C 211.025489432844 263.6871740742892 198.34596199259258 257.68813222632104 213.62473580296447 258.79523282442796 M 213.62473580296447 258.79523282442796 C 231.9445571843235 256.24090996698214 217.1471395653952 264.4815419406354 225.1762953912277 264.3676701687319 C 233.20545121706022 264.25379839682836 218.1802900543249 256.43611871881666 236.5651810196288 258.4698849047037 M 236.5651810196288 258.4698849047037 C 253.9873380092549 256.05328154039665 239.91083430784496 263.8794024941813 247.5458882691466 263.77652026745966 C 255.1809422304482 263.673638040738 240.89867407559495 256.2296510719194 258.379620909062 258.17593568549904 M 258.379620909062 258.17593568549904 C 275.49720718161404 254.58416177481857 262.06947027319853 263.3129549579361 269.63660295502683 262.6874454572419 C 277.20373563685513 262.0619359565477 262.5249797270513 255.65646377600856 280 256.3887656835157" stroke-miterlimit="10" stroke-width="0.1"/><path fill="none" stroke="#000000" paint-order="fill stroke markers" d="" stroke-miterlimit="10" stroke-width="0.1"/></g></g></svg>